<svg width="32" height="27" viewBox="0 0 32 27" fill="none" xmlns="http://www.w3.org/2000/svg">
<path fill-rule="evenodd" clip-rule="evenodd" d="M0 7.03543C0 3.18504 3.05491 0 6.90605 0H25.0954C28.9436 0 32 3.18504 32 7.03543C32 10.5528 29.4555 13.5053 26.0866 13.9999L25.7594 11.8114C27.9957 11.4831 29.7674 9.49453 29.7674 7.03543C29.7674 4.33712 27.6413 2.2124 25.0954 2.2124H6.90605C4.35718 2.2124 2.23256 4.33712 2.23256 7.03543C2.23256 9.49478 4.00305 11.483 6.24055 11.8114L5.9135 13.9999C2.54281 13.5053 0 10.5525 0 7.03543Z" fill="black"/>
<path fill-rule="evenodd" clip-rule="evenodd" d="M16 4.0001C16.6025 4.0001 17.0909 4.51366 17.0909 5.14716V12.7525L18.0809 11.5383C18.473 11.0574 19.1617 11.0017 19.6191 11.414C20.0765 11.8263 20.1294 12.5505 19.7373 13.0314L16.8282 16.5995C16.621 16.8538 16.3184 17 16 17C15.6816 17 15.379 16.8538 15.1718 16.5995L12.2627 13.0314C11.8706 12.5505 11.9235 11.8263 12.3809 11.414C12.8383 11.0017 13.527 11.0574 13.9192 11.5383L14.9091 12.7525V5.14716C14.9091 4.51366 15.3975 4.0001 16 4.0001Z" fill="black"/>
<path fill-rule="evenodd" clip-rule="evenodd" d="M8.11174 6.32466C7.3977 6.41672 7.09193 6.57579 6.88981 6.76949C6.6877 6.96318 6.5217 7.25621 6.42564 7.9405C6.32506 8.65702 6.32259 9.61769 6.32259 11.0485V19.9516C6.32259 21.3824 6.32506 22.3431 6.42564 23.0596C6.5217 23.7439 6.6877 24.0369 6.88981 24.2306C7.09193 24.4243 7.3977 24.5834 8.11174 24.6754C8.85942 24.7718 9.86186 24.7742 11.3548 24.7742H20.6452C22.1382 24.7742 23.1406 24.7718 23.8883 24.6754C24.6023 24.5834 24.9081 24.4243 25.1102 24.2306C25.3123 24.0369 25.4783 23.7439 25.5744 23.0596C25.675 22.3431 25.6774 21.3824 25.6774 19.9516V11.0485C25.6774 9.61769 25.675 8.65701 25.5744 7.9405C25.4783 7.25621 25.3123 6.96318 25.1102 6.76949C24.9081 6.57579 24.6023 6.41672 23.8883 6.32466C23.1406 6.22827 22.1382 6.2259 20.6452 6.2259H11.3548C9.86186 6.2259 8.85941 6.22827 8.11174 6.32466ZM11.2743 4.00011H20.7258C22.1172 4.00006 23.2771 4.00003 24.1979 4.11874C25.1701 4.24407 26.0473 4.51976 26.7525 5.19561C27.4578 5.87146 27.7454 6.71211 27.8762 7.64374C28.0001 8.52618 28.0001 9.6378 28 10.9712V20.0289C28.0001 21.3623 28.0001 22.4739 27.8762 23.3564C27.7454 24.288 27.4578 25.1286 26.7525 25.8045C26.0473 26.4803 25.1701 26.756 24.1979 26.8814C23.2771 27.0001 22.1172 27 20.7257 27H11.2743C9.88285 27 8.72289 27.0001 7.80208 26.8814C6.82994 26.756 5.95274 26.4803 5.2475 25.8045C4.54226 25.1286 4.25458 24.288 4.1238 23.3564C3.99993 22.4739 3.99996 21.3623 4.00001 20.0289V10.9712C3.99996 9.63779 3.99993 8.52617 4.1238 7.64374C4.25458 6.71211 4.54226 5.87146 5.2475 5.19561C5.95274 4.51976 6.82994 4.24407 7.80208 4.11874C8.72288 4.00003 9.88284 4.00006 11.2743 4.00011Z" fill="black"/>
<path fill-rule="evenodd" clip-rule="evenodd" d="M4.00001 21.9999C4.00001 21.4476 4.51994 20.9999 5.1613 20.9999H26.8387C27.4801 20.9999 28 21.4476 28 21.9999C28 22.5522 27.4801 22.9999 26.8387 22.9999H5.1613C4.51994 22.9999 4.00001 22.5522 4.00001 21.9999Z" fill="black"/>
</svg>
