<svg width="54" height="54" viewBox="0 0 54 54" fill="none" xmlns="http://www.w3.org/2000/svg">
<g clip-path="url(#clip0_2109_2914)">
<path d="M43.4986 54H10.5063C9.12528 54.0013 7.75755 53.7306 6.48118 53.2033C5.20482 52.676 4.04481 51.9025 3.06739 50.9269C2.08996 49.9513 1.31427 48.7927 0.784595 47.5173C0.25492 46.2419 -0.0183639 44.8747 -0.0196533 43.4937V10.5014C-0.0157477 7.71318 1.09527 5.04066 3.06912 3.07141C5.04297 1.10217 7.71808 -0.0026027 10.5063 4.60456e-06H43.4986C46.2843 0.00130296 48.9556 1.1078 50.9263 3.07662C52.8969 5.04545 54.0059 7.71573 54.0098 10.5014V43.4937C54.0072 46.2802 52.8988 48.9518 50.928 50.9216C48.9572 52.8915 46.2851 53.9987 43.4986 54ZM10.5063 4.61216C8.94305 4.61216 7.44386 5.23314 6.33849 6.3385C5.23313 7.44387 4.61215 8.94306 4.61215 10.5063V43.4986C4.61215 45.0619 5.23313 46.5611 6.33849 47.6664C7.44386 48.7718 8.94305 49.3928 10.5063 49.3928H43.4986C45.0619 49.3928 46.561 48.7718 47.6664 47.6664C48.7718 46.5611 49.3928 45.0619 49.3928 43.4986V10.5014C49.3928 8.93815 48.7718 7.43895 47.6664 6.33359C46.561 5.22823 45.0619 4.60724 43.4986 4.60724L10.5063 4.61216Z" fill="#2280FE"/>
<path d="M39.8197 46.3966C39.1685 46.3985 38.5282 46.2291 37.9631 45.9054L32.1672 42.5949H16.4004C15.0647 42.5936 13.7842 42.062 12.8401 41.1171C11.8961 40.1722 11.3658 38.8911 11.3658 37.5554V16.4348C11.3652 15.773 11.4949 15.1175 11.7476 14.5059C12.0002 13.8942 12.3709 13.3383 12.8384 12.8699C13.3059 12.4015 13.8611 12.0297 14.4723 11.7759C15.0834 11.522 15.7386 11.391 16.4004 11.3904H32.1672L37.9631 8.08477C38.5321 7.7597 39.1764 7.58972 39.8317 7.59182C40.487 7.59391 41.1302 7.76801 41.6971 8.0967C42.264 8.4254 42.7347 8.89717 43.062 9.46484C43.3894 10.0325 43.562 10.6762 43.5625 11.3314V42.6636C43.5599 43.6564 43.1651 44.6079 42.464 45.3108C41.7629 46.0137 40.8125 46.411 39.8197 46.4162V46.3966ZM16.4004 16.0075C16.2892 16.0074 16.1825 16.0513 16.1034 16.1294C16.0244 16.2076 15.9793 16.3138 15.978 16.425V37.5554C15.9793 37.667 16.0242 37.7737 16.1031 37.8527C16.1821 37.9316 16.2888 37.9765 16.4004 37.9778H32.7812C33.1821 37.9775 33.5763 38.0807 33.9256 38.2774L38.9503 41.1508V12.8344L33.9256 15.7029C33.5776 15.9035 33.1828 16.0086 32.7812 16.0075H16.4004Z" fill="#2280FE"/>
<path d="M24.9666 34C24.175 34.001 23.4118 33.7083 22.8272 33.1795L17.9503 28.773C17.3638 28.2024 17.0235 27.4285 17.0012 26.6144C16.9788 25.8002 17.2761 25.0092 17.8305 24.4078C18.3848 23.8064 19.153 23.4415 19.9734 23.3899C20.7938 23.3383 21.6024 23.604 22.2291 24.1311L24.8746 26.5242L30.503 21.001C30.7945 20.691 31.1463 20.4425 31.5372 20.2706C31.9281 20.0987 32.35 20.0067 32.7776 20.0004C33.2053 19.994 33.6298 20.0733 34.0257 20.2335C34.4216 20.3937 34.7808 20.6315 35.0817 20.9327C35.3825 21.2338 35.6189 21.5921 35.7765 21.986C35.9341 22.3799 36.0098 22.8013 35.999 23.2249C35.9882 23.6485 35.8911 24.0655 35.7135 24.451C35.536 24.8365 35.2817 25.1825 34.9658 25.4682L27.198 33.0655C26.6086 33.6577 25.806 33.9938 24.9666 34Z" fill="#F9C22B"/>
</g>
<defs>
<clipPath id="clip0_2109_2914">
<rect width="54" height="54" fill="white"/>
</clipPath>
</defs>
</svg>
