<svg width="59" height="57" viewBox="0 0 59 57" fill="none" xmlns="http://www.w3.org/2000/svg">
<path d="M5.92191 14.6728C4.5959 14.6728 3.31441 14.648 2.02913 14.6795C0.703118 14.7129 0.144298 13.9166 0.731531 12.7313C2.67698 8.79396 4.63947 4.86424 6.57924 0.92307C6.90885 0.255561 7.37674 0.0276539 8.12025 0.0295611C12.803 0.0448184 17.4857 0.00286075 22.1684 0C24.9805 0 27.7935 0.0457721 30.6056 0.0495865C37.0847 0.0572151 43.5639 0.0572151 50.043 0.0495865C50.3651 0.0495865 50.689 0.0371899 51.0101 0.0114431C51.602 -0.034329 52.0519 0.18881 52.3153 0.723771C54.3308 4.78509 56.3482 8.84259 58.3457 12.9144C58.8288 13.9004 58.2311 14.7081 57.1201 14.6919C55.7884 14.6728 54.4558 14.6919 53.0824 14.6919V47.4761C53.6583 47.5715 54.2332 47.6125 54.7873 47.7536C55.9598 48.0514 57.0037 48.7264 57.7604 49.6759C58.5172 50.6254 58.9455 51.7976 58.9803 53.0145C59.0097 53.9195 59.0012 54.8264 58.987 55.7323C58.9728 56.5628 58.574 56.9576 57.7557 56.9958C57.5662 57.0053 57.3863 56.9958 57.2016 56.9958C38.7423 56.9958 20.2826 56.9958 1.82265 56.9958C1.56976 56.9958 1.31403 57.0005 1.06493 56.9776C0.444546 56.9204 0.0637899 56.5457 0.0448469 55.9468C0.00790805 54.8101 -0.0498658 53.6582 0.0827352 52.5358C0.412344 49.7638 2.46197 47.8442 5.23618 47.5772L5.93234 47.5085L5.92191 14.6728ZM8.23296 47.4685H50.76V14.7262H8.23296V47.4685ZM2.14752 54.7043H56.7271C56.7271 54.0902 56.7754 53.5104 56.7186 52.9411C56.5291 51.0854 55.2031 49.8706 53.3457 49.8277C52.7007 49.8124 52.0538 49.842 51.4088 49.842H7.59648C6.88138 49.842 6.16534 49.8029 5.45213 49.842C4.04751 49.9106 2.99996 50.6268 2.54343 51.9399C2.24887 52.7742 2.27349 53.7335 2.14657 54.7043H2.14752ZM28.3353 12.3566V2.30672C26.7176 2.30672 25.151 2.29146 23.5863 2.32961C23.4272 2.32961 23.1714 2.63666 23.1364 2.8331C22.7509 4.97771 22.3967 7.129 22.0424 9.27933C21.8748 10.293 21.7242 11.3095 21.5603 12.3566H28.3353ZM37.3891 12.3566C37.4022 12.2836 37.4086 12.2095 37.408 12.1353C36.8947 8.97609 36.3861 5.81687 35.8452 2.66336C35.8206 2.51842 35.5043 2.33151 35.3177 2.32389C34.4188 2.2886 33.5181 2.30768 32.6192 2.30768H30.6729V12.3546L37.3891 12.3566ZM20.9248 2.30577C19.398 2.30577 17.9488 2.32961 16.5006 2.29337C15.9844 2.28002 15.7429 2.41543 15.5772 2.94086C14.6423 5.87504 13.6601 8.79396 12.6959 11.7138C12.6325 11.9046 12.5851 12.1067 12.5169 12.3508H19.2587L20.9248 2.30577ZM39.7371 12.3422H46.5121C45.3954 8.96179 44.3005 5.64808 43.2074 2.33819H38.0843C38.6365 5.69195 39.1849 9.0047 39.7371 12.3422ZM55.4124 12.3852C55.4039 12.2507 55.421 12.1735 55.3925 12.1172C53.826 8.94176 52.2534 5.76951 50.6748 2.60043C50.6326 2.5252 50.5742 2.46044 50.5039 2.41094C50.4336 2.36143 50.3531 2.32842 50.2685 2.31435C48.7312 2.29432 47.1931 2.30195 45.6587 2.30195C45.6463 2.36857 45.6421 2.43647 45.6464 2.50411C46.6844 5.67319 47.7263 8.84068 48.772 12.0066C48.8231 12.1611 49.0409 12.3642 49.183 12.3651C51.2582 12.3947 53.3287 12.3871 55.4124 12.3871V12.3852ZM13.4366 2.30577C11.8918 2.30577 10.4862 2.32675 9.07972 2.29433C8.62319 2.28384 8.3864 2.42306 8.18276 2.83882C6.73173 5.81305 5.25323 8.77393 3.78704 11.7405C3.69232 11.9208 3.62886 12.1124 3.51426 12.3871C5.66903 12.3871 7.73855 12.3985 9.80808 12.3661C9.96436 12.3661 10.1869 12.08 10.257 11.8817C10.7439 10.4818 11.1975 9.06954 11.6626 7.66205C12.2441 5.90746 12.8257 4.15286 13.4366 2.30577Z" fill="#0058FF"/>
<path d="M29.4386 44.9972C27.6258 44.9972 25.8129 44.9972 24.0073 44.9972C22.8099 44.9972 22.3603 44.5132 22.3965 43.2491C22.469 40.658 22.8253 38.1118 23.642 35.6591C24.2493 33.8346 24.2484 32.0951 23.3546 30.3471C22.7074 29.0821 22.1908 27.7426 21.6324 26.4327C21.21 25.4494 20.9073 24.4354 21.026 23.3327C21.1166 22.5031 21.4983 21.9007 22.2624 21.598C22.9875 21.3116 23.7063 21.0252 24.426 20.7388C25.2989 20.3865 25.899 19.7755 26.1963 18.8102C26.5498 17.6589 27.3248 17.0669 28.4624 17.0249C29.1685 16.9982 29.8773 16.9858 30.5816 17.0249C31.6766 17.0927 32.4734 17.6474 32.8006 18.7845C33.0888 19.785 33.7233 20.3941 34.6207 20.7493C35.1365 20.9536 35.645 21.1827 36.1725 21.3469C37.9256 21.8949 38.2201 23.0358 37.8712 24.8297C37.7488 25.4599 37.5086 26.0709 37.2584 26.6628C36.6892 28.0223 36.1208 29.3857 35.4818 30.7089C34.7739 32.1725 34.7349 33.6638 35.2162 35.1703C36.0031 37.5903 36.4608 40.1154 36.5759 42.6706C36.5868 42.9255 36.6058 43.1813 36.6049 43.4343C36.6003 44.4616 36.1263 44.9829 35.1419 44.9905C33.2366 45.0068 31.3376 44.9972 29.4386 44.9972ZM29.4296 32.1085H31.615C32.7652 32.1085 32.7616 32.1085 33.1269 30.9352C33.2146 30.6722 33.3163 30.4147 33.4315 30.1638C34.0823 28.6648 34.7458 27.1717 35.3866 25.668C35.5688 25.2203 35.7244 24.7612 35.8525 24.2932C35.9804 23.854 35.8661 23.5485 35.3993 23.4005C34.8555 23.2277 34.317 23.0043 33.7859 22.779C32.4117 22.1947 31.3702 21.2448 30.9043 19.7239C30.6659 18.942 30.0641 19.2284 29.6299 19.2628C29.1087 19.3038 28.3853 18.8284 28.0953 19.7296C27.6067 21.2476 26.5815 22.2014 25.2083 22.7847C24.6971 23.0015 24.1876 23.2373 23.6583 23.3853C23.0682 23.5495 23.0066 23.9237 23.1715 24.4354C23.3202 24.8966 23.4779 25.3548 23.6565 25.8036C24.4532 27.8085 25.2509 29.8191 26.0758 31.8183C26.1374 31.9672 26.4066 32.099 26.5824 32.1047C27.5306 32.12 28.4805 32.1047 29.4296 32.1056V32.1085ZM34.4911 42.745C34.4004 41.817 34.3914 40.9311 34.2146 40.0814C33.8384 38.2674 33.3852 36.4773 32.9284 34.6863C32.8867 34.523 32.5912 34.3254 32.4117 34.3235C30.4695 34.2967 28.5264 34.2967 26.5824 34.3235C26.4012 34.3235 26.1129 34.5144 26.0631 34.6843C25.7313 35.789 25.3914 36.8983 25.1684 38.0316C24.8666 39.5639 24.6671 41.1182 24.4115 42.746L34.4911 42.745Z" fill="#FFBB00"/>
</svg>
