<svg width="54" height="54" viewBox="0 0 54 54" fill="none" xmlns="http://www.w3.org/2000/svg">
<g clip-path="url(#clip0_2046_3320)">
<path d="M39.5005 40.0849H14.4996C13.3272 40.0849 12.2028 39.6192 11.3737 38.7901C10.5447 37.9611 10.079 36.8367 10.079 35.6643V29.338C10.079 28.1655 10.5447 27.0411 11.3737 26.2121C12.2028 25.3831 13.3272 24.9174 14.4996 24.9174H16.2825C16.8948 24.9174 17.482 25.1606 17.9149 25.5935C18.3479 26.0264 18.5911 26.6136 18.5911 27.2259C18.5911 27.8382 18.3479 28.4253 17.9149 28.8583C17.482 29.2912 16.8948 29.5344 16.2825 29.5344H14.7206V35.4285H39.2794V29.5344H37.7175C37.1052 29.5344 36.5181 29.2912 36.0851 28.8583C35.6522 28.4253 35.409 27.8382 35.409 27.2259C35.409 26.6136 35.6522 26.0264 36.0851 25.5935C36.5181 25.1606 37.1052 24.9174 37.7175 24.9174H39.5005C40.6686 24.9238 41.7867 25.3925 42.6105 26.2208C43.4342 27.0491 43.8965 28.1698 43.8965 29.338V35.6889C43.8901 36.8528 43.4248 37.9672 42.6018 38.7902C41.7788 39.6132 40.6644 40.0785 39.5005 40.0849Z" fill="#F9C22B"/>
<path d="M32.678 23.773C32.2269 23.3655 31.633 23.1528 31.0258 23.1814C30.4186 23.2099 29.8472 23.4773 29.4363 23.9253V18.4634C29.4363 17.2566 28.9572 16.0992 28.1044 15.2455C27.2516 14.3917 26.0947 13.9115 24.888 13.9102H17.5203C16.9081 13.9102 16.3209 14.1534 15.8879 14.5863C15.455 15.0192 15.2118 15.6064 15.2118 16.2187C15.2118 16.8309 15.455 17.4181 15.8879 17.8511C16.3209 18.284 16.9081 18.5272 17.5203 18.5272H24.8241V23.9302C24.62 23.706 24.3737 23.5243 24.0993 23.3953C23.8249 23.2664 23.5278 23.1927 23.225 23.1786C22.6133 23.15 22.0154 23.3656 21.5627 23.7779C21.11 24.1902 20.8397 24.7654 20.8111 25.3771C20.7826 25.9887 20.9981 26.5866 21.4104 27.0393L25.4184 31.4599C25.4291 31.4739 25.4425 31.4855 25.4577 31.4943C25.525 31.5648 25.5973 31.6305 25.6739 31.6908C25.7158 31.7294 25.7601 31.7655 25.8065 31.7988C25.8942 31.8593 25.9861 31.9135 26.0815 31.9609L26.2092 32.0297C26.3236 32.0776 26.4419 32.1154 26.5629 32.1426C26.5933 32.1547 26.6244 32.1645 26.6562 32.1721C26.9688 32.2376 27.2916 32.2376 27.6042 32.1721C27.636 32.1645 27.6671 32.1547 27.6975 32.1426C27.8183 32.1147 27.9365 32.0769 28.0512 32.0297C28.0954 32.0297 28.1347 31.9806 28.1789 31.956C28.2731 31.913 28.3635 31.8621 28.449 31.8037C28.4981 31.7694 28.5423 31.7251 28.5865 31.6908C28.6307 31.6564 28.7339 31.568 28.8027 31.4992L28.842 31.4599L32.845 27.0393C33.0491 26.8141 33.2066 26.5509 33.3087 26.2647C33.4107 25.9785 33.4553 25.6749 33.4397 25.3715C33.4242 25.068 33.3489 24.7706 33.2182 24.4963C33.0875 24.222 32.904 23.9762 32.678 23.773Z" fill="#F9C22B"/>
<path d="M43.4986 54H10.5013C7.71399 54 5.04066 52.8934 3.06879 50.9234C1.09692 48.9534 -0.0121667 46.2811 -0.0147705 43.4937V10.5014C-0.0121695 7.71704 1.09505 5.04749 3.06388 3.07867C5.0327 1.10985 7.70226 0.00261934 10.4866 1.8372e-05H43.4839C44.865 -0.00256387 46.2332 0.267085 47.5101 0.793551C48.787 1.32002 49.9476 2.09298 50.9256 3.06825C51.9036 4.04352 52.6798 5.20198 53.2099 6.4774C53.7399 7.75282 54.0134 9.1202 54.0147 10.5014V43.4937C54.0121 46.2811 52.903 48.9534 50.9311 50.9234C48.9593 52.8934 46.2859 54 43.4986 54ZM10.5013 4.61217C8.93811 4.61217 7.43891 5.23316 6.33355 6.33852C5.22819 7.44388 4.60721 8.94308 4.60721 10.5063V43.4987C4.60721 45.0619 5.22819 46.5611 6.33355 47.6664C7.43891 48.7718 8.93811 49.3928 10.5013 49.3928H43.4986C45.0618 49.3928 46.561 48.7718 47.6664 47.6664C48.7717 46.5611 49.3927 45.0619 49.3927 43.4987V10.5014C49.3927 8.93816 48.7717 7.43897 47.6664 6.33361C46.561 5.22824 45.0618 4.60726 43.4986 4.60726L10.5013 4.61217Z" fill="#2280FE"/>
</g>
<defs>
<clipPath id="clip0_2046_3320">
<rect width="54" height="54" fill="white"/>
</clipPath>
</defs>
</svg>
