<svg width="59" height="59" viewBox="0 0 59 59" fill="none" xmlns="http://www.w3.org/2000/svg">
<path fill-rule="evenodd" clip-rule="evenodd" d="M4.09717 51.6249C4.09717 49.8147 5.56468 48.3472 7.37495 48.3472H51.6249C53.4352 48.3472 54.9027 49.8147 54.9027 51.6249C54.9027 53.4352 53.4352 54.9027 51.6249 54.9027H7.37495C5.56468 54.9027 4.09717 53.4352 4.09717 51.6249Z" fill="#F9C22B"/>
<path fill-rule="evenodd" clip-rule="evenodd" d="M39.4738 5.05721C40.7538 3.77715 42.8292 3.77715 44.1093 5.05721L53.9426 14.8905C55.2227 16.1706 55.2227 18.246 53.9426 19.526L29.3593 44.1093C28.7446 44.7241 27.9109 45.0694 27.0415 45.0694H17.2082C15.3979 45.0694 13.9304 43.6019 13.9304 41.7916V31.9583C13.9304 31.089 14.2758 30.2552 14.8905 29.6405L39.4738 5.05721ZM20.486 33.316V38.5138H25.6838L46.9894 17.2083L41.7915 12.0104L20.486 33.316Z" fill="#2280FE"/>
<path fill-rule="evenodd" clip-rule="evenodd" d="M35.4705 9.06075C36.7506 7.78069 38.826 7.78069 40.106 9.06075L49.9393 18.8941C51.2194 20.1741 51.2194 22.2495 49.9393 23.5296C48.6593 24.8096 46.5839 24.8096 45.3039 23.5296L35.4705 13.6962C34.1905 12.4162 34.1905 10.3408 35.4705 9.06075Z" fill="#2280FE"/>
<path d="M34.4167 14.75L44.2501 24.5833L51.6251 17.2083L41.7917 7.375L34.4167 14.75Z" fill="#2280FE"/>
</svg>
