<svg width="61" height="54" viewBox="0 0 61 54" fill="none" xmlns="http://www.w3.org/2000/svg">
<g clip-path="url(#clip0_2046_3274)">
<path d="M43.5447 54H10.5174C7.72966 53.9974 5.05678 52.8903 3.08508 50.9217C1.11339 48.953 0.00390501 46.2834 0 43.4986V10.5063C0.00260373 7.72064 1.11153 5.04984 3.08336 3.08009C5.05519 1.11035 7.72881 0.00260097 10.5174 0H43.5447C46.3325 0.00390088 49.0048 1.11223 50.9756 3.08183C52.9464 5.05144 54.0546 7.72149 54.0572 10.5063C54.0716 10.8181 54.0226 11.1295 53.9131 11.4219C53.8036 11.7142 53.6359 11.9813 53.4201 12.207C53.2043 12.4328 52.9449 12.6124 52.6576 12.7352C52.3704 12.858 52.0612 12.9213 51.7487 12.9213C51.4363 12.9213 51.127 12.858 50.8398 12.7352C50.5525 12.6124 50.2931 12.4328 50.0773 12.207C49.8616 11.9813 49.6938 11.7142 49.5843 11.4219C49.4748 11.1295 49.4258 10.8181 49.4402 10.5063C49.4402 8.94306 48.8185 7.44387 47.712 6.3385C46.6055 5.23314 45.1047 4.61216 43.5398 4.61216H10.5174C8.95253 4.61216 7.45176 5.23314 6.34522 6.3385C5.23869 7.44387 4.61703 8.94306 4.61703 10.5063V43.4986C4.61703 45.0619 5.23869 46.5611 6.34522 47.6664C7.45176 48.7718 8.95253 49.3928 10.5174 49.3928H43.5447C45.1096 49.3928 46.6104 48.7718 47.7169 47.6664C48.8235 46.5611 49.4451 45.0619 49.4451 43.4986C49.4307 43.1868 49.4797 42.8754 49.5892 42.5831C49.6988 42.2907 49.8665 42.0236 50.0823 41.7979C50.2981 41.5722 50.5574 41.3925 50.8447 41.2697C51.132 41.1469 51.4412 41.0837 51.7536 41.0837C52.0661 41.0837 52.3753 41.1469 52.6626 41.2697C52.9498 41.3925 53.2092 41.5722 53.425 41.7979C53.6408 42.0236 53.8085 42.2907 53.918 42.5831C54.0275 42.8754 54.0765 43.1868 54.0621 43.4986C54.0595 46.2838 52.9505 48.9541 50.9785 50.9231C49.0065 52.892 46.3329 53.9987 43.5447 54Z" fill="#2280FE"/>
<path d="M27.2007 26.4842C28.6471 25.5782 29.7593 24.2267 30.3692 22.6338C30.9792 21.0409 31.0538 19.293 30.582 17.654C30.1101 16.015 29.1173 14.5738 27.7534 13.5479C26.3895 12.5221 24.7286 11.9673 23.0213 11.9673C21.314 11.9673 19.6531 12.5221 18.2892 13.5479C16.9253 14.5738 15.9325 16.015 15.4606 17.654C14.9887 19.293 15.0634 21.0409 15.6733 22.6338C16.2833 24.2267 17.3954 25.5782 18.8419 26.4842C16.8377 27.3083 15.1232 28.7076 13.9154 30.5052C12.7076 32.3028 12.0606 34.4179 12.0564 36.5828V38.4591C12.0518 38.728 12.101 38.995 12.2012 39.2445C12.3013 39.4941 12.4503 39.7211 12.6395 39.9124C12.8286 40.1036 13.0541 40.2552 13.3027 40.3582C13.5513 40.4612 13.818 40.5136 14.0871 40.5123H31.9702C32.5044 40.511 33.0165 40.2984 33.3942 39.921C33.772 39.5436 33.9848 39.0321 33.9861 38.4984V36.5828C33.9819 34.4179 33.335 32.3028 32.1272 30.5052C30.9193 28.7076 29.2049 27.3083 27.2007 26.4842Z" fill="#F9C22B"/>
<path d="M58.6939 24.6914H45.7672L49.7991 21.0911C50.0407 20.8938 50.2398 20.6496 50.3843 20.3733C50.5289 20.097 50.6159 19.7943 50.6402 19.4835C50.6644 19.1727 50.6255 18.8602 50.5255 18.5649C50.4256 18.2696 50.2669 17.9975 50.0588 17.7651C49.8508 17.5327 49.5978 17.3449 49.3151 17.2128C49.0324 17.0808 48.7259 17.0073 48.414 16.9968C48.1021 16.9863 47.7913 17.039 47.5003 17.1518C47.2094 17.2645 46.9443 17.435 46.7211 17.6529L38.1803 25.2858C37.9398 25.5031 37.7476 25.7684 37.6161 26.0645C37.4845 26.3606 37.4166 26.6809 37.4166 27.0049C37.4166 27.3288 37.4845 27.6492 37.6161 27.9453C37.7476 28.2414 37.9398 28.5067 38.1803 28.724L46.7309 36.352C46.9541 36.5699 47.2192 36.7403 47.5102 36.8531C47.8011 36.9658 48.1119 37.0185 48.4238 37.0081C48.7357 36.9976 49.0422 36.9241 49.3249 36.792C49.6076 36.66 49.8606 36.4721 50.0687 36.2397C50.2767 36.0073 50.4355 35.7353 50.5354 35.4399C50.6353 35.1446 50.6743 34.8321 50.65 34.5213C50.6257 34.2105 50.5387 33.9078 50.3942 33.6316C50.2496 33.3553 50.0505 33.1111 49.809 32.9137L45.777 29.3134H58.7038C59.3167 29.3134 59.9045 29.0702 60.3379 28.6373C60.7713 28.2043 61.0147 27.6171 61.0147 27.0049C61.0147 26.3926 60.7713 25.8054 60.3379 25.3725C59.9045 24.9396 59.3167 24.6963 58.7038 24.6963L58.6939 24.6914Z" fill="#F9C22B"/>
</g>
<defs>
<clipPath id="clip0_2046_3274">
<rect width="61" height="54" fill="white"/>
</clipPath>
</defs>
</svg>
