<svg width="293" height="26" viewBox="0 0 293 26" fill="none" xmlns="http://www.w3.org/2000/svg">
<path d="M0.51 25L11.325 0.499998H18.15L29 25H21.79L13.32 3.895H16.05L7.58 25H0.51ZM6.425 20.24L8.21 15.13H20.18L21.965 20.24H6.425ZM43.1879 25.49C41.2512 25.49 39.4545 25.1867 37.7979 24.58C36.1645 23.95 34.7412 23.0633 33.5279 21.92C32.3379 20.7767 31.4045 19.435 30.7279 17.895C30.0512 16.3317 29.7129 14.6167 29.7129 12.75C29.7129 10.8833 30.0512 9.18 30.7279 7.64C31.4045 6.07667 32.3379 4.72333 33.5279 3.58C34.7412 2.43667 36.1645 1.56167 37.7979 0.954999C39.4545 0.324998 41.2512 0.00999838 43.1879 0.00999838C45.4512 0.00999838 47.4695 0.406666 49.2429 1.2C51.0395 1.99333 52.5329 3.13667 53.7229 4.63L49.3129 8.62C48.5195 7.68667 47.6445 6.975 46.6879 6.485C45.7545 5.995 44.7045 5.75 43.5379 5.75C42.5345 5.75 41.6129 5.91333 40.7729 6.24C39.9329 6.56667 39.2095 7.045 38.6029 7.675C38.0195 8.28167 37.5529 9.01667 37.2029 9.88C36.8762 10.7433 36.7129 11.7 36.7129 12.75C36.7129 13.8 36.8762 14.7567 37.2029 15.62C37.5529 16.4833 38.0195 17.23 38.6029 17.86C39.2095 18.4667 39.9329 18.9333 40.7729 19.26C41.6129 19.5867 42.5345 19.75 43.5379 19.75C44.7045 19.75 45.7545 19.505 46.6879 19.015C47.6445 18.525 48.5195 17.8133 49.3129 16.88L53.7229 20.87C52.5329 22.34 51.0395 23.4833 49.2429 24.3C47.4695 25.0933 45.4512 25.49 43.1879 25.49ZM53.8125 25L64.6275 0.499998H71.4525L82.3025 25H75.0925L66.6225 3.895H69.3525L60.8825 25H53.8125ZM59.7275 20.24L61.5125 15.13H73.4825L75.2675 20.24H59.7275ZM84.6172 25V0.499998H96.2022C98.9089 0.499998 101.289 1.00167 103.342 2.005C105.396 3.00833 106.994 4.42 108.137 6.24C109.304 8.06 109.887 10.23 109.887 12.75C109.887 15.2467 109.304 17.4167 108.137 19.26C106.994 21.08 105.396 22.4917 103.342 23.495C101.289 24.4983 98.9089 25 96.2022 25H84.6172ZM91.5472 19.47H95.9222C97.3222 19.47 98.5355 19.2133 99.5622 18.7C100.612 18.1633 101.429 17.3933 102.012 16.39C102.596 15.3633 102.887 14.15 102.887 12.75C102.887 11.3267 102.596 10.1133 102.012 9.11C101.429 8.10667 100.612 7.34833 99.5622 6.835C98.5355 6.29833 97.3222 6.03 95.9222 6.03H91.5472V19.47ZM120.253 9.985H131.628V15.165H120.253V9.985ZM120.743 19.645H133.553V25H113.883V0.499998H133.098V5.855H120.743V19.645ZM137.749 25V0.499998H143.454L153.604 17.16H150.594L160.464 0.499998H166.169L166.239 25H159.869L159.799 10.195H160.884L153.499 22.585H150.419L142.824 10.195H144.154V25H137.749ZM171.492 25V0.499998H178.422V25H171.492ZM195.918 25.49C193.981 25.49 192.184 25.1867 190.528 24.58C188.894 23.95 187.471 23.0633 186.258 21.92C185.068 20.7767 184.134 19.435 183.458 17.895C182.781 16.3317 182.443 14.6167 182.443 12.75C182.443 10.8833 182.781 9.18 183.458 7.64C184.134 6.07667 185.068 4.72333 186.258 3.58C187.471 2.43667 188.894 1.56167 190.528 0.954999C192.184 0.324998 193.981 0.00999838 195.918 0.00999838C198.181 0.00999838 200.199 0.406666 201.973 1.2C203.769 1.99333 205.263 3.13667 206.453 4.63L202.043 8.62C201.249 7.68667 200.374 6.975 199.418 6.485C198.484 5.995 197.434 5.75 196.268 5.75C195.264 5.75 194.343 5.91333 193.503 6.24C192.663 6.56667 191.939 7.045 191.333 7.675C190.749 8.28167 190.283 9.01667 189.933 9.88C189.606 10.7433 189.443 11.7 189.443 12.75C189.443 13.8 189.606 14.7567 189.933 15.62C190.283 16.4833 190.749 17.23 191.333 17.86C191.939 18.4667 192.663 18.9333 193.503 19.26C194.343 19.5867 195.264 19.75 196.268 19.75C197.434 19.75 198.484 19.505 199.418 19.015C200.374 18.525 201.249 17.8133 202.043 16.88L206.453 20.87C205.263 22.34 203.769 23.4833 201.973 24.3C200.199 25.0933 198.181 25.49 195.918 25.49Z" fill="#623CE7"/>
<path d="M214.107 25V0.499998H225.307C227.547 0.499998 229.472 0.861665 231.082 1.585C232.715 2.30833 233.975 3.35833 234.862 4.735C235.748 6.08833 236.192 7.69833 236.192 9.565C236.192 11.4083 235.748 13.0067 234.862 14.36C233.975 15.7133 232.715 16.7633 231.082 17.51C229.472 18.2333 227.547 18.595 225.307 18.595H217.957L221.037 15.585V25H214.107ZM221.037 16.32L217.957 13.135H224.887C226.333 13.135 227.407 12.82 228.107 12.19C228.83 11.56 229.192 10.685 229.192 9.565C229.192 8.42167 228.83 7.535 228.107 6.905C227.407 6.275 226.333 5.96 224.887 5.96H217.957L221.037 2.775V16.32ZM239.921 25V0.499998H251.121C253.361 0.499998 255.286 0.861665 256.896 1.585C258.529 2.30833 259.789 3.35833 260.676 4.735C261.562 6.08833 262.006 7.69833 262.006 9.565C262.006 11.4083 261.562 13.0067 260.676 14.36C259.789 15.69 258.529 16.7167 256.896 17.44C255.286 18.14 253.361 18.49 251.121 18.49H243.771L246.851 15.585V25H239.921ZM255.076 25L248.986 16.075H256.371L262.496 25H255.076ZM246.851 16.32L243.771 13.135H250.701C252.147 13.135 253.221 12.82 253.921 12.19C254.644 11.56 255.006 10.685 255.006 9.565C255.006 8.42167 254.644 7.535 253.921 6.905C253.221 6.275 252.147 5.96 250.701 5.96H243.771L246.851 2.775V16.32ZM278.534 25.49C276.574 25.49 274.766 25.175 273.109 24.545C271.452 23.915 270.006 23.0283 268.769 21.885C267.556 20.7183 266.611 19.365 265.934 17.825C265.257 16.285 264.919 14.5933 264.919 12.75C264.919 10.9067 265.257 9.215 265.934 7.675C266.611 6.135 267.556 4.79333 268.769 3.65C270.006 2.48333 271.452 1.585 273.109 0.954999C274.766 0.324998 276.574 0.00999838 278.534 0.00999838C280.517 0.00999838 282.326 0.324998 283.959 0.954999C285.616 1.585 287.051 2.48333 288.264 3.65C289.477 4.79333 290.422 6.135 291.099 7.675C291.799 9.215 292.149 10.9067 292.149 12.75C292.149 14.5933 291.799 16.2967 291.099 17.86C290.422 19.4 289.477 20.7417 288.264 21.885C287.051 23.0283 285.616 23.915 283.959 24.545C282.326 25.175 280.517 25.49 278.534 25.49ZM278.534 19.75C279.467 19.75 280.331 19.5867 281.124 19.26C281.941 18.9333 282.641 18.4667 283.224 17.86C283.831 17.23 284.297 16.4833 284.624 15.62C284.974 14.7567 285.149 13.8 285.149 12.75C285.149 11.6767 284.974 10.72 284.624 9.88C284.297 9.01667 283.831 8.28167 283.224 7.675C282.641 7.045 281.941 6.56667 281.124 6.24C280.331 5.91333 279.467 5.75 278.534 5.75C277.601 5.75 276.726 5.91333 275.909 6.24C275.116 6.56667 274.416 7.045 273.809 7.675C273.226 8.28167 272.759 9.01667 272.409 9.88C272.082 10.72 271.919 11.6767 271.919 12.75C271.919 13.8 272.082 14.7567 272.409 15.62C272.759 16.4833 273.226 17.23 273.809 17.86C274.416 18.4667 275.116 18.9333 275.909 19.26C276.726 19.5867 277.601 19.75 278.534 19.75Z" fill="#C31F82"/>
</svg>
