<svg width="143" height="170" viewBox="0 0 143 170" fill="none" xmlns="http://www.w3.org/2000/svg">
<g clip-path="url(#clip0_3109_870)">
<path d="M77.071 0.756675L45.2012 12.3894C38.7087 14.7592 35.3612 21.9585 37.7243 28.4695L66.0074 106.398C68.3705 112.909 75.5493 116.266 82.0417 113.897L113.911 102.264C120.404 99.894 123.751 92.6947 121.388 86.1838L93.1053 8.25493C90.7422 1.74396 83.5634 -1.61312 77.071 0.756675Z" fill="#07293E"/>
<path d="M70.3355 11.0029L56.9343 15.8931C56.7571 15.9606 56.5684 15.9924 56.379 15.9866C56.1895 15.9808 56.0031 15.9374 55.8304 15.8591C55.6577 15.7807 55.5022 15.6689 55.3728 15.53C55.2433 15.3911 55.1426 15.228 55.0763 15.0499C54.9422 14.6898 54.9553 14.2911 55.1127 13.9406C55.2701 13.5901 55.5592 13.3161 55.917 13.1782L69.3183 8.28803C69.6763 8.15614 70.0718 8.17062 70.4193 8.32832C70.7668 8.48603 71.0387 8.77435 71.1763 9.13116C71.2438 9.3094 71.2756 9.49926 71.2699 9.68985C71.2642 9.88045 71.2211 10.068 71.143 10.2419C71.0649 10.4158 70.9534 10.5724 70.8148 10.703C70.6763 10.8336 70.5134 10.9355 70.3355 11.0029Z" fill="white"/>
<path d="M89.1478 8.66959L41.193 26.1735L70.2496 106.234L118.204 88.7296L89.1478 8.66959Z" fill="white"/>
<path d="M32.7802 78.2171C32.0823 78.264 31.3821 78.1726 30.7195 77.9479C30.0569 77.7233 29.445 77.3698 28.9187 76.9078C28.3924 76.4458 27.9621 75.8843 27.6524 75.2554C27.3426 74.6265 27.1596 73.9425 27.1136 73.2426L26.1972 59.5755L5.17895 48.5137C4.56012 48.187 4.01151 47.7414 3.56442 47.2021C3.11734 46.6629 2.78054 46.0406 2.57326 45.3708C2.36599 44.701 2.29231 43.9969 2.3564 43.2985C2.42049 42.6002 2.62111 41.9213 2.94681 41.3007C3.27251 40.6801 3.7169 40.1299 4.25463 39.6816C4.79235 39.2332 5.41286 38.8955 6.08074 38.6876C6.74862 38.4797 7.45079 38.4058 8.14715 38.4701C8.84351 38.5344 9.52044 38.7356 10.1393 39.0622L33.7554 51.5152C34.56 51.9403 35.2427 52.5648 35.7386 53.3293C36.2345 54.0937 36.5271 54.9727 36.5887 55.8826L37.6984 72.526C37.7956 73.934 37.3327 75.3233 36.411 76.3899C35.4892 77.4564 34.1837 78.1134 32.7802 78.2171Z" fill="#07293E"/>
<path d="M97.239 148.753L32.4439 153.121C31.0347 153.216 29.6455 152.745 28.582 151.813C27.5186 150.881 26.8679 149.564 26.7731 148.15C26.6784 146.737 27.1473 145.344 28.0767 144.277C29.0062 143.211 30.32 142.558 31.7292 142.463L96.5244 138.079C97.5121 138.016 98.4625 137.678 99.2679 137.101C100.073 136.524 100.701 135.733 101.081 134.816L121.334 80.1309C121.86 78.8503 122.862 77.8243 124.127 77.2693C125.392 76.7142 126.823 76.6734 128.118 77.1554C129.413 77.6374 130.47 78.6047 131.068 79.8533C131.666 81.1019 131.757 82.5344 131.322 83.8491L110.968 138.754C109.847 141.545 107.965 143.964 105.537 145.733C103.109 147.501 100.233 148.548 97.239 148.753Z" fill="#07293E"/>
<path d="M117.223 125.997L41.6414 131.056C40.2464 131.151 38.8463 130.969 37.5212 130.522C36.1961 130.074 34.9719 129.369 33.9187 128.446C32.8654 127.524 32.0037 126.403 31.3828 125.146C30.7619 123.89 30.394 122.523 30.3 121.124L27.0884 73.1751L129.229 66.2867C131.04 66.1644 132.853 66.5084 134.494 67.286C136.136 68.0637 137.552 69.2491 138.608 70.7299C139.664 72.2106 140.326 73.9375 140.529 75.7467C140.733 77.5558 140.472 79.3871 139.772 81.0667L126.32 119.429C125.564 121.265 124.312 122.852 122.704 124.012C121.097 125.173 119.199 125.86 117.223 125.997Z" fill="#F9C22B"/>
<path d="M124.05 85.4005L44.2729 90.7796C43.5853 90.798 42.9173 90.5491 42.4085 90.085C41.8997 89.6209 41.5895 88.9775 41.5428 88.2893C41.4961 87.6011 41.7165 86.9214 42.158 86.3925C42.5994 85.8635 43.2277 85.5262 43.9114 85.451L123.688 80.0719C124.376 80.0535 125.044 80.3023 125.553 80.7665C126.062 81.2306 126.372 81.874 126.419 82.5622C126.465 83.2504 126.245 83.93 125.803 84.459C125.362 84.988 124.734 85.3253 124.05 85.4005Z" fill="#07293E"/>
<path d="M114.331 99.4385L45.1809 104.101C44.8233 104.141 44.4614 104.107 44.117 104.003C43.7726 103.898 43.4528 103.725 43.177 103.494C42.9011 103.262 42.6749 102.977 42.512 102.655C42.349 102.333 42.2527 101.982 42.2289 101.622C42.205 101.262 42.2541 100.901 42.3732 100.56C42.4922 100.22 42.6788 99.9067 42.9217 99.6405C43.1645 99.3743 43.4586 99.1601 43.7862 99.0109C44.1138 98.8617 44.4681 98.7806 44.8278 98.7724L113.978 94.1099C114.336 94.0703 114.698 94.1037 115.042 94.2081C115.386 94.3125 115.706 94.4857 115.982 94.7174C116.258 94.9491 116.484 95.2344 116.647 95.5561C116.81 95.8778 116.906 96.2292 116.93 96.5892C116.954 96.9493 116.905 97.3104 116.786 97.6509C116.667 97.9914 116.48 98.3042 116.237 98.5704C115.994 98.8367 115.7 99.0508 115.373 99.2C115.045 99.3492 114.691 99.4303 114.331 99.4385Z" fill="#07293E"/>
<path d="M104.301 113.485L46.0553 117.414C45.6977 117.454 45.3358 117.42 44.9914 117.316C44.647 117.212 44.3272 117.038 44.0514 116.807C43.7755 116.575 43.5493 116.29 43.3864 115.968C43.2234 115.646 43.1271 115.295 43.1033 114.935C43.0794 114.575 43.1285 114.214 43.2476 113.873C43.3666 113.533 43.5532 113.22 43.796 112.954C44.0389 112.687 44.333 112.473 44.6606 112.324C44.9882 112.175 45.3425 112.094 45.7022 112.086L103.948 108.165C104.652 108.118 105.345 108.353 105.875 108.819C106.406 109.285 106.73 109.942 106.777 110.648C106.824 111.353 106.589 112.049 106.125 112.581C105.661 113.113 105.005 113.438 104.301 113.485Z" fill="#07293E"/>
<path d="M50.2758 158.609C50.4174 160.717 49.9324 162.82 48.8822 164.652C47.832 166.484 46.2638 167.962 44.3758 168.9C42.4879 169.838 40.365 170.193 38.2756 169.921C36.1863 169.649 34.2244 168.761 32.638 167.371C31.0516 165.98 29.912 164.149 29.3633 162.109C28.8146 160.069 28.8815 157.912 29.5554 155.91C30.2294 153.908 31.4802 152.152 33.1496 150.863C34.8191 149.574 36.8322 148.81 38.9343 148.669C40.3301 148.574 41.7308 148.756 43.0564 149.204C44.382 149.652 45.6065 150.358 46.6599 151.281C47.7132 152.204 48.5748 153.327 49.1952 154.584C49.8157 155.842 50.1829 157.209 50.2758 158.609Z" fill="#0058FF"/>
<path d="M44.9623 158.963C45.0331 160.017 44.7909 161.067 44.2662 161.982C43.7416 162.898 42.9581 163.636 42.0149 164.105C41.0717 164.573 40.0111 164.751 38.9673 164.615C37.9234 164.479 36.9432 164.036 36.1506 163.341C35.358 162.647 34.7886 161.732 34.5144 160.713C34.2402 159.693 34.2736 158.616 34.6102 157.615C34.9469 156.615 35.5717 155.738 36.4058 155.094C37.2398 154.45 38.2455 154.068 39.2958 153.997C40.7038 153.903 42.0918 154.372 43.1544 155.304C44.2171 156.235 44.8674 157.551 44.9623 158.963Z" fill="white"/>
<path d="M107.706 154.731C107.854 156.84 107.375 158.946 106.33 160.781C105.284 162.617 103.718 164.101 101.832 165.043C99.9446 165.986 97.8211 166.347 95.7299 166.079C93.6387 165.811 91.6738 164.926 90.0841 163.538C88.4944 162.149 87.3513 160.319 86.7996 158.278C86.2479 156.238 86.3123 154.079 86.9848 152.075C87.6573 150.071 88.9076 148.313 90.5773 147.022C92.2471 145.731 94.2612 144.966 96.3646 144.824C99.1775 144.634 101.951 145.57 104.077 147.427C106.203 149.284 107.508 151.911 107.706 154.731Z" fill="#0058FF"/>
<path d="M102.393 155.093C102.462 156.146 102.218 157.196 101.692 158.111C101.167 159.025 100.382 159.762 99.439 160.229C98.4955 160.697 97.4351 160.873 96.3917 160.736C95.3483 160.599 94.3688 160.155 93.577 159.46C92.7853 158.765 92.2167 157.85 91.9433 156.831C91.6699 155.812 91.7038 154.734 92.0408 153.735C92.3779 152.735 93.0029 151.858 93.8368 151.214C94.6708 150.571 95.6762 150.19 96.7261 150.119C97.4242 150.071 98.1249 150.162 98.788 150.386C99.4511 150.61 100.063 150.963 100.59 151.426C101.116 151.888 101.547 152.45 101.856 153.079C102.165 153.709 102.348 154.393 102.393 155.093Z" fill="white"/>
<path d="M10.6353 90.4256C10.7061 91.4788 10.4638 92.5294 9.93921 93.4445C9.41458 94.3597 8.63111 95.0983 7.68789 95.5669C6.74468 96.0355 5.68407 96.213 4.64023 96.0771C3.59638 95.9412 2.61617 95.4979 1.82357 94.8032C1.03096 94.1086 0.46156 93.1939 0.187376 92.1747C-0.0868087 91.1555 -0.0534579 90.0777 0.283205 89.0776C0.619868 88.0774 1.24473 87.1998 2.07875 86.5558C2.91278 85.9118 3.9185 85.5303 4.96874 85.4595C6.37679 85.3647 7.76477 85.8345 8.82741 86.7658C9.89006 87.6971 10.5404 89.0135 10.6353 90.4256Z" fill="#0058FF"/>
<path d="M142.983 35.268C143.052 36.321 142.809 37.3709 142.283 38.2851C141.757 39.1992 140.973 39.9365 140.03 40.4038C139.086 40.8711 138.026 41.0474 136.982 40.9105C135.939 40.7735 134.959 40.3295 134.168 39.6344C133.376 38.9393 132.807 38.0244 132.534 37.0054C132.26 35.9864 132.294 34.9089 132.631 33.9093C132.968 32.9096 133.593 32.0325 134.427 31.389C135.261 30.7454 136.267 30.3642 137.317 30.2936C138.015 30.2466 138.715 30.3381 139.377 30.5628C140.04 30.7874 140.652 31.1409 141.178 31.6029C141.704 32.0649 142.135 32.6264 142.445 33.2553C142.754 33.8842 142.937 34.5681 142.983 35.268Z" fill="#0058FF"/>
<path d="M31.4182 15.6231C31.4888 16.676 31.2467 17.7262 30.7223 18.6411C30.198 19.556 29.415 20.2944 28.4722 20.7631C27.5295 21.2319 26.4694 21.4098 25.4258 21.2745C24.3823 21.1391 23.4022 20.6966 22.6094 20.0028C21.8165 19.309 21.2466 18.3951 20.9715 17.3766C20.6965 16.3581 20.7287 15.2806 21.0641 14.2804C21.3995 13.2802 22.023 12.4022 22.8558 11.7573C23.6887 11.1124 24.6935 10.7295 25.7432 10.6571C26.4411 10.609 27.1416 10.6993 27.8046 10.9229C28.4677 11.1465 29.0802 11.499 29.6073 11.9602C30.1344 12.4215 30.5656 12.9824 30.8763 13.6109C31.1871 14.2394 31.3712 14.9232 31.4182 15.6231Z" fill="#0058FF"/>
</g>
<defs>
<clipPath id="clip0_3109_870">
<rect width="143" height="170" fill="white"/>
</clipPath>
</defs>
</svg>
