<svg width="392" height="62" viewBox="0 0 392 62" fill="none" xmlns="http://www.w3.org/2000/svg">
<path d="M29.5967 4.33096C33.4327 8.29068 35.6601 13.2403 38.6299 23.5109L39.8673 27.8418L39.991 23.5109C40.2385 17.695 44.322 9.03313 49.1479 3.95973C53.9738 -0.989927 51.9939 -1.11367 45.3119 3.71225C42.4658 5.69211 39.7435 7.42449 39.2486 7.42449C38.6299 7.42449 35.7838 5.69211 32.814 3.71225C25.637 -1.11367 24.6471 -0.989927 29.5967 4.33096Z" fill="#C31F82"/>
<path d="M36.65 2.1036C37.2687 5.32088 41.3522 5.6921 41.3522 2.59857C41.3522 0.742445 40.6097 -3.82382e-06 38.7536 -3.82382e-06C37.0212 -3.82382e-06 36.4025 0.618704 36.65 2.1036Z" fill="#C31F82"/>
<path d="M51.004 5.81584C49.8903 7.05325 48.2817 9.77556 47.168 11.7554C45.1881 15.7152 41.2284 29.9454 41.8471 30.5641C42.0946 30.8116 43.0845 29.6979 44.1982 27.9656C46.7968 24.0058 54.0975 19.6749 61.1508 17.8188L66.7192 16.3339L59.0472 15.4677C50.2615 14.4777 48.2817 12.0029 51.7464 6.80577C54.0975 3.21726 53.7263 2.7223 51.004 5.81584Z" fill="#623CE7"/>
<path d="M53.6026 9.40435C52.4889 10.7655 52.4889 11.6317 53.4788 12.6216C55.2112 14.354 58.676 12.9928 58.676 10.6418C58.676 8.16693 55.335 7.30074 53.6026 9.40435Z" fill="#623CE7"/>
<path d="M27.7995 6.74391C28.9131 7.98132 30.5218 10.7036 31.6354 12.6835C33.6153 16.6432 37.575 30.8735 36.9563 31.4922C36.7088 31.7397 35.7189 30.626 34.6052 28.8936C32.0067 24.9339 24.7059 20.6029 17.6527 18.7468L12.0843 17.2619L19.7563 16.3957C28.5419 15.4058 30.5218 12.931 27.057 7.73384C24.7059 4.14533 25.0771 3.65037 27.7995 6.74391Z" fill="#F5AA1E"/>
<path d="M25.2009 10.3324C26.3145 11.6936 26.3145 12.5598 25.3246 13.5497C23.5922 15.2821 20.1275 13.9209 20.1275 11.5698C20.1275 9.095 23.4685 8.22881 25.2009 10.3324Z" fill="#F5AA1E"/>
<path d="M7.57075 24.872C7.19953 26.2332 6.33334 27.0994 5.71463 26.7281C5.09592 26.3569 4.22973 27.0994 3.85851 28.4605C3.48728 29.8217 2.49735 30.9354 1.50742 30.9354C0.270006 30.9354 -0.101218 33.5339 0.0225231 41.8246V52.5901L3.73477 52.2189C11.1593 51.4764 24.5233 54.57 32.1953 58.6534C39.496 62.7369 39.6198 62.7369 42.3421 60.5096C47.0443 56.6736 58.181 53.3326 68.5753 52.4664L78.4746 51.6002V41.3296C78.4746 32.9152 78.1034 30.9354 76.6185 30.9354C75.5048 30.9354 74.7624 29.8217 74.7624 28.3368C74.7624 26.4807 74.1436 25.9857 72.9062 26.4807C71.6688 26.9756 71.0501 26.3569 71.0501 24.7483C71.0501 22.5209 70.4314 22.2735 65.853 23.0159C58.4285 24.1296 47.663 29.0792 42.8371 33.7814C39.2486 37.2462 38.5061 37.4937 37.2687 35.885C32.9377 30.1929 22.9147 24.872 12.7679 23.0159C8.80817 22.2735 8.18946 22.5209 7.57075 24.872ZM24.8946 29.203C34.9176 34.0289 37.6399 38.1124 37.6399 48.0117V56.1786L34.2989 52.9613C29.7205 48.7541 21.3061 44.5469 14.9952 43.557L9.7981 42.6908L9.42687 33.5339L9.05565 24.5008L13.7578 25.2433C16.3564 25.7382 21.3061 27.4706 24.8946 29.203ZM68.3278 33.6577L67.9566 42.5671L61.7695 43.9282C54.5925 45.5368 49.3954 48.1354 43.9507 52.7139L40.1147 55.9311V48.2592C40.1147 44.052 40.7335 39.5973 41.3522 38.3598C43.9507 33.5339 59.4184 25.1195 66.4717 24.872C68.4515 24.7483 68.699 25.7382 68.3278 33.6577ZM7.94197 37.1224V44.2994L13.2629 45.1656C18.7075 46.0318 28.978 50.1153 28.978 51.3527C28.978 51.7239 26.8744 51.1052 24.3996 50.1153C21.801 49.0016 16.6039 47.8879 12.6441 47.393L5.46715 46.6505V37.4937C5.46715 31.6778 5.96211 28.5843 6.70456 29.0792C7.44701 29.4505 7.94197 33.1627 7.94197 37.1224ZM72.2875 37.7411V47.0217H67.7091C65.1105 47.1455 60.0371 48.1354 56.4486 49.3728C51.6227 51.1052 50.2615 51.229 51.499 49.9915C52.4889 49.0016 57.1911 47.2692 62.1407 46.0318L71.0501 43.9282V36.1325C71.0501 31.9253 71.2976 28.4605 71.6688 28.4605C72.04 28.4605 72.2875 32.6677 72.2875 37.7411ZM75.7523 50.1153C75.5048 50.239 70.9264 50.734 65.4817 50.9815C54.7162 51.7239 56.2011 50.239 67.7091 48.8779L74.7624 47.8879L75.0098 39.721L75.2573 31.5541L75.6285 40.7109C75.876 45.6606 75.9998 49.9915 75.7523 50.1153ZM4.22973 40.7109V48.0117L11.4067 48.8779C15.3665 49.2491 19.4499 50.239 20.4399 50.9815C21.6773 51.8477 21.4298 51.9714 19.0787 51.4764C17.3463 51.1052 12.7679 50.734 8.93191 50.734H1.7549V42.0721C1.7549 37.1224 2.24987 33.4102 2.99232 33.4102C3.73477 33.4102 4.22973 36.6275 4.22973 40.7109Z" fill="#623CE7"/>
<path d="M97.9846 29L108.8 4.5H115.625L126.475 29H119.265L110.795 7.895H113.525L105.055 29H97.9846ZM103.9 24.24L105.685 19.13H117.655L119.44 24.24H103.9ZM140.662 29.49C138.726 29.49 136.929 29.1867 135.272 28.58C133.639 27.95 132.216 27.0633 131.002 25.92C129.812 24.7767 128.879 23.435 128.202 21.895C127.526 20.3317 127.187 18.6167 127.187 16.75C127.187 14.8833 127.526 13.18 128.202 11.64C128.879 10.0767 129.812 8.72333 131.002 7.58C132.216 6.43667 133.639 5.56167 135.272 4.955C136.929 4.325 138.726 4.01 140.662 4.01C142.926 4.01 144.944 4.40667 146.717 5.2C148.514 5.99333 150.007 7.13667 151.197 8.63L146.787 12.62C145.994 11.6867 145.119 10.975 144.162 10.485C143.229 9.995 142.179 9.75 141.012 9.75C140.009 9.75 139.087 9.91333 138.247 10.24C137.407 10.5667 136.684 11.045 136.077 11.675C135.494 12.2817 135.027 13.0167 134.677 13.88C134.351 14.7433 134.187 15.7 134.187 16.75C134.187 17.8 134.351 18.7567 134.677 19.62C135.027 20.4833 135.494 21.23 136.077 21.86C136.684 22.4667 137.407 22.9333 138.247 23.26C139.087 23.5867 140.009 23.75 141.012 23.75C142.179 23.75 143.229 23.505 144.162 23.015C145.119 22.525 145.994 21.8133 146.787 20.88L151.197 24.87C150.007 26.34 148.514 27.4833 146.717 28.3C144.944 29.0933 142.926 29.49 140.662 29.49ZM151.287 29L162.102 4.5H168.927L179.777 29H172.567L164.097 7.895H166.827L158.357 29H151.287ZM157.202 24.24L158.987 19.13H170.957L172.742 24.24H157.202ZM182.092 29V4.5H193.677C196.383 4.5 198.763 5.00167 200.817 6.005C202.87 7.00833 204.468 8.42 205.612 10.24C206.778 12.06 207.362 14.23 207.362 16.75C207.362 19.2467 206.778 21.4167 205.612 23.26C204.468 25.08 202.87 26.4917 200.817 27.495C198.763 28.4983 196.383 29 193.677 29H182.092ZM189.022 23.47H193.397C194.797 23.47 196.01 23.2133 197.037 22.7C198.087 22.1633 198.903 21.3933 199.487 20.39C200.07 19.3633 200.362 18.15 200.362 16.75C200.362 15.3267 200.07 14.1133 199.487 13.11C198.903 12.1067 198.087 11.3483 197.037 10.835C196.01 10.2983 194.797 10.03 193.397 10.03H189.022V23.47ZM217.728 13.985H229.103V19.165H217.728V13.985ZM218.218 23.645H231.028V29H211.358V4.5H230.573V9.855H218.218V23.645ZM235.223 29V4.5H240.928L251.078 21.16H248.068L257.938 4.5H263.643L263.713 29H257.343L257.273 14.195H258.358L250.973 26.585H247.893L240.298 14.195H241.628V29H235.223ZM268.967 29V4.5H275.897V29H268.967ZM293.392 29.49C291.456 29.49 289.659 29.1867 288.002 28.58C286.369 27.95 284.946 27.0633 283.732 25.92C282.542 24.7767 281.609 23.435 280.932 21.895C280.256 20.3317 279.917 18.6167 279.917 16.75C279.917 14.8833 280.256 13.18 280.932 11.64C281.609 10.0767 282.542 8.72333 283.732 7.58C284.946 6.43667 286.369 5.56167 288.002 4.955C289.659 4.325 291.456 4.01 293.392 4.01C295.656 4.01 297.674 4.40667 299.447 5.2C301.244 5.99333 302.737 7.13667 303.927 8.63L299.517 12.62C298.724 11.6867 297.849 10.975 296.892 10.485C295.959 9.995 294.909 9.75 293.742 9.75C292.739 9.75 291.817 9.91333 290.977 10.24C290.137 10.5667 289.414 11.045 288.807 11.675C288.224 12.2817 287.757 13.0167 287.407 13.88C287.081 14.7433 286.917 15.7 286.917 16.75C286.917 17.8 287.081 18.7567 287.407 19.62C287.757 20.4833 288.224 21.23 288.807 21.86C289.414 22.4667 290.137 22.9333 290.977 23.26C291.817 23.5867 292.739 23.75 293.742 23.75C294.909 23.75 295.959 23.505 296.892 23.015C297.849 22.525 298.724 21.8133 299.517 20.88L303.927 24.87C302.737 26.34 301.244 27.4833 299.447 28.3C297.674 29.0933 295.656 29.49 293.392 29.49Z" fill="#623CE7"/>
<path d="M311.581 29V4.5H322.781C325.021 4.5 326.946 4.86167 328.556 5.585C330.19 6.30833 331.45 7.35833 332.336 8.735C333.223 10.0883 333.666 11.6983 333.666 13.565C333.666 15.4083 333.223 17.0067 332.336 18.36C331.45 19.7133 330.19 20.7633 328.556 21.51C326.946 22.2333 325.021 22.595 322.781 22.595H315.431L318.511 19.585V29H311.581ZM318.511 20.32L315.431 17.135H322.361C323.808 17.135 324.881 16.82 325.581 16.19C326.305 15.56 326.666 14.685 326.666 13.565C326.666 12.4217 326.305 11.535 325.581 10.905C324.881 10.275 323.808 9.96 322.361 9.96H315.431L318.511 6.775V20.32ZM337.395 29V4.5H348.595C350.835 4.5 352.76 4.86167 354.37 5.585C356.004 6.30833 357.264 7.35833 358.15 8.735C359.037 10.0883 359.48 11.6983 359.48 13.565C359.48 15.4083 359.037 17.0067 358.15 18.36C357.264 19.69 356.004 20.7167 354.37 21.44C352.76 22.14 350.835 22.49 348.595 22.49H341.245L344.325 19.585V29H337.395ZM352.55 29L346.46 20.075H353.845L359.97 29H352.55ZM344.325 20.32L341.245 17.135H348.175C349.622 17.135 350.695 16.82 351.395 16.19C352.119 15.56 352.48 14.685 352.48 13.565C352.48 12.4217 352.119 11.535 351.395 10.905C350.695 10.275 349.622 9.96 348.175 9.96H341.245L344.325 6.775V20.32ZM376.008 29.49C374.048 29.49 372.24 29.175 370.583 28.545C368.927 27.915 367.48 27.0283 366.243 25.885C365.03 24.7183 364.085 23.365 363.408 21.825C362.732 20.285 362.393 18.5933 362.393 16.75C362.393 14.9067 362.732 13.215 363.408 11.675C364.085 10.135 365.03 8.79333 366.243 7.65C367.48 6.48333 368.927 5.585 370.583 4.955C372.24 4.325 374.048 4.01 376.008 4.01C377.992 4.01 379.8 4.325 381.433 4.955C383.09 5.585 384.525 6.48333 385.738 7.65C386.952 8.79333 387.897 10.135 388.573 11.675C389.273 13.215 389.623 14.9067 389.623 16.75C389.623 18.5933 389.273 20.2967 388.573 21.86C387.897 23.4 386.952 24.7417 385.738 25.885C384.525 27.0283 383.09 27.915 381.433 28.545C379.8 29.175 377.992 29.49 376.008 29.49ZM376.008 23.75C376.942 23.75 377.805 23.5867 378.598 23.26C379.415 22.9333 380.115 22.4667 380.698 21.86C381.305 21.23 381.772 20.4833 382.098 19.62C382.448 18.7567 382.623 17.8 382.623 16.75C382.623 15.6767 382.448 14.72 382.098 13.88C381.772 13.0167 381.305 12.2817 380.698 11.675C380.115 11.045 379.415 10.5667 378.598 10.24C377.805 9.91333 376.942 9.75 376.008 9.75C375.075 9.75 374.2 9.91333 373.383 10.24C372.59 10.5667 371.89 11.045 371.283 11.675C370.7 12.2817 370.233 13.0167 369.883 13.88C369.557 14.72 369.393 15.6767 369.393 16.75C369.393 17.8 369.557 18.7567 369.883 19.62C370.233 20.4833 370.7 21.23 371.283 21.86C371.89 22.4667 372.59 22.9333 373.383 23.26C374.2 23.5867 375.075 23.75 376.008 23.75Z" fill="#C31F82"/>
<path d="M99.7346 50V41.6H100.935V48.956H105.483V50H99.7346ZM108.072 45.224H112.392V46.244H108.072V45.224ZM108.18 48.956H113.076V50H106.98V41.6H112.908V42.644H108.18V48.956ZM113.867 50L117.671 41.6H118.859L122.675 50H121.415L118.019 42.272H118.499L115.103 50H113.867ZM115.487 47.9L115.811 46.94H120.539L120.887 47.9H115.487ZM124.048 50V41.6H127.324C128.06 41.6 128.688 41.716 129.208 41.948C129.728 42.18 130.128 42.516 130.408 42.956C130.688 43.396 130.828 43.92 130.828 44.528C130.828 45.136 130.688 45.66 130.408 46.1C130.128 46.532 129.728 46.864 129.208 47.096C128.688 47.328 128.06 47.444 127.324 47.444H124.708L125.248 46.892V50H124.048ZM129.664 50L127.528 46.952H128.812L130.972 50H129.664ZM125.248 47.012L124.708 46.424H127.288C128.056 46.424 128.636 46.26 129.028 45.932C129.428 45.596 129.628 45.128 129.628 44.528C129.628 43.928 129.428 43.464 129.028 43.136C128.636 42.808 128.056 42.644 127.288 42.644H124.708L125.248 42.044V47.012ZM132.886 50V41.6H133.87L139.426 48.5H138.91V41.6H140.11V50H139.126L133.57 43.1H134.086V50H132.886ZM142.121 51.776L142.721 49.352L142.877 50.048C142.645 50.048 142.449 49.976 142.289 49.832C142.137 49.688 142.061 49.492 142.061 49.244C142.061 49.004 142.137 48.808 142.289 48.656C142.449 48.504 142.641 48.428 142.865 48.428C143.097 48.428 143.285 48.508 143.429 48.668C143.573 48.82 143.645 49.012 143.645 49.244C143.645 49.324 143.637 49.404 143.621 49.484C143.613 49.556 143.593 49.644 143.561 49.748C143.537 49.844 143.497 49.964 143.441 50.108L142.877 51.776H142.121ZM150.594 50V42.644H147.714V41.6H154.662V42.644H151.782V50H150.594ZM162.113 41.6H163.313V50H162.113V41.6ZM157.289 50H156.089V41.6H157.289V50ZM162.221 46.256H157.169V45.212H162.221V46.256ZM165.947 50V41.6H167.147V50H165.947ZM169.782 50V41.6H170.766L176.322 48.5H175.806V41.6H177.006V50H176.022L170.466 43.1H170.982V50H169.782ZM180.697 47.972L180.637 46.508L185.401 41.6H186.769L183.085 45.488L182.413 46.232L180.697 47.972ZM179.641 50V41.6H180.841V50H179.641ZM185.593 50L182.149 45.992L182.953 45.104L186.997 50H185.593ZM187.762 51.776L188.362 49.352L188.518 50.048C188.286 50.048 188.09 49.976 187.93 49.832C187.778 49.688 187.702 49.492 187.702 49.244C187.702 49.004 187.778 48.808 187.93 48.656C188.09 48.504 188.282 48.428 188.506 48.428C188.738 48.428 188.926 48.508 189.07 48.668C189.214 48.82 189.286 49.012 189.286 49.244C189.286 49.324 189.278 49.404 189.262 49.484C189.254 49.556 189.234 49.644 189.202 49.748C189.178 49.844 189.138 49.964 189.082 50.108L188.518 51.776H187.762ZM194.567 50V41.6H195.767V50H194.567ZM198.402 50V41.6H199.386L204.942 48.5H204.426V41.6H205.626V50H204.642L199.086 43.1H199.602V50H198.402ZM208.26 50V41.6H209.244L214.8 48.5H214.284V41.6H215.484V50H214.5L208.944 43.1H209.46V50H208.26ZM221.91 50.096C221.27 50.096 220.674 49.988 220.122 49.772C219.578 49.556 219.106 49.256 218.706 48.872C218.306 48.48 217.994 48.024 217.77 47.504C217.546 46.984 217.434 46.416 217.434 45.8C217.434 45.184 217.546 44.616 217.77 44.096C217.994 43.576 218.306 43.124 218.706 42.74C219.106 42.348 219.578 42.044 220.122 41.828C220.666 41.612 221.262 41.504 221.91 41.504C222.55 41.504 223.138 41.612 223.674 41.828C224.218 42.036 224.69 42.336 225.09 42.728C225.498 43.112 225.81 43.564 226.026 44.084C226.25 44.604 226.362 45.176 226.362 45.8C226.362 46.424 226.25 46.996 226.026 47.516C225.81 48.036 225.498 48.492 225.09 48.884C224.69 49.268 224.218 49.568 223.674 49.784C223.138 49.992 222.55 50.096 221.91 50.096ZM221.91 49.028C222.374 49.028 222.802 48.948 223.194 48.788C223.594 48.628 223.938 48.404 224.226 48.116C224.522 47.82 224.75 47.476 224.91 47.084C225.078 46.692 225.162 46.264 225.162 45.8C225.162 45.336 225.078 44.908 224.91 44.516C224.75 44.124 224.522 43.784 224.226 43.496C223.938 43.2 223.594 42.972 223.194 42.812C222.802 42.652 222.374 42.572 221.91 42.572C221.438 42.572 221.002 42.652 220.602 42.812C220.21 42.972 219.866 43.2 219.57 43.496C219.274 43.784 219.042 44.124 218.874 44.516C218.714 44.908 218.634 45.336 218.634 45.8C218.634 46.264 218.714 46.692 218.874 47.084C219.042 47.476 219.274 47.82 219.57 48.116C219.866 48.404 220.21 48.628 220.602 48.788C221.002 48.948 221.438 49.028 221.91 49.028ZM230.483 50L226.787 41.6H228.083L231.479 49.352H230.735L234.155 41.6H235.355L231.671 50H230.483ZM235.004 50L238.808 41.6H239.996L243.812 50H242.552L239.156 42.272H239.636L236.24 50H235.004ZM236.624 47.9L236.948 46.94H241.676L242.024 47.9H236.624ZM246.431 50V42.644H243.551V41.6H250.499V42.644H247.619V50H246.431ZM253.018 45.224H257.338V46.244H253.018V45.224ZM253.126 48.956H258.022V50H251.926V41.6H257.854V42.644H253.126V48.956Z" fill="black"/>
</svg>
