<svg width="86" height="68" viewBox="0 0 86 68" fill="none" xmlns="http://www.w3.org/2000/svg">
<path d="M32.6667 5.00001C36.8 9.26668 39.2 14.6 42.4 25.6667L43.7333 30.3333L43.8667 25.6667C44.1333 19.4 48.5333 10.0667 53.7333 4.60001C58.9333 -0.733321 56.8 -0.866655 49.6 4.33335C46.5333 6.46668 43.6 8.33334 43.0667 8.33334C42.4 8.33334 39.3333 6.46668 36.1333 4.33335C28.4 -0.866655 27.3333 -0.733321 32.6667 5.00001Z" fill="#C31F82"/>
<path d="M40.2667 2.6C40.9333 6.06667 45.3333 6.46667 45.3333 3.13333C45.3333 1.13333 44.5333 0.333333 42.5333 0.333333C40.6667 0.333333 40 1 40.2667 2.6Z" fill="#C31F82"/>
<path d="M55.7333 6.59999C54.5333 7.93333 52.8 10.8667 51.6 13C49.4667 17.2667 45.2 32.6 45.8667 33.2667C46.1333 33.5333 47.2 32.3333 48.4 30.4667C51.2 26.2 59.0667 21.5333 66.6667 19.5333L72.6667 17.9333L64.4 17C54.9333 15.9333 52.8 13.2667 56.5333 7.66666C59.0667 3.79999 58.6667 3.26666 55.7333 6.59999Z" fill="#623CE7"/>
<path d="M58.5333 10.4667C57.3333 11.9334 57.3333 12.8667 58.4 13.9334C60.2667 15.8 64 14.3334 64 11.8C64 9.13335 60.4 8.20002 58.5333 10.4667Z" fill="#623CE7"/>
<path d="M30.7301 7.59999C31.9301 8.93333 33.6634 11.8667 34.8634 14C36.9967 18.2667 41.2634 33.6 40.5967 34.2667C40.3301 34.5333 39.2634 33.3333 38.0634 31.4667C35.2634 27.2 27.3967 22.5333 19.7967 20.5333L13.7967 18.9333L22.0634 18C31.5301 16.9333 33.6634 14.2667 29.9301 8.66666C27.3967 4.79999 27.7967 4.26666 30.7301 7.59999Z" fill="#F5AA1E"/>
<path d="M27.9301 11.4667C29.1301 12.9334 29.1301 13.8667 28.0634 14.9334C26.1967 16.8 22.4634 15.3334 22.4634 12.8C22.4634 10.1334 26.0634 9.20002 27.9301 11.4667Z" fill="#F5AA1E"/>
<path d="M8.93333 27.1333C8.53333 28.6 7.6 29.5333 6.93333 29.1333C6.26666 28.7333 5.33333 29.5333 4.93333 31C4.53333 32.4667 3.46666 33.6667 2.4 33.6667C1.06666 33.6667 0.666662 36.4667 0.799995 45.4V57L4.8 56.6C12.8 55.8 27.2 59.1333 35.4667 63.5333C43.3333 67.9333 43.4667 67.9333 46.4 65.5333C51.4667 61.4 63.4667 57.8 74.6667 56.8667L85.3333 55.9333V44.8667C85.3333 35.8 84.9333 33.6667 83.3333 33.6667C82.1333 33.6667 81.3333 32.4667 81.3333 30.8667C81.3333 28.8667 80.6667 28.3333 79.3333 28.8667C78 29.4 77.3333 28.7333 77.3333 27C77.3333 24.6 76.6667 24.3333 71.7333 25.1333C63.7333 26.3333 52.1333 31.6667 46.9333 36.7333C43.0667 40.4667 42.2667 40.7333 40.9333 39C36.2667 32.8667 25.4667 27.1333 14.5333 25.1333C10.2667 24.3333 9.6 24.6 8.93333 27.1333ZM27.6 31.8C38.4 37 41.3333 41.4 41.3333 52.0667V60.8667L37.7333 57.4C32.8 52.8667 23.7333 48.3333 16.9333 47.2667L11.3333 46.3333L10.9333 36.4667L10.5333 26.7333L15.6 27.5333C18.4 28.0667 23.7333 29.9333 27.6 31.8ZM74.4 36.6L74 46.2L67.3333 47.6667C59.6 49.4 54 52.2 48.1333 57.1333L44 60.6V52.3333C44 47.8 44.6667 43 45.3333 41.6667C48.1333 36.4667 64.8 27.4 72.4 27.1333C74.5333 27 74.8 28.0667 74.4 36.6ZM9.33333 40.3333V48.0667L15.0667 49C20.9333 49.9333 32 54.3333 32 55.6667C32 56.0667 29.7333 55.4 27.0667 54.3333C24.2667 53.1333 18.6667 51.9333 14.4 51.4L6.66666 50.6V40.7333C6.66666 34.4667 7.2 31.1333 8 31.6667C8.8 32.0667 9.33333 36.0667 9.33333 40.3333ZM78.6667 41V51H73.7333C70.9333 51.1333 65.4667 52.2 61.6 53.5333C56.4 55.4 54.9333 55.5333 56.2667 54.2C57.3333 53.1333 62.4 51.2667 67.7333 49.9333L77.3333 47.6667V39.2667C77.3333 34.7333 77.6 31 78 31C78.4 31 78.6667 35.5333 78.6667 41ZM82.4 54.3333C82.1333 54.4667 77.2 55 71.3333 55.2667C59.7333 56.0667 61.3333 54.4667 73.7333 53L81.3333 51.9333L81.6 43.1333L81.8667 34.3333L82.2667 44.2C82.5333 49.5333 82.6667 54.2 82.4 54.3333ZM5.33333 44.2V52.0667L13.0667 53C17.3333 53.4 21.7333 54.4667 22.8 55.2667C24.1333 56.2 23.8667 56.3333 21.3333 55.8C19.4667 55.4 14.5333 55 10.4 55H2.66666V45.6667C2.66666 40.3333 3.2 36.3333 4 36.3333C4.8 36.3333 5.33333 39.8 5.33333 44.2Z" fill="#623CE7"/>
</svg>
