<svg width="392" height="63" viewBox="0 0 392 63" fill="none" xmlns="http://www.w3.org/2000/svg">
<path d="M29.5973 4.83096C33.4333 8.79068 35.6607 13.7403 38.6305 24.0109L39.8679 28.3418L39.9916 24.0109C40.2391 18.195 44.3226 9.53313 49.1485 4.45973C53.9744 -0.489927 51.9945 -0.613668 45.3125 4.21225C42.4665 6.19211 39.7441 7.92449 39.2492 7.92449C38.6305 7.92449 35.7844 6.19211 32.8146 4.21225C25.6376 -0.613668 24.6477 -0.489927 29.5973 4.83096Z" fill="#C31F82"/>
<path d="M36.65 2.6036C37.2687 5.82088 41.3522 6.1921 41.3522 3.09857C41.3522 1.24244 40.6097 0.499996 38.7536 0.499996C37.0212 0.499996 36.4025 1.1187 36.65 2.6036Z" fill="#C31F82"/>
<path d="M51.005 6.31584C49.8913 7.55325 48.2827 10.2756 47.169 12.2554C45.1891 16.2152 41.2294 30.4454 41.8481 31.0641C42.0956 31.3116 43.0855 30.1979 44.1992 28.4656C46.7978 24.5058 54.0985 20.1749 61.1518 18.3188L66.7201 16.8339L59.0482 15.9677C50.2625 14.9777 48.2827 12.5029 51.7474 7.30577C54.0985 3.71726 53.7273 3.2223 51.005 6.31584Z" fill="#623CE7"/>
<path d="M53.6034 9.90435C52.4897 11.2655 52.4897 12.1317 53.4796 13.1216C55.212 14.854 58.6768 13.4928 58.6768 11.1418C58.6768 8.66693 55.3357 7.80074 53.6034 9.90435Z" fill="#623CE7"/>
<path d="M27.7997 7.24391C28.9134 8.48132 30.522 11.2036 31.6357 13.1835C33.6156 17.1432 37.5753 31.3735 36.9566 31.9922C36.7091 32.2397 35.7192 31.126 34.6055 29.3936C32.0069 25.4339 24.7062 21.1029 17.6529 19.2468L12.0846 17.7619L19.7565 16.8957C28.5422 15.9058 30.522 13.431 27.0573 8.23384C24.7062 4.64533 25.0774 4.15037 27.7997 7.24391Z" fill="#F5AA1E"/>
<path d="M25.2013 10.8324C26.315 12.1935 26.315 13.0597 25.3251 14.0497C23.5927 15.782 20.1279 14.4209 20.1279 12.0698C20.1279 9.59497 23.4689 8.72878 25.2013 10.8324Z" fill="#F5AA1E"/>
<path d="M7.57075 25.372C7.19953 26.7332 6.33334 27.5994 5.71463 27.2281C5.09592 26.8569 4.22973 27.5994 3.85851 28.9605C3.48728 30.3217 2.49735 31.4354 1.50742 31.4354C0.270006 31.4354 -0.101218 34.0339 0.0225231 42.3246V53.0901L3.73477 52.7189C11.1593 51.9764 24.5233 55.07 32.1953 59.1534C39.496 63.2369 39.6198 63.2369 42.3421 61.0096C47.0443 57.1736 58.181 53.8326 68.5753 52.9664L78.4746 52.1002V41.8296C78.4746 33.4152 78.1034 31.4354 76.6185 31.4354C75.5048 31.4354 74.7624 30.3217 74.7624 28.8368C74.7624 26.9807 74.1436 26.4857 72.9062 26.9807C71.6688 27.4756 71.0501 26.8569 71.0501 25.2483C71.0501 23.0209 70.4314 22.7735 65.853 23.5159C58.4285 24.6296 47.663 29.5792 42.8371 34.2814C39.2486 37.7462 38.5061 37.9937 37.2687 36.385C32.9377 30.6929 22.9147 25.372 12.7679 23.5159C8.80816 22.7735 8.18946 23.0209 7.57075 25.372ZM24.8946 29.703C34.9176 34.5289 37.6399 38.6124 37.6399 48.5117V56.6786L34.2989 53.4613C29.7205 49.2541 21.3061 45.0469 14.9952 44.057L9.7981 43.1908L9.42687 34.0339L9.05565 25.0008L13.7578 25.7433C16.3564 26.2382 21.3061 27.9706 24.8946 29.703ZM68.3278 34.1577L67.9566 43.0671L61.7695 44.4282C54.5925 46.0368 49.3954 48.6354 43.9507 53.2139L40.1147 56.4311V48.7592C40.1147 44.552 40.7335 40.0973 41.3522 38.8598C43.9507 34.0339 59.4184 25.6195 66.4717 25.372C68.4515 25.2483 68.699 26.2382 68.3278 34.1577ZM7.94198 37.6224V44.7994L13.2629 45.6656C18.7075 46.5318 28.978 50.6153 28.978 51.8527C28.978 52.2239 26.8744 51.6052 24.3996 50.6153C21.801 49.5016 16.6039 48.3879 12.6441 47.893L5.46715 47.1505V37.9937C5.46715 32.1778 5.96211 29.0843 6.70456 29.5792C7.44701 29.9505 7.94198 33.6627 7.94198 37.6224ZM72.2875 38.2411V47.5217H67.7091C65.1105 47.6455 60.0371 48.6354 56.4486 49.8728C51.6227 51.6052 50.2615 51.729 51.499 50.4915C52.4889 49.5016 57.1911 47.7692 62.1407 46.5318L71.0501 44.4282V36.6325C71.0501 32.4253 71.2976 28.9605 71.6688 28.9605C72.04 28.9605 72.2875 33.1677 72.2875 38.2411ZM75.7523 50.6153C75.5048 50.739 70.9264 51.234 65.4817 51.4815C54.7162 52.2239 56.2011 50.739 67.7091 49.3779L74.7624 48.3879L75.0098 40.221L75.2573 32.0541L75.6285 41.2109C75.876 46.1606 75.9998 50.4915 75.7523 50.6153ZM4.22973 41.2109V48.5117L11.4067 49.3779C15.3665 49.7491 19.4499 50.739 20.4399 51.4815C21.6773 52.3477 21.4298 52.4714 19.0787 51.9764C17.3463 51.6052 12.7679 51.234 8.93191 51.234H1.7549V42.5721C1.7549 37.6224 2.24987 33.9102 2.99232 33.9102C3.73477 33.9102 4.22973 37.1275 4.22973 41.2109Z" fill="#623CE7"/>
<path d="M97.9846 29.5L108.8 5H115.625L126.475 29.5H119.265L110.795 8.395H113.525L105.055 29.5H97.9846ZM103.9 24.74L105.685 19.63H117.655L119.44 24.74H103.9ZM140.662 29.99C138.726 29.99 136.929 29.6867 135.272 29.08C133.639 28.45 132.216 27.5633 131.002 26.42C129.812 25.2767 128.879 23.935 128.202 22.395C127.526 20.8317 127.187 19.1167 127.187 17.25C127.187 15.3833 127.526 13.68 128.202 12.14C128.879 10.5767 129.812 9.22333 131.002 8.08C132.216 6.93667 133.639 6.06167 135.272 5.455C136.929 4.825 138.726 4.51 140.662 4.51C142.926 4.51 144.944 4.90667 146.717 5.7C148.514 6.49333 150.007 7.63667 151.197 9.13L146.787 13.12C145.994 12.1867 145.119 11.475 144.162 10.985C143.229 10.495 142.179 10.25 141.012 10.25C140.009 10.25 139.087 10.4133 138.247 10.74C137.407 11.0667 136.684 11.545 136.077 12.175C135.494 12.7817 135.027 13.5167 134.677 14.38C134.351 15.2433 134.187 16.2 134.187 17.25C134.187 18.3 134.351 19.2567 134.677 20.12C135.027 20.9833 135.494 21.73 136.077 22.36C136.684 22.9667 137.407 23.4333 138.247 23.76C139.087 24.0867 140.009 24.25 141.012 24.25C142.179 24.25 143.229 24.005 144.162 23.515C145.119 23.025 145.994 22.3133 146.787 21.38L151.197 25.37C150.007 26.84 148.514 27.9833 146.717 28.8C144.944 29.5933 142.926 29.99 140.662 29.99ZM151.287 29.5L162.102 5H168.927L179.777 29.5H172.567L164.097 8.395H166.827L158.357 29.5H151.287ZM157.202 24.74L158.987 19.63H170.957L172.742 24.74H157.202ZM182.092 29.5V5H193.677C196.383 5 198.763 5.50167 200.817 6.505C202.87 7.50833 204.468 8.92 205.612 10.74C206.778 12.56 207.362 14.73 207.362 17.25C207.362 19.7467 206.778 21.9167 205.612 23.76C204.468 25.58 202.87 26.9917 200.817 27.995C198.763 28.9983 196.383 29.5 193.677 29.5H182.092ZM189.022 23.97H193.397C194.797 23.97 196.01 23.7133 197.037 23.2C198.087 22.6633 198.903 21.8933 199.487 20.89C200.07 19.8633 200.362 18.65 200.362 17.25C200.362 15.8267 200.07 14.6133 199.487 13.61C198.903 12.6067 198.087 11.8483 197.037 11.335C196.01 10.7983 194.797 10.53 193.397 10.53H189.022V23.97ZM217.728 14.485H229.103V19.665H217.728V14.485ZM218.218 24.145H231.028V29.5H211.358V5H230.573V10.355H218.218V24.145ZM235.223 29.5V5H240.928L251.078 21.66H248.068L257.938 5H263.643L263.713 29.5H257.343L257.273 14.695H258.358L250.973 27.085H247.893L240.298 14.695H241.628V29.5H235.223ZM268.967 29.5V5H275.897V29.5H268.967ZM293.392 29.99C291.456 29.99 289.659 29.6867 288.002 29.08C286.369 28.45 284.946 27.5633 283.732 26.42C282.542 25.2767 281.609 23.935 280.932 22.395C280.256 20.8317 279.917 19.1167 279.917 17.25C279.917 15.3833 280.256 13.68 280.932 12.14C281.609 10.5767 282.542 9.22333 283.732 8.08C284.946 6.93667 286.369 6.06167 288.002 5.455C289.659 4.825 291.456 4.51 293.392 4.51C295.656 4.51 297.674 4.90667 299.447 5.7C301.244 6.49333 302.737 7.63667 303.927 9.13L299.517 13.12C298.724 12.1867 297.849 11.475 296.892 10.985C295.959 10.495 294.909 10.25 293.742 10.25C292.739 10.25 291.817 10.4133 290.977 10.74C290.137 11.0667 289.414 11.545 288.807 12.175C288.224 12.7817 287.757 13.5167 287.407 14.38C287.081 15.2433 286.917 16.2 286.917 17.25C286.917 18.3 287.081 19.2567 287.407 20.12C287.757 20.9833 288.224 21.73 288.807 22.36C289.414 22.9667 290.137 23.4333 290.977 23.76C291.817 24.0867 292.739 24.25 293.742 24.25C294.909 24.25 295.959 24.005 296.892 23.515C297.849 23.025 298.724 22.3133 299.517 21.38L303.927 25.37C302.737 26.84 301.244 27.9833 299.447 28.8C297.674 29.5933 295.656 29.99 293.392 29.99Z" fill="#623CE7"/>
<path d="M311.581 29.5V5H322.781C325.021 5 326.946 5.36167 328.556 6.085C330.19 6.80833 331.45 7.85833 332.336 9.235C333.223 10.5883 333.666 12.1983 333.666 14.065C333.666 15.9083 333.223 17.5067 332.336 18.86C331.45 20.2133 330.19 21.2633 328.556 22.01C326.946 22.7333 325.021 23.095 322.781 23.095H315.431L318.511 20.085V29.5H311.581ZM318.511 20.82L315.431 17.635H322.361C323.808 17.635 324.881 17.32 325.581 16.69C326.305 16.06 326.666 15.185 326.666 14.065C326.666 12.9217 326.305 12.035 325.581 11.405C324.881 10.775 323.808 10.46 322.361 10.46H315.431L318.511 7.275V20.82ZM337.395 29.5V5H348.595C350.835 5 352.76 5.36167 354.37 6.085C356.004 6.80833 357.264 7.85833 358.15 9.235C359.037 10.5883 359.48 12.1983 359.48 14.065C359.48 15.9083 359.037 17.5067 358.15 18.86C357.264 20.19 356.004 21.2167 354.37 21.94C352.76 22.64 350.835 22.99 348.595 22.99H341.245L344.325 20.085V29.5H337.395ZM352.55 29.5L346.46 20.575H353.845L359.97 29.5H352.55ZM344.325 20.82L341.245 17.635H348.175C349.622 17.635 350.695 17.32 351.395 16.69C352.119 16.06 352.48 15.185 352.48 14.065C352.48 12.9217 352.119 12.035 351.395 11.405C350.695 10.775 349.622 10.46 348.175 10.46H341.245L344.325 7.275V20.82ZM376.008 29.99C374.048 29.99 372.24 29.675 370.583 29.045C368.927 28.415 367.48 27.5283 366.243 26.385C365.03 25.2183 364.085 23.865 363.408 22.325C362.732 20.785 362.393 19.0933 362.393 17.25C362.393 15.4067 362.732 13.715 363.408 12.175C364.085 10.635 365.03 9.29333 366.243 8.15C367.48 6.98333 368.927 6.085 370.583 5.455C372.24 4.825 374.048 4.51 376.008 4.51C377.992 4.51 379.8 4.825 381.433 5.455C383.09 6.085 384.525 6.98333 385.738 8.15C386.952 9.29333 387.897 10.635 388.573 12.175C389.273 13.715 389.623 15.4067 389.623 17.25C389.623 19.0933 389.273 20.7967 388.573 22.36C387.897 23.9 386.952 25.2417 385.738 26.385C384.525 27.5283 383.09 28.415 381.433 29.045C379.8 29.675 377.992 29.99 376.008 29.99ZM376.008 24.25C376.942 24.25 377.805 24.0867 378.598 23.76C379.415 23.4333 380.115 22.9667 380.698 22.36C381.305 21.73 381.772 20.9833 382.098 20.12C382.448 19.2567 382.623 18.3 382.623 17.25C382.623 16.1767 382.448 15.22 382.098 14.38C381.772 13.5167 381.305 12.7817 380.698 12.175C380.115 11.545 379.415 11.0667 378.598 10.74C377.805 10.4133 376.942 10.25 376.008 10.25C375.075 10.25 374.2 10.4133 373.383 10.74C372.59 11.0667 371.89 11.545 371.283 12.175C370.7 12.7817 370.233 13.5167 369.883 14.38C369.557 15.22 369.393 16.1767 369.393 17.25C369.393 18.3 369.557 19.2567 369.883 20.12C370.233 20.9833 370.7 21.73 371.283 22.36C371.89 22.9667 372.59 23.4333 373.383 23.76C374.2 24.0867 375.075 24.25 376.008 24.25Z" fill="#C31F82"/>
<path d="M99.7346 50.5V42.1H100.935V49.456H105.483V50.5H99.7346ZM108.072 45.724H112.392V46.744H108.072V45.724ZM108.18 49.456H113.076V50.5H106.98V42.1H112.908V43.144H108.18V49.456ZM113.867 50.5L117.671 42.1H118.859L122.675 50.5H121.415L118.019 42.772H118.499L115.103 50.5H113.867ZM115.487 48.4L115.811 47.44H120.539L120.887 48.4H115.487ZM124.048 50.5V42.1H127.324C128.06 42.1 128.688 42.216 129.208 42.448C129.728 42.68 130.128 43.016 130.408 43.456C130.688 43.896 130.828 44.42 130.828 45.028C130.828 45.636 130.688 46.16 130.408 46.6C130.128 47.032 129.728 47.364 129.208 47.596C128.688 47.828 128.06 47.944 127.324 47.944H124.708L125.248 47.392V50.5H124.048ZM129.664 50.5L127.528 47.452H128.812L130.972 50.5H129.664ZM125.248 47.512L124.708 46.924H127.288C128.056 46.924 128.636 46.76 129.028 46.432C129.428 46.096 129.628 45.628 129.628 45.028C129.628 44.428 129.428 43.964 129.028 43.636C128.636 43.308 128.056 43.144 127.288 43.144H124.708L125.248 42.544V47.512ZM132.886 50.5V42.1H133.87L139.426 49H138.91V42.1H140.11V50.5H139.126L133.57 43.6H134.086V50.5H132.886ZM142.121 52.276L142.721 49.852L142.877 50.548C142.645 50.548 142.449 50.476 142.289 50.332C142.137 50.188 142.061 49.992 142.061 49.744C142.061 49.504 142.137 49.308 142.289 49.156C142.449 49.004 142.641 48.928 142.865 48.928C143.097 48.928 143.285 49.008 143.429 49.168C143.573 49.32 143.645 49.512 143.645 49.744C143.645 49.824 143.637 49.904 143.621 49.984C143.613 50.056 143.593 50.144 143.561 50.248C143.537 50.344 143.497 50.464 143.441 50.608L142.877 52.276H142.121ZM150.594 50.5V43.144H147.714V42.1H154.662V43.144H151.782V50.5H150.594ZM162.113 42.1H163.313V50.5H162.113V42.1ZM157.289 50.5H156.089V42.1H157.289V50.5ZM162.221 46.756H157.169V45.712H162.221V46.756ZM165.947 50.5V42.1H167.147V50.5H165.947ZM169.782 50.5V42.1H170.766L176.322 49H175.806V42.1H177.006V50.5H176.022L170.466 43.6H170.982V50.5H169.782ZM180.697 48.472L180.637 47.008L185.401 42.1H186.769L183.085 45.988L182.413 46.732L180.697 48.472ZM179.641 50.5V42.1H180.841V50.5H179.641ZM185.593 50.5L182.149 46.492L182.953 45.604L186.997 50.5H185.593ZM187.762 52.276L188.362 49.852L188.518 50.548C188.286 50.548 188.09 50.476 187.93 50.332C187.778 50.188 187.702 49.992 187.702 49.744C187.702 49.504 187.778 49.308 187.93 49.156C188.09 49.004 188.282 48.928 188.506 48.928C188.738 48.928 188.926 49.008 189.07 49.168C189.214 49.32 189.286 49.512 189.286 49.744C189.286 49.824 189.278 49.904 189.262 49.984C189.254 50.056 189.234 50.144 189.202 50.248C189.178 50.344 189.138 50.464 189.082 50.608L188.518 52.276H187.762ZM194.567 50.5V42.1H195.767V50.5H194.567ZM198.402 50.5V42.1H199.386L204.942 49H204.426V42.1H205.626V50.5H204.642L199.086 43.6H199.602V50.5H198.402ZM208.26 50.5V42.1H209.244L214.8 49H214.284V42.1H215.484V50.5H214.5L208.944 43.6H209.46V50.5H208.26ZM221.91 50.596C221.27 50.596 220.674 50.488 220.122 50.272C219.578 50.056 219.106 49.756 218.706 49.372C218.306 48.98 217.994 48.524 217.77 48.004C217.546 47.484 217.434 46.916 217.434 46.3C217.434 45.684 217.546 45.116 217.77 44.596C217.994 44.076 218.306 43.624 218.706 43.24C219.106 42.848 219.578 42.544 220.122 42.328C220.666 42.112 221.262 42.004 221.91 42.004C222.55 42.004 223.138 42.112 223.674 42.328C224.218 42.536 224.69 42.836 225.09 43.228C225.498 43.612 225.81 44.064 226.026 44.584C226.25 45.104 226.362 45.676 226.362 46.3C226.362 46.924 226.25 47.496 226.026 48.016C225.81 48.536 225.498 48.992 225.09 49.384C224.69 49.768 224.218 50.068 223.674 50.284C223.138 50.492 222.55 50.596 221.91 50.596ZM221.91 49.528C222.374 49.528 222.802 49.448 223.194 49.288C223.594 49.128 223.938 48.904 224.226 48.616C224.522 48.32 224.75 47.976 224.91 47.584C225.078 47.192 225.162 46.764 225.162 46.3C225.162 45.836 225.078 45.408 224.91 45.016C224.75 44.624 224.522 44.284 224.226 43.996C223.938 43.7 223.594 43.472 223.194 43.312C222.802 43.152 222.374 43.072 221.91 43.072C221.438 43.072 221.002 43.152 220.602 43.312C220.21 43.472 219.866 43.7 219.57 43.996C219.274 44.284 219.042 44.624 218.874 45.016C218.714 45.408 218.634 45.836 218.634 46.3C218.634 46.764 218.714 47.192 218.874 47.584C219.042 47.976 219.274 48.32 219.57 48.616C219.866 48.904 220.21 49.128 220.602 49.288C221.002 49.448 221.438 49.528 221.91 49.528ZM230.483 50.5L226.787 42.1H228.083L231.479 49.852H230.735L234.155 42.1H235.355L231.671 50.5H230.483ZM235.004 50.5L238.808 42.1H239.996L243.812 50.5H242.552L239.156 42.772H239.636L236.24 50.5H235.004ZM236.624 48.4L236.948 47.44H241.676L242.024 48.4H236.624ZM246.432 50.5V43.144H243.552V42.1H250.5V43.144H247.62V50.5H246.432ZM253.018 45.724H257.338V46.744H253.018V45.724ZM253.126 49.456H258.022V50.5H251.926V42.1H257.854V43.144H253.126V49.456Z" fill="black"/>
</svg>
