<svg width="380" height="376" viewBox="0 0 380 376" fill="none" xmlns="http://www.w3.org/2000/svg">
<path d="M313.424 249.198H333.549V240.783H313.424V249.198Z" fill="#EBEBEB"/>
<path d="M324.657 259.809L334.803 259.598L339.804 259.515C341.468 259.478 343.125 259.515 344.782 259.47L344.44 259.809V251.394L344.82 251.77L334.757 251.725C331.406 251.725 328.047 251.634 324.695 251.597L324.9 251.394C324.9 252.77 324.839 254.154 324.801 255.552L324.657 259.809ZM324.657 259.809L324.52 255.68C324.482 254.281 324.429 252.86 324.421 251.431V251.168H324.634C327.986 251.123 331.345 251.048 334.697 251.04L344.759 250.995H345.139V251.371L345.093 259.786V260.124H344.759C343.064 260.124 341.362 260.124 339.667 260.087L334.605 260.004L324.657 259.809Z" fill="#EBEBEB"/>
<path d="M176.426 177.156L186.58 176.946L191.573 176.863C193.238 176.825 194.894 176.863 196.551 176.825L196.209 177.156L196.171 168.741L196.551 169.117L186.489 169.072C183.137 169.072 179.778 168.989 176.426 168.944L176.632 168.741C176.632 170.117 176.571 171.501 176.533 172.907L176.426 177.156ZM176.426 177.156L176.32 172.96C176.282 171.561 176.236 170.14 176.221 168.711V168.508H176.434C179.786 168.471 183.145 168.388 186.496 168.38L196.559 168.335H196.939V168.711L196.901 177.126V177.472H196.566C194.872 177.472 193.169 177.472 191.482 177.427L186.413 177.344L176.426 177.156Z" fill="#EBEBEB"/>
<path d="M187.652 187.767H207.776V179.352H187.652V187.767Z" fill="#EBEBEB"/>
<path d="M165.026 187.767L175.18 187.556L180.181 187.474C181.845 187.436 183.494 187.474 185.151 187.436L184.817 187.767L184.771 179.352L185.151 179.728L175.089 179.683C171.737 179.683 168.386 179.6 165.026 179.555L165.239 179.352C165.239 180.728 165.171 182.112 165.14 183.518L165.026 187.767ZM165.026 187.767L164.92 183.601C164.92 182.202 164.836 180.781 164.821 179.352V179.149H165.026C168.386 179.149 171.737 179.029 175.089 179.021L185.151 178.976H185.539V179.352L185.501 187.767V188.105H185.159C183.464 188.105 181.762 188.105 180.074 188.06L175.013 187.978L165.026 187.767Z" fill="#EBEBEB"/>
<path d="M207.411 81.186H227.536V72.7712H207.411V81.186Z" fill="#EBEBEB"/>
<path d="M35.2184 259.809L45.372 259.598L50.3728 259.515C52.0296 259.478 53.6864 259.515 55.3432 259.47L55.0088 259.809L54.9632 251.394L55.3432 251.77L45.2808 251.725C41.9292 251.725 38.57 251.634 35.2184 251.597L35.4236 251.394C35.4236 252.77 35.3628 254.154 35.3248 255.552L35.2184 259.809ZM35.2184 259.809L35.112 255.68C35.074 254.281 35.0284 252.86 35.0132 251.431V251.168H35.2184C38.57 251.123 41.9292 251.048 45.2808 251.04L55.3432 250.995H55.7232V251.371V259.786V260.124H55.3812C53.6864 260.124 51.984 260.124 50.2968 260.087L45.2352 260.004L35.2184 259.809Z" fill="#EBEBEB"/>
<path d="M46.4436 46.7743L56.5972 46.5637L61.598 46.481C63.2624 46.4434 64.9116 46.481 66.5684 46.4359L66.234 46.7743L66.1884 38.3519L66.5684 38.7279L56.506 38.6828C53.1544 38.6828 49.8028 38.5925 46.4436 38.5549L46.6564 38.3519C46.6564 39.728 46.588 41.1117 46.55 42.518L46.4436 46.7743ZM46.4436 46.7743L46.36 42.6082C46.36 41.2095 46.2764 39.7882 46.2612 38.3594V38.1564H46.4664C49.8256 38.1188 53.1772 38.036 56.5288 38.0285L66.5912 37.9834H66.9788V38.3519L66.88 46.7743V47.1127H66.538C64.8432 47.1127 63.1408 47.1127 61.4536 47.0676L56.392 46.9848L46.4436 46.7743Z" fill="#EBEBEB"/>
<path d="M35.2185 57.385H55.3433V48.9701H35.2185V57.385Z" fill="#EBEBEB"/>
<path d="M324.657 46.7743L334.803 46.5637L339.804 46.481C341.468 46.4434 343.125 46.481 344.782 46.4359L344.44 46.7743V38.3594L344.82 38.7354L334.757 38.6903C331.406 38.6903 328.047 38.6 324.695 38.5624L324.9 38.3594C324.9 39.7356 324.839 41.1192 324.801 42.5255L324.657 46.7743ZM324.657 46.7743L324.52 42.6082C324.482 41.2095 324.429 39.7882 324.421 38.3594V38.1564H324.634C327.986 38.1188 331.345 38.036 334.697 38.0285L344.759 37.9834H345.139V38.3519L345.116 46.7743V47.1127H344.782C343.087 47.1127 341.385 47.1127 339.69 47.0676L334.628 46.9848L324.657 46.7743Z" fill="#EBEBEB"/>
<path d="M128.645 287.091H73.9634V347.003H128.645V287.091Z" fill="#EBEBEB"/>
<path d="M45.7367 347.01H73.9707L73.9707 287.091H45.7367L45.7367 347.01Z" fill="#DBDBDB"/>
<path d="M47.6748 342.912C49.7724 338.651 51.8447 334.389 53.8916 330.128L60.04 317.171L66.12 304.229C68.1467 299.908 70.1328 295.571 72.0784 291.219C69.9808 295.481 67.9085 299.755 65.8616 304.041L59.736 316.93L53.656 329.872C51.6344 334.199 49.6407 338.545 47.6748 342.912Z" fill="#EBEBEB"/>
<path d="M47.6748 291.219C49.6407 295.576 51.6268 299.913 53.6332 304.229L59.7132 317.171L65.8388 330.06C67.8908 334.347 69.9631 338.608 72.0556 342.844C70.0897 338.493 68.1036 334.156 66.0972 329.835L60.0172 316.893L53.8916 304.003C51.8396 299.742 49.7673 295.481 47.6748 291.219Z" fill="#EBEBEB"/>
<path d="M128.645 196.603H73.9634V252.386H128.645V196.603Z" fill="#EBEBEB"/>
<path d="M45.7367 252.394H73.9707V196.603H45.7367L45.7367 252.394Z" fill="#DBDBDB"/>
<path d="M96.6646 209.552H97.8273H98.6937L99.1877 208.552L99.8869 209.552L100.829 207.499L101.726 209.552H104.287H105.45L105.876 208.184L106.271 209.552H107.031V196.603H96.6646V209.552Z" fill="#DBDBDB"/>
<path d="M47.6748 248.837C49.7724 244.876 51.8447 240.891 53.8916 236.88L60.0172 224.848L66.0972 212.816C68.1239 208.805 70.11 204.767 72.0556 200.701C69.958 204.672 67.8857 208.652 65.8388 212.643L59.7132 224.637L53.6332 236.669C51.6268 240.725 49.6407 244.781 47.6748 248.837Z" fill="#EBEBEB"/>
<path d="M47.6748 200.731C49.6407 204.777 51.6268 208.805 53.6332 212.816L59.7132 224.848L65.8388 236.88C67.8908 240.891 69.9631 244.871 72.0556 248.822C70.0897 244.771 68.1036 240.733 66.0972 236.707L60.0172 224.675L53.8916 212.681C51.8396 208.685 49.7673 204.702 47.6748 200.731Z" fill="#EBEBEB"/>
<path d="M77.5658 248.927H83.6382V242.919H77.5658V248.927Z" fill="white"/>
<path d="M125.005 252.394H70.3228V287.091H125.005V252.394Z" fill="#DBDBDB"/>
<path d="M42.0888 287.091H70.3228V252.394H42.0888V287.091Z" fill="#C7C7C7"/>
<path d="M93.0239 265.343H94.1791H95.0531L95.5471 264.343L96.2463 265.343L97.1887 263.29L98.0855 265.343H100.639H101.81L102.228 263.975L102.63 265.343H103.39V252.394H93.0239V265.343Z" fill="white"/>
<path d="M44.0342 285.008C46.1267 282.501 48.199 279.972 50.251 277.42L56.3766 269.795L62.4566 262.132C64.4528 259.575 66.4364 257.008 68.4074 254.432C66.3199 256.938 64.2476 259.468 62.1906 262.019L56.065 269.652L49.985 277.307C47.9836 279.879 46 282.446 44.0342 285.008Z" fill="#DBDBDB"/>
<path d="M44.0342 254.454C46.0051 257.031 47.9912 259.598 49.9926 262.155L56.0726 269.817L62.1982 277.443C64.2248 279.979 66.292 282.501 68.3998 285.008C66.439 282.431 64.4554 279.864 62.449 277.307L56.369 269.652L50.2434 262.019C48.1964 259.503 46.1267 256.981 44.0342 254.454Z" fill="#DBDBDB"/>
<path d="M337.911 294.596H283.229V347.01H337.911V294.596Z" fill="#DBDBDB"/>
<path d="M255.003 347.01H283.237V294.596H255.003V347.01Z" fill="#C7C7C7"/>
<path d="M305.93 307.545H307.085H307.959L308.453 306.545L309.153 307.545L310.095 305.492L310.992 307.545H313.545H314.716L315.141 306.169L315.537 307.545H316.297V294.596H305.93V307.545Z" fill="white"/>
<path d="M256.941 343.89C259.033 340.084 261.106 336.264 263.158 332.429L269.283 320.908L275.363 309.343C277.39 305.477 279.374 301.602 281.314 297.717C279.227 301.522 277.154 305.342 275.097 309.177L268.972 320.69L262.93 332.264C260.923 336.129 258.927 340.004 256.941 343.89Z" fill="#DBDBDB"/>
<path d="M256.941 297.717C258.912 301.602 260.898 305.477 262.899 309.343L268.941 320.908L275.067 332.429C277.119 336.264 279.191 340.084 281.284 343.89C279.323 339.999 277.339 336.124 275.333 332.264L269.253 320.69L263.127 309.177C261.096 305.342 259.033 301.522 256.941 297.717Z" fill="#DBDBDB"/>
<path d="M242.835 35.344V163.259H331.801V35.344H242.835ZM328.517 159.973H246.118V38.555H328.517V159.973Z" fill="#EBEBEB"/>
<path d="M328.517 38.5549H246.118V159.973H328.517V38.5549Z" fill="white"/>
<path d="M246.118 104.648L328.518 104.648V101.4L246.118 101.4V104.648Z" fill="#EBEBEB"/>
<path d="M236.786 172.539H337.843V163.214H236.786V172.539Z" fill="#DBDBDB"/>
<path d="M239.468 176.269L335.167 178.254V172.539H239.468V176.269Z" fill="#EBEBEB"/>
<path d="M246.118 38.5549H328.517V121.974H246.118V38.5549ZM325.477 41.5629H249.158V118.966H325.477V41.5629Z" fill="#DBDBDB"/>
<path d="M302.222 38.5549H300.58V118.966H302.222V38.5549Z" fill="#DBDBDB"/>
<path d="M274.056 38.5549H272.415V118.966H274.056V38.5549Z" fill="#DBDBDB"/>
<path d="M48.1992 35.344V163.259H137.165V35.344H48.1992ZM133.882 159.973H51.4824V38.555H133.882V159.973Z" fill="#EBEBEB"/>
<path d="M133.882 38.5549H51.4824V159.973H133.882V38.5549Z" fill="white"/>
<path d="M51.4821 104.648L133.881 104.648V101.4L51.4821 101.4V104.648Z" fill="#EBEBEB"/>
<path d="M42.1493 172.539H143.207V163.214H42.1493V172.539Z" fill="#DBDBDB"/>
<path d="M44.8325 176.269L140.532 178.254V172.539H44.8325V176.269Z" fill="#EBEBEB"/>
<path d="M51.4824 38.5549H133.882V121.974H51.4824V38.5549ZM130.842 41.5629H54.5224V118.966H130.842V41.5629Z" fill="#DBDBDB"/>
<path d="M107.585 38.5549H105.944V118.966H107.585V38.5549Z" fill="#DBDBDB"/>
<path d="M79.4199 38.5549H77.7783V118.966H79.4199V38.5549Z" fill="#DBDBDB"/>
<path d="M257.419 285.046H181.663V346.98H257.419V285.046Z" fill="#17579B"/>
<path opacity="0.1" d="M257.419 285.046H181.663V346.98H257.419V285.046Z" fill="black"/>
<path d="M287.439 285.053H257.419V346.988H287.439V285.053Z" fill="#17579B"/>
<path opacity="0.2" d="M287.439 285.053H257.419V346.988H287.439V285.053Z" fill="black"/>
<path d="M285.365 342.716C283.146 338.315 280.944 333.898 278.76 329.466L272.247 316.141L265.818 302.763C263.69 298.296 261.579 293.814 259.487 289.317C261.716 293.724 263.92 298.14 266.099 302.567L272.604 315.893L279.034 329.271C281.172 333.738 283.282 338.219 285.365 342.716Z" fill="#17579B"/>
<path d="M285.365 289.317C283.277 293.829 281.167 298.311 279.034 302.763L272.604 316.141L266.099 329.466C263.915 333.893 261.711 338.31 259.487 342.716C261.579 338.204 263.69 333.722 265.818 329.271L272.247 315.893L278.76 302.575C280.944 298.138 283.146 293.719 285.365 289.317Z" fill="#17579B"/>
<path d="M224.899 298.431H223.706H222.802L222.292 297.401L221.57 298.431L220.59 296.311L219.67 298.431H217.025H215.817L215.376 297.018L214.966 298.431H214.183V285.053H224.899V298.431Z" fill="white"/>
<path d="M261.987 223.118H205.466V285.046H261.987V223.118Z" fill="#17579B"/>
<path d="M291.171 223.118H261.987V285.053H291.171V223.118Z" fill="#17579B"/>
<path opacity="0.1" d="M291.171 223.118H261.987V285.053H291.171V223.118Z" fill="black"/>
<g opacity="0.1">
<path d="M257.845 280.782C253.695 276.375 249.581 271.958 245.502 267.531L233.32 254.176L221.319 240.798C217.337 236.331 213.395 231.849 209.494 227.352C213.648 231.759 217.762 236.178 221.836 240.61L233.996 253.928L245.996 267.306C249.994 271.793 253.944 276.285 257.845 280.782Z" fill="black"/>
<path d="M257.845 227.382C253.939 231.894 249.997 236.376 246.019 240.828L234.019 254.176L221.859 267.501C217.806 271.928 213.692 276.345 209.517 280.752C213.423 276.24 217.365 271.758 221.342 267.306L233.32 253.958L245.48 240.64C249.569 236.203 253.69 231.784 257.845 227.382Z" fill="black"/>
</g>
<path d="M287.067 274.57H281.952V281.714H287.067V274.57Z" fill="white"/>
<path d="M31.502 347.01L71.1283 346.822L110.755 346.762L190 346.634L269.245 346.762L308.872 346.822L348.498 347.01L308.872 347.191L269.245 347.258L190 347.386L110.755 347.258L71.1283 347.191L31.502 347.01Z" fill="#263238"/>
<path d="M220.187 133.706C219.762 133.435 219.336 133.172 218.911 132.916L219.207 132.427L220.499 133.232L220.187 133.706Z" fill="#263238"/>
<path d="M201.628 209.056H201.081V208.492C202.096 208.515 203.111 208.477 204.121 208.379L204.182 208.943C203.353 209.003 202.487 209.056 201.628 209.056ZM207.267 208.439L207.146 207.891C208.134 207.669 209.105 207.375 210.049 207.011L210.254 207.537C209.282 207.906 208.284 208.202 207.267 208.424V208.439ZM213.066 206.183L212.785 205.695C213.659 205.19 214.49 204.617 215.27 203.98L215.635 204.409C214.831 205.073 213.971 205.669 213.066 206.191V206.183ZM217.877 202.273L217.459 201.89C218.141 201.148 218.768 200.359 219.336 199.528L219.807 199.844C219.225 200.704 218.58 201.521 217.877 202.288V202.273ZM221.358 197.167L220.841 196.926C221.274 196.021 221.628 195.08 221.897 194.114L222.445 194.264C222.169 195.264 221.805 196.238 221.358 197.175V197.167ZM222.999 191.211L222.429 191.166C222.429 190.76 222.483 190.346 222.483 189.948C222.48 189.39 222.447 188.833 222.384 188.278C221.792 188.239 221.204 188.166 220.621 188.06L220.719 187.504C221.648 187.67 222.588 187.755 223.531 187.759H223.729V188.323H223.524H222.954C223.015 188.868 223.045 189.415 223.045 189.963C223.053 190.369 223.03 190.798 222.999 191.219V191.211ZM226.853 187.947L226.723 187.399C227.701 187.17 228.648 186.826 229.543 186.376L229.801 186.88C228.865 187.352 227.875 187.713 226.853 187.955V187.947ZM217.596 187.248C216.613 186.897 215.66 186.47 214.746 185.97L215.027 185.481C215.912 185.964 216.834 186.377 217.786 186.714L217.596 187.248ZM221.685 185.263C221.351 184.323 220.913 183.422 220.377 182.578L220.856 182.277C221.419 183.155 221.878 184.093 222.224 185.075L221.685 185.263ZM232.416 185.143L232.051 184.714C232.822 184.069 233.527 183.352 234.156 182.571L234.597 182.924C233.948 183.742 233.217 184.492 232.416 185.165V185.143ZM212.169 184.24L212.01 184.09C211.258 183.436 210.658 182.627 210.254 181.721L210.786 181.51C211.157 182.34 211.707 183.079 212.397 183.676L212.549 183.811L212.169 184.24ZM236.36 180.397L235.874 180.104C236.406 179.232 236.9 178.337 237.333 177.457L237.85 177.705C237.409 178.6 236.907 179.51 236.36 180.397ZM218.485 180.285C217.791 179.619 217.026 179.029 216.205 178.525L216.091 178.45L216.387 177.968L216.509 178.044C217.356 178.573 218.144 179.19 218.857 179.886L218.485 180.285ZM210.938 178.833L210.467 178.517C210.792 178.065 211.224 177.697 211.724 177.446C212.224 177.194 212.779 177.067 213.34 177.074V177.638C212.873 177.635 212.411 177.742 211.994 177.95C211.576 178.158 211.215 178.46 210.938 178.833ZM239.058 174.87L238.526 174.675C238.878 173.731 239.18 172.77 239.431 171.795L239.978 171.93C239.733 172.927 239.428 173.909 239.066 174.87H239.058ZM240.578 168.907L240.008 168.832C240.144 167.834 240.223 166.83 240.244 165.824H240.814C240.793 166.855 240.714 167.884 240.578 168.907ZM240.137 162.816C240.046 161.806 239.901 160.802 239.704 159.808L240.267 159.695C240.465 160.702 240.612 161.719 240.707 162.74L240.137 162.816ZM238.959 156.905C238.671 155.957 238.329 155.002 237.933 154.055L238.465 153.844C238.861 154.799 239.225 155.777 239.507 156.739L238.959 156.905ZM236.679 151.303C236.223 150.423 235.714 149.535 235.159 148.663L235.646 148.37C236.193 149.25 236.71 150.152 237.166 151.047L236.679 151.303ZM233.48 146.144C232.895 145.332 232.264 144.527 231.61 143.745L232.051 143.384C232.712 144.174 233.351 144.993 233.943 145.813L233.48 146.144ZM229.589 141.466C228.897 140.714 228.167 140.015 227.423 139.323L227.81 138.91C228.57 139.616 229.33 140.346 229.999 141.083L229.589 141.466ZM225.127 137.308C224.367 136.669 223.539 136.037 222.726 135.435L223.06 134.984C223.889 135.586 224.709 136.225 225.492 136.879L225.127 137.308Z" fill="#263238"/>
<path d="M197.896 208.785C197.385 208.722 196.878 208.632 196.376 208.515L196.513 207.966C196.513 207.966 197.06 208.101 197.972 208.229L197.896 208.785Z" fill="#263238"/>
<path d="M190.228 207.665C189.871 210.673 196.08 212.357 196.551 208.417C197.023 204.476 190.585 204.634 190.228 207.665Z" fill="#263238"/>
<path d="M198.36 212.643C197.782 213.778 195.738 213.936 193.625 212.478C192.19 211.394 190.978 210.049 190.053 208.514C191.84 208.33 193.646 208.486 195.373 208.973C197.874 209.808 198.968 211.492 198.36 212.643Z" fill="#EBEBEB"/>
<path d="M190.076 208.515C191.277 209.049 192.455 209.628 193.633 210.199C194.811 210.771 195.974 211.38 197.121 212.011C195.921 211.478 194.743 210.898 193.565 210.327C192.387 209.755 191.224 209.146 190.076 208.515Z" fill="#263238"/>
<path d="M195.594 212.621C195.321 212.307 195.067 211.979 194.834 211.636C194.604 211.295 194.396 210.941 194.21 210.575C194.483 210.888 194.737 211.217 194.97 211.56C195.202 211.9 195.41 212.254 195.594 212.621Z" fill="#263238"/>
<path d="M193.04 209.981C193.458 209.873 193.882 209.788 194.309 209.725C194.74 209.665 195.174 209.627 195.609 209.613C194.767 209.82 193.907 209.943 193.04 209.981Z" fill="#263238"/>
<path d="M192.379 210.477C192.117 210.155 191.93 209.781 191.832 209.379C192.093 209.701 192.28 210.076 192.379 210.477Z" fill="#263238"/>
<path d="M199.363 204.77C199.067 203.529 197.121 202.912 194.727 203.845C193.075 204.572 191.579 205.606 190.319 206.89C192.028 207.476 193.834 207.731 195.639 207.642C198.201 207.432 199.667 206.048 199.363 204.77Z" fill="#EBEBEB"/>
<path d="M190.319 206.89C191.611 206.65 192.896 206.349 194.173 206.056C195.449 205.762 196.726 205.446 197.973 205.093C196.688 205.334 195.404 205.634 194.127 205.928C192.85 206.221 191.589 206.537 190.319 206.89Z" fill="#263238"/>
<path d="M196.65 204.153C196.319 204.386 196.002 204.637 195.7 204.905C195.399 205.186 195.112 205.482 194.841 205.792C195.175 205.564 195.493 205.313 195.791 205.04C196.095 204.761 196.382 204.465 196.65 204.153Z" fill="#263238"/>
<path d="M193.534 206.138C194.304 206.535 195.114 206.85 195.951 207.078C195.183 206.678 194.372 206.363 193.534 206.138Z" fill="#263238"/>
<path d="M193.04 205.507C192.874 205.629 192.724 205.771 192.592 205.928C192.46 206.089 192.346 206.263 192.25 206.447C192.415 206.321 192.566 206.178 192.698 206.018C192.836 205.864 192.951 205.692 193.04 205.507Z" fill="#263238"/>
<path d="M190.228 207.665C190.446 207.69 190.651 207.778 190.818 207.919C190.985 208.059 191.107 208.245 191.167 208.454C191.227 208.662 191.223 208.884 191.157 209.09C191.09 209.297 190.962 209.479 190.791 209.614C190.62 209.749 190.412 209.831 190.193 209.849C189.975 209.868 189.756 209.821 189.564 209.717C189.372 209.612 189.216 209.453 189.115 209.261C189.014 209.068 188.973 208.85 188.997 208.635C189.031 208.345 189.18 208.081 189.411 207.899C189.641 207.717 189.935 207.633 190.228 207.665Z" fill="#455A64"/>
<path d="M190.487 205.476C190.632 205.493 190.772 205.538 190.9 205.609C191.028 205.679 191.14 205.774 191.231 205.887C191.321 206.001 191.389 206.131 191.429 206.27C191.468 206.409 191.48 206.555 191.463 206.698C191.446 206.842 191.401 206.981 191.33 207.107C191.258 207.234 191.163 207.345 191.048 207.435C190.933 207.524 190.802 207.591 190.661 207.63C190.521 207.67 190.373 207.682 190.228 207.665C189.935 207.631 189.667 207.483 189.484 207.254C189.301 207.025 189.217 206.733 189.252 206.443C189.286 206.153 189.435 205.888 189.667 205.707C189.899 205.525 190.193 205.443 190.487 205.476Z" fill="#455A64"/>
<path d="M121.6 278.473C121.6 278.473 105.397 310.576 105.389 310.576C104.052 317.201 103.003 323.044 102.737 326.112C102.733 326.13 102.733 326.148 102.737 326.165C102.597 326.876 102.625 327.61 102.821 328.308C102.817 328.326 102.817 328.343 102.821 328.361C104.546 330.09 157.791 342.22 159.821 342.025C161.85 341.829 161.417 336.167 159.729 334.069C158.042 331.97 139.749 318.277 139.749 318.277L155.587 286.121L121.6 278.473Z" fill="#D3766A"/>
<path d="M159.015 342.055C157.016 342.25 104.568 330.113 102.851 328.391C102.848 328.373 102.848 328.356 102.851 328.338C102.652 327.641 102.621 326.907 102.76 326.195C102.753 326.178 102.753 326.159 102.76 326.142C103.018 323.074 104.074 317.231 105.404 310.599L109.28 302.913L142.88 312.027L139.779 318.329C139.779 318.329 157.259 331.993 158.954 334.121C160.649 336.249 161.021 341.867 159.015 342.055Z" fill="#EBEBEB"/>
<path d="M159.744 341.213C157.715 341.363 104.34 327.902 102.638 326.112C101.984 325.443 103.512 317.63 105.632 308.245L105.701 307.952L140.235 316.261L140.076 316.833C140.076 316.833 158.171 331.031 159.836 333.196C161.5 335.362 161.766 341.07 159.744 341.213Z" fill="#263238"/>
<path d="M159.661 339.009C150.723 336.528 114.426 327.323 105.397 325.533C105.321 325.533 105.306 325.571 105.397 325.594C114.205 328.248 150.579 337.159 159.646 339.13C159.82 339.197 159.851 339.062 159.661 339.009Z" fill="white"/>
<path d="M142.941 317.667C139.567 316.118 135.098 315.562 131.754 317.382C131.625 317.449 131.754 317.63 131.845 317.622C135.507 317.395 139.184 317.556 142.812 318.104C142.865 318.107 142.918 318.092 142.961 318.062C143.005 318.031 143.037 317.987 143.052 317.936C143.067 317.886 143.064 317.832 143.044 317.783C143.024 317.734 142.988 317.693 142.941 317.667Z" fill="white"/>
<path d="M145.099 319.833C141.732 318.292 137.263 317.735 133.912 319.547C133.783 319.615 133.912 319.796 134.011 319.796C137.673 319.565 141.35 319.726 144.977 320.277C145.033 320.282 145.088 320.268 145.134 320.237C145.18 320.205 145.213 320.159 145.228 320.106C145.242 320.053 145.237 319.996 145.214 319.946C145.19 319.896 145.149 319.856 145.099 319.833Z" fill="white"/>
<path d="M147.265 322.007C143.891 320.457 139.422 319.901 136.078 321.713C135.949 321.788 136.078 321.969 136.177 321.961C139.836 321.734 143.511 321.896 147.136 322.443C147.189 322.446 147.242 322.431 147.285 322.401C147.329 322.37 147.361 322.326 147.376 322.276C147.391 322.225 147.388 322.171 147.368 322.122C147.348 322.073 147.312 322.032 147.265 322.007Z" fill="white"/>
<path d="M161.044 339.528C161.903 340.13 160.877 343.25 160.124 343.333C159.372 343.416 101.24 328.481 100.32 328.007C99.4003 327.534 100.662 324.12 101.84 324.247C103.018 324.375 161.044 339.528 161.044 339.528Z" fill="#C31F82"/>
<path d="M112.989 316.088C109.615 313.201 105.07 318.389 108.429 321.285C111.788 324.18 116.371 318.983 112.989 316.088Z" fill="white"/>
<path d="M109.379 300.349L148.321 310.065C148.321 310.065 184.619 245.25 183.806 228.774C182.689 206.048 155.724 136.172 155.724 136.172H123.439C123.439 136.172 144.863 211.711 145.16 224.42C145.289 231.067 109.379 300.349 109.379 300.349Z" fill="#455A64"/>
<path d="M149.986 302.244C147.911 301.424 129.375 296.13 115.543 293.22C115.527 293.225 115.514 293.234 115.505 293.247C115.495 293.26 115.49 293.276 115.49 293.291C115.49 293.307 115.495 293.323 115.505 293.335C115.514 293.348 115.527 293.358 115.543 293.363C119.897 294.867 147.379 302.033 149.955 302.387C150.016 302.409 150.077 302.304 149.986 302.244Z" fill="#263238"/>
<path d="M147.835 208.191C145.266 197.528 142.515 186.895 139.627 176.329C136.739 165.763 133.646 155.1 130.249 144.617C129.838 143.331 129.405 142.06 128.987 140.782C128.975 140.741 128.947 140.707 128.909 140.686C128.871 140.666 128.827 140.661 128.786 140.673C128.744 140.685 128.709 140.713 128.689 140.75C128.668 140.787 128.663 140.831 128.675 140.872C131.715 151.318 134.755 161.74 137.636 172.223C140.516 182.706 143.26 193.219 145.844 203.807C146.49 206.424 147.121 209.034 147.736 211.658C148.452 214.348 149.005 217.077 149.393 219.832C149.713 222.465 149.529 225.133 148.853 227.698C148.12 230.219 147.161 232.67 145.988 235.023C141.332 245.024 136.678 255.028 132.027 265.035C127.376 275.067 126.623 277.353 122.147 287.467C121.592 288.723 121.037 289.979 120.505 291.227C120.505 291.31 120.589 291.385 120.635 291.295C125.727 281.383 126.509 279 131.275 268.908C136.04 258.816 140.775 248.604 145.502 238.444C147.63 233.857 150.13 229.18 150.449 224.051C150.769 218.697 149.066 213.327 147.835 208.191Z" fill="#263238"/>
<path d="M149.598 291.167L150.845 326.511C151.05 333.279 151.346 339.197 151.795 342.243C151.791 342.26 151.791 342.278 151.795 342.295C151.82 343.018 152.012 343.726 152.357 344.363L152.403 344.409C154.477 345.71 209.114 345.679 211.021 345.04C212.929 344.401 211.242 338.987 209.121 337.31C207.001 335.633 186.071 326.391 186.071 326.391L184.482 291.084L149.598 291.167Z" fill="#D3766A"/>
<path d="M150.586 319.277C150.586 319.277 150.845 326.511 150.845 326.533C151.05 333.301 151.346 339.22 151.795 342.265C151.791 342.283 151.791 342.301 151.795 342.318C151.899 343.027 152.087 343.721 152.357 344.386L152.403 344.431C154.478 345.732 209.114 345.702 211.022 345.063C212.929 344.424 211.242 339.009 209.122 337.332C207.001 335.655 186.071 326.413 186.071 326.413L185.911 319.051L150.586 319.277Z" fill="#EBEBEB"/>
<path d="M211.052 345.003C209.122 345.612 154.052 344.77 151.97 343.416C151.21 342.912 150.83 334.971 150.693 325.368V325.067L186.23 325.218V325.819C186.23 325.819 207.168 335.467 209.289 337.189C211.409 338.911 212.99 344.416 211.052 345.003Z" fill="#263238"/>
<path d="M210.467 342.912C201.187 342.544 163.719 341.927 154.515 342.265C154.439 342.265 154.439 342.318 154.515 342.318C163.704 342.882 201.179 343.205 210.467 343.07C210.657 343.025 210.664 342.912 210.467 342.912Z" fill="white"/>
<path d="M189.194 325.955C185.554 325.203 181.07 325.706 178.243 328.211C178.129 328.308 178.243 328.459 178.395 328.429C181.903 327.369 185.516 326.681 189.171 326.376C189.215 326.362 189.254 326.335 189.282 326.299C189.311 326.262 189.327 326.219 189.33 326.173C189.332 326.127 189.32 326.082 189.296 326.043C189.272 326.004 189.236 325.973 189.194 325.955Z" fill="white"/>
<path d="M191.809 327.564C188.161 326.812 183.684 327.323 180.857 329.857C180.743 329.955 180.857 330.106 181.001 330.068C184.512 329.007 188.128 328.321 191.786 328.023C191.841 328.016 191.892 327.99 191.929 327.95C191.967 327.91 191.989 327.857 191.992 327.803C191.995 327.748 191.978 327.694 191.944 327.65C191.911 327.606 191.863 327.576 191.809 327.564Z" fill="white"/>
<path d="M194.415 329.181C190.775 328.429 186.299 328.932 183.464 331.437C183.357 331.534 183.464 331.685 183.616 331.655C187.125 330.596 190.737 329.908 194.393 329.602C194.437 329.588 194.475 329.561 194.504 329.525C194.532 329.488 194.548 329.445 194.551 329.399C194.553 329.353 194.542 329.308 194.518 329.269C194.493 329.23 194.458 329.199 194.415 329.181Z" fill="white"/>
<path d="M211.926 343.063C212.906 343.454 212.64 346.725 211.926 346.973C211.211 347.221 151.126 346.04 150.145 345.8C149.165 345.559 149.56 341.942 150.753 341.769C151.947 341.596 211.926 343.063 211.926 343.063Z" fill="#C31F82"/>
<path d="M159.691 331.294C155.731 329.256 152.524 335.347 156.491 337.385C160.459 339.423 163.658 333.332 159.691 331.294Z" fill="white"/>
<path d="M155.321 136.112C155.176 136.766 147.128 168.253 146.125 168.839C144.985 169.508 175.37 209.958 178.972 229.819C181.252 242.52 186.572 316.555 186.572 316.555H147.827C147.827 316.555 144.027 253.68 142.766 232.962C142.272 224.923 111.796 187.759 108.9 162.981C107.988 155.175 113.658 136.082 113.658 136.082L155.321 136.112Z" fill="#455A64"/>
<path d="M146.847 286.64C146.391 276.225 145.973 265.787 145.206 255.387C144.772 249.491 143.921 243.783 143.328 237.91C143.328 237.602 143.047 237.527 143.055 237.843C143.328 248.303 144.202 258.651 144.765 269.103C145.327 279.556 145.867 281.993 146.467 292.415C146.802 298.311 147.098 304.207 147.562 310.095C147.567 310.11 147.576 310.123 147.589 310.132C147.602 310.142 147.618 310.147 147.634 310.147C147.65 310.147 147.665 310.142 147.678 310.132C147.691 310.123 147.701 310.11 147.706 310.095C147.729 299.627 147.311 297.093 146.847 286.64Z" fill="#263238"/>
<path d="M179.01 230.315C178.679 227.565 178.14 224.842 177.399 222.171C176.601 219.582 175.55 217.076 174.26 214.689C171.623 209.68 168.621 204.837 165.726 199.972C162.83 195.107 159.813 190.136 156.758 185.278C155.04 182.551 153.315 179.826 151.582 177.104C149.819 174.359 147.957 171.667 146.14 168.959C146.126 168.937 146.104 168.92 146.077 168.914C146.051 168.907 146.023 168.912 146 168.926C145.977 168.94 145.96 168.962 145.954 168.988C145.947 169.014 145.951 169.042 145.966 169.065C148.93 173.983 151.863 178.908 154.827 183.827C157.791 188.745 160.71 193.678 163.628 198.611C166.546 203.544 169.381 208.327 172.132 213.26C173.487 215.602 174.653 218.046 175.621 220.569C176.521 223.184 177.174 225.875 177.574 228.608C178.608 234.978 179.451 241.392 180.743 247.701C180.748 247.716 180.758 247.73 180.771 247.739C180.784 247.748 180.799 247.753 180.815 247.753C180.831 247.753 180.847 247.748 180.86 247.739C180.873 247.73 180.883 247.716 180.888 247.701C180.485 241.896 179.786 236.083 179.01 230.315Z" fill="#263238"/>
<path d="M183.16 309.982C180.948 309.696 164.069 309.117 149.948 309.719C149.857 309.719 149.864 309.854 149.948 309.862C154.546 310.26 180.546 310.441 183.137 310.14C183.206 310.132 183.236 309.997 183.16 309.982Z" fill="#263238"/>
<path d="M151.179 166.688C147.232 168.112 143.417 169.873 139.779 171.952C139.748 171.966 139.724 171.992 139.711 172.024C139.699 172.056 139.7 172.091 139.715 172.122C139.729 172.153 139.755 172.177 139.787 172.189C139.819 172.201 139.854 172.2 139.886 172.186C143.731 170.546 147.66 168.982 151.415 167.14C151.475 167.109 151.521 167.055 151.541 166.991C151.562 166.927 151.556 166.857 151.525 166.798C151.494 166.738 151.44 166.693 151.375 166.672C151.31 166.652 151.24 166.658 151.179 166.688Z" fill="#263238"/>
<path d="M152.342 140.624C152.342 140.496 152.099 140.466 152.099 140.624C152.099 144.873 151.884 149.12 151.453 153.348C151.27 155.311 149.674 166.132 146.239 165.38C145.661 165.245 145.373 164.688 145.281 163.823C145.291 162.701 145.444 161.584 145.737 160.499C146.117 158.243 146.421 155.987 146.619 153.664C147.022 149.394 146.976 145.095 146.482 140.835C146.476 140.811 146.461 140.789 146.441 140.774C146.422 140.759 146.397 140.751 146.372 140.751C146.347 140.751 146.322 140.759 146.302 140.774C146.282 140.789 146.268 140.811 146.262 140.835C146.361 146.753 146.011 152.67 145.213 158.537C144.78 161.357 143.343 165.606 146.33 166.057C149.317 166.508 151.331 159.386 151.696 157.439C152.646 151.885 152.864 146.233 152.342 140.624Z" fill="#263238"/>
<path d="M146.331 165.613C146.026 166.347 145.772 167.101 145.571 167.869C145.352 168.459 145.244 169.083 145.251 169.711C145.255 169.737 145.267 169.761 145.284 169.78C145.302 169.799 145.325 169.812 145.351 169.818C145.376 169.824 145.403 169.822 145.427 169.812C145.452 169.802 145.472 169.786 145.487 169.764C145.846 169.21 146.115 168.603 146.285 167.967C146.551 167.267 146.825 166.583 147.045 165.876C147.08 165.782 147.076 165.679 147.034 165.588C146.992 165.497 146.915 165.426 146.821 165.391C146.726 165.356 146.621 165.36 146.529 165.402C146.437 165.443 146.366 165.519 146.331 165.613Z" fill="#263238"/>
<path d="M147.949 243.069C147.585 237.715 147.607 232.067 145.305 227.104C144.081 224.686 142.674 222.363 141.094 220.156C139.523 217.779 137.973 215.391 136.443 212.989C130.363 203.386 124.496 193.588 119.153 183.548C116.577 178.713 114.205 173.72 112.913 168.381C111.653 162.762 111.414 156.966 112.207 151.265C112.389 149.844 112.587 148.43 112.822 147.016C112.823 146.997 112.817 146.978 112.805 146.963C112.793 146.948 112.777 146.937 112.758 146.932C112.739 146.928 112.719 146.93 112.702 146.939C112.684 146.947 112.671 146.961 112.663 146.979C111.412 152.4 110.984 157.976 111.393 163.523C111.978 168.825 113.488 173.988 115.855 178.781C118.211 183.827 121.015 188.684 123.781 193.52C126.634 198.533 129.57 203.474 132.59 208.342C135.63 213.2 138.761 217.96 141.9 222.743C143.501 224.998 144.749 227.48 145.601 230.105C146.292 232.843 146.689 235.646 146.787 238.467C147.547 250.303 150.587 289.656 151.666 301.432C151.795 302.936 151.932 304.44 152.076 305.944C152.072 305.959 152.071 305.976 152.074 305.992C152.077 306.008 152.084 306.023 152.094 306.036C152.104 306.048 152.117 306.059 152.132 306.066C152.146 306.073 152.162 306.077 152.179 306.077C152.195 306.077 152.211 306.073 152.226 306.066C152.241 306.059 152.253 306.048 152.263 306.036C152.273 306.023 152.28 306.008 152.283 305.992C152.286 305.976 152.286 305.959 152.281 305.944C151.825 294.122 148.732 254.868 147.949 243.069Z" fill="#263238"/>
<path d="M129.352 146.49C129.352 146.407 129.215 146.437 129.215 146.49C129.101 149.776 129.215 153.175 127.916 156.266C126.745 159.116 124.389 161.116 121.752 162.612C120.218 163.464 118.638 164.23 117.017 164.906C116.903 164.959 116.949 165.139 117.078 165.102C120.118 164.139 123.257 163.094 125.803 161.078C128.524 158.913 129.717 155.777 129.846 152.393C129.893 150.413 129.727 148.435 129.352 146.49Z" fill="#263238"/>
<path d="M146.216 92.9248C150.563 106.13 162.305 128.622 166.501 131.337C170.217 133.736 187.705 131.059 195.381 129.231C198.238 128.547 191.809 106.995 188.761 107.784C185.105 108.732 174.215 111.161 173.424 110.559C172.634 109.958 161.652 96.572 153.869 88.691C146.786 81.5546 144.575 87.9315 146.216 92.9248Z" fill="#D3766A"/>
<path d="M193.701 129.397C195.168 129.216 207.579 128.645 213.271 125.584C216.311 123.952 224.071 118.553 223.295 116.613C222.589 114.846 220.096 115.808 220.096 115.808C220.096 115.808 223.523 113.349 222.52 110.898C221.517 108.446 217.375 110.288 217.375 110.288C217.375 110.288 220.711 107.506 219.533 105.137C218.355 102.768 214.51 105.303 214.51 105.303C214.51 105.303 217.679 102.904 215.878 101.355C213.704 99.4897 208.361 104.573 204.751 105.761C203.931 106.032 187.758 110.078 187.758 110.078L193.701 129.397Z" fill="#D3766A"/>
<path d="M214.373 105.235C210.436 108.957 208.058 109.912 202.798 110.965C202.7 110.965 202.707 111.146 202.798 111.131C208.042 110.567 211.196 109.792 214.548 105.415C214.73 105.197 214.556 105.054 214.373 105.235Z" fill="#263238"/>
<path d="M217.246 110.198C212.815 113.717 210.246 114.77 204.82 116.274C204.744 116.274 204.774 116.432 204.858 116.417C210.299 115.379 213.431 114.537 217.39 110.446C217.573 110.266 217.451 110.04 217.246 110.198Z" fill="#263238"/>
<path d="M219.83 115.868C215.27 118.966 212.526 120.252 207.07 121.042C207.043 121.042 207.018 121.052 207 121.071C206.981 121.089 206.971 121.114 206.971 121.14C206.971 121.166 206.981 121.191 207 121.209C207.018 121.227 207.043 121.238 207.07 121.238C212.716 120.967 216.19 119.395 219.891 116.019C220.164 115.808 220.111 115.68 219.83 115.868Z" fill="#263238"/>
<path d="M183.517 110.77C183.517 110.77 188.039 105.709 190.517 103.919C192.994 102.129 204.729 98.8204 205.595 101.287C206.712 104.475 200.321 107.702 196.984 108.875C196.984 108.875 199.576 116.244 195.464 119.538C191.353 122.832 183.517 110.77 183.517 110.77Z" fill="#D3766A"/>
<path d="M205.618 102.272C204.516 105.904 200.032 107.167 196.878 108.544C196.831 108.564 196.79 108.594 196.757 108.632C196.724 108.671 196.701 108.717 196.689 108.765C196.678 108.814 196.677 108.865 196.689 108.914C196.701 108.963 196.724 109.009 196.756 109.047C197.638 112.206 197.942 116.913 195.707 119.575C195.647 119.651 195.745 119.756 195.821 119.688C198.611 117.162 198.687 112.507 197.501 109.108C200.761 107.747 205.2 106.28 205.648 102.287C205.656 102.272 205.625 102.272 205.618 102.272Z" fill="#263238"/>
<path d="M193.694 133.104L187.963 107.28L173.782 109.83C168.188 103.49 157.008 90.8192 152.502 87.0141C147.182 82.5472 143.701 85.9011 145.662 92.6691C150.092 108.138 163.05 130.848 166.44 132.991C171.357 136.112 193.694 133.104 193.694 133.104Z" fill="#C31F82"/>
<path opacity="0.1" d="M173.447 117.688C174.149 117.839 174.864 117.922 175.583 117.936C177.103 118.139 177.771 120.358 176.388 121.2C175.662 121.643 174.841 121.911 173.991 121.983C173.141 122.054 172.286 121.928 171.494 121.614C169.974 121.027 168.689 119.568 169.016 117.854C169.073 117.534 169.212 117.234 169.42 116.984C169.629 116.733 169.899 116.54 170.205 116.424C170.511 116.307 170.842 116.271 171.167 116.318C171.491 116.366 171.798 116.496 172.056 116.696C172.477 117.081 172.944 117.414 173.447 117.688ZM169.525 111.544C168.978 114.101 172.976 116.297 175.02 114.936C175.185 114.812 175.32 114.654 175.414 114.472C175.508 114.29 175.56 114.089 175.565 113.884C175.57 113.68 175.528 113.477 175.443 113.291C175.358 113.104 175.232 112.939 175.073 112.808C174.473 112.326 173.971 112.251 173.439 111.815C173.253 111.671 173.09 111.502 172.953 111.311C172.652 110.9 172.266 110.557 171.821 110.304C171.589 110.206 171.338 110.161 171.087 110.173C170.835 110.185 170.59 110.253 170.369 110.373C170.148 110.492 169.957 110.66 169.811 110.863C169.665 111.066 169.567 111.299 169.525 111.544ZM163.149 111.68C162.328 112.74 162.944 114.334 163.666 115.297C163.991 115.776 164.438 116.162 164.963 116.414C165.488 116.666 166.071 116.776 166.653 116.733C166.865 116.704 167.063 116.614 167.225 116.475C167.387 116.336 167.504 116.154 167.564 115.951C167.623 115.747 167.622 115.531 167.56 115.328C167.498 115.126 167.378 114.945 167.215 114.808C166.758 114.464 166.393 114.015 166.151 113.5C165.794 112.702 165.558 111.672 164.631 111.326C164.378 111.223 164.098 111.202 163.832 111.265C163.566 111.329 163.327 111.474 163.149 111.68ZM179.983 128.404C178.911 130.547 182.172 132.984 184.148 132.563C184.809 132.42 185.447 131.563 184.862 130.946C184.391 130.45 183.829 130.059 183.388 129.532C182.848 128.893 182.552 128.073 181.708 127.75C181.391 127.619 181.034 127.613 180.713 127.735C180.392 127.857 180.13 128.097 179.983 128.404ZM149.37 102.122C149.183 101.77 148.924 101.46 148.61 101.212C149.036 102.29 149.484 103.37 149.955 104.453C149.981 103.637 149.778 102.831 149.37 102.122ZM153.603 99.8658C153.455 98.0082 152.721 96.2435 151.506 94.8199C150.594 93.6543 149.013 91.8119 147.341 92.2104C147.163 92.2654 147.008 92.3755 146.899 92.5245C146.789 92.6735 146.731 92.8534 146.733 93.0376C146.627 94.3085 148.101 95.6697 148.739 96.6849C149.499 97.9633 150.1 99.377 150.921 100.648C151.092 100.909 151.345 101.109 151.64 101.216C151.936 101.324 152.258 101.334 152.56 101.245C152.862 101.156 153.127 100.973 153.315 100.723C153.503 100.473 153.604 100.17 153.603 99.8583V99.8658ZM153.109 107.95C153.406 107.935 153.691 107.826 153.92 107.639C154.15 107.452 154.313 107.197 154.386 106.912C154.504 106.328 154.465 105.724 154.272 105.16C154.159 104.623 153.895 104.128 153.512 103.731C153.375 103.605 153.207 103.517 153.025 103.475C152.843 103.433 152.653 103.438 152.474 103.491C152.295 103.543 152.132 103.64 152.003 103.774C151.873 103.907 151.78 104.071 151.734 104.25C151.673 104.689 151.673 105.134 151.734 105.573C151.734 105.761 151.734 105.949 151.734 106.145C151.73 106.428 151.761 106.711 151.825 106.987C151.907 107.262 152.076 107.503 152.307 107.675C152.539 107.847 152.82 107.941 153.109 107.942V107.95Z" fill="#030402"/>
<path d="M188.731 130.848C188.077 129.344 186.451 122.666 186.094 121.004C185.736 119.342 184.414 112.62 184.026 110.913C184.026 110.815 184.133 110.762 184.156 110.852C184.566 112.537 186.398 119.169 186.8 120.824C187.203 122.478 188.716 129.149 188.822 130.825C188.823 130.831 188.824 130.838 188.823 130.844C188.822 130.85 188.82 130.855 188.817 130.861C188.81 130.871 188.8 130.879 188.788 130.882C188.776 130.885 188.763 130.883 188.752 130.877C188.741 130.87 188.734 130.86 188.731 130.848Z" fill="#263238"/>
<path opacity="0.1" d="M175.56 134.398C171.57 134.398 168.066 134.022 166.44 132.991C163.028 130.811 150.07 108.175 145.608 92.6767C144.484 88.7964 145.16 86.029 146.938 85.2244L175.56 134.398Z" fill="black"/>
<path d="M111.249 139.654C111.348 139.797 158.772 145.813 159.281 145.377C159.549 144.07 159.739 142.75 159.851 141.421C159.851 141.421 155.504 90.3303 153.254 87.3298C151.286 84.7129 145.312 82.8178 141.246 84.5249C132.711 88.1044 112.275 133.751 112.495 135.661C112.48 135.638 111.127 139.474 111.249 139.654Z" fill="#C31F82"/>
<path opacity="0.1" d="M128.349 133.435C129.08 133.786 129.843 134.068 130.629 134.277C132.209 134.901 132.354 137.511 130.629 138.037C129.711 138.325 128.739 138.397 127.789 138.247C126.839 138.097 125.937 137.729 125.157 137.172C123.637 136.12 122.656 134.164 123.477 132.42C123.628 132.088 123.862 131.8 124.158 131.583C124.453 131.367 124.8 131.229 125.165 131.184C125.53 131.139 125.901 131.187 126.241 131.325C126.582 131.462 126.881 131.684 127.11 131.969C127.535 132.457 127.794 133.104 128.349 133.435ZM125.749 125.667C124.45 128.321 128.212 131.788 130.819 130.848C131.037 130.762 131.232 130.626 131.389 130.453C131.545 130.279 131.659 130.072 131.721 129.847C131.783 129.623 131.791 129.387 131.745 129.159C131.699 128.931 131.601 128.716 131.457 128.532C130.94 127.848 130.408 127.63 129.937 127.028C129.774 126.82 129.644 126.589 129.549 126.344C129.325 125.819 128.997 125.343 128.584 124.945C127.68 124.08 126.228 124.689 125.749 125.667ZM121.357 122.839C119.935 123.366 119.571 125.261 119.677 126.599C119.699 127.25 119.895 127.882 120.244 128.433C120.594 128.984 121.086 129.433 121.668 129.735C121.888 129.832 122.132 129.864 122.37 129.827C122.607 129.791 122.829 129.686 123.009 129.527C123.188 129.368 123.317 129.161 123.38 128.931C123.443 128.701 123.437 128.458 123.363 128.231C123.122 127.63 123.038 126.978 123.12 126.336C123.249 125.374 123.637 124.246 122.991 123.381C122.811 123.131 122.556 122.945 122.262 122.848C121.969 122.75 121.652 122.747 121.357 122.839ZM136.937 131.788C136.577 131.758 136.219 131.864 135.936 132.087C135.654 132.309 135.468 132.63 135.417 132.984C135.378 133.364 135.474 133.745 135.689 134.062C135.904 134.38 136.224 134.612 136.595 134.721C137.113 134.89 137.672 134.89 138.191 134.721C138.456 134.617 138.674 134.422 138.806 134.172C138.959 133.93 139.021 133.642 138.981 133.36C138.939 133.096 138.817 132.851 138.631 132.658C138.445 132.464 138.204 132.332 137.94 132.277C137.892 132.214 137.836 132.159 137.773 132.111C137.531 131.926 137.241 131.814 136.937 131.788ZM125.286 113.642C124.009 114.936 124.526 117.876 125.985 118.869C126.173 119.01 126.395 119.1 126.629 119.13C126.863 119.161 127.101 119.13 127.319 119.041C127.537 118.952 127.728 118.808 127.873 118.623C128.017 118.439 128.111 118.22 128.143 117.989C128.166 117.691 128.166 117.392 128.143 117.094C128.143 116.771 128.098 116.568 128.143 116.342C128.257 115.699 128.28 115.044 128.212 114.394C128.153 114.086 128.006 113.801 127.79 113.573C127.574 113.344 127.296 113.18 126.989 113.102C126.683 113.023 126.36 113.032 126.058 113.127C125.757 113.223 125.489 113.402 125.286 113.642ZM117.04 132.352C115.284 134.413 118.18 137.947 120.452 138.015C121.212 138.015 122.147 137.263 121.676 136.435C121.296 135.774 120.787 135.187 120.452 134.503C120.042 133.661 119.943 132.675 119.107 132.104C118.795 131.877 118.408 131.777 118.024 131.823C117.64 131.869 117.288 132.058 117.04 132.352ZM158.969 131.698C158.683 131.74 158.416 131.866 158.202 132.059C157.988 132.251 157.837 132.503 157.768 132.781C157.525 133.615 157.495 134.36 156.864 135.037C156.181 135.568 155.568 136.182 155.04 136.864C154.952 137.034 154.91 137.224 154.918 137.416C154.926 137.607 154.985 137.793 155.087 137.955C155.19 138.117 155.333 138.25 155.503 138.341C155.674 138.432 155.865 138.477 156.058 138.473C157.385 138.312 158.6 137.656 159.455 136.638C159.303 135.21 159.151 133.533 158.977 131.668L158.969 131.698ZM155.169 125.494C154.743 126.517 154.819 127.675 154.462 128.742C154.149 129.721 153.776 130.681 153.345 131.615C153.026 132.292 153.664 133.36 154.493 132.999C155.84 132.487 156.942 131.491 157.578 130.209C158.156 129.028 158.794 127.043 158.239 125.787C157.685 124.531 155.8 123.982 155.154 125.464L155.169 125.494ZM150.837 135.744C150.205 136.551 149.397 137.207 148.473 137.661C148.253 137.729 148.05 137.842 147.877 137.993C147.705 138.144 147.567 138.33 147.472 138.538C147.378 138.746 147.329 138.972 147.329 139.2C147.329 139.428 147.379 139.653 147.474 139.861C147.569 140.069 147.707 140.255 147.88 140.405C148.053 140.556 148.256 140.669 148.477 140.736C148.697 140.803 148.929 140.823 149.158 140.795C149.387 140.767 149.607 140.69 149.803 140.571C150.59 140.238 151.293 139.738 151.863 139.106C152.432 138.475 152.855 137.727 153.102 136.917C153.459 135.616 151.681 134.766 150.822 135.714L150.837 135.744ZM143.891 98.8956C144.315 98.9845 144.758 98.9073 145.127 98.6802C145.495 98.4531 145.76 98.0937 145.867 97.6773C146.292 96.0605 144.833 94.3986 143.678 93.3909C142.523 92.3833 140.896 91.4658 139.277 91.9847C139.062 92.0538 138.868 92.1762 138.713 92.3404C138.559 92.5045 138.45 92.7049 138.396 92.9226C138.342 93.1403 138.345 93.3681 138.405 93.5843C138.464 93.8004 138.579 93.9979 138.738 94.158C139.445 95.0303 140.425 95.662 141.177 96.5193C141.93 97.3765 142.553 98.6474 143.875 98.8655L143.891 98.8956ZM149.72 105.28C150.358 104.37 149.864 103.024 149.408 102.159C149.165 101.682 148.788 101.285 148.321 101.016C148.007 100.817 147.627 100.749 147.263 100.827C146.898 100.904 146.579 101.121 146.376 101.43C146.168 101.857 146.136 102.348 146.285 102.798C146.348 103.034 146.435 103.264 146.543 103.483V103.55V103.611C146.679 104.329 146.986 105.004 147.44 105.581C147.597 105.737 147.788 105.856 147.999 105.927C148.21 105.998 148.434 106.019 148.655 105.99C148.876 105.961 149.087 105.882 149.272 105.759C149.456 105.635 149.61 105.472 149.72 105.28ZM153.641 99.8957C153.493 98.0381 152.759 96.2734 151.544 94.8498C150.632 93.6842 149.051 91.8418 147.379 92.2404C147.201 92.2953 147.046 92.4054 146.937 92.5544C146.827 92.7034 146.769 92.8834 146.771 93.0676C146.665 94.3385 148.139 95.6996 148.777 96.7148C149.537 97.9932 150.138 99.4069 150.959 100.678C151.138 100.925 151.391 101.109 151.682 101.206C151.973 101.302 152.287 101.305 152.58 101.214C152.873 101.123 153.13 100.943 153.314 100.7C153.497 100.456 153.599 100.162 153.603 99.8581L153.641 99.8957ZM147.903 112.77C148.181 112.83 148.469 112.83 148.747 112.77C149.168 112.642 149.524 112.359 149.743 111.98C149.947 111.577 150.049 111.13 150.039 110.679C150.025 110.252 149.908 109.834 149.697 109.461L149.446 109.153L149.112 108.912C148.903 108.805 148.672 108.747 148.437 108.74C148.201 108.734 147.968 108.78 147.753 108.876C147.538 108.971 147.348 109.113 147.196 109.291C147.045 109.47 146.936 109.679 146.877 109.905C146.751 110.343 146.662 110.791 146.611 111.243L146.68 111.657C146.733 111.865 146.837 112.056 146.984 112.214C147.213 112.476 147.523 112.658 147.865 112.732L147.903 112.77ZM153.147 107.98C153.444 107.965 153.729 107.856 153.958 107.669C154.188 107.482 154.351 107.227 154.424 106.942C154.542 106.358 154.503 105.754 154.31 105.19C154.197 104.653 153.933 104.158 153.55 103.761C153.413 103.635 153.245 103.547 153.063 103.505C152.881 103.463 152.691 103.468 152.512 103.521C152.333 103.573 152.17 103.67 152.041 103.803C151.911 103.937 151.818 104.101 151.772 104.28C151.711 104.719 151.711 105.164 151.772 105.603C151.772 105.791 151.772 105.979 151.772 106.175C151.768 106.458 151.799 106.741 151.863 107.017C151.948 107.28 152.114 107.511 152.337 107.676C152.56 107.842 152.83 107.935 153.109 107.942L153.147 107.98Z" fill="#030402"/>
<path d="M150.48 95.3387C147.584 95.0755 143.876 88.9542 143.169 85.0664C143.123 84.7957 144.278 82.5322 145.548 79.7197C146.308 78.0126 147.128 76.0875 147.736 74.2827L158.255 80.8326C156.836 82.8757 155.674 85.083 154.797 87.4051C154.718 87.6503 154.662 87.902 154.63 88.1571C154.632 88.1997 154.632 88.2424 154.63 88.285C154.364 89.789 153.284 95.5944 150.48 95.3387Z" fill="#D3766A"/>
<path d="M154.63 88.1721C154.632 88.2147 154.632 88.2573 154.63 88.2999C154.224 88.2214 153.825 88.1134 153.436 87.9766C146.855 85.6303 148.018 77.0876 148.481 74.7263L151.103 76.3657L158.285 80.8777C156.867 82.9199 155.708 85.1274 154.835 87.4502C154.744 87.6841 154.676 87.9258 154.63 88.1721Z" fill="#263238"/>
<path d="M148.838 62.2282C146.665 66.101 146.285 78.5391 148.694 81.8403C152.175 86.6231 159.167 88.488 163.598 84.0963C167.892 79.7949 168.089 63.5743 165.292 60.4459C161.158 55.7986 152.046 56.5055 148.838 62.2282Z" fill="#D3766A"/>
<path d="M158.931 72.2822C158.931 72.2822 158.863 72.2822 158.863 72.3574C158.863 73.2147 158.711 74.1923 157.92 74.448V74.5006C158.886 74.3953 159.068 73.0944 158.931 72.2822Z" fill="#263238"/>
<path d="M158.194 71.3648C156.803 71.2144 156.598 73.9668 157.882 74.1096C159.167 74.2525 159.357 71.4927 158.194 71.3648Z" fill="#263238"/>
<path d="M163.917 72.5757C163.917 72.5757 163.978 72.6208 163.978 72.6584C163.879 73.5082 163.917 74.5008 164.669 74.8392C164.669 74.8392 164.669 74.8994 164.669 74.8918C163.719 74.6813 163.689 73.3653 163.917 72.5757Z" fill="#263238"/>
<path d="M164.76 71.7483C166.151 71.7483 166.037 74.5081 164.76 74.5081C163.484 74.5081 163.59 71.7408 164.76 71.7483Z" fill="#263238"/>
<path d="M159.319 70.8085C158.931 70.8912 158.559 70.8988 158.179 70.9439C157.785 71.0458 157.368 71.0167 156.993 70.8612C156.884 70.7899 156.801 70.6849 156.759 70.5624C156.716 70.44 156.716 70.3071 156.758 70.1844C156.882 69.9601 157.064 69.7724 157.286 69.6403C157.508 69.5083 157.76 69.4365 158.019 69.4324C158.544 69.3325 159.088 69.4347 159.539 69.7181C159.633 69.788 159.705 69.8827 159.747 69.9913C159.789 70.0999 159.799 70.218 159.776 70.332C159.753 70.4459 159.698 70.5512 159.617 70.6355C159.536 70.7198 159.433 70.7798 159.319 70.8085Z" fill="#263238"/>
<path d="M166.007 69.184C165.638 69.0816 165.275 68.9586 164.92 68.8155C164.52 68.741 164.156 68.5373 163.886 68.2365C163.819 68.1263 163.79 67.9969 163.805 67.8689C163.82 67.7408 163.878 67.6214 163.97 67.5296C164.177 67.3726 164.424 67.2743 164.684 67.2452C164.943 67.216 165.206 67.2572 165.444 67.3642C165.958 67.5032 166.401 67.8245 166.691 68.2666C166.751 68.3715 166.779 68.4914 166.771 68.6118C166.764 68.7322 166.722 68.8479 166.649 68.9449C166.577 69.042 166.478 69.1162 166.364 69.1586C166.25 69.2011 166.126 69.2099 166.007 69.184Z" fill="#263238"/>
<path d="M158.301 79.0654C159.42 78.8003 160.586 78.8003 161.705 79.0654C161.804 79.0654 161.903 78.8699 161.926 78.7796L161.987 76.9748C162.222 77.1102 163.408 77.7268 163.408 77.396C163.531 74.4626 163.351 71.5245 162.868 68.6276C162.863 68.6108 162.852 68.5961 162.838 68.5857C162.824 68.5752 162.806 68.5696 162.788 68.5696C162.771 68.5696 162.753 68.5752 162.739 68.5857C162.724 68.5961 162.714 68.6108 162.709 68.6276C162.587 71.3424 162.937 74.0496 162.853 76.7793C162.434 76.5494 161.983 76.3797 161.515 76.2755C161.417 76.2755 161.515 78.1931 161.515 78.4788C160.469 78.1223 159.324 78.1844 158.323 78.6518C157.928 78.9 157.769 79.2308 158.301 79.0654Z" fill="#263238"/>
<path d="M156.051 80.8551C156.241 81.0657 156.431 81.3514 156.735 81.3966C157.054 81.4117 157.373 81.3578 157.669 81.2386C157.669 81.2386 157.723 81.2386 157.669 81.2838C157.538 81.4434 157.366 81.5643 157.17 81.6333C156.974 81.7022 156.763 81.7166 156.56 81.6748C156.394 81.6222 156.246 81.5233 156.136 81.3899C156.025 81.2565 155.956 81.0942 155.937 80.9228C155.952 80.8401 156.02 80.825 156.051 80.8551Z" fill="#263238"/>
<path opacity="0.2" d="M152.509 58.28C152.395 60.2127 151.932 66.2061 150.989 67.4244C150.047 68.6426 148.056 71.4776 147.045 71.9364C147.182 67.9432 147.805 64.1456 148.846 62.1604C149.7 60.5697 150.964 59.231 152.509 58.28Z" fill="#263238"/>
<path d="M163.339 64.1381C162.808 64.6733 162.147 65.0649 161.419 65.2756C160.691 65.4862 159.921 65.5088 159.182 65.3413C158.425 65.1748 157.725 64.8181 157.149 64.3057C156.572 63.7933 156.139 63.1424 155.891 62.416C155.891 62.3709 155.807 62.416 155.823 62.416C156.016 63.2003 156.423 63.9172 156.999 64.4886C157.575 65.06 158.298 65.4642 159.091 65.6572C159.881 65.8065 160.698 65.746 161.458 65.4819C162.217 65.2177 162.893 64.7593 163.415 64.1532C163.461 64.1607 163.4 64.093 163.339 64.1381Z" fill="#263238"/>
<path d="M159.524 52.9935C158.356 52.9153 157.187 53.1292 156.124 53.6155C155.062 54.1017 154.14 54.8447 153.444 55.7759C152.851 56.7237 152.599 57.8421 152.729 58.9494H152.828C152.843 57.9778 153.122 57.0281 153.637 56.2008C154.152 55.3734 154.884 54.6992 155.754 54.2494C156.706 53.7223 157.767 53.4202 158.856 53.3668C159.946 53.3133 161.032 53.5098 162.032 53.941C163.015 54.3421 163.823 55.0748 164.312 56.009C164.357 56.1068 164.555 56.0617 164.517 55.9639C163.894 54.3246 161.88 53.1063 159.524 52.9935Z" fill="#263238"/>
<path d="M174.04 59.551C173.709 58.2779 172.934 57.1617 171.851 56.4002C170.331 55.3248 168.553 55.3398 166.774 55.4C166.721 55.4 166.729 55.4752 166.774 55.4677C168.286 55.3115 169.812 55.5909 171.167 56.2723C172.27 56.9274 173.111 57.9396 173.546 59.1374C173.96 60.3661 173.912 61.7013 173.411 62.8978C172.91 64.0942 171.989 65.0714 170.818 65.6498C170.136 65.9668 169.396 66.1424 168.643 66.1656C167.89 66.1889 167.14 66.0594 166.44 65.7851C166.387 65.7851 166.341 65.8378 166.394 65.8678C167.342 66.282 168.388 66.4258 169.414 66.2829C170.44 66.1399 171.405 65.716 172.2 65.059C172.995 64.402 173.589 63.538 173.914 62.5647C174.239 61.5914 174.283 60.5476 174.04 59.551Z" fill="#263238"/>
<path d="M148.078 64.672C148.078 64.672 145.981 59.942 148.223 57.4604C149.492 56.0616 153.307 56.5429 153.307 56.5429C154.447 55.1114 156.114 54.1864 157.943 53.9711C161.204 53.4672 164.92 55.648 164.92 55.648C164.92 55.648 168.097 54.144 170.825 55.9714C174.625 58.5207 173.675 64.484 169.526 66.1084C166.607 67.2589 162.974 64.5066 162.974 64.5066C162.61 64.5066 158.673 66.4919 156.081 62.9575C156.081 62.9575 153.619 64.8149 151.65 63.2357C151.276 63.8091 150.732 64.2545 150.093 64.5114C149.454 64.7684 148.751 64.8245 148.078 64.672Z" fill="#263238"/>
<path d="M149.317 72.5305C149.317 72.5305 147.326 68.1163 145.357 68.7705C143.389 69.4247 144.347 75.4257 146.292 76.5988C146.529 76.762 146.797 76.8764 147.08 76.9353C147.362 76.9941 147.654 76.9963 147.938 76.9416C148.221 76.8869 148.491 76.7765 148.73 76.6168C148.97 76.4572 149.174 76.2516 149.332 76.0123L149.317 72.5305Z" fill="#D3766A"/>
<path d="M145.677 70.47V70.5226C147.03 71.3874 147.539 72.8839 147.805 74.3804C147.748 74.2191 147.656 74.0721 147.535 73.9494C147.415 73.8267 147.269 73.7314 147.108 73.6699C146.947 73.6084 146.774 73.5822 146.602 73.5932C146.43 73.6043 146.262 73.6522 146.11 73.7337C146.064 73.7337 146.11 73.8164 146.11 73.8164C146.387 73.7847 146.667 73.8404 146.91 73.9754C147.152 74.1105 147.346 74.318 147.463 74.5684C147.669 74.9751 147.827 75.4041 147.934 75.8468C147.934 75.9897 148.223 75.9671 148.208 75.8468C148.595 73.9066 147.645 71.0415 145.677 70.47Z" fill="#263238"/>
<path d="M254.659 81.2918L172.835 106.091L187.588 153.748L269.412 128.949L254.659 81.2918Z" fill="#17579B"/>
<path opacity="0.2" d="M254.659 81.2918L172.835 106.091L187.588 153.748L269.412 128.949L254.659 81.2918Z" fill="black"/>
<path opacity="0.2" d="M254.655 81.2921L227.158 89.626L241.911 137.283L269.408 128.949L254.655 81.2921Z" fill="black"/>
<path d="M253.338 83.7202C252.411 87.9414 251.509 92.1627 250.633 96.3839L248.041 109.078L245.533 121.824C244.712 126.065 243.912 130.314 243.131 134.57C244.059 130.354 244.96 126.133 245.837 121.907L248.429 109.213L250.937 96.4967C251.757 92.2354 252.558 87.9765 253.338 83.7202Z" fill="#17579B"/>
<path d="M266.844 127.351C263.804 124.263 260.736 121.188 257.64 118.124L248.368 108.98L239.035 99.9034C235.914 96.8954 232.778 93.8874 229.626 90.8794C232.666 93.9726 235.734 97.0483 238.83 100.106L248.102 109.251L257.435 118.327C260.561 121.365 263.697 124.373 266.844 127.351Z" fill="#17579B"/>
<path d="M188.551 112.232L189.001 112.096L187.063 105.833L186.612 105.97L188.551 112.232Z" fill="#263238"/>
<path d="M187.481 112.55L187.931 112.414L185.992 106.151L185.542 106.287L187.481 112.55Z" fill="#263238"/>
<path d="M186.401 112.891L186.851 112.755L184.912 106.492L184.462 106.628L186.401 112.891Z" fill="#263238"/>
<path d="M185.332 113.198L185.782 113.062L183.845 106.798L183.394 106.935L185.332 113.198Z" fill="#263238"/>
<path d="M184.253 113.53L184.703 113.393L182.764 107.13L182.314 107.267L184.253 113.53Z" fill="#263238"/>
<path d="M183.18 113.848L183.631 113.711L181.692 107.449L181.242 107.585L183.18 113.848Z" fill="#263238"/>
<path d="M182.095 114.198L182.546 114.062L180.607 107.799L180.157 107.936L182.095 114.198Z" fill="#263238"/>
<path d="M181.021 114.515L181.472 114.378L179.532 108.116L179.081 108.252L181.021 114.515Z" fill="#263238"/>
<path d="M179.938 114.852L180.388 114.716L178.449 108.453L177.999 108.589L179.938 114.852Z" fill="#263238"/>
<path d="M191.619 104.972L189.749 105.017L193.8 103.776L192.219 104.784L192.933 107.085C194.218 106.867 195.084 107.927 195.738 110.033L191.687 111.296C191.033 109.198 191.147 107.837 192.333 107.303L191.619 104.972Z" fill="#263238"/>
<path d="M195.692 106.574L196.749 106.25L195.799 103.182L198.504 102.362L199.454 105.43L200.518 105.107L199.09 109.033L195.692 106.574Z" fill="#263238"/>
<path opacity="0.1" d="M172.839 106.092L174.048 110.003L230.607 100.768L227.157 89.6309L172.839 106.092Z" fill="black"/>
<path d="M280.014 134.352L252.51 142.685L241.908 137.285L269.412 128.946L280.014 134.352Z" fill="#17579B"/>
<path opacity="0.2" d="M280.014 134.352L252.51 142.685L241.908 137.285L269.412 128.946L280.014 134.352Z" fill="black"/>
<path d="M181.86 164.102L209.365 155.762L215.088 145.414L187.583 153.746L181.86 164.102Z" fill="#17579B"/>
<path opacity="0.1" d="M181.86 164.102L209.365 155.762L215.088 145.414L187.583 153.746L181.86 164.102Z" fill="black"/>
<path d="M136.595 98.7378C140.615 112.041 151.795 134.834 155.944 137.616C159.6 140.105 177.148 137.842 184.824 136.195C187.697 135.586 181.784 113.883 178.744 114.597C175.066 115.462 164.114 117.605 163.339 117.011C162.564 116.417 151.939 102.723 144.339 94.692C137.438 87.3826 135.075 93.7069 136.595 98.7378Z" fill="#D3766A"/>
<path d="M177.164 116.365C177.164 116.365 182.978 109.882 187.097 107.408C191.445 104.946 196.332 103.565 201.339 103.385C206.743 103.175 219.959 106.348 219.693 110.273C219.458 113.83 206.12 109.905 206.12 109.905C206.12 109.905 220.385 111.687 219.306 115.921C218.226 120.155 203.004 114.718 203.004 114.718C203.004 114.718 217.618 116.869 215.84 121.072C214.472 124.238 200.404 120.087 200.404 120.087C200.404 120.087 212.96 122.027 211.69 125.351C210.292 129.013 197.06 125.99 197.06 125.99C192.417 133.871 186.937 135.766 182.886 136.616C181.876 136.789 177.164 116.365 177.164 116.365Z" fill="#D3766A"/>
<path d="M201.225 108.972C202.905 109.123 204.615 109.266 206.279 109.559C207.944 109.852 209.593 110.213 211.227 110.664C213.367 111.209 215.438 111.993 217.398 113.003C213.788 111.462 207.845 110.303 206.181 109.995C204.516 109.687 202.867 109.318 201.21 109.025C201.165 109.04 201.18 108.972 201.225 108.972Z" fill="#263238"/>
<path d="M200.032 114.906C202.168 115.184 204.311 115.387 206.439 115.763C208.567 116.139 210.535 116.68 212.625 117.199C212.785 117.237 212.709 117.312 212.549 117.275C210.436 116.838 208.46 116.598 206.348 116.192C204.235 115.786 202.137 115.289 200.017 114.951C199.986 114.951 199.994 114.898 200.032 114.906Z" fill="#263238"/>
<path d="M198.079 119.809C201.374 120.163 204.624 120.853 207.776 121.869C207.936 121.914 207.829 121.997 207.662 121.959C204.455 121.207 201.939 120.606 198.071 119.922C198.01 119.914 198.01 119.801 198.079 119.809Z" fill="#263238"/>
<path d="M183.084 140.045L177.977 114.086L163.742 116.297C158.3 109.83 147.432 96.8954 142.994 92.985C137.788 88.3903 134.224 91.669 136.01 98.4746C140.098 114.033 152.502 137.015 155.861 139.271C160.679 142.504 183.084 140.045 183.084 140.045Z" fill="#C31F82"/>
<path opacity="0.1" d="M173.447 117.688C174.149 117.839 174.864 117.922 175.583 117.936C177.103 118.139 177.771 120.358 176.388 121.2C175.662 121.643 174.841 121.911 173.991 121.983C173.141 122.054 172.285 121.928 171.494 121.614C169.974 121.027 168.689 119.568 169.016 117.854C169.073 117.534 169.212 117.234 169.42 116.984C169.629 116.733 169.899 116.54 170.205 116.423C170.511 116.307 170.842 116.271 171.167 116.318C171.491 116.366 171.798 116.496 172.056 116.695C172.477 117.081 172.944 117.414 173.447 117.688ZM171.927 115.026C172.404 115.253 172.929 115.364 173.458 115.348C173.987 115.333 174.505 115.191 174.967 114.936C175.137 114.823 175.274 114.667 175.362 114.485L171.927 115.026ZM164.532 116.169C165.137 116.606 165.884 116.807 166.63 116.733C166.887 116.698 167.123 116.575 167.298 116.386C167.473 116.196 167.575 115.952 167.587 115.695L164.532 116.169ZM180.644 127.757C180.343 127.882 180.1 128.112 179.96 128.404C179.322 129.675 180.211 131.044 181.48 131.863L180.644 127.757ZM157.753 132.751C157.51 133.585 157.479 134.33 156.849 135.007C156.169 135.548 155.562 136.172 155.04 136.864C154.952 137.034 154.91 137.224 154.918 137.416C154.926 137.607 154.984 137.793 155.087 137.955C155.19 138.117 155.333 138.25 155.503 138.341C155.674 138.432 155.865 138.478 156.058 138.473C157.382 138.312 158.597 137.665 159.461 136.659C160.326 135.653 160.776 134.363 160.725 133.044C160.682 132.706 160.524 132.392 160.278 132.154C160.032 131.916 159.711 131.768 159.368 131.734C159.026 131.7 158.682 131.782 158.392 131.967C158.103 132.151 157.886 132.428 157.776 132.751H157.753ZM155.131 125.464C154.705 126.487 154.781 127.645 154.424 128.712C154.111 129.691 153.738 130.651 153.307 131.585C152.988 132.262 153.626 133.33 154.455 132.969C155.802 132.457 156.904 131.46 157.54 130.179C158.118 128.998 158.756 127.013 158.201 125.757C157.647 124.501 155.8 123.982 155.154 125.464H155.131ZM143.853 98.8656C144.277 98.9545 144.72 98.8773 145.088 98.6502C145.457 98.4231 145.722 98.0637 145.829 97.6473C146.254 96.0305 144.795 94.3686 143.64 93.3609C142.485 92.3532 140.858 91.4358 139.239 91.9547C139.024 92.0238 138.83 92.1462 138.675 92.3104C138.521 92.4745 138.412 92.6749 138.358 92.8926C138.304 93.1103 138.307 93.338 138.367 93.5542C138.426 93.7704 138.541 93.9679 138.7 94.128C139.407 95.0003 140.387 95.632 141.139 96.4892C141.892 97.3465 142.553 98.6475 143.875 98.8656H143.853ZM149.72 105.28C150.358 104.37 149.864 103.024 149.408 102.159C149.165 101.682 148.788 101.285 148.321 101.016C148.007 100.818 147.627 100.749 147.262 100.827C146.898 100.904 146.579 101.121 146.376 101.43C146.168 101.857 146.136 102.348 146.285 102.799C146.348 103.034 146.435 103.264 146.543 103.483V103.551V103.611C146.679 104.329 146.986 105.004 147.44 105.581C147.597 105.737 147.788 105.856 147.999 105.927C148.21 105.998 148.434 106.02 148.655 105.99C148.876 105.961 149.087 105.882 149.272 105.759C149.456 105.636 149.61 105.472 149.72 105.28ZM147.903 112.8C148.181 112.86 148.469 112.86 148.747 112.8C149.168 112.672 149.524 112.389 149.743 112.011C149.947 111.607 150.048 111.161 150.039 110.71C150.025 110.282 149.908 109.864 149.697 109.491L149.446 109.183L149.112 108.942C148.903 108.836 148.672 108.777 148.436 108.771C148.201 108.764 147.967 108.811 147.753 108.906C147.538 109.001 147.348 109.143 147.196 109.322C147.045 109.5 146.936 109.709 146.877 109.935C146.751 110.373 146.662 110.821 146.611 111.274L146.68 111.687C146.733 111.895 146.837 112.086 146.984 112.244C147.218 112.495 147.526 112.666 147.865 112.732L147.903 112.8ZM154.28 105.167L152.76 103.475C152.517 103.447 152.272 103.508 152.071 103.646C151.871 103.785 151.729 103.992 151.673 104.227C151.612 104.666 151.612 105.112 151.673 105.551C151.673 105.739 151.673 105.927 151.673 106.122C151.669 106.406 151.7 106.688 151.764 106.965C151.847 107.251 152.025 107.501 152.269 107.676C152.513 107.85 152.809 107.939 153.109 107.927C153.406 107.912 153.691 107.803 153.92 107.616C154.15 107.429 154.313 107.175 154.386 106.889C154.5 106.316 154.464 105.723 154.28 105.167Z" fill="#030402"/>
<path d="M178.175 137.661C177.559 136.12 176.115 129.427 175.773 127.75C175.431 126.073 174.299 119.335 173.957 117.613C173.957 117.523 174.063 117.462 174.086 117.56C174.451 119.252 176.13 125.922 176.487 127.592C176.845 129.261 178.205 135.954 178.266 137.639C178.269 137.651 178.267 137.663 178.26 137.674C178.254 137.684 178.244 137.692 178.232 137.695C178.219 137.698 178.207 137.696 178.196 137.69C178.185 137.683 178.178 137.673 178.175 137.661Z" fill="#263238"/>
<path d="M173.478 140.774C171.144 140.91 168.811 140.962 166.478 140.947C164.136 140.958 161.796 140.824 159.471 140.549C158.279 140.432 157.114 140.128 156.02 139.646C155.037 138.959 154.183 138.107 153.497 137.127C152.119 135.246 150.873 133.273 149.766 131.224C147.486 127.171 145.525 122.952 143.61 118.756C141.694 114.56 139.954 110.243 138.358 105.897C140.296 110.1 142.211 114.312 144.202 118.485C146.194 122.659 148.208 126.817 150.381 130.886C151.466 132.915 152.663 134.883 153.968 136.781C154.577 137.726 155.349 138.559 156.248 139.24C157.285 139.713 158.39 140.02 159.524 140.15C164.153 140.705 168.817 140.914 173.478 140.774Z" fill="#263238"/>
<path d="M139.84 109.566C139.528 109.254 139.245 108.915 138.996 108.551C138.738 108.191 138.541 107.793 138.411 107.371C138.526 107.557 138.65 107.738 138.784 107.912L139.156 108.446C139.406 108.806 139.634 109.18 139.84 109.566Z" fill="#263238"/>
<path d="M151.84 102.595C153.763 104.506 155.488 106.604 157.274 108.611C159.06 110.619 160.77 112.74 162.594 114.74L163.271 115.492C163.392 115.605 163.506 115.733 163.62 115.838C163.734 115.943 163.734 115.936 163.788 115.981C163.788 115.981 163.841 115.981 163.871 115.981C164.449 115.981 165.178 115.853 165.832 115.771L169.875 115.176C172.566 114.785 175.264 114.379 177.962 114.018L178.068 114.68L177.908 114.026H177.946C175.279 114.59 172.626 115.094 169.921 115.583C168.576 115.823 167.23 116.034 165.878 116.237C165.186 116.356 164.488 116.436 163.788 116.477C163.732 116.484 163.676 116.484 163.62 116.477C163.546 116.455 163.476 116.42 163.415 116.372C163.338 116.313 163.265 116.25 163.195 116.184L162.822 115.823C162.579 115.575 162.351 115.327 162.123 115.071C160.337 113.018 158.604 110.943 156.902 108.837L154.356 105.671C153.52 104.686 152.76 103.603 151.84 102.595Z" fill="#263238"/>
<path d="M152.836 102.821C153.122 103.169 153.376 103.541 153.596 103.934C153.81 104.322 153.961 104.741 154.044 105.175C153.953 104.972 153.839 104.791 153.733 104.596L153.421 104.017C153.204 103.629 153.009 103.23 152.836 102.821Z" fill="#263238"/>
<path d="M61.6815 299.462C61.4002 292.425 61.4991 285.379 61.9779 278.353C63.026 263.872 65.2601 249.499 68.6583 235.376C70.5203 227.42 72.8155 219.584 75.2095 211.778C75.2779 211.545 75.6579 211.613 75.5971 211.854C68.2023 239.407 62.1299 267.847 62.5479 296.484C62.6695 304.5 63.6043 312.373 64.3719 320.337C64.3719 320.555 64.0375 320.638 63.9919 320.42C62.4643 313.584 61.9703 306.425 61.6815 299.462Z" fill="#F5A71D"/>
<path d="M75.597 211.816C75.597 211.816 86.7994 239.956 84.2914 246.566C81.7834 253.176 76.6078 254.59 76.6078 254.59C76.6078 254.59 83.4478 264.275 78.675 273.39C73.9022 282.504 63.247 282.038 62.5326 292.34C62.5326 292.31 61.9398 249.25 75.597 211.816Z" fill="#F5A71D"/>
<path d="M63.7565 274.533C63.7378 274.484 63.7378 274.431 63.7565 274.382C65.2339 255.172 68.8819 236.186 74.6321 217.779C74.6321 217.727 74.7385 217.742 74.7233 217.779C72.5041 226.006 70.5433 234.278 68.8409 242.595C70.3379 241.189 72.1668 240.175 74.1609 239.647C74.1609 239.647 74.2141 239.647 74.1609 239.7C72.0561 240.471 70.1654 241.723 68.6433 243.355C68.319 244.979 68.0023 246.611 67.6933 248.25C70.1937 245.483 73.6669 244.107 77.1401 242.798C77.1857 242.798 77.2161 242.858 77.1401 242.873C73.5225 244.332 69.9125 246.212 67.4653 249.296C66.6039 253.963 65.8439 258.648 65.1853 263.35C66.9965 261.483 69.3175 260.176 71.8657 259.59C71.9417 259.59 71.9873 259.688 71.8657 259.711C69.2357 260.463 66.8832 261.954 65.0941 264.005H65.0485C64.8255 265.659 64.6153 267.316 64.4177 268.975C65.8613 267.796 67.492 266.861 69.2437 266.208C69.2893 266.208 69.3121 266.261 69.2437 266.276C67.5282 267.028 65.9571 268.069 64.6001 269.351C64.6001 269.351 64.6001 269.351 64.5393 269.351C64.3569 270.923 64.1669 272.502 64.0073 274.081C66.5312 271.065 69.8052 268.751 73.5073 267.366C73.5148 267.363 73.5228 267.362 73.5308 267.362C73.5389 267.362 73.5469 267.363 73.5543 267.367C73.5617 267.37 73.5684 267.374 73.574 267.38C73.5796 267.386 73.5841 267.392 73.5871 267.4C73.5901 267.407 73.5916 267.415 73.5915 267.423C73.5914 267.431 73.5897 267.439 73.5865 267.446C73.5833 267.454 73.5787 267.46 73.573 267.466C73.5672 267.472 73.5604 267.476 73.5529 267.479C69.8962 269.073 66.6837 271.519 64.1897 274.608C64.164 274.644 64.1272 274.671 64.0846 274.685C64.0421 274.698 63.9963 274.698 63.9541 274.683C63.7109 277.104 63.4905 279.533 63.3157 281.962H63.2549C63.3765 279.503 63.5513 277.014 63.7565 274.533Z" fill="#263238"/>
<path d="M72.7546 236.88C74.7828 235.63 77.1012 234.915 79.4882 234.804C79.5414 234.804 79.549 234.88 79.4882 234.887C77.1825 235.309 74.9438 236.033 72.8306 237.038C72.8107 237.042 72.7901 237.039 72.7719 237.03C72.7538 237.021 72.7393 237.006 72.7305 236.988C72.7218 236.97 72.7195 236.95 72.7238 236.93C72.7282 236.91 72.739 236.893 72.7546 236.88Z" fill="#263238"/>
<path d="M71.3942 266.667C72.9541 265.786 74.6693 265.206 76.4482 264.96C76.509 264.96 76.5166 265.042 76.4482 265.05C74.7055 265.397 73.0199 265.981 71.4398 266.787C71.3866 266.817 71.3258 266.704 71.3942 266.667Z" fill="#263238"/>
<path d="M32.2316 247.024C36.9684 250.267 41.318 254.031 45.1972 258.244C49.2082 262.697 52.3057 267.879 54.3172 273.502C58.5681 285.221 60.8554 297.548 61.0888 309.997C61.2344 316.891 60.5636 323.779 59.09 330.519C59.0771 330.566 59.0468 330.607 59.0052 330.633C58.9636 330.659 58.9135 330.669 58.865 330.66C58.8164 330.652 58.7728 330.626 58.7427 330.587C58.7126 330.548 58.6982 330.5 58.7024 330.451C60.5381 318.556 60.4765 306.45 58.52 294.573C56.5896 282.932 53.5724 270.269 46.094 260.809C41.9824 255.68 36.9056 251.612 31.92 247.408C31.6236 247.197 31.958 246.836 32.2316 247.024Z" fill="#F5A71D"/>
<path d="M59.4168 301.62C56.7224 297.302 53.5542 293.292 49.97 289.663C44.3612 284.121 39.6416 280.18 38.912 276.51C38.1824 272.841 44.5284 270.148 44.5284 270.148C44.5284 270.148 36.7688 271.525 34.6484 268.299C32.528 265.072 31.502 246.43 31.502 246.43C31.502 246.43 45.6 256.432 52.1892 270.367C58.7784 284.301 59.4168 301.62 59.4168 301.62Z" fill="#F5A71D"/>
<path d="M36.5409 263.952C37.4696 263.821 38.41 263.79 39.3453 263.862C39.4593 263.862 39.4517 264.057 39.3453 264.057C38.4181 264.057 37.4909 264.012 36.5561 264.057C36.4801 264.042 36.4801 263.952 36.5409 263.952Z" fill="#263238"/>
<path d="M46.6942 282C48.1861 282.031 49.6606 282.324 51.049 282.865C51.049 282.865 51.049 282.932 51.049 282.925C49.6126 282.587 48.161 282.444 46.7094 282.211C46.565 282.211 46.5726 282 46.6942 282Z" fill="#263238"/>
<path d="M49.7421 275.766C50.3617 275.761 50.9803 275.816 51.5889 275.931C51.6497 275.931 51.6421 276.044 51.5889 276.044C50.9718 276.075 50.3531 276.044 49.7421 275.954C49.7214 275.948 49.7033 275.936 49.6903 275.919C49.6774 275.902 49.6704 275.881 49.6704 275.86C49.6704 275.839 49.6774 275.818 49.6903 275.801C49.7033 275.784 49.7214 275.772 49.7421 275.766Z" fill="#263238"/>
<path d="M100.776 266.825C96.1867 268.364 91.7887 270.412 87.6658 272.931C83.3967 275.629 79.6937 279.117 76.7598 283.203C70.582 291.716 65.8508 301.171 62.753 311.193C61.0291 316.739 59.963 322.465 59.5762 328.256C59.5762 328.299 59.5938 328.341 59.6251 328.372C59.6565 328.404 59.699 328.421 59.7434 328.421C59.7877 328.421 59.8302 328.404 59.8616 328.372C59.893 328.341 59.9106 328.299 59.9106 328.256C61.1948 318.223 64.0593 308.451 68.3998 299.296C72.6786 290.317 78.0822 280.759 86.3434 274.818C90.8426 271.577 95.8966 269.464 100.935 267.223C101.232 267.103 101.08 266.734 100.776 266.825Z" fill="#F5A71D"/>
<path d="M66.0288 304.786C69.2159 301.906 72.7155 299.384 76.4636 297.266C82.3004 294.062 87.0352 291.949 88.4868 289.152C89.9384 286.354 85.4468 282.714 85.4468 282.714C85.4468 282.714 91.3976 285.602 93.8676 283.466C96.3376 281.331 101.521 266.479 101.521 266.479C101.521 266.479 87.78 271.322 79.192 281.128C70.604 290.934 66.0288 304.786 66.0288 304.786Z" fill="#F5A71D"/>
<path d="M77.4362 291.129C78.7851 291.036 80.1395 291.199 81.4262 291.611C81.4262 291.611 81.4262 291.678 81.4262 291.671C80.1113 291.452 78.7837 291.317 77.4514 291.265C77.4333 291.267 77.4151 291.261 77.4008 291.25C77.3866 291.239 77.3774 291.222 77.3754 291.204C77.3734 291.187 77.3787 291.169 77.3901 291.154C77.4015 291.14 77.4181 291.131 77.4362 291.129Z" fill="#263238"/>
<path d="M89.4294 275.563C90.0445 275.519 90.6627 275.554 91.2686 275.668C91.2802 275.672 91.2902 275.68 91.2973 275.69C91.3044 275.7 91.3082 275.712 91.3082 275.725C91.3082 275.737 91.3044 275.749 91.2973 275.759C91.2902 275.769 91.2802 275.777 91.2686 275.781C90.6682 275.713 90.0678 275.736 89.4598 275.721C89.4411 275.72 89.4232 275.713 89.4091 275.701C89.3949 275.688 89.3854 275.672 89.3818 275.654C89.3783 275.636 89.3811 275.617 89.3897 275.6C89.3984 275.584 89.4123 275.571 89.4294 275.563Z" fill="#263238"/>
<path d="M48.2979 347.01H79.3211L74.8979 314.938L73.7654 306.718H53.8535L52.7211 314.938L48.2979 347.01Z" fill="#455A64"/>
<path d="M52.7212 314.938H74.898L73.7656 306.718H53.8536L52.7212 314.938Z" fill="#263238"/>
<path d="M50.9961 310.824H76.6157V303.861H50.9961V310.824Z" fill="#455A64"/>
<path d="M213.56 45.699C213.559 48.7937 212.69 51.8275 211.049 54.4619C209.408 57.0963 207.059 59.2277 204.265 60.6183C201.47 62.0088 198.341 62.6039 195.225 62.3371C192.109 62.0702 189.129 60.952 186.618 59.1071L178.341 61.1977L181.784 53.5799C180.572 51.3401 179.893 48.8563 179.797 46.3175C179.701 43.7787 180.192 41.2518 181.231 38.9288C182.271 36.6058 183.832 34.5479 185.797 32.9117C187.761 31.2755 190.076 30.104 192.567 29.4863C195.057 28.8686 197.657 28.8209 200.169 29.347C202.681 29.873 205.039 30.9589 207.063 32.5221C209.087 34.0852 210.724 36.0845 211.85 38.3678C212.976 40.6511 213.56 43.1584 213.56 45.699Z" fill="white"/>
<path d="M213.56 45.6915C213.559 48.7901 212.696 51.8288 211.067 54.4749C210.671 55.1419 210.234 55.7847 209.76 56.4C209.256 56.989 208.715 57.5466 208.141 58.0694C207.007 59.1271 205.728 60.0208 204.341 60.724C202.95 61.4266 201.466 61.9328 199.933 62.228C199.163 62.3796 198.384 62.4751 197.6 62.5137C196.818 62.5777 196.033 62.5777 195.251 62.5137C192.09 62.271 189.059 61.1646 186.496 59.3177L186.724 59.3629L178.471 61.5136L177.802 61.6865L178.083 61.0549L181.495 53.4221V53.7379C180.254 51.4546 179.56 48.9192 179.468 46.3282C179.376 43.7371 179.888 41.1597 180.963 38.7956C182.04 36.4382 183.644 34.353 185.653 32.6969C187.659 31.0652 190.013 29.9043 192.537 29.3013C195.062 28.6983 197.692 28.6689 200.229 29.2152C202.744 29.7812 205.099 30.8963 207.123 32.4788C209.135 34.0566 210.76 36.0652 211.875 38.3537C212.99 40.6422 213.566 43.151 213.56 45.6915ZM213.56 45.6915C213.558 41.8713 212.221 38.1692 209.774 35.2139C207.328 32.2585 203.923 30.232 200.138 29.4784C197.648 28.9879 195.077 29.065 192.622 29.704C190.174 30.3295 187.904 31.5026 185.987 33.1331C184.087 34.7812 182.573 36.8186 181.549 39.104C180.538 41.3829 180.065 43.8593 180.165 46.3457C180.283 48.8074 180.947 51.2133 182.111 53.392L182.195 53.5499L182.119 53.7078L178.645 61.3181L178.258 60.8669L186.549 58.8364H186.679L186.777 58.9116C189.235 60.7586 192.164 61.8914 195.236 62.1828C195.995 62.2381 196.757 62.2381 197.516 62.1828C199.839 62.1039 202.117 61.532 204.197 60.5059C205.584 59.8376 206.864 58.9711 207.997 57.934C208.57 57.419 209.111 56.869 209.615 56.2872C210.099 55.6888 210.549 55.0637 210.961 54.4147C212.62 51.7981 213.519 48.7801 213.56 45.6915Z" fill="#263238"/>
<path d="M197.851 47.5037V49.3461C197.856 49.5302 197.823 49.7134 197.754 49.8846C197.686 50.0557 197.582 50.2111 197.451 50.3414C197.319 50.4716 197.162 50.5739 196.989 50.642C196.816 50.7101 196.631 50.7425 196.445 50.7373C196.261 50.7373 196.078 50.7013 195.908 50.6313C195.738 50.5613 195.583 50.4587 195.453 50.3294C195.323 50.2001 195.22 50.0467 195.151 49.8779C195.081 49.7092 195.045 49.5284 195.046 49.3461V46.4058C195.046 46.4058 195.046 46.4058 195.046 46.3456C195.046 46.2855 195.046 46.3456 195.046 46.293C195.056 45.9283 195.206 45.581 195.466 45.3223C195.726 45.0636 196.076 44.9132 196.445 44.9018C196.879 44.9227 197.312 44.8562 197.719 44.7064C198.126 44.5565 198.498 44.3264 198.813 44.03C199.127 43.7336 199.378 43.3771 199.549 42.9821C199.72 42.5871 199.808 42.1619 199.808 41.7321C199.808 41.3024 199.72 40.8771 199.549 40.4821C199.378 40.0871 199.127 39.7306 198.813 39.4342C198.498 39.1378 198.126 38.9077 197.719 38.7579C197.312 38.608 196.879 38.5415 196.445 38.5624C195.89 38.5607 195.344 38.7036 194.862 38.9769C194.381 39.2502 193.98 39.6441 193.701 40.1191C193.608 40.2793 193.483 40.4196 193.334 40.5321C193.186 40.6445 193.016 40.7268 192.836 40.7743C192.655 40.8219 192.466 40.8336 192.281 40.8089C192.096 40.7842 191.917 40.7236 191.756 40.6304C191.597 40.5375 191.459 40.4144 191.348 40.2684C191.238 40.1223 191.158 39.956 191.113 39.7792C191.067 39.6024 191.058 39.4185 191.085 39.2381C191.112 39.0576 191.174 38.8842 191.269 38.7279C191.769 37.876 192.475 37.1604 193.323 36.6451C194.172 36.1299 195.137 35.8313 196.13 35.776C197.124 35.7207 198.117 35.9105 199.018 36.3284C199.92 36.7463 200.702 37.3792 201.295 38.1702C201.889 38.9612 202.274 39.8857 202.417 40.8605C202.56 41.8353 202.456 42.83 202.115 43.7553C201.773 44.6806 201.205 45.5075 200.461 46.1617C199.716 46.816 198.82 47.2771 197.851 47.5037ZM197.851 53.7077V54.2191C197.855 54.4025 197.821 54.585 197.752 54.7552C197.683 54.9255 197.579 55.08 197.448 55.2094C197.316 55.3388 197.16 55.4404 196.987 55.5081C196.815 55.5757 196.63 55.6079 196.445 55.6027C196.074 55.6027 195.718 55.457 195.456 55.1975C195.194 54.938 195.046 54.586 195.046 54.2191V53.7077C195.05 53.3412 195.199 52.9908 195.46 52.7309C195.721 52.4711 196.074 52.3224 196.445 52.3165C196.63 52.3145 196.814 52.3491 196.985 52.4183C197.157 52.4875 197.313 52.5899 197.444 52.7195C197.574 52.8491 197.678 53.0032 197.748 53.1729C197.818 53.3426 197.853 53.5245 197.851 53.7077Z" fill="#F5A71D"/>
</svg>
