<svg width="380" height="376" viewBox="0 0 380 376" fill="none" xmlns="http://www.w3.org/2000/svg">
<path d="M315.248 261.403H335.373V252.988H315.248V261.403Z" fill="#EBEBEB"/>
<path d="M326.473 272.013H346.598V263.599H326.473V272.013Z" fill="#EBEBEB"/>
<path d="M304.015 272.013H324.14V263.599H304.015V272.013Z" fill="#EBEBEB"/>
<path d="M44.6272 272.013H64.752V263.599H44.6272V272.013Z" fill="#EBEBEB"/>
<path d="M44.6272 44.9395H64.752V36.5246H44.6272V44.9395Z" fill="#EBEBEB"/>
<path d="M33.4019 55.5503H53.5267V47.1354H33.4019V55.5503Z" fill="#EBEBEB"/>
<path d="M326.473 44.947H346.598V36.5321H326.473V44.947Z" fill="#EBEBEB"/>
<path d="M291.141 136.661H271.016V145.076H291.141V136.661Z" fill="#EBEBEB"/>
<path d="M279.916 126.05H259.791V134.465H279.916V126.05Z" fill="#EBEBEB"/>
<path d="M52.0828 58.3928H185.63V242.934H52.0828V58.3928ZM181.64 62.3107H56.0424V239.031H181.64V62.3107Z" fill="#EBEBEB"/>
<path d="M120.832 63.3411H116.873V240.971H120.832V63.3411Z" fill="#EBEBEB"/>
<path d="M48.4879 71.7783L189.225 71.7783V66.3188L48.4879 66.3188V71.7783Z" fill="#EBEBEB"/>
<path d="M48.4879 77.9224L189.225 77.9224V72.4628L48.4879 72.4628V77.9224Z" fill="#EBEBEB"/>
<path d="M48.4879 84.0662L189.225 84.0662V78.6066L48.4879 78.6066V84.0662Z" fill="#EBEBEB"/>
<path d="M48.4879 90.2024L189.225 90.2024V84.7429L48.4879 84.7429V90.2024Z" fill="#EBEBEB"/>
<path d="M48.4879 96.3538L189.225 96.3538V90.8942L48.4879 90.8942V96.3538Z" fill="#EBEBEB"/>
<path d="M48.4879 102.498L189.225 102.498V97.038L48.4879 97.038V102.498Z" fill="#EBEBEB"/>
<path d="M48.4879 108.634L189.225 108.634V103.175L48.4879 103.175V108.634Z" fill="#EBEBEB"/>
<path d="M48.4879 114.778L189.225 114.778V109.318L48.4879 109.318V114.778Z" fill="#EBEBEB"/>
<path d="M48.4879 120.922L189.225 120.922V115.462L48.4879 115.462V120.922Z" fill="#EBEBEB"/>
<path d="M61.2408 65.2134H60.2528V171.463H61.2408V65.2134Z" fill="#263238"/>
<path d="M58.9912 176.028H62.51L61.6284 171.027H59.8728L58.9912 176.028Z" fill="#263238"/>
<path d="M57.6764 65.2134H56.6884V198.265H57.6764V65.2134Z" fill="#263238"/>
<path d="M55.4192 201.942H58.938L58.0564 196.941H56.3008L55.4192 201.942Z" fill="#263238"/>
<path d="M42.332 69.0486L195.373 69.0486V57.6257L42.332 57.6257V69.0486Z" fill="#DBDBDB"/>
<path d="M323.922 110.043C337.408 101.932 341.696 84.5397 333.5 71.1951C325.303 57.8504 307.725 53.6073 294.239 61.7178C280.752 69.8282 276.464 87.221 284.66 100.566C292.857 113.91 310.435 118.153 323.922 110.043Z" fill="#EBEBEB"/>
<path d="M326.228 108.514C338.494 99.8667 341.352 83.0186 332.613 70.8824C323.874 58.7462 306.847 55.9177 294.582 64.5648C282.316 73.2119 279.458 90.06 288.197 102.196C296.936 114.332 313.963 117.161 326.228 108.514Z" fill="#DBDBDB"/>
<path d="M325.235 107.119C336.721 99.0148 339.393 83.2316 331.203 71.8661C323.013 60.5006 307.062 57.8566 295.575 65.9605C284.089 74.0645 281.417 89.8476 289.607 101.213C297.797 112.579 313.748 115.223 325.235 107.119Z" fill="white"/>
<path opacity="0.5" d="M335.365 81.1708C323.73 88.1419 304.616 99.5798 293.93 105.851C290.908 103.331 288.518 100.152 286.946 96.5643L322.286 64.1531C325.588 65.8749 328.469 68.2903 330.728 71.2299C332.988 74.1695 334.57 77.5624 335.365 81.1708Z" fill="#EBEBEB"/>
<path opacity="0.5" d="M335.92 87.4126C335.832 90.2247 335.262 93.0016 334.233 95.6244L302.374 110.544C300.985 110.091 299.64 109.517 298.353 108.83C307.975 103.325 325.561 93.3083 335.92 87.4126Z" fill="#EBEBEB"/>
<path d="M310.642 63.0928H310.148V66.9205H310.642V63.0928Z" fill="#C7C7C7"/>
<path d="M298.757 66.0945L298.329 66.3389L300.263 69.6537L300.691 69.4093L298.757 66.0945Z" fill="#C7C7C7"/>
<path d="M289.991 74.5942L289.744 75.0176L293.094 76.9314L293.341 76.5081L289.991 74.5942Z" fill="#C7C7C7"/>
<path d="M290.578 86.2844H286.71V86.7732H290.578V86.2844Z" fill="#C7C7C7"/>
<path d="M293.105 96.1018L289.756 98.0168L290.003 98.4401L293.352 96.5251L293.105 96.1018Z" fill="#C7C7C7"/>
<path d="M300.28 103.403L298.347 106.719L298.775 106.963L300.708 103.648L300.28 103.403Z" fill="#C7C7C7"/>
<path d="M310.642 106.145H310.148V109.972H310.642V106.145Z" fill="#C7C7C7"/>
<path d="M320.513 103.384L320.085 103.629L322.019 106.944L322.447 106.699L320.513 103.384Z" fill="#C7C7C7"/>
<path d="M327.695 96.1387L327.448 96.562L330.798 98.4764L331.045 98.0532L327.695 96.1387Z" fill="#C7C7C7"/>
<path d="M334.081 86.2844H330.212V86.7732H334.081V86.2844Z" fill="#C7C7C7"/>
<path d="M330.79 74.6065L327.44 76.5215L327.688 76.9447L331.037 75.0297L330.79 74.6065Z" fill="#C7C7C7"/>
<path d="M322.031 66.1221L320.098 69.438L320.526 69.6822L322.459 66.3663L322.031 66.1221Z" fill="#C7C7C7"/>
<path d="M310.764 64.8225L311.608 88.2397L309.183 88.2097L310.11 64.8149L310.764 64.8225Z" fill="#C7C7C7"/>
<path d="M325.508 78.366L309.586 88.4202L308.431 86.3146L325.189 77.7944L325.508 78.366Z" fill="#A6A6A6"/>
<path d="M311.22 86.5326C311.22 86.695 311.171 86.8538 311.08 86.9888C310.988 87.1237 310.859 87.2288 310.707 87.2906C310.555 87.3524 310.388 87.3682 310.227 87.3359C310.066 87.3037 309.919 87.2249 309.803 87.1095C309.688 86.9941 309.609 86.8473 309.578 86.6879C309.547 86.5284 309.565 86.3633 309.628 86.2137C309.692 86.064 309.8 85.9365 309.937 85.8474C310.074 85.7582 310.235 85.7114 310.399 85.7129C310.508 85.7129 310.615 85.7342 310.715 85.7755C310.815 85.8167 310.906 85.8772 310.982 85.9535C311.059 86.0297 311.119 86.1201 311.16 86.2195C311.201 86.3189 311.221 86.4253 311.22 86.5326Z" fill="#C7C7C7"/>
<path d="M338.299 236.481C335.008 233.3 330.767 229.45 325.744 230.819C321.016 232.112 319.208 237.218 318.356 241.475C317.27 246.957 316.418 252.491 315.537 258.019C314.655 263.546 313.819 269.178 313.006 274.758C312.55 277.907 312.099 281.06 311.653 284.218C311.425 285.788 311.202 287.364 310.984 288.948C310.772 290.452 310.506 292.039 310.422 293.596C310.422 294.092 311.182 294.167 311.296 293.694C311.904 291.062 312.155 288.332 312.542 285.662C312.93 282.993 313.302 280.293 313.728 277.608C314.488 272.277 315.332 266.952 316.137 261.621C316.943 256.289 317.794 250.965 318.653 245.641C319.413 241.129 319.724 235.519 323.768 232.541C325.987 230.909 328.822 230.894 331.33 231.842C333.997 232.849 336.118 234.729 338.17 236.594C338.185 236.611 338.206 236.622 338.229 236.623C338.252 236.624 338.274 236.617 338.291 236.602C338.308 236.587 338.319 236.566 338.32 236.543C338.322 236.521 338.314 236.498 338.299 236.481Z" fill="#263238"/>
<path d="M333.8 233.225C333.8 233.225 327.081 230.834 323.768 235.684C320.454 240.535 324.414 252.875 354.996 259.831C354.1 250.373 351.613 241.129 347.639 232.481C341.08 218.336 329.399 223.69 333.8 233.225Z" fill="#FFC727"/>
<path d="M353.24 257.816C352.783 256.969 352.276 256.151 351.72 255.364L350.2 253.033L349 251.296C349 251.16 349.038 251.01 349.06 250.867C349.06 250.604 349.129 250.341 349.159 250.077C349.235 249.513 349.319 248.949 349.402 248.378C349.486 247.806 349.585 247.257 349.691 246.693C349.763 246.087 349.898 245.49 350.094 244.911C350.132 244.821 349.972 244.776 349.957 244.911C349.893 245.251 349.801 245.586 349.684 245.911L349.478 246.663C349.334 247.235 349.19 247.814 349.06 248.393C348.931 248.972 348.84 249.461 348.749 249.995C348.703 250.258 348.665 250.514 348.627 250.747C348.08 249.995 347.525 249.243 346.955 248.491C345.329 246.37 343.611 244.332 341.833 242.347C341.833 242.347 341.833 242.347 341.833 242.294C341.992 239.113 341.916 235.962 342.593 232.834C342.593 232.751 342.486 232.706 342.464 232.789C341.795 235.729 341.134 238.805 341.324 241.813C340.685 241.106 340.039 240.407 339.386 239.715C337.866 238.136 336.384 236.572 334.826 235.045C334.765 234.985 334.666 235.045 334.727 235.135C337.303 237.88 339.75 240.745 342.129 243.655C340.265 243.625 338.4 243.693 336.543 243.858C334.468 244.009 332.409 244.272 330.349 244.55C330.331 244.55 330.314 244.557 330.301 244.57C330.288 244.583 330.281 244.6 330.281 244.618C330.281 244.636 330.288 244.653 330.301 244.666C330.314 244.679 330.331 244.686 330.349 244.686C332.4 244.398 334.465 244.214 336.536 244.137C338.534 244.054 340.518 244.137 342.509 244.137C343.794 245.723 345.07 247.31 346.309 248.919H346.028C345.557 248.919 345.093 248.919 344.622 248.919C343.695 248.919 342.76 249.002 341.833 249.077C339.933 249.228 338.047 249.507 336.186 249.912C336.168 249.912 336.15 249.919 336.138 249.932C336.125 249.945 336.118 249.962 336.118 249.98C336.118 249.998 336.125 250.015 336.138 250.028C336.15 250.04 336.168 250.047 336.186 250.047C338.063 249.837 339.948 249.664 341.84 249.596C342.737 249.596 343.642 249.596 344.546 249.596H345.952C346.207 249.631 346.467 249.608 346.712 249.529C347.533 250.589 348.361 251.642 349.174 252.702C349.82 253.552 350.466 254.401 351.09 255.266C351.713 256.131 352.313 257.101 353.028 257.921C353.042 257.949 353.066 257.97 353.096 257.98C353.126 257.99 353.159 257.987 353.187 257.973C353.215 257.96 353.237 257.935 353.247 257.905C353.257 257.876 353.254 257.843 353.24 257.816Z" fill="#263238"/>
<path d="M336.726 240.098C335.642 239.962 334.549 239.912 333.458 239.948C332.363 239.948 331.269 239.948 330.182 240.016C330.164 240.016 330.146 240.023 330.134 240.036C330.121 240.048 330.114 240.065 330.114 240.083C330.114 240.101 330.121 240.119 330.134 240.131C330.146 240.144 330.164 240.151 330.182 240.151C331.284 240.068 332.394 240.053 333.503 240.068C334.613 240.083 335.646 240.181 336.71 240.159L336.726 240.098Z" fill="#263238"/>
<path d="M346.324 242.542C346.446 241.505 346.583 240.467 346.803 239.452C346.803 239.434 346.796 239.417 346.783 239.404C346.77 239.391 346.753 239.384 346.735 239.384C346.717 239.384 346.699 239.391 346.686 239.404C346.674 239.417 346.666 239.434 346.666 239.452C346.514 240.474 346.309 241.482 346.157 242.497C346.081 242.999 346.013 243.5 345.952 244.001C345.86 244.477 345.816 244.961 345.823 245.445C345.823 245.535 345.982 245.543 346.005 245.445C346.097 244.971 346.15 244.491 346.165 244.009C346.21 243.52 346.264 243.031 346.324 242.542Z" fill="#263238"/>
<path d="M344.28 231.09C344.014 232.097 343.748 233.112 343.52 234.135C343.429 234.654 343.345 235.18 343.277 235.699C343.183 236.195 343.148 236.7 343.17 237.203C343.17 237.203 343.239 237.203 343.254 237.203C343.373 236.727 343.454 236.241 343.497 235.752C343.563 235.251 343.639 234.749 343.725 234.248C343.915 233.195 344.105 232.15 344.371 231.112C344.462 231.052 344.333 231.007 344.28 231.09Z" fill="#263238"/>
<path d="M304.486 292.468C304.319 290.558 304.129 288.655 303.932 286.753C303.526 282.987 303.065 279.227 302.548 275.473C302.039 271.713 301.553 267.953 300.945 264.245C300.723 262.513 300.333 260.805 299.782 259.147C299.583 258.434 299.223 257.777 298.727 257.224C298.232 256.671 297.615 256.238 296.924 255.958C293.33 254.725 290.898 258.417 289.446 261.034C289.4 261.109 289.522 261.169 289.568 261.094C290.442 259.861 292.843 256.387 295.572 256.545C297.411 256.657 298.878 257.943 299.759 262.478C301.956 273.758 303.939 296.679 304.167 298.175C304.289 298.973 304.859 298.927 304.859 298.085C304.874 296.205 304.654 294.333 304.486 292.468Z" fill="#263238"/>
<path d="M290.419 259.62C290.419 259.62 293.565 248.634 286.619 254.123C275.044 263.268 274.634 283.165 274.634 283.165C274.634 283.165 295.207 271.344 297.768 263.546C301.568 251.92 290.419 259.62 290.419 259.62Z" fill="#FFC727"/>
<path d="M294.31 265.012C292.699 265.336 291.057 265.546 289.431 265.764L287.113 266.088C286.596 266.155 286.064 266.208 285.54 266.268C287.06 264.185 288.618 262.102 290.1 259.974C290.16 259.891 290.031 259.801 289.963 259.869C288.75 261.117 287.603 262.427 286.528 263.794L285.616 261.245C285.266 260.26 284.856 259.282 284.635 258.237C284.635 258.154 284.483 258.192 284.506 258.282C284.787 259.29 284.985 260.312 285.266 261.29C285.547 262.268 285.828 263.23 286.178 264.178C285.418 265.148 284.696 266.14 283.997 267.14C283.64 266.148 283.237 265.185 282.895 264.178C282.889 264.16 282.876 264.145 282.859 264.136C282.841 264.128 282.822 264.127 282.804 264.132C282.785 264.138 282.77 264.151 282.762 264.168C282.753 264.185 282.752 264.205 282.758 264.223C283.13 265.336 283.328 266.479 283.678 267.614C283.199 268.299 282.728 268.983 282.279 269.667C281.451 270.938 280.668 272.232 279.9 273.54C279.84 273.563 279.79 273.605 279.757 273.659C279.724 273.714 279.71 273.778 279.718 273.841C278.418 276.097 277.18 278.353 275.964 280.609C275.954 280.625 275.952 280.644 275.957 280.661C275.962 280.679 275.974 280.694 275.99 280.703C276.006 280.712 276.025 280.714 276.043 280.709C276.061 280.704 276.076 280.692 276.085 280.676C277.309 278.42 278.662 276.24 280.075 274.089C280.296 274.025 280.522 273.982 280.752 273.961L281.458 273.811C281.99 273.698 282.515 273.563 283.047 273.427C284.088 273.172 285.122 272.931 286.186 272.75C286.269 272.75 286.231 272.6 286.14 272.615C284.894 272.856 283.647 272.991 282.386 273.134C281.793 273.202 281.2 273.277 280.615 273.375H280.524C281.284 272.262 282.044 271.156 282.804 270.066C283.564 268.975 284.324 267.93 285.084 266.877C285.798 266.772 286.505 266.592 287.212 266.456L289.606 265.997C291.194 265.682 292.782 265.328 294.378 265.065C294.439 265.133 294.401 264.997 294.31 265.012Z" fill="#263238"/>
<path d="M281.96 266.095L281.686 265.223C281.492 264.619 281.335 264.003 281.215 263.38C281.215 263.29 281.063 263.335 281.078 263.418C281.215 264.042 281.36 264.659 281.504 265.275C281.634 265.898 281.814 266.509 282.044 267.103C282.104 267.246 282.325 267.186 282.279 267.035C282.173 266.719 282.051 266.411 281.96 266.095Z" fill="#263238"/>
<path d="M296.4 262.448C295.465 262.583 294.515 262.651 293.573 262.734C292.63 262.816 291.688 262.944 290.746 263.087C290.692 263.087 290.692 263.17 290.746 263.17C291.696 263.102 292.63 263.027 293.573 262.907C294.515 262.786 295.458 262.644 296.408 262.583C296.506 262.598 296.499 262.448 296.4 262.448Z" fill="#263238"/>
<path d="M319.626 278.556C319.261 270.464 318.744 262.388 317.923 254.326C317.513 250.311 317.057 246.303 316.487 242.294C315.975 238.368 315.19 234.481 314.138 230.661C313.302 227.751 312.193 224.825 310.224 222.464C309.309 221.277 308.103 220.34 306.72 219.742C305.337 219.145 303.823 218.907 302.32 219.05C298.741 219.486 295.86 221.72 293.368 224.141C290.571 226.863 288.048 229.826 285.426 232.736C284.772 233.488 284.118 234.24 283.472 234.955C283.419 235.023 283.518 235.12 283.571 235.053C286.11 232.172 288.739 229.375 291.49 226.705C294.036 224.231 296.651 221.532 300.177 220.509C301.814 219.995 303.565 219.956 305.224 220.396C306.543 220.808 307.732 221.552 308.674 222.554C310.658 224.6 311.767 227.36 312.565 230.037C314.762 237.474 315.552 245.272 316.365 252.95C317.194 260.756 317.756 268.577 318.151 276.413C318.546 284.248 318.858 292.205 319.626 300.025C319.724 300.995 319.846 301.966 319.975 302.928C320.059 303.582 321.077 303.582 321.024 302.928C320.37 294.784 319.998 286.685 319.626 278.556Z" fill="#263238"/>
<path d="M292.919 225.028C292.919 225.028 297.593 216.478 292.076 213.748C286.558 211.019 268.09 231.398 262.694 261.222C262.694 261.222 292.516 248.167 302.647 235.158C312.778 222.148 301.294 219.276 292.919 225.028Z" fill="#FFC727"/>
<path d="M297.304 231.984C293.953 231.984 290.609 231.736 287.257 231.759C287.888 231.044 288.511 230.33 289.15 229.623C290.087 228.679 290.961 227.674 291.764 226.615C291.817 226.547 291.711 226.45 291.642 226.502C290.737 227.279 289.891 228.121 289.112 229.021C288.265 229.899 287.429 230.786 286.604 231.684C285.319 233.052 284.065 234.443 282.804 235.842V233.699C282.804 232.571 282.804 231.443 282.842 230.322C282.842 228.066 282.842 225.75 283.016 223.479C283.016 223.389 282.887 223.396 282.88 223.479C282.72 225.735 282.477 228.044 282.363 230.337C282.31 231.458 282.279 232.593 282.272 233.714C282.272 234.293 282.272 234.872 282.272 235.451C282.272 235.767 282.272 236.105 282.272 236.429L281.679 237.083C279.004 240.091 276.458 243.234 273.988 246.415C273.988 246.242 273.988 246.062 273.942 245.889C273.942 245.535 273.866 245.189 273.82 244.836C273.737 244.084 273.63 243.332 273.516 242.58C273.402 241.828 273.296 241.159 273.174 240.452C273.053 239.745 272.84 238.85 272.779 238.038C272.779 238.02 272.772 238.003 272.759 237.99C272.746 237.977 272.729 237.97 272.711 237.97C272.693 237.97 272.675 237.977 272.662 237.99C272.65 238.003 272.642 238.02 272.642 238.038C272.785 238.841 272.879 239.652 272.924 240.467L273.129 242.655C273.197 243.407 273.266 244.122 273.342 244.851C273.342 245.197 273.41 245.55 273.448 245.904C273.448 246.077 273.486 246.25 273.509 246.43C273.525 246.577 273.575 246.718 273.653 246.844L272.376 248.491C270.689 250.709 269.025 252.95 267.368 255.184C267.315 255.251 267.414 255.349 267.467 255.274C269.04 253.251 270.659 251.258 272.3 249.258C273.524 249.31 274.778 249.22 276.002 249.205C277.225 249.19 278.586 249.205 279.885 249.168C279.969 249.168 279.969 249.032 279.885 249.032C278.593 249.032 277.301 249.077 276.009 249.077C274.717 249.077 273.623 249.025 272.445 249.077C273.889 247.338 275.343 245.611 276.807 243.896L278.411 242.024C278.915 242.089 279.424 242.104 279.931 242.069H281.694L285 242.024C287.28 241.986 289.56 241.911 291.84 241.911C291.855 241.906 291.868 241.896 291.878 241.883C291.887 241.871 291.892 241.855 291.892 241.839C291.892 241.823 291.887 241.808 291.878 241.795C291.868 241.782 291.855 241.773 291.84 241.768C289.56 241.768 287.28 241.648 285 241.587C283.898 241.587 282.796 241.527 281.694 241.512H279.931C279.596 241.512 279.247 241.512 278.912 241.512L282.667 237.105C282.697 237.088 282.721 237.062 282.735 237.03C283.959 235.601 285.182 234.173 286.414 232.759L286.93 232.18C290.404 232.285 293.869 232.06 297.35 232.127C297.396 232.127 297.396 231.984 297.304 231.984Z" fill="#263238"/>
<path d="M295.587 237.85H294.781C294.765 237.85 294.75 237.856 294.738 237.868C294.727 237.879 294.72 237.894 294.72 237.91C294.72 237.926 294.727 237.942 294.738 237.953C294.75 237.964 294.765 237.97 294.781 237.97H295.594C295.686 237.985 295.678 237.85 295.587 237.85Z" fill="#263238"/>
<path d="M293.786 237.858C292.714 237.858 291.635 237.82 290.563 237.79L288.952 237.745C288.448 237.679 287.936 237.679 287.432 237.745C287.379 237.745 287.386 237.827 287.432 237.843C287.932 237.943 288.443 237.978 288.952 237.948H290.563C291.635 237.948 292.706 237.948 293.778 237.948C293.786 237.959 293.798 237.967 293.811 237.971C293.824 237.975 293.838 237.976 293.852 237.972C293.865 237.968 293.877 237.96 293.885 237.95C293.894 237.939 293.899 237.926 293.901 237.912C293.902 237.899 293.899 237.885 293.892 237.873C293.885 237.861 293.875 237.852 293.862 237.846C293.85 237.84 293.836 237.838 293.822 237.84C293.808 237.842 293.796 237.848 293.786 237.858Z" fill="#263238"/>
<path d="M284.407 247.822C282.229 247.462 280.026 247.264 277.818 247.228C277.78 247.228 277.818 247.273 277.818 247.28C280.007 247.483 282.203 247.604 284.377 247.949C284.468 247.964 284.498 247.829 284.407 247.822Z" fill="#263238"/>
<path d="M275.447 238.324L275.378 237.752C275.318 237.331 275.249 236.903 275.181 236.474C275.059 235.669 274.915 234.857 274.755 234.052C274.755 233.977 274.611 234 274.618 234.052C274.725 234.89 274.816 235.724 274.892 236.557C274.93 236.97 274.96 237.376 274.998 237.79C274.988 238.185 275.045 238.579 275.166 238.956C275.182 238.981 275.205 239.002 275.233 239.015C275.261 239.028 275.292 239.033 275.322 239.029C275.353 239.025 275.381 239.013 275.405 238.993C275.428 238.973 275.446 238.947 275.454 238.918C275.491 238.721 275.488 238.52 275.447 238.324Z" fill="#263238"/>
<path d="M319.337 214.049C318.265 212.087 316.905 209.485 314.245 209.65C312.041 209.785 311.053 212.011 310.582 213.846C309.13 219.524 309.024 225.517 308.742 231.338C308.15 243.633 307.61 255.951 307.526 268.261C307.526 271.675 307.526 275.089 307.526 278.503C307.564 281.985 307.526 285.489 307.777 288.964C307.777 289.031 307.804 289.096 307.853 289.144C307.901 289.192 307.967 289.219 308.036 289.219C308.104 289.219 308.17 289.192 308.218 289.144C308.267 289.096 308.294 289.031 308.294 288.964C308.294 285.956 308.203 283.008 308.195 280.03C308.188 277.052 308.195 274.217 308.256 271.314C308.347 265.423 308.504 259.538 308.727 253.657C308.948 247.807 309.206 241.964 309.487 236.12C309.616 233.195 309.738 230.277 309.875 227.352C310.012 224.427 310.126 221.69 310.452 218.877C310.635 217.298 310.87 215.719 311.212 214.17C311.379 213.014 311.854 211.924 312.588 211.011C313.1 210.522 313.769 210.227 314.479 210.176C315.188 210.125 315.894 210.322 316.472 210.733C317.688 211.599 318.642 212.777 319.23 214.14C319.261 214.2 319.375 214.132 319.337 214.049Z" fill="#263238"/>
<path d="M318.615 213.109C318.615 213.109 316.418 205.461 321.267 209.282C329.323 215.658 329.627 229.518 329.627 229.518C329.627 229.518 315.294 221.246 313.515 215.846C310.84 207.755 318.615 213.109 318.615 213.109Z" fill="#FFC727"/>
<path d="M326.595 223.833C326.466 223.622 326.329 223.419 326.192 223.209C326.207 222.991 326.207 222.772 326.192 222.554C326.192 222.223 326.192 221.893 326.192 221.562C326.192 220.915 326.23 220.276 326.268 219.629C326.263 219.614 326.253 219.601 326.24 219.592C326.227 219.582 326.212 219.577 326.196 219.577C326.18 219.577 326.164 219.582 326.151 219.592C326.138 219.601 326.129 219.614 326.124 219.629C326.124 220.261 326.07 220.9 326.048 221.532C326.048 221.847 326.048 222.163 326.048 222.487C326.048 222.607 326.048 222.75 326.048 222.893C325.485 222.028 324.908 221.171 324.315 220.336C324.14 220.088 323.958 219.847 323.783 219.584C323.695 218.754 323.68 217.919 323.737 217.087C323.737 216.2 323.737 215.305 323.79 214.418C323.79 214.335 323.654 214.335 323.654 214.418C323.654 215.343 323.578 216.268 323.532 217.193C323.48 217.85 323.462 218.511 323.479 219.17C322.096 217.305 320.629 215.508 319.139 213.726C319.094 213.666 318.987 213.726 319.033 213.809C319.952 214.967 320.834 216.147 321.7 217.343C320.013 216.952 318.303 216.726 316.586 216.486C316.502 216.486 316.464 216.606 316.586 216.613C318.394 216.892 320.18 217.365 321.966 217.726H322.004C322.688 218.681 323.372 219.644 324.041 220.607L324.854 221.787H324.778L324.224 221.712C323.828 221.667 323.426 221.637 323.03 221.607C322.202 221.539 321.374 221.494 320.545 221.449C320.462 221.449 320.462 221.584 320.545 221.592C321.358 221.592 322.172 221.667 322.977 221.757L324.262 221.908L324.824 221.975H324.984L326.359 223.983C327.172 225.164 327.879 226.435 328.761 227.578C328.77 227.592 328.784 227.601 328.801 227.605C328.817 227.608 328.834 227.605 328.848 227.596C328.862 227.587 328.872 227.573 328.876 227.557C328.879 227.541 328.876 227.524 328.867 227.51C328.183 226.241 327.424 225.014 326.595 223.833Z" fill="#263238"/>
<path d="M323 215.185C323 214.892 323 214.591 323 214.297C322.976 213.67 323.001 213.041 323.076 212.417C323.076 212.32 322.939 212.305 322.939 212.417C322.939 213.042 322.871 213.658 322.84 214.275C322.84 214.583 322.84 214.899 322.84 215.207V215.636C322.814 215.783 322.814 215.933 322.84 216.08C322.84 216.096 322.847 216.111 322.858 216.122C322.87 216.134 322.885 216.14 322.901 216.14C322.917 216.14 322.933 216.134 322.944 216.122C322.956 216.111 322.962 216.096 322.962 216.08C322.985 215.943 322.985 215.803 322.962 215.666L323 215.185Z" fill="#263238"/>
<path d="M321.26 218.358C320.728 218.268 320.18 218.238 319.641 218.193C319.101 218.148 318.463 218.095 317.87 218.02C317.852 218.02 317.834 218.027 317.822 218.04C317.809 218.052 317.802 218.07 317.802 218.087C317.802 218.105 317.809 218.123 317.822 218.135C317.834 218.148 317.852 218.155 317.87 218.155C319.002 218.223 320.15 218.426 321.26 218.463C321.305 218.471 321.32 218.366 321.26 218.358Z" fill="#263238"/>
<path d="M319.664 254.928C316.624 252.672 313.948 249.476 309.89 249.318C306.546 249.19 304.198 251.679 302.86 254.454C302.185 255.93 301.635 257.46 301.218 259.026C300.62 261.127 300.053 263.232 299.516 265.343C298.457 269.499 297.56 273.693 296.826 277.924C296.423 280.278 296.066 282.639 295.739 285.008C295.354 287.413 295.121 289.839 295.04 292.272C295.028 292.372 295.058 292.472 295.121 292.55C295.185 292.628 295.277 292.679 295.378 292.69C295.479 292.701 295.58 292.671 295.659 292.609C295.738 292.546 295.788 292.455 295.8 292.355C296.21 290.37 296.377 288.324 296.674 286.339C296.97 284.354 297.282 282.308 297.624 280.323C298.315 276.307 299.144 272.307 300.025 268.336C300.892 264.576 301.743 260.771 302.966 257.116C303.84 254.499 305.246 251.446 308.104 250.499C312.451 249.07 316.403 252.709 319.588 255.078C319.641 255.048 319.74 254.928 319.664 254.928Z" fill="#263238"/>
<path d="M316.548 252.755C316.548 252.755 313.774 244.904 317.786 243.362C323.813 241.054 339.576 258.62 336.49 285.534C336.49 285.534 324.33 278.902 315.316 271.434C306.303 263.967 304 254.176 307.982 251.687C311.965 249.198 316.548 252.755 316.548 252.755Z" fill="#FFC727"/>
<path d="M334.666 279.744C334.247 278.804 333.756 277.897 333.199 277.029C332.69 276.112 332.166 275.194 331.626 274.284C330.585 272.51 329.544 270.735 328.472 269.02L327.94 268.171C327.94 268.065 327.986 267.96 328.008 267.855L328.191 267.103C328.32 266.524 328.426 265.93 328.533 265.343C328.753 264.193 328.958 263.02 329.293 261.892C329.293 261.809 329.179 261.779 329.156 261.892C328.905 263.042 328.54 264.148 328.198 265.298C328.031 265.855 327.849 266.411 327.697 266.968C327.651 267.163 327.598 267.351 327.545 267.547C326.253 265.448 324.938 263.358 323.517 261.335C323.61 261.056 323.656 260.764 323.654 260.47L323.79 259.297C323.897 258.41 324.003 257.522 324.132 256.643C324.363 254.908 324.683 253.186 325.09 251.484C325.09 251.401 324.976 251.379 324.953 251.484C324.52 253.176 324.049 254.875 323.722 256.59C323.562 257.432 323.41 258.282 323.296 259.132C323.243 259.553 323.198 259.981 323.152 260.41C323.152 260.53 323.114 260.666 323.099 260.794C322.666 260.184 322.225 259.575 321.769 258.981C320.378 257.169 318.934 255.402 317.482 253.642C317.429 253.574 317.315 253.642 317.368 253.717C319.857 256.87 322.142 260.175 324.208 263.614C324.611 264.245 324.968 264.884 325.394 265.516L325.006 265.471C324.497 265.403 323.98 265.373 323.486 265.328C322.473 265.233 321.447 265.143 320.408 265.057C318.356 264.9 316.297 264.772 314.252 264.561C314.161 264.561 314.138 264.681 314.252 264.689C316.327 264.93 318.387 265.253 320.454 265.546L323.494 265.952C324.264 266.11 325.048 266.19 325.835 266.193C326.645 267.486 327.454 268.782 328.259 270.081C328.077 270.066 327.894 270.066 327.712 270.081H324.778C323.456 270.081 322.141 270.081 320.819 270.081C320.728 270.081 320.743 270.216 320.819 270.216C322.156 270.216 323.486 270.299 324.824 270.367C325.462 270.367 326.093 270.434 326.732 270.479C327.043 270.479 327.362 270.532 327.682 270.547C327.957 270.603 328.242 270.603 328.518 270.547L330.57 273.848C331.198 274.851 331.839 275.854 332.492 276.856C333.1 277.931 333.791 278.957 334.56 279.924C334.59 279.894 334.696 279.857 334.666 279.744Z" fill="#263238"/>
<path d="M328.867 258.011C328.742 258.877 328.559 259.733 328.32 260.575C328.092 261.448 327.841 262.313 327.56 263.162C327.552 263.174 327.547 263.187 327.545 263.201C327.544 263.215 327.545 263.229 327.55 263.242C327.555 263.255 327.562 263.267 327.573 263.277C327.583 263.287 327.595 263.294 327.608 263.298C327.622 263.302 327.636 263.303 327.65 263.301C327.664 263.299 327.677 263.294 327.689 263.286C327.7 263.278 327.71 263.267 327.716 263.255C327.723 263.243 327.727 263.229 327.727 263.215C327.993 262.365 328.236 261.508 328.487 260.651C328.738 259.793 328.829 258.898 329.05 258.041C329.019 257.936 328.875 257.936 328.867 258.011Z" fill="#263238"/>
<path d="M319.914 263.275C319.732 263.115 319.497 263.027 319.253 263.027L318.106 262.869C317.391 262.771 316.677 262.696 315.962 262.613C314.48 262.44 312.991 262.297 311.509 262.117C311.491 262.117 311.473 262.124 311.46 262.137C311.448 262.149 311.44 262.167 311.44 262.185C311.44 262.203 311.448 262.22 311.46 262.232C311.473 262.245 311.491 262.252 311.509 262.252C312.907 262.418 314.298 262.628 315.696 262.809C316.38 262.899 317.064 262.997 317.756 263.072L318.744 263.185C319.129 263.186 319.512 263.25 319.876 263.373C319.887 263.371 319.897 263.367 319.906 263.36C319.914 263.354 319.92 263.345 319.924 263.335C319.928 263.325 319.929 263.314 319.928 263.304C319.926 263.293 319.921 263.283 319.914 263.275Z" fill="#263238"/>
<path d="M328.844 275.104C328.145 275.051 327.438 275.029 326.732 275.006H325.668H325.158C324.937 275.02 324.715 275.008 324.497 274.969C324.398 274.969 324.391 275.127 324.497 275.104C324.704 275.082 324.913 275.082 325.12 275.104H325.675L326.739 275.172C327.438 275.209 328.145 275.255 328.844 275.255C328.92 275.232 328.928 275.112 328.844 275.104Z" fill="#263238"/>
<path d="M333.138 272.096L333.366 270.915L333.8 268.584C333.8 268.501 333.678 268.479 333.663 268.584C333.488 269.336 333.313 270.088 333.146 270.84C333.055 271.216 332.971 271.592 332.895 271.968L332.781 272.495C332.724 272.674 332.703 272.863 332.72 273.051C332.72 273.119 332.827 273.164 332.872 273.096C333.021 272.781 333.111 272.443 333.138 272.096Z" fill="#263238"/>
<path d="M291.901 289.219L292.752 298.762L295.632 330.978H321.13L324.725 298.762L325.789 289.219H291.901Z" fill="#455A64"/>
<path d="M291.901 289.219L292.752 298.762H324.725L325.789 289.219H291.901Z" fill="#263238"/>
<path d="M289.378 294.363H328.32V286.625H289.378V294.363Z" fill="#455A64"/>
<path d="M23.3092 330.88L64.98 330.699L106.658 330.632L190 330.504L273.342 330.632L315.02 330.692L356.691 330.88L315.02 331.06L273.342 331.128L190 331.256L106.658 331.128L64.98 331.06L23.3092 330.88Z" fill="#263238"/>
<path d="M152.874 270.72V270.825C152.874 270.825 152.874 270.87 152.874 270.901C152.874 270.931 152.874 271.021 152.912 271.104V271.239C152.936 271.335 152.954 271.433 152.965 271.532C152.965 271.6 152.965 271.668 153.003 271.743C153.041 271.818 153.056 272.059 153.094 272.239C153.132 272.42 153.208 272.848 153.269 273.209L153.611 275.044C153.649 275.24 153.687 275.45 153.725 275.668C153.763 275.886 153.832 276.255 153.892 276.563C153.953 276.871 154.014 277.255 154.082 277.623C154.128 277.879 154.181 278.142 154.227 278.413C154.371 279.218 154.523 280.075 154.698 280.992C154.702 281.015 154.702 281.038 154.698 281.06C154.88 282.083 155.078 283.181 155.291 284.331C155.344 284.632 155.405 284.933 155.466 285.234C155.526 285.534 155.587 285.865 155.64 286.181C155.64 286.377 155.709 286.58 155.754 286.783C156.043 288.382 156.355 290.077 156.689 291.866C156.803 292.468 156.91 293.077 157.024 293.694C157.244 294.897 157.472 296.13 157.708 297.401C157.768 297.694 157.822 297.988 157.867 298.288C158.207 300.128 158.559 302.043 158.924 304.034C158.969 304.237 159 304.44 159.038 304.643C159.212 305.575 159.387 306.515 159.554 307.478C159.577 307.551 159.592 307.627 159.6 307.703L159.851 309.072C160.185 310.907 160.53 312.784 160.884 314.705C160.976 315.178 161.067 315.66 161.15 316.148C161.325 317.118 161.508 318.096 161.69 319.081C161.918 320.307 162.146 321.54 162.374 322.796C162.602 324.052 162.83 325.308 163.066 326.556C163.187 327.195 163.301 327.834 163.423 328.474C163.56 329.226 163.704 329.978 163.841 330.782H229.52C221.418 297.476 214.586 270.622 214.586 270.622L152.874 270.72Z" fill="#455A64"/>
<path d="M162.8 278.24C166.088 295.787 169.412 313.333 172.771 330.88H173.683C170.194 313.291 166.6 295.732 163.043 278.165C162.99 277.999 162.777 278.067 162.8 278.24Z" fill="#37474F"/>
<path d="M152.882 270.72C152.882 270.72 152.882 270.758 152.882 270.825C152.882 270.893 152.882 270.87 152.882 270.9C152.882 270.931 152.882 271.021 152.92 271.103V271.239C152.944 271.335 152.961 271.433 152.973 271.532C152.973 271.6 152.973 271.667 153.011 271.743C153.049 271.818 153.072 272.059 153.102 272.239C153.132 272.419 153.216 272.848 153.277 273.209C153.383 273.743 153.49 274.352 153.619 275.044C153.657 275.239 153.695 275.45 153.733 275.668C153.771 275.886 153.839 276.255 153.9 276.563C153.961 276.871 154.022 277.255 154.09 277.623C154.136 277.879 154.189 278.142 154.234 278.413C154.386 279.218 154.538 280.075 154.706 280.992C154.709 281.015 154.709 281.038 154.706 281.06C154.896 282.083 155.093 283.166 155.306 284.316C155.367 284.617 155.42 284.925 155.473 285.234C155.526 285.542 155.595 285.865 155.648 286.181C155.694 286.377 155.724 286.58 155.762 286.783C156.058 288.377 156.37 290.076 156.697 291.866C156.811 292.468 156.917 293.077 157.031 293.694C157.259 294.897 157.487 296.13 157.715 297.401C157.776 297.694 157.829 297.987 157.875 298.288C158.224 300.138 158.577 302.053 158.931 304.034C158.977 304.237 159.007 304.44 159.045 304.643C159.22 305.575 159.395 306.515 159.562 307.478C159.584 307.551 159.6 307.627 159.608 307.703L159.858 309.072C160.198 310.907 160.542 312.784 160.892 314.704C160.983 315.178 161.074 315.659 161.158 316.148C161.34 317.118 161.515 318.096 161.698 319.081C161.926 320.307 162.154 321.54 162.382 322.796C162.61 324.052 162.845 325.308 163.073 326.556C163.195 327.195 163.309 327.834 163.43 328.474C163.567 329.226 163.712 329.978 163.856 330.782H196.84L199.477 304.071L199.568 303.124L199.675 302.101L200.192 296.875L200.64 292.363L202.76 270.72H152.882Z" fill="#263238"/>
<path d="M115.558 330.88H186.398C186.519 324.428 186.648 318.186 186.808 312.298C186.808 312.155 186.808 312.012 186.808 311.869C186.808 311.869 195.077 307.027 199.53 303.229C200.287 302.613 200.985 301.928 201.613 301.184C204.463 297.589 207.32 283.767 213.233 270.765H126.593C112.518 297.792 113.506 319.51 115.558 330.88Z" fill="#455A64"/>
<path d="M203.68 300.228C199.462 301.935 195.67 304.56 191.93 307.094C188.047 309.719 184.482 312.757 180.743 315.577C180.599 315.69 180.743 315.923 180.895 315.817C184.832 313.328 188.959 311.14 192.858 308.576C196.756 306.011 200.579 303.665 203.87 300.529C203.999 300.409 203.855 300.153 203.68 300.228Z" fill="#263238"/>
<path d="M204.212 276.112C203.71 278.782 203.049 281.429 202.472 284.083C201.924 286.572 201.522 289.107 200.86 291.603C200.318 293.985 199.093 296.162 197.334 297.875C196.346 298.785 195.259 299.589 194.203 300.417C193.64 300.868 193.025 301.296 192.432 301.755C192.508 301.402 192.576 301.003 192.637 300.68C192.82 299.665 192.987 298.657 193.162 297.672C193.542 295.416 193.922 293.16 194.256 290.904C194.94 286.475 195.571 282 196.536 277.616C196.546 277.579 196.541 277.54 196.522 277.507C196.503 277.473 196.471 277.449 196.433 277.439C196.396 277.429 196.356 277.434 196.323 277.453C196.289 277.472 196.265 277.504 196.255 277.541C195.138 281.887 193.906 286.189 192.941 290.573C192.462 292.716 190.76 303.357 190.661 304.109C190.562 304.861 190.517 305.666 190.494 306.44C190.391 307.232 190.391 308.033 190.494 308.824C190.51 308.859 190.537 308.889 190.57 308.91C190.603 308.931 190.641 308.942 190.68 308.942C190.719 308.942 190.758 308.931 190.791 308.91C190.824 308.889 190.85 308.859 190.866 308.824C191.19 308.088 191.42 307.315 191.55 306.523C191.748 305.766 191.915 304.999 192.052 304.222C192.105 303.951 192.143 303.665 192.181 303.38C193.238 302.74 194.226 301.876 195.221 301.199C196.217 300.522 197.364 299.695 198.375 298.852C200.234 297.294 201.576 295.219 202.228 292.897C202.877 290.397 203.299 287.845 203.49 285.271C203.832 282.263 204.075 279.255 204.501 276.247C204.516 275.984 204.242 275.932 204.212 276.112Z" fill="#263238"/>
<path d="M132.126 294.701C133.251 294.122 137.636 295.152 145.608 293.806C147.169 293.607 148.651 293.011 149.91 292.077C151.992 290.4 153.566 287.7 154.82 285.392C156.324 282.794 157.479 280.013 158.255 277.12C158.293 276.939 158.551 277.029 158.521 277.195C158.224 278.827 158.057 280.458 157.624 282.075C157.192 283.592 156.641 285.073 155.975 286.504C154.766 289.182 153.36 292.054 150.936 293.867C148.39 295.762 144.856 296.123 141.755 296.333C139.969 296.453 132.97 296.265 132.035 295.28C131.999 295.238 131.973 295.188 131.958 295.135C131.943 295.081 131.94 295.025 131.949 294.97C131.957 294.916 131.977 294.863 132.008 294.817C132.039 294.771 132.079 294.731 132.126 294.701Z" fill="#263238"/>
<path d="M187.158 168.884C204.44 178.374 268.371 202.649 282.72 194.016C293.413 187.579 291.886 173.765 282.788 164.853C274.877 157.1 215.597 154.919 199.006 154.468C183.236 154.01 170.24 159.559 187.158 168.884Z" fill="#FFC4C0"/>
<path d="M229.664 190.294L255.428 155.318C255.428 155.318 210.847 151.024 192.022 152.633C172.398 154.31 168.378 161.906 192.067 172.712C215.399 183.353 229.664 190.294 229.664 190.294Z" fill="#C31F82"/>
<path d="M225.317 183.548C225.834 182.646 226.48 181.811 227.073 180.961C227.666 180.112 228.296 179.217 228.904 178.337C230.143 176.562 231.412 174.81 232.704 173.073C235.258 169.584 237.796 166.087 240.411 162.643C241.125 161.695 241.847 160.748 242.592 159.823C243.337 158.898 244.226 157.92 245.001 156.95C245.047 156.882 245.13 156.95 245.092 157.025C244.484 157.905 243.952 158.837 243.352 159.725C242.752 160.612 242.106 161.537 241.467 162.425C240.206 164.184 238.939 165.939 237.667 167.689C235.129 171.103 232.606 174.532 229.991 177.893L227.795 180.706C227.035 181.683 226.313 182.729 225.462 183.638C225.37 183.653 225.279 183.608 225.317 183.548Z" fill="#263238"/>
<path d="M208.088 158.123C207.608 159.132 207.273 160.203 207.092 161.304C207.824 160.454 208.428 159.504 208.886 158.484C209.367 157.475 209.702 156.404 209.882 155.303C209.152 156.155 208.549 157.104 208.088 158.123ZM217.793 174.727C216.775 174.248 215.692 173.916 214.578 173.742C216.328 175.168 218.424 176.117 220.658 176.494C219.795 175.771 218.83 175.176 217.793 174.727ZM191.049 162.815C190.031 162.336 188.948 162.004 187.834 161.83C189.584 163.256 191.68 164.205 193.914 164.583C193.048 163.862 192.084 163.267 191.049 162.815ZM229.93 161.056C229.552 160.005 229.025 159.012 228.365 158.108C228.57 160.334 229.356 162.469 230.645 164.304C230.568 163.193 230.327 162.098 229.93 161.056ZM237.743 173.84C236.682 174.217 235.68 174.738 234.764 175.389C237.014 175.186 239.171 174.408 241.026 173.133C239.904 173.212 238.798 173.451 237.743 173.84Z" fill="white"/>
<path d="M192.067 172.704C215.399 183.345 229.664 190.294 229.664 190.294L237.88 179.104L176.122 158.198C174.352 161.748 178.988 166.741 192.067 172.704Z" fill="#263238"/>
<path d="M246.544 91.8042C241.756 85.2091 229.558 76.0122 217.375 68.9058C211.462 65.4391 193.428 57.2799 190.395 61.5587C187.363 65.8376 192.417 68.6952 192.417 68.6952C192.417 68.6952 184.277 66.3715 181.617 70.9512C178.957 75.5309 186.96 79.712 186.96 79.712C186.96 79.712 178.418 77.9298 176.1 82.72C173.782 87.5103 182.552 90.3453 182.552 90.3453C182.552 90.3453 174.823 88.36 174.58 93.0751C174.291 98.7602 188.959 100.828 195.297 104.987C196.741 105.927 223.113 126.163 223.113 126.163L246.544 91.8042Z" fill="#FFC4C0"/>
<path d="M182.658 90.4655C193.443 92.0222 197.858 94.5414 206.044 101.437C206.203 101.573 206.439 101.37 206.287 101.212C198.922 93.7443 193.808 89.7812 182.727 89.9316C182.164 89.9542 182.149 90.3979 182.658 90.4655Z" fill="#263238"/>
<path d="M186.572 79.524C197.63 82.1033 202.472 84.788 211.554 91.3981C211.675 91.4958 211.85 91.2853 211.728 91.18C203.368 83.9683 198.178 80.1331 186.785 78.9976C186.276 78.96 186.063 79.4112 186.572 79.524Z" fill="#263238"/>
<path d="M193.321 68.951C203.84 72.2147 209.281 74.967 217.261 82.487C217.3 82.5202 217.349 82.538 217.4 82.537C217.452 82.5359 217.5 82.516 217.537 82.4813C217.574 82.4465 217.597 82.3993 217.601 82.3489C217.605 82.2985 217.589 82.2485 217.558 82.2088C210.178 73.7488 203.414 70.2971 193.45 68.6728C192.774 68.5374 192.652 68.748 193.321 68.951Z" fill="#263238"/>
<path d="M227.278 132.66C227.278 132.66 213.94 129.75 208.369 127.201C202.798 124.652 185.569 107.559 189.088 103.663C193.648 98.6399 205.542 106.566 210.862 111.183C210.862 111.183 221.358 99.5498 231.146 103.408C240.935 107.265 227.278 132.66 227.278 132.66Z" fill="#FFC4C0"/>
<path d="M190.798 102.693C198.284 101.069 204.866 107.596 210.368 111.717C210.445 111.783 210.538 111.828 210.637 111.85C210.737 111.872 210.84 111.87 210.938 111.843C211.037 111.816 211.127 111.766 211.201 111.697C211.275 111.628 211.331 111.542 211.364 111.446C216.091 106.867 224.116 101.761 230.979 103.046C231.017 103.051 231.055 103.041 231.086 103.02C231.118 102.999 231.141 102.968 231.151 102.931C231.161 102.895 231.158 102.857 231.141 102.822C231.125 102.788 231.097 102.761 231.063 102.746C223.888 100.369 215.597 104.754 210.74 110.1C205.17 105.791 198.276 99.5271 190.775 102.625C190.769 102.63 190.764 102.637 190.762 102.644C190.759 102.652 190.759 102.66 190.762 102.667C190.764 102.675 190.769 102.681 190.776 102.686C190.782 102.691 190.79 102.693 190.798 102.693Z" fill="#263238"/>
<path d="M290.198 181.743C289.72 196.355 272.209 195.347 264.647 188.399C246.886 172.103 220.704 138.849 213.606 118.35C211.326 111.755 238.138 82.7726 243.352 88.1569C252.616 97.7073 291.171 152.092 290.198 181.743Z" fill="#FFC4C0"/>
<path d="M245.222 167.696C246.529 169.012 247.783 170.358 249.022 171.719C250.26 173.08 251.507 174.441 252.738 175.81L256.394 179.954C256.994 180.645 257.61 181.33 258.233 182.014C258.856 182.698 259.472 183.375 260.095 184.06C258.636 182.915 257.257 181.674 255.968 180.345C254.653 179.044 253.399 177.683 252.168 176.306C250.937 174.93 249.736 173.532 248.581 172.088C247.426 170.644 246.293 169.2 245.222 167.696Z" fill="#263238"/>
<path d="M252.67 176.284C253.293 177.171 253.832 178.036 254.372 178.923C254.63 179.367 254.896 179.811 255.132 180.27C255.388 180.736 255.614 181.219 255.808 181.713C254.958 181.051 254.246 180.231 253.711 179.299C253.435 178.842 253.201 178.361 253.012 177.863C252.814 177.358 252.699 176.825 252.67 176.284Z" fill="#263238"/>
<path d="M221.114 285.128H118.56C118.56 285.128 134.224 188.331 172.011 155.228C176.677 151.137 187.211 152.07 194.051 155.446C196.506 156.657 205.314 168.847 207.83 180.382C210.345 191.918 221.388 284.783 221.114 285.128Z" fill="#623CE7"/>
<path d="M160.2 183.15C159.138 183.522 158.134 184.044 157.221 184.699C159.474 184.484 161.632 183.694 163.484 182.405C162.359 182.497 161.253 182.747 160.2 183.15ZM210.087 194.43C210.042 194.457 209.999 194.487 209.958 194.52H210.094C210.094 194.52 210.087 194.422 210.087 194.399V194.43ZM183.441 209.695C182.38 210.072 181.378 210.594 180.462 211.244C182.715 211.03 184.873 210.239 186.724 208.951C185.601 209.033 184.496 209.273 183.441 209.665V209.695ZM169.48 251.702C168.417 252.077 167.414 252.601 166.501 253.258C167.626 253.164 168.732 252.911 169.784 252.506C170.846 252.13 171.849 251.605 172.763 250.95C171.638 251.044 170.532 251.297 169.48 251.702ZM146.019 222.374C144.958 222.751 143.955 223.272 143.04 223.923C145.293 223.708 147.451 222.918 149.302 221.629C148.186 221.731 147.091 221.989 146.049 222.396L146.019 222.374ZM124.982 280.834C123.92 281.209 122.917 281.73 122.003 282.383C124.258 282.171 126.417 281.377 128.265 280.082C127.149 280.187 126.054 280.447 125.012 280.857L124.982 280.834ZM170.27 277.172C169.208 277.546 168.205 278.068 167.291 278.721C169.546 278.509 171.705 277.715 173.554 276.42C172.437 276.521 171.341 276.782 170.301 277.195L170.27 277.172ZM220.727 281.293C220 281.436 219.285 281.637 218.591 281.895C217.53 282.27 216.527 282.792 215.612 283.444C216.737 283.349 217.843 283.096 218.895 282.692C219.548 282.449 220.182 282.163 220.795 281.834C220.803 281.692 220.788 281.504 220.757 281.316L220.727 281.293ZM199.53 250.536C198.468 250.91 197.465 251.432 196.551 252.085C198.804 251.871 200.962 251.08 202.814 249.792C201.697 249.89 200.602 250.148 199.561 250.559L199.53 250.536ZM170.764 167.485C170.386 166.434 169.859 165.442 169.199 164.538C169.416 166.767 170.214 168.902 171.517 170.734C171.428 169.621 171.174 168.526 170.764 167.485ZM148.2 281.022C147.823 279.971 147.296 278.978 146.634 278.074C146.856 280.299 147.657 282.429 148.96 284.256C148.867 283.147 148.611 282.058 148.2 281.022ZM143.701 252.755C143.319 251.705 142.787 250.714 142.12 249.814C142.216 250.925 142.472 252.016 142.88 253.055C143.258 254.108 143.788 255.101 144.453 256.003C144.361 254.89 144.107 253.796 143.701 252.755ZM182.712 235.955C182.332 234.905 181.805 233.912 181.146 233.007C181.363 235.237 182.162 237.372 183.464 239.204C183.371 238.091 183.118 236.997 182.712 235.955ZM168.91 199.716C168.529 198.665 167.999 197.672 167.337 196.768C167.552 198.999 168.354 201.136 169.662 202.965C169.57 201.852 169.316 200.758 168.91 199.716ZM187.804 282.436C187.874 283.366 188.066 284.284 188.374 285.166H189.286C188.919 284.182 188.421 283.251 187.804 282.398V282.436ZM216.858 261.38C216.481 260.327 215.951 259.334 215.285 258.432C215.385 259.542 215.641 260.633 216.045 261.673C216.423 262.726 216.953 263.719 217.618 264.621C217.526 263.5 217.27 262.398 216.858 261.35V261.38ZM199.12 179.021C198.741 177.971 198.211 176.981 197.547 176.081C197.647 177.191 197.902 178.282 198.307 179.322C198.678 180.376 199.206 181.369 199.872 182.27C199.78 181.157 199.526 180.063 199.12 179.021ZM191.064 162.815C190.046 162.336 188.963 162.004 187.849 161.83C189.599 163.256 191.695 164.205 193.929 164.583C193.059 163.861 192.089 163.266 191.049 162.815H191.064ZM157.495 238.813C156.477 238.329 155.395 237.995 154.28 237.82C155.142 238.544 156.104 239.142 157.138 239.595C158.157 240.071 159.239 240.403 160.352 240.58C159.491 239.858 158.528 239.263 157.495 238.813ZM130.978 265.245C129.96 264.766 128.878 264.434 127.764 264.26C129.513 265.686 131.609 266.635 133.844 267.013C132.98 266.29 132.015 265.694 130.978 265.245ZM200.306 271.833C199.287 271.353 198.205 271.022 197.091 270.848C198.84 272.274 200.936 273.223 203.171 273.6C202.305 272.88 201.34 272.285 200.306 271.833ZM198.102 229.909C197.083 229.43 196 229.099 194.887 228.924C195.744 229.648 196.704 230.244 197.737 230.691C198.756 231.17 199.838 231.504 200.952 231.684C200.093 230.96 199.133 230.362 198.102 229.909ZM191.049 194.324C190.031 193.845 188.948 193.513 187.834 193.339C189.584 194.765 191.68 195.714 193.914 196.091C193.05 195.368 192.085 194.773 191.049 194.324ZM148.793 204.183C148.307 205.19 147.972 206.261 147.797 207.364C149.236 205.631 150.194 203.558 150.579 201.348C149.849 202.203 149.247 203.158 148.793 204.183ZM182.848 262.598C182.362 263.606 182.024 264.677 181.845 265.779C182.577 264.929 183.181 263.98 183.639 262.959C184.12 261.951 184.455 260.88 184.634 259.778C183.907 260.63 183.305 261.579 182.848 262.598ZM203.68 211.034C203.195 212.044 202.86 213.118 202.684 214.222C203.412 213.368 204.014 212.416 204.47 211.395C204.955 210.387 205.29 209.316 205.466 208.214C204.738 209.065 204.137 210.014 203.68 211.034ZM157.092 265.606C156.607 266.614 156.272 267.685 156.096 268.787C157.535 267.054 158.494 264.981 158.878 262.771C158.15 263.628 157.549 264.583 157.092 265.606ZM130.401 237.361C129.916 238.371 129.581 239.445 129.405 240.55C130.133 239.696 130.735 238.744 131.191 237.722C131.676 236.715 132.011 235.643 132.187 234.541C131.462 235.394 130.86 236.343 130.401 237.361ZM166.714 221.569C166.225 222.578 165.89 223.652 165.718 224.758C166.443 223.902 167.044 222.95 167.504 221.93C167.985 220.921 168.32 219.851 168.5 218.749C167.77 219.607 167.168 220.565 166.714 221.592V221.569ZM180.067 180.345C179.587 181.354 179.251 182.424 179.071 183.526C179.803 182.676 180.407 181.726 180.865 180.706C181.346 179.697 181.681 178.626 181.86 177.525C181.129 178.383 180.525 179.34 180.067 180.367V180.345Z" fill="white"/>
<path d="M154.462 288.61C154.462 282.932 156.127 248.626 155.139 237.376C154.804 233.616 167.968 191.557 171.365 177.434C174.557 164.184 167.74 158.334 157.73 170.809C149.408 181.187 127.657 221.712 123.264 232.533C118.872 243.355 114.296 279.812 114.327 287.52C114.357 293.618 154.44 294.22 154.462 288.61Z" fill="#FFC4C0"/>
<path d="M158.84 337.46C154.896 339.423 151.704 336.182 151.704 336.182C150.56 338.042 148.793 339.447 146.71 340.152C142.986 341.22 139.65 335.903 139.65 335.903C138.056 337.589 135.985 338.758 133.707 339.257C130.036 339.927 125.909 335.039 125.909 335.039C123.58 335.785 121.057 335.675 118.803 334.73C112.883 331.97 111.705 322.157 110.892 315.93C110.078 309.704 114.122 289.467 114.441 285.888L154.379 282.128C154.379 282.128 166.068 309.057 165.969 316.517C165.862 322.834 163.24 335.249 158.84 337.46Z" fill="#FFC4C0"/>
<path d="M151.848 336.031C153.55 329.361 153.178 322.563 153.186 315.727C153.179 315.701 153.164 315.678 153.142 315.662C153.121 315.646 153.095 315.637 153.068 315.637C153.041 315.637 153.015 315.646 152.993 315.662C152.972 315.678 152.957 315.701 152.95 315.727C153.018 322.495 151.726 329.196 151.521 335.956C151.511 335.999 151.519 336.044 151.542 336.081C151.566 336.119 151.603 336.145 151.647 336.155C151.69 336.165 151.736 336.158 151.773 336.135C151.811 336.111 151.838 336.074 151.848 336.031Z" fill="#263238"/>
<path d="M140.136 335.708C140.371 334.157 140.404 332.582 140.235 331.023C140.152 329.361 140.038 327.707 139.901 326.045C139.632 322.736 139.278 319.43 138.837 316.126C138.837 315.983 138.586 315.975 138.601 316.126C138.867 319.427 139.08 322.736 139.202 326.045C139.27 327.707 139.316 329.361 139.354 331.023C139.285 332.589 139.392 334.158 139.673 335.7C139.688 335.749 139.718 335.792 139.759 335.823C139.8 335.854 139.85 335.871 139.902 335.872C139.954 335.873 140.004 335.857 140.046 335.828C140.088 335.798 140.12 335.756 140.136 335.708Z" fill="#263238"/>
<path d="M125.871 334.896C126.221 333.595 125.871 332.008 125.727 330.677C125.575 329.173 125.423 327.669 125.286 326.165C125.005 323.157 124.731 320.149 124.564 317.141C124.564 316.991 124.313 316.991 124.321 317.141C124.48 320.209 124.594 323.292 124.784 326.361C124.876 327.865 124.974 329.369 125.081 330.873C125.172 332.159 125.142 333.768 125.719 334.948C125.75 334.986 125.848 334.964 125.871 334.896Z" fill="#263238"/>
<path d="M163.18 220.878L121.767 221.013C121.767 221.013 144.392 182.766 156.727 168.621C169.602 153.874 178.182 155.085 173.136 180.427C168.188 205.371 163.18 220.878 163.18 220.878Z" fill="#C31F82"/>
<path d="M148.793 204.183C148.307 205.19 147.972 206.262 147.797 207.364C149.236 205.631 150.194 203.558 150.579 201.348C149.849 202.203 149.247 203.158 148.793 204.183ZM154.964 170.749L154.538 171.268C155.075 171.446 155.627 171.575 156.188 171.651C155.807 171.316 155.398 171.014 154.964 170.749ZM141.725 191.805C141.524 191.276 141.293 190.759 141.033 190.256L140.547 191.008C140.653 191.384 140.775 191.76 140.904 192.113C141.283 193.165 141.813 194.158 142.477 195.061C142.39 193.931 142.136 192.818 141.725 191.76V191.805ZM168.91 199.746C168.529 198.695 167.999 197.702 167.337 196.798C167.432 197.912 167.688 199.006 168.097 200.047C168.249 200.431 168.408 200.799 168.576 201.183C168.69 200.716 168.804 200.25 168.925 199.769L168.91 199.746ZM170.764 167.515C170.386 166.464 169.859 165.472 169.199 164.568C169.416 166.797 170.214 168.932 171.517 170.764C171.431 169.64 171.177 168.536 170.764 167.485V167.515ZM129.253 211.989C128.205 212.354 127.213 212.86 126.304 213.493C128.552 213.275 130.704 212.485 132.552 211.199C131.421 211.294 130.31 211.55 129.253 211.959V211.989ZM160.2 183.18C159.138 183.552 158.134 184.074 157.221 184.729C159.474 184.514 161.632 183.724 163.484 182.435C162.36 182.517 161.255 182.758 160.2 183.15V183.18Z" fill="white"/>
<path d="M128.554 214.41C129.595 214.297 130.659 214.327 131.7 214.312L134.923 214.252C137.104 214.207 139.285 214.2 141.459 214.207C145.814 214.207 150.168 214.207 154.516 214.29C155.716 214.29 156.91 214.342 158.103 214.395C159.296 214.448 160.618 214.598 161.903 214.651C161.979 214.651 161.964 214.764 161.903 214.771C160.824 214.771 159.745 214.914 158.665 214.952C157.586 214.989 156.454 215.012 155.344 215.019C153.17 215.019 150.997 215.019 148.816 215.019C144.529 214.982 140.243 214.959 135.956 214.824L132.369 214.703C131.123 214.666 129.838 214.703 128.569 214.538C128.501 214.515 128.486 214.418 128.554 214.41Z" fill="#263238"/>
<path d="M168.72 201.874C169.609 200.543 170.231 199.054 170.552 197.49C170.552 197.49 170.506 197.453 170.498 197.49C170.053 198.835 169.494 200.141 168.826 201.393L169.214 199.701C169.67 197.648 170.134 195.61 170.491 193.542C170.491 193.542 170.445 193.49 170.438 193.542C169.396 197.047 168.515 200.611 167.557 204.145C166.6 207.68 165.627 211.312 164.677 214.899C164.152 216.862 163.628 218.817 163.157 220.78C162.48 220.84 161.956 220.817 161.356 220.87C161.196 220.87 161.181 221.156 161.356 221.171C162.115 221.23 162.879 221.217 163.636 221.133C165.68 214.809 167.246 208.342 168.72 201.874Z" fill="#263238"/>
<path d="M169.412 160.665C172.316 165.98 176.563 170.46 181.739 173.667C184.212 175.284 187.054 176.266 190.008 176.524C191.543 176.68 193.09 176.356 194.431 175.599C195.674 174.707 196.662 173.51 197.296 172.125C198.066 170.557 198.596 168.884 198.869 167.162C199.21 165.213 199.411 163.243 199.47 161.266C199.47 161.191 199.584 161.206 199.576 161.266C199.523 163.139 199.622 165.026 199.424 166.876C199.285 168.521 198.932 170.141 198.375 171.697C197.841 173.169 196.996 174.512 195.898 175.637C194.742 176.742 193.223 177.399 191.619 177.487C188.473 177.638 185.351 176.869 182.643 175.276C179.903 173.768 177.416 171.847 175.271 169.583C172.794 166.972 170.761 163.981 169.252 160.725C169.242 160.714 169.235 160.701 169.232 160.687C169.228 160.673 169.228 160.658 169.232 160.644C169.235 160.629 169.242 160.616 169.252 160.605C169.262 160.594 169.274 160.586 169.288 160.581C169.302 160.576 169.317 160.574 169.331 160.576C169.346 160.577 169.36 160.583 169.372 160.591C169.384 160.599 169.394 160.61 169.401 160.623C169.408 160.636 169.412 160.65 169.412 160.665Z" fill="#263238"/>
<path d="M192.607 172.373C186.755 173.99 176.252 165.462 171.95 158.379C171.661 157.89 172.216 152.633 172.588 146.204C172.794 142.301 172.938 137.932 172.778 133.976C172.74 133.164 198.231 139.037 198.231 139.037C198.231 139.037 196.088 147.467 196.414 154.401C196.443 154.948 196.522 155.492 196.65 156.025C196.65 156.1 196.688 156.19 196.703 156.296C197.334 159.379 198.261 170.809 192.607 172.373Z" fill="#FFC4C0"/>
<path d="M194.119 156.529C194.983 156.522 195.845 156.444 196.696 156.296C196.687 156.205 196.671 156.114 196.65 156.025C196.518 155.493 196.439 154.949 196.414 154.401C196.095 147.475 198.223 139.037 198.223 139.037C198.223 139.037 177.536 134.27 173.462 133.916C174.428 138.481 179.238 156.8 194.119 156.529Z" fill="#263238"/>
<path d="M174.61 99.3693C170.05 107.446 169.153 133.42 174.139 140.331C181.374 150.347 195.958 154.303 205.253 145.076C214.259 136.112 214.814 102.272 209 95.707C200.397 86.0438 181.366 87.4425 174.61 99.3693Z" fill="#FFC4C0"/>
<path d="M204.79 102.167C203.713 103.462 202.32 104.464 200.743 105.077C199.165 105.691 197.456 105.895 195.776 105.671C192.447 105.197 189.111 102.994 187.864 99.828C187.854 99.8122 187.838 99.8004 187.82 99.7948C187.801 99.7891 187.782 99.7899 187.764 99.7969C187.746 99.804 187.731 99.8169 187.722 99.8335C187.712 99.8502 187.709 99.8695 187.712 99.8882C189.05 103.265 191.892 106.017 195.654 106.461C197.439 106.638 199.239 106.35 200.875 105.624C202.511 104.898 203.927 103.761 204.98 102.325C205.071 102.197 204.888 102.046 204.79 102.167Z" fill="#263238"/>
<path d="M194.917 81.1259C190.783 80.0279 186.253 81.9982 183.806 85.3596C182.396 87.3884 181.528 89.7374 181.283 92.1878C181.288 92.2046 181.299 92.2193 181.313 92.2298C181.327 92.2402 181.345 92.2458 181.363 92.2458C181.38 92.2458 181.398 92.2402 181.412 92.2298C181.427 92.2193 181.437 92.2046 181.442 92.1878C182.149 88.33 184.589 84.4271 188.214 82.6675C189.864 81.7976 191.748 81.459 193.602 81.6989C195.457 81.9389 197.189 82.7454 198.558 84.006C200.071 85.4153 201.052 87.2937 201.339 89.3302C201.352 89.3713 201.378 89.4067 201.414 89.4301C201.451 89.4535 201.494 89.4634 201.537 89.458C201.58 89.4526 201.62 89.4322 201.649 89.4005C201.678 89.3688 201.695 89.3279 201.696 89.2851C201.55 87.401 200.82 85.6072 199.607 84.1475C198.395 82.6878 196.757 81.6328 194.917 81.1259Z" fill="#263238"/>
<path d="M225.994 90.5634C225.058 87.917 223.202 85.6859 220.757 84.2691C217.375 82.2838 213.606 82.6598 209.866 83.1035C209.849 83.1088 209.835 83.1193 209.824 83.1335C209.813 83.1477 209.808 83.1649 209.808 83.1825C209.808 83.2001 209.813 83.2173 209.824 83.2315C209.835 83.2457 209.849 83.2562 209.866 83.2614C213.051 82.893 216.304 82.6974 219.268 84.1338C221.719 85.3026 223.687 87.2738 224.838 89.7136C225.941 92.2244 226.093 95.0441 225.267 97.6568C224.441 100.269 222.692 102.5 220.339 103.941C218.962 104.736 217.435 105.244 215.852 105.432C214.269 105.621 212.664 105.487 211.136 105.039C211.022 105.039 210.93 105.182 211.06 105.22C213.128 105.911 215.35 106.019 217.476 105.531C219.603 105.042 221.55 103.978 223.099 102.456C224.648 100.934 225.738 99.015 226.246 96.9144C226.755 94.8139 226.662 92.6146 225.978 90.5634H225.994Z" fill="#263238"/>
<path d="M173.136 102.858C173.136 102.858 173.592 94.9249 175.666 92.4959C177.741 90.067 182.332 89.4879 182.332 89.4879C182.332 89.4879 185.007 82.7726 191.452 82.3214C197.258 81.9153 201.195 86.9838 201.195 86.9838C201.195 86.9838 209.22 79.0803 218.409 83.5547C227.134 87.8035 226.009 100.941 217.611 105.152C211.683 108.1 203.513 102.994 203.513 102.994C202.753 103.107 194.826 107.98 188.7 101.016C188.7 101.016 183.266 105.227 180.128 102.287C180.12 102.272 175.97 104.272 173.136 102.858Z" fill="#263238"/>
<path opacity="0.2" d="M179.702 93.6616C179.421 97.5871 178.509 108.762 177.065 111.213C175.621 113.665 172.178 120.079 170.78 120.531C170.932 112.086 172.3 103.445 174.58 99.3693C175.864 97.1323 177.609 95.1877 179.702 93.6616Z" fill="#263238"/>
<path d="M174.435 120.388C174.435 120.388 170.316 111.161 166.189 112.462C162.062 113.763 164.038 126.359 168.089 128.818C168.588 129.164 169.152 129.408 169.747 129.535C170.343 129.662 170.958 129.67 171.557 129.558C172.156 129.445 172.726 129.216 173.233 128.882C173.74 128.548 174.175 128.117 174.511 127.614L174.435 120.388Z" fill="#FFC4C0"/>
<path d="M166.85 116.056C166.782 116.056 166.744 116.131 166.805 116.169C169.617 117.989 170.673 121.117 171.22 124.253C170.536 122.952 169.419 122.095 167.686 122.869C167.595 122.914 167.686 123.05 167.74 123.05C168.308 122.982 168.884 123.09 169.387 123.359C169.891 123.629 170.298 124.046 170.552 124.554C170.973 125.413 171.297 126.316 171.517 127.246C171.608 127.539 172.125 127.494 172.087 127.163C172.09 127.138 172.09 127.113 172.087 127.088C172.923 123.26 171 117.259 166.85 116.056Z" fill="#263238"/>
<path d="M192.736 119.944C192.736 119.876 192.592 120.019 192.592 120.094C192.592 121.847 192.272 123.854 190.646 124.373C190.6 124.373 190.6 124.471 190.646 124.471C192.622 124.268 193.04 121.606 192.736 119.944Z" fill="#263238"/>
<path d="M191.224 118.064C188.389 117.748 187.948 123.381 190.578 123.674C193.207 123.967 193.602 118.327 191.224 118.064Z" fill="#263238"/>
<path d="M203.824 120.688C203.824 120.621 203.961 120.779 203.954 120.846C203.756 122.591 203.832 124.606 205.382 125.358C205.436 125.358 205.42 125.464 205.382 125.449C203.437 124.997 203.361 122.305 203.824 120.688Z" fill="#263238"/>
<path d="M205.542 118.981C208.4 118.981 208.179 124.636 205.542 124.629C202.905 124.621 203.148 118.981 205.542 118.981Z" fill="#263238"/>
<path d="M188.389 114.56C189.058 114.123 189.749 113.808 190.456 113.462C191.126 112.964 191.944 112.7 192.782 112.71C193.042 112.767 193.277 112.908 193.448 113.111C193.62 113.313 193.72 113.566 193.732 113.83C193.732 114.958 192.865 115.71 191.923 116.244C190.993 116.814 189.882 117.02 188.807 116.823C188.573 116.759 188.362 116.631 188.198 116.454C188.035 116.277 187.925 116.057 187.881 115.821C187.837 115.585 187.862 115.341 187.952 115.118C188.042 114.895 188.193 114.701 188.389 114.56Z" fill="#263238"/>
<path d="M209.084 116.801C208.496 116.286 207.882 115.801 207.244 115.349C206.671 114.753 205.915 114.359 205.094 114.229C204.826 114.239 204.57 114.335 204.364 114.504C204.158 114.672 204.014 114.903 203.954 115.161C203.771 116.274 204.47 117.162 205.299 117.853C206.109 118.58 207.162 118.982 208.255 118.981C208.505 118.969 208.745 118.884 208.947 118.738C209.149 118.592 209.303 118.391 209.391 118.159C209.479 117.928 209.497 117.676 209.442 117.435C209.388 117.193 209.263 116.973 209.084 116.801Z" fill="#263238"/>
<path d="M193.367 133.585C195.647 132.833 198.52 133.352 200.328 133.706C200.534 133.706 200.746 133.3 200.792 133.119C200.792 133.051 200.944 129.419 200.944 129.419C201.415 129.697 203.84 130.983 203.847 130.284C203.908 124.516 203.976 118.102 202.806 112.349C202.806 112.307 202.789 112.267 202.759 112.237C202.729 112.208 202.689 112.191 202.646 112.191C202.604 112.191 202.564 112.208 202.534 112.237C202.504 112.267 202.487 112.307 202.487 112.349C202.206 117.891 202.912 123.448 202.715 129.013C201.857 128.542 200.936 128.196 199.979 127.983C199.781 128.021 200.024 131.901 199.91 132.495C199.91 132.495 196.43 131.186 193.39 132.818C192.607 133.247 192.28 133.931 193.367 133.585Z" fill="#263238"/>
<path d="M189.613 135.917C190.008 136.353 190.372 136.932 191.018 137.03C191.67 137.06 192.32 136.953 192.926 136.714C192.939 136.707 192.954 136.706 192.968 136.71C192.982 136.713 192.994 136.722 193.003 136.734C193.011 136.745 193.015 136.76 193.013 136.774C193.012 136.788 193.005 136.802 192.995 136.811C192.718 137.128 192.36 137.364 191.959 137.497C191.558 137.629 191.128 137.652 190.715 137.563C190.364 137.45 190.055 137.235 189.828 136.947C189.6 136.659 189.465 136.311 189.438 135.947C189.422 135.886 189.559 135.856 189.613 135.917Z" fill="#263238"/>
<path d="M181.708 115.928C179.299 115.928 180.591 111.416 181.1 109.86C181.453 108.196 181.657 106.505 181.708 104.806C181.76 106.506 181.971 108.198 182.339 109.86C182.841 111.424 184.133 115.928 181.708 115.928Z" fill="white"/>
<path d="M211.865 128.111C212.055 126.043 212.2 123.982 212.291 121.914C212.382 119.846 212.45 117.786 212.435 115.718C212.42 113.65 212.39 111.597 212.291 109.529C212.291 108.499 212.184 107.468 212.101 106.438C212.017 105.408 211.918 104.37 211.865 103.332C212.335 105.359 212.673 107.414 212.876 109.484C213.096 111.557 213.203 113.641 213.195 115.725C213.195 117.807 213.089 119.888 212.876 121.959C212.762 122.99 212.633 124.02 212.481 125.05C212.329 126.08 212.124 127.088 211.865 128.111Z" fill="#263238"/>
<path d="M165.513 339.505C165.566 339.814 165.627 340.122 165.688 340.438C165.634 340.13 165.574 339.814 165.52 339.505H165.513Z" fill="#EBEBEB"/>
<path d="M162.435 95.5039C164.516 92.4626 165.645 88.8817 165.68 85.209C165.68 72.1318 151.172 61.5286 133.281 61.5286C115.391 61.5286 100.89 72.1318 100.89 85.209C100.89 98.2863 115.391 108.882 133.281 108.882C141.953 108.882 149.819 106.4 155.625 102.332L166.79 105.137L162.435 95.5039Z" fill="white"/>
<path d="M162.435 95.504C164.333 92.5818 165.384 89.2005 165.475 85.728C165.519 82.2784 164.57 78.8876 162.739 75.952C160.908 73.0425 158.495 70.5345 155.648 68.5824C152.811 66.6228 149.69 65.1014 146.391 64.0704C143.095 63.0264 139.678 62.3997 136.222 62.2055C132.774 61.993 129.312 62.1849 125.909 62.777C122.511 63.3508 119.21 64.3858 116.098 65.8527C112.997 67.2901 110.17 69.2436 107.738 71.628C105.307 73.9804 103.494 76.8845 102.456 80.088C101.441 83.2811 101.396 86.6986 102.326 89.9167C103.294 93.1547 105.054 96.1068 107.449 98.512C109.859 100.929 112.672 102.919 115.763 104.393C118.869 105.869 122.162 106.926 125.552 107.536C128.952 108.176 132.417 108.408 135.873 108.228C142.837 107.969 149.596 105.823 155.412 102.024L155.549 101.926L155.701 101.971L166.82 104.934L166.607 105.182L162.435 95.504ZM162.435 95.504L166.942 105.047L167.101 105.385L166.729 105.295L155.526 102.648L155.815 102.595C152.924 104.637 149.732 106.227 146.353 107.31C142.983 108.415 139.484 109.089 135.941 109.318C132.386 109.564 128.813 109.384 125.301 108.784C121.787 108.17 118.373 107.085 115.155 105.558C111.908 104.037 108.951 101.971 106.415 99.452C103.84 96.909 101.935 93.7793 100.867 90.3378C99.8331 86.8498 99.8648 83.1371 100.958 79.6669C102.088 76.245 104.045 73.1474 106.658 70.6429C109.243 68.1634 112.241 66.1436 115.52 64.672C118.754 63.1729 122.181 62.1203 125.704 61.5437C132.744 60.3325 139.977 60.8805 146.748 63.138C150.125 64.2543 153.309 65.8775 156.188 67.9508C159.093 70.0069 161.527 72.6462 163.332 75.6964C165.135 78.7368 166.012 82.2283 165.857 85.7505C165.702 89.2727 164.522 92.6754 162.458 95.5491L162.435 95.504Z" fill="#263238"/>
<path d="M107.502 82.6748C107.501 82.5985 107.515 82.5227 107.544 82.452C107.574 82.3813 107.617 82.3171 107.671 82.2631C107.726 82.2091 107.791 82.1665 107.862 82.1378C107.934 82.109 108.01 82.0947 108.087 82.0958C108.165 82.0948 108.242 82.109 108.315 82.1375C108.387 82.1661 108.453 82.2085 108.509 82.2622C108.564 82.316 108.609 82.3801 108.64 82.4509C108.67 82.5217 108.687 82.5978 108.688 82.6748V88.9164C108.688 88.9941 108.672 89.0709 108.642 89.1426C108.611 89.2143 108.567 89.2793 108.511 89.3338C108.455 89.3884 108.389 89.4315 108.316 89.4605C108.244 89.4895 108.166 89.5039 108.087 89.503C108.01 89.503 107.933 89.4877 107.861 89.4582C107.79 89.4286 107.725 89.3853 107.671 89.3307C107.616 89.2761 107.573 89.2114 107.544 89.1403C107.515 89.0692 107.501 88.9931 107.502 88.9164V82.6748Z" fill="#263238"/>
<path d="M110.451 84.4947C110.674 84.4595 110.876 84.3427 111.017 84.1673C111.158 83.9919 111.227 83.7706 111.211 83.5472C111.043 83.5134 110.892 83.4244 110.781 83.2947C110.671 83.165 110.608 83.0023 110.603 82.8328V82.72C110.6 82.6257 110.616 82.5317 110.651 82.444C110.687 82.3563 110.74 82.2767 110.808 82.2103C110.875 82.1439 110.956 82.0922 111.045 82.0582C111.134 82.0243 111.23 82.0089 111.325 82.0131C111.796 82.0131 112.085 82.3741 112.085 82.9456V83.0509C112.118 83.6011 111.929 84.142 111.56 84.5549C111.293 84.8228 110.937 84.9858 110.557 85.0136C110.515 85.0191 110.471 85.0153 110.43 85.0026C110.389 84.9898 110.351 84.9684 110.32 84.9398C110.288 84.9112 110.263 84.876 110.246 84.8368C110.229 84.7977 110.221 84.7553 110.223 84.7128C110.238 84.6596 110.267 84.6113 110.307 84.5729C110.347 84.5346 110.397 84.5076 110.451 84.4947Z" fill="#263238"/>
<path d="M119.586 82.6748V88.9164C119.582 89.072 119.517 89.2201 119.405 89.3295C119.293 89.4389 119.143 89.5011 118.986 89.503C118.908 89.503 118.831 89.4877 118.76 89.4582C118.688 89.4286 118.624 89.3853 118.569 89.3307C118.515 89.2761 118.472 89.2114 118.443 89.1403C118.414 89.0692 118.399 88.9931 118.4 88.9164V84.4646L116.88 86.5852C116.826 86.6607 116.754 86.722 116.671 86.7639C116.588 86.8058 116.495 86.8271 116.402 86.8258C116.306 86.8264 116.212 86.805 116.126 86.7632C116.04 86.7214 115.965 86.6605 115.908 86.5852L114.388 84.4646V88.9164C114.388 89.072 114.325 89.2212 114.214 89.3312C114.103 89.4412 113.952 89.503 113.795 89.503C113.638 89.503 113.487 89.4412 113.376 89.3312C113.264 89.2212 113.202 89.072 113.202 88.9164V82.6748C113.204 82.5218 113.266 82.3757 113.376 82.2675C113.485 82.1593 113.633 82.0977 113.787 82.0958C113.878 82.0963 113.968 82.1184 114.049 82.1603C114.129 82.2022 114.199 82.2625 114.251 82.3364L116.379 85.2617L118.507 82.3364C118.563 82.2608 118.636 82.1995 118.72 82.1576C118.805 82.1158 118.899 82.0945 118.993 82.0958C119.148 82.0995 119.295 82.1615 119.406 82.269C119.516 82.3766 119.58 82.5217 119.586 82.6748Z" fill="#263238"/>
<path d="M125.149 87.6606C125.242 87.5541 125.373 87.487 125.514 87.473C125.655 87.459 125.797 87.4992 125.909 87.5854C126.482 88.0704 127.201 88.3557 127.954 88.3976C128.43 88.4087 128.898 88.2719 129.291 88.0065C129.424 87.9277 129.536 87.8181 129.617 87.6871C129.697 87.5561 129.745 87.4076 129.755 87.2545C129.755 87.1348 129.72 87.0175 129.656 86.9161C129.574 86.7893 129.465 86.6816 129.337 86.6003C128.883 86.346 128.386 86.1776 127.87 86.104C127.396 86.0215 126.934 85.8827 126.494 85.6904C126.088 85.5161 125.742 85.2287 125.499 84.8632C125.335 84.6038 125.248 84.3042 125.248 83.9984C125.258 83.6916 125.341 83.3915 125.49 83.1223C125.64 82.8532 125.851 82.6226 126.107 82.4492C126.65 82.08 127.295 81.8857 127.954 81.8928C128.799 81.9359 129.612 82.2293 130.287 82.735C130.405 82.8171 130.486 82.941 130.515 83.081C130.543 83.2209 130.516 83.3663 130.439 83.487C130.401 83.5486 130.351 83.6018 130.291 83.6434C130.232 83.6851 130.165 83.7142 130.093 83.729C130.022 83.7438 129.949 83.7439 129.877 83.7295C129.806 83.715 129.738 83.6863 129.679 83.6449C129.185 83.2536 128.584 83.0179 127.954 82.9681C127.528 82.9625 127.11 83.0887 126.76 83.3291C126.642 83.3994 126.543 83.4971 126.472 83.6137C126.4 83.7303 126.359 83.8623 126.35 83.9984C126.344 84.1015 126.371 84.2039 126.426 84.2916C126.505 84.4007 126.602 84.495 126.715 84.5699C127.127 84.8081 127.581 84.9664 128.052 85.0361C128.561 85.1215 129.056 85.2706 129.527 85.4798C129.961 85.6675 130.332 85.9724 130.598 86.3596C130.764 86.6291 130.851 86.939 130.849 87.2545C130.843 87.5768 130.758 87.893 130.604 88.1767C130.449 88.4605 130.228 88.7037 129.96 88.8864C129.383 89.2903 128.691 89.5011 127.984 89.488C126.98 89.445 126.018 89.0749 125.248 88.4352C125.134 88.3436 125.06 88.2119 125.041 88.0675C125.023 87.9232 125.061 87.7774 125.149 87.6606Z" fill="#263238"/>
<path d="M138.419 83.0133C139.111 83.7367 139.497 84.6944 139.498 85.6904C139.501 86.6872 139.115 87.6466 138.419 88.3675C138.095 88.721 137.702 89.0044 137.262 89.1999C136.823 89.3953 136.347 89.4985 135.865 89.503C135.373 89.5015 134.886 89.3999 134.435 89.2046C133.984 89.0093 133.578 88.7243 133.243 88.3675C132.554 87.6439 132.176 86.6844 132.187 85.6904C132.18 84.6971 132.558 83.7389 133.243 83.0133C133.579 82.6574 133.985 82.3737 134.436 82.1796C134.887 81.9856 135.373 81.8854 135.865 81.8853C136.347 81.8884 136.822 81.9902 137.261 82.1844C137.701 82.3785 138.095 82.6607 138.419 83.0133ZM138.274 85.6904C138.277 85.006 138.019 84.3457 137.552 83.8405C137.34 83.6054 137.08 83.417 136.789 83.2875C136.499 83.1579 136.184 83.0901 135.865 83.0885C135.539 83.0876 135.217 83.154 134.919 83.2835C134.62 83.413 134.352 83.6027 134.132 83.8405C133.649 84.3383 133.377 85.0003 133.372 85.6904C133.373 86.3791 133.646 87.0403 134.132 87.5328C134.346 87.7728 134.609 87.9651 134.904 88.0968C135.199 88.2285 135.519 88.2966 135.842 88.2966C136.166 88.2966 136.486 88.2285 136.78 88.0968C137.075 87.9651 137.338 87.7728 137.552 87.5328C138.013 87.0421 138.271 86.3979 138.274 85.728V85.6904Z" fill="#263238"/>
<path d="M146.558 88.6232C146.583 88.6973 146.593 88.7755 146.588 88.8534C146.582 88.9313 146.561 89.0073 146.526 89.0772C146.491 89.147 146.442 89.2093 146.382 89.2604C146.322 89.3116 146.253 89.3506 146.178 89.3752C146.1 89.3835 146.021 89.3835 145.943 89.3752C145.795 89.3763 145.649 89.3345 145.525 89.2549C145.381 89.1627 145.263 89.0359 145.183 88.8864C145.011 88.4853 144.936 88.0503 144.962 87.6155C144.961 87.4564 144.916 87.3007 144.833 87.1643C144.751 87.04 144.642 86.9348 144.514 86.856C144.328 86.7407 144.126 86.6545 143.914 86.6003H142.652V88.8563C142.652 88.934 142.636 89.0109 142.606 89.0826C142.576 89.1542 142.532 89.2192 142.476 89.2738C142.42 89.3283 142.354 89.3714 142.281 89.4004C142.208 89.4295 142.13 89.4439 142.052 89.4429C141.974 89.4429 141.897 89.4277 141.826 89.3981C141.754 89.3685 141.689 89.3252 141.635 89.2706C141.581 89.2161 141.538 89.1514 141.509 89.0802C141.48 89.0091 141.465 88.933 141.466 88.8563V82.6147C141.465 82.5384 141.48 82.4627 141.509 82.392C141.538 82.3212 141.581 82.257 141.635 82.203C141.69 82.1491 141.755 82.1065 141.826 82.0777C141.898 82.049 141.974 82.0347 142.052 82.0357H143.967C144.571 82.0357 145.151 82.2734 145.579 82.6965C146.007 83.1195 146.247 83.6934 146.247 84.2917C146.245 84.6243 146.17 84.9525 146.025 85.2529C145.881 85.5532 145.671 85.8182 145.411 86.0288C145.555 86.1384 145.681 86.2705 145.783 86.4199C146.016 86.7565 146.14 87.155 146.14 87.5629C146.13 87.7717 146.143 87.981 146.178 88.1871C146.275 88.2206 146.36 88.2786 146.427 88.3551C146.494 88.4316 146.539 88.524 146.558 88.6232ZM145.038 84.3669C145.039 84.2231 145.012 84.0805 144.957 83.9473C144.902 83.8141 144.821 83.6931 144.718 83.591C144.616 83.489 144.494 83.408 144.36 83.3527C144.226 83.2974 144.082 83.269 143.936 83.269H142.622V85.4498H143.936C144.082 85.4528 144.227 85.427 144.363 85.374C144.499 85.3211 144.623 85.2419 144.728 85.1411C144.832 85.0404 144.916 84.92 144.973 84.7871C145.03 84.6542 145.06 84.5114 145.061 84.3669H145.038Z" fill="#263238"/>
<path d="M153.239 88.6233C153.265 88.6968 153.276 88.7748 153.272 88.8526C153.267 88.9305 153.247 89.0066 153.212 89.0766C153.177 89.1467 153.129 89.2091 153.07 89.2604C153.01 89.3117 152.941 89.3507 152.866 89.3753C152.788 89.383 152.709 89.383 152.631 89.3753C152.483 89.3764 152.337 89.3345 152.213 89.255C152.067 89.165 151.949 89.0376 151.871 88.8865C151.696 88.4862 151.618 88.051 151.643 87.6156C151.645 87.456 151.6 87.2993 151.514 87.1644C151.435 87.0367 151.325 86.9306 151.194 86.8561C151.009 86.7394 150.807 86.6531 150.594 86.6004H149.332V88.8564C149.332 88.9341 149.317 89.011 149.287 89.0826C149.256 89.1543 149.212 89.2193 149.156 89.2738C149.1 89.3284 149.034 89.3715 148.961 89.4005C148.888 89.4295 148.81 89.444 148.732 89.443C148.654 89.443 148.578 89.4277 148.506 89.3982C148.435 89.3686 148.37 89.3253 148.315 89.2707C148.261 89.2161 148.218 89.1514 148.189 89.0803C148.16 89.0092 148.146 88.9331 148.147 88.8564V82.6148C148.146 82.5385 148.16 82.4627 148.189 82.392C148.218 82.3213 148.261 82.2571 148.316 82.2031C148.37 82.1491 148.435 82.1065 148.507 82.0778C148.578 82.049 148.655 82.0347 148.732 82.0358H150.647C151.12 82.031 151.583 82.172 151.972 82.4392C152.36 82.7064 152.655 83.0866 152.815 83.5271C152.976 83.9675 152.994 84.4464 152.867 84.8974C152.74 85.3484 152.474 85.7491 152.106 86.0439C152.251 86.1535 152.377 86.2856 152.479 86.435C152.709 86.7723 152.831 87.1708 152.828 87.578C152.819 87.7871 152.835 87.9965 152.874 88.2022C152.966 88.2359 153.048 88.2923 153.111 88.366C153.175 88.4397 153.219 88.5282 153.239 88.6233ZM151.719 84.367C151.72 84.2231 151.692 84.0805 151.637 83.9474C151.582 83.8142 151.501 83.6931 151.399 83.5911C151.296 83.489 151.174 83.408 151.04 83.3528C150.906 83.2975 150.762 83.269 150.617 83.269H149.302V85.4498H150.617C150.763 85.4528 150.908 85.4271 151.044 85.3741C151.18 85.3211 151.303 85.242 151.408 85.1412C151.513 85.0404 151.596 84.9201 151.653 84.7872C151.711 84.6543 151.741 84.5114 151.742 84.367H151.719Z" fill="#263238"/>
<path d="M159.912 83.0884L157.723 86.0964V88.9465C157.724 89.0238 157.709 89.1006 157.68 89.1722C157.65 89.2438 157.607 89.3089 157.551 89.3635C157.496 89.4182 157.43 89.4614 157.358 89.4905C157.286 89.5196 157.208 89.5341 157.13 89.5331C156.975 89.5292 156.827 89.4659 156.718 89.3566C156.609 89.2472 156.547 89.1002 156.545 88.9465V86.0964L154.371 83.0884C154.28 82.9658 154.243 82.8125 154.266 82.6623C154.29 82.5121 154.373 82.3773 154.497 82.2876C154.621 82.1978 154.775 82.1605 154.927 82.1837C155.079 82.207 155.215 82.289 155.306 82.4116L157.13 84.8857L158.962 82.4116C159.006 82.3499 159.063 82.2976 159.129 82.2575C159.194 82.2175 159.267 82.1906 159.343 82.1784C159.418 82.1662 159.496 82.1689 159.571 82.1863C159.646 82.2038 159.716 82.2356 159.779 82.28C159.841 82.3245 159.894 82.3806 159.934 82.4453C159.975 82.51 160.002 82.5819 160.014 82.657C160.027 82.7321 160.024 82.8088 160.006 82.8828C159.989 82.9569 159.956 83.0267 159.912 83.0884Z" fill="#263238"/>
</svg>
