<svg width="380" height="376" viewBox="0 0 380 376" fill="none" xmlns="http://www.w3.org/2000/svg">
<path d="M353.157 250.521V335.745H163.917V267.697H180.333V287.422H184.559V252.943H205.436V285.67H208.195V244.167H226.336V255.552H235.646V269.735H238.458V260.816H254.957V287.414H259.776V265.794H274.862V249.371H285.122V240.016H296.985V281.504H300.975V264.185H320.523V288.971H323.228V268.742H343.049V250.521H353.157Z" fill="#EBEBEB"/>
<path d="M168.697 270.179H165.923V273.954H168.697V270.179Z" fill="white"/>
<path d="M173.516 270.179H170.742V273.954H173.516V270.179Z" fill="white"/>
<path d="M178.326 270.179H175.552V273.954H178.326V270.179Z" fill="white"/>
<path d="M168.697 275.849H165.923V279.624H168.697V275.849Z" fill="white"/>
<path d="M173.516 275.849H170.742V279.624H173.516V275.849Z" fill="white"/>
<path d="M178.326 275.849H175.552V279.624H178.326V275.849Z" fill="white"/>
<path d="M168.697 281.526H165.923V285.301H168.697V281.526Z" fill="white"/>
<path d="M173.516 281.526H170.742V285.301H173.516V281.526Z" fill="white"/>
<path d="M178.326 281.526H175.552V285.301H178.326V281.526Z" fill="white"/>
<path d="M168.697 287.204H165.923V290.979H168.697V287.204Z" fill="white"/>
<path d="M173.516 287.204H170.742V290.979H173.516V287.204Z" fill="white"/>
<path d="M178.326 287.204H175.552V290.979H178.326V287.204Z" fill="white"/>
<path d="M264.868 268.487H262.094V271.63H264.868V268.487Z" fill="white"/>
<path d="M269.686 268.487H266.912V271.63H269.686V268.487Z" fill="white"/>
<path d="M274.497 268.487H271.723V271.63H274.497V268.487Z" fill="white"/>
<path d="M264.868 273.224H262.094V276.368H264.868V273.224Z" fill="white"/>
<path d="M269.686 273.224H266.912V276.368H269.686V273.224Z" fill="white"/>
<path d="M274.497 273.224H271.723V276.368H274.497V273.224Z" fill="white"/>
<path d="M264.868 277.954H262.094V281.098H264.868V277.954Z" fill="white"/>
<path d="M269.686 277.954H266.912V281.098H269.686V277.954Z" fill="white"/>
<path d="M274.497 277.954H271.723V281.098H274.497V277.954Z" fill="white"/>
<path d="M264.868 282.692H262.094V285.835H264.868V282.692Z" fill="white"/>
<path d="M269.686 282.692H266.912V285.835H269.686V282.692Z" fill="white"/>
<path d="M274.497 282.692H271.723V285.835H274.497V282.692Z" fill="white"/>
<path d="M264.868 287.542H262.094V290.686H264.868V287.542Z" fill="white"/>
<path d="M269.686 287.542H266.912V290.686H269.686V287.542Z" fill="white"/>
<path d="M274.497 287.542H271.723V290.686H274.497V287.542Z" fill="white"/>
<path d="M264.868 292.393H262.094V295.536H264.868V292.393Z" fill="white"/>
<path d="M269.686 292.393H266.912V295.536H269.686V292.393Z" fill="white"/>
<path d="M274.497 292.393H271.723V295.536H274.497V292.393Z" fill="white"/>
<path d="M264.868 297.251H262.094V300.394H264.868V297.251Z" fill="white"/>
<path d="M269.686 297.251H266.912V300.394H269.686V297.251Z" fill="white"/>
<path d="M274.497 297.251H271.723V300.394H274.497V297.251Z" fill="white"/>
<path d="M264.868 302.101H262.094V305.244H264.868V302.101Z" fill="white"/>
<path d="M269.686 302.101H266.912V305.244H269.686V302.101Z" fill="white"/>
<path d="M274.497 302.101H271.723V305.244H274.497V302.101Z" fill="white"/>
<path d="M202.92 255.364H186.93V257.725H202.92V255.364Z" fill="white"/>
<path d="M202.92 259.936H186.93V262.298H202.92V259.936Z" fill="white"/>
<path d="M202.92 264.516H186.93V266.877H202.92V264.516Z" fill="white"/>
<path d="M202.92 269.096H186.93V271.457H202.92V269.096Z" fill="white"/>
<path d="M202.92 273.668H186.93V276.029H202.92V273.668Z" fill="white"/>
<path d="M202.92 278.248H186.93V280.609H202.92V278.248Z" fill="white"/>
<path d="M202.92 282.827H186.93V285.188H202.92V282.827Z" fill="white"/>
<path d="M202.92 287.399H186.93V289.761H202.92V287.399Z" fill="white"/>
<path d="M318.037 266.388H303.339V268.75H318.037V266.388Z" fill="white"/>
<path d="M318.037 270.968H303.339V273.329H318.037V270.968Z" fill="white"/>
<path d="M318.037 275.54H303.339V277.902H318.037V275.54Z" fill="white"/>
<path d="M318.037 280.12H303.339V282.481H318.037V280.12Z" fill="white"/>
<path d="M318.037 284.7H303.339V287.061H318.037V284.7Z" fill="white"/>
<path d="M318.037 289.272H303.339V291.633H318.037V289.272Z" fill="white"/>
<path d="M318.037 293.852H303.339V296.213H318.037V293.852Z" fill="white"/>
<path d="M318.037 298.431H303.339V300.792H318.037V298.431Z" fill="white"/>
<path d="M318.037 302.778H303.339V305.139H318.037V302.778Z" fill="white"/>
<path d="M318.037 307.124H303.339V309.486H318.037V307.124Z" fill="white"/>
<path d="M318.037 311.478H303.339V313.84H318.037V311.478Z" fill="white"/>
<path d="M318.037 315.825H303.339V318.186H318.037V315.825Z" fill="white"/>
<path d="M318.037 320.172H303.339V322.533H318.037V320.172Z" fill="white"/>
<path d="M341.81 271.916H326.283V274.277H341.81V271.916Z" fill="white"/>
<path d="M341.81 276.495H326.283V278.857H341.81V276.495Z" fill="white"/>
<path d="M341.81 281.075H326.283V283.436H341.81V281.075Z" fill="white"/>
<path d="M341.81 285.647H326.283V288.008H341.81V285.647Z" fill="white"/>
<path d="M341.81 290.227H326.283V292.588H341.81V290.227Z" fill="white"/>
<path d="M341.81 294.799H326.283V297.16H341.81V294.799Z" fill="white"/>
<path d="M341.81 299.379H326.283V301.74H341.81V299.379Z" fill="white"/>
<path d="M341.81 303.958H326.283V306.32H341.81V303.958Z" fill="white"/>
<path d="M341.81 308.057H326.283V310.418H341.81V308.057Z" fill="white"/>
<path d="M341.81 312.148H326.283V314.509H341.81V312.148Z" fill="white"/>
<path d="M341.81 316.246H326.283V318.607H341.81V316.246Z" fill="white"/>
<path d="M248.224 262.952H243.284V265.23H248.224V262.952Z" fill="white"/>
<path d="M248.224 267.374H243.284V269.652H248.224V267.374Z" fill="white"/>
<path d="M248.224 271.795H243.284V274.074H248.224V271.795Z" fill="white"/>
<path d="M248.224 276.21H243.284V278.488H248.224V276.21Z" fill="white"/>
<path d="M248.224 280.631H243.284V282.91H248.224V280.631Z" fill="white"/>
<path d="M248.224 285.053H243.284V287.332H248.224V285.053Z" fill="white"/>
<path d="M248.224 289.475H243.284V291.753H248.224V289.475Z" fill="white"/>
<path d="M248.224 293.897H243.284V296.175H248.224V293.897Z" fill="white"/>
<path d="M254.942 262.952H250.002V265.23H254.942V262.952Z" fill="white"/>
<path d="M254.942 267.374H250.002V269.652H254.942V267.374Z" fill="white"/>
<path d="M254.942 271.795H250.002V274.074H254.942V271.795Z" fill="white"/>
<path d="M254.942 276.21H250.002V278.488H254.942V276.21Z" fill="white"/>
<path d="M254.942 280.631H250.002V282.91H254.942V280.631Z" fill="white"/>
<path d="M254.942 285.053H250.002V287.332H254.942V285.053Z" fill="white"/>
<path d="M254.942 289.475H250.002V291.753H254.942V289.475Z" fill="white"/>
<path d="M254.942 293.897H250.002V296.175H254.942V293.897Z" fill="white"/>
<path d="M216.091 246.558H210.946V250.153H216.091V246.558Z" fill="white"/>
<path d="M223.767 246.558H218.622V250.153H223.767V246.558Z" fill="white"/>
<path d="M216.091 251.83H210.946V255.424H216.091V251.83Z" fill="white"/>
<path d="M223.767 251.83H218.622V255.424H223.767V251.83Z" fill="white"/>
<path d="M216.091 257.109H210.946V260.703H216.091V257.109Z" fill="white"/>
<path d="M223.767 257.109H218.622V260.703H223.767V257.109Z" fill="white"/>
<path d="M216.091 262.388H210.946V265.982H216.091V262.388Z" fill="white"/>
<path d="M223.767 262.388H218.622V265.982H223.767V262.388Z" fill="white"/>
<path d="M216.091 267.667H210.946V271.261H216.091V267.667Z" fill="white"/>
<path d="M223.767 267.667H218.622V271.261H223.767V267.667Z" fill="white"/>
<path d="M216.091 272.938H210.946V276.533H216.091V272.938Z" fill="white"/>
<path d="M223.767 272.938H218.622V276.533H223.767V272.938Z" fill="white"/>
<path d="M216.091 278.217H210.946V281.812H216.091V278.217Z" fill="white"/>
<path d="M223.767 278.217H218.622V281.812H223.767V278.217Z" fill="white"/>
<path d="M216.091 283.496H210.946V287.091H216.091V283.496Z" fill="white"/>
<path d="M223.767 283.496H218.622V287.091H223.767V283.496Z" fill="white"/>
<path d="M233.267 257.109H228.122V260.703H233.267V257.109Z" fill="white"/>
<path d="M233.267 262.388H228.122V265.982H233.267V262.388Z" fill="white"/>
<path d="M233.267 267.667H228.122V271.261H233.267V267.667Z" fill="white"/>
<path d="M233.267 272.938H228.122V276.533H233.267V272.938Z" fill="white"/>
<path d="M233.267 278.217H228.122V281.812H233.267V278.217Z" fill="white"/>
<path d="M233.267 283.496H228.122V287.091H233.267V283.496Z" fill="white"/>
<path d="M216.091 288.708H210.946V292.302H216.091V288.708Z" fill="white"/>
<path d="M223.767 288.708H218.622V292.302H223.767V288.708Z" fill="white"/>
<path d="M233.267 288.708H228.122V292.302H233.267V288.708Z" fill="white"/>
<path d="M216.091 293.927H210.946V297.521H216.091V293.927Z" fill="white"/>
<path d="M223.767 293.927H218.622V297.521H223.767V293.927Z" fill="white"/>
<path d="M233.267 293.927H228.122V297.521H233.267V293.927Z" fill="white"/>
<path d="M216.091 299.138H210.946V302.733H216.091V299.138Z" fill="white"/>
<path d="M223.767 299.138H218.622V302.733H223.767V299.138Z" fill="white"/>
<path d="M233.267 299.138H228.122V302.733H233.267V299.138Z" fill="white"/>
<path d="M216.091 304.357H210.946V307.952H216.091V304.357Z" fill="white"/>
<path d="M223.767 304.357H218.622V307.952H223.767V304.357Z" fill="white"/>
<path d="M233.267 304.357H228.122V307.952H233.267V304.357Z" fill="white"/>
<path d="M216.091 309.568H210.946V313.163H216.091V309.568Z" fill="white"/>
<path d="M223.767 309.568H218.622V313.163H223.767V309.568Z" fill="white"/>
<path d="M233.267 309.568H228.122V313.163H233.267V309.568Z" fill="white"/>
<path d="M279.733 251.679H276.959V254.823H279.733V251.679Z" fill="white"/>
<path d="M284.552 251.679H281.778V254.823H284.552V251.679Z" fill="white"/>
<path d="M279.733 256.417H276.959V259.56H279.733V256.417Z" fill="white"/>
<path d="M284.552 256.417H281.778V259.56H284.552V256.417Z" fill="white"/>
<path d="M279.733 261.155H276.959V264.298H279.733V261.155Z" fill="white"/>
<path d="M284.552 261.155H281.778V264.298H284.552V261.155Z" fill="white"/>
<path d="M279.733 265.885H276.959V269.028H279.733V265.885Z" fill="white"/>
<path d="M284.552 265.885H281.778V269.028H284.552V265.885Z" fill="white"/>
<path d="M279.733 270.735H276.959V273.878H279.733V270.735Z" fill="white"/>
<path d="M284.552 270.735H281.778V273.878H284.552V270.735Z" fill="white"/>
<path d="M279.733 275.593H276.959V278.736H279.733V275.593Z" fill="white"/>
<path d="M284.552 275.593H281.778V278.736H284.552V275.593Z" fill="white"/>
<path d="M279.733 280.443H276.959V283.587H279.733V280.443Z" fill="white"/>
<path d="M284.552 280.443H281.778V283.587H284.552V280.443Z" fill="white"/>
<path d="M279.733 285.294H276.959V288.437H279.733V285.294Z" fill="white"/>
<path d="M284.552 285.294H281.778V288.437H284.552V285.294Z" fill="white"/>
<path d="M279.733 290.197H276.959V293.34H279.733V290.197Z" fill="white"/>
<path d="M284.552 290.197H281.778V293.34H284.552V290.197Z" fill="white"/>
<path d="M279.733 295.1H276.959V298.243H279.733V295.1Z" fill="white"/>
<path d="M284.552 295.1H281.778V298.243H284.552V295.1Z" fill="white"/>
<path d="M279.733 300.003H276.959V303.146H279.733V300.003Z" fill="white"/>
<path d="M284.552 300.003H281.778V303.146H284.552V300.003Z" fill="white"/>
<path d="M279.733 304.906H276.959V308.049H279.733V304.906Z" fill="white"/>
<path d="M284.552 304.906H281.778V308.049H284.552V304.906Z" fill="white"/>
<path d="M347.563 252.191H344.789V255.898H347.563V252.191Z" fill="white"/>
<path d="M352.374 252.191H349.6V255.898H352.374V252.191Z" fill="white"/>
<path d="M347.563 257.771H344.789V261.478H347.563V257.771Z" fill="white"/>
<path d="M352.374 257.771H349.6V261.478H352.374V257.771Z" fill="white"/>
<path d="M347.563 263.35H344.789V267.058H347.563V263.35Z" fill="white"/>
<path d="M352.374 263.35H349.6V267.058H352.374V263.35Z" fill="white"/>
<path d="M347.563 268.93H344.789V272.638H347.563V268.93Z" fill="white"/>
<path d="M352.374 268.93H349.6V272.638H352.374V268.93Z" fill="white"/>
<path d="M347.563 274.645H344.789V278.353H347.563V274.645Z" fill="white"/>
<path d="M352.374 274.645H349.6V278.353H352.374V274.645Z" fill="white"/>
<path d="M347.563 280.361H344.789V284.068H347.563V280.361Z" fill="white"/>
<path d="M352.374 280.361H349.6V284.068H352.374V280.361Z" fill="white"/>
<path d="M347.563 286.076H344.789V289.783H347.563V286.076Z" fill="white"/>
<path d="M352.374 286.076H349.6V289.783H352.374V286.076Z" fill="white"/>
<path d="M347.563 291.791H344.789V295.498H347.563V291.791Z" fill="white"/>
<path d="M352.374 291.791H349.6V295.498H352.374V291.791Z" fill="white"/>
<path d="M347.563 297.566H344.789V301.274H347.563V297.566Z" fill="white"/>
<path d="M352.374 297.566H349.6V301.274H352.374V297.566Z" fill="white"/>
<path d="M347.563 303.342H344.789V307.049H347.563V303.342Z" fill="white"/>
<path d="M352.374 303.342H349.6V307.049H352.374V303.342Z" fill="white"/>
<path d="M347.563 309.125H344.789V312.832H347.563V309.125Z" fill="white"/>
<path d="M352.374 309.125H349.6V312.832H352.374V309.125Z" fill="white"/>
<path d="M347.563 314.9H344.789V318.607H347.563V314.9Z" fill="white"/>
<path d="M352.374 314.9H349.6V318.607H352.374V314.9Z" fill="white"/>
<path d="M290.031 251.679H287.257V254.823H290.031V251.679Z" fill="white"/>
<path d="M294.842 251.679H292.068V254.823H294.842V251.679Z" fill="white"/>
<path d="M290.031 246.829H287.257V249.972H290.031V246.829Z" fill="white"/>
<path d="M294.842 246.829H292.068V249.972H294.842V246.829Z" fill="white"/>
<path d="M290.031 241.971H287.257V245.114H290.031V241.971Z" fill="white"/>
<path d="M294.842 241.971H292.068V245.114H294.842V241.971Z" fill="white"/>
<path d="M290.031 256.417H287.257V259.56H290.031V256.417Z" fill="white"/>
<path d="M294.842 256.417H292.068V259.56H294.842V256.417Z" fill="white"/>
<path d="M290.031 261.155H287.257V264.298H290.031V261.155Z" fill="white"/>
<path d="M294.842 261.155H292.068V264.298H294.842V261.155Z" fill="white"/>
<path d="M290.031 265.885H287.257V269.028H290.031V265.885Z" fill="white"/>
<path d="M294.842 265.885H292.068V269.028H294.842V265.885Z" fill="white"/>
<path d="M290.031 270.735H287.257V273.878H290.031V270.735Z" fill="white"/>
<path d="M294.842 270.735H292.068V273.878H294.842V270.735Z" fill="white"/>
<path d="M290.031 275.593H287.257V278.736H290.031V275.593Z" fill="white"/>
<path d="M294.842 275.593H292.068V278.736H294.842V275.593Z" fill="white"/>
<path d="M290.031 280.443H287.257V283.587H290.031V280.443Z" fill="white"/>
<path d="M294.842 280.443H292.068V283.587H294.842V280.443Z" fill="white"/>
<path d="M290.031 285.294H287.257V288.437H290.031V285.294Z" fill="white"/>
<path d="M294.842 285.294H292.068V288.437H294.842V285.294Z" fill="white"/>
<path d="M290.031 290.197H287.257V293.34H290.031V290.197Z" fill="white"/>
<path d="M294.842 290.197H292.068V293.34H294.842V290.197Z" fill="white"/>
<path d="M290.031 295.1H287.257V298.243H290.031V295.1Z" fill="white"/>
<path d="M294.842 295.1H292.068V298.243H294.842V295.1Z" fill="white"/>
<path d="M290.031 300.003H287.257V303.146H290.031V300.003Z" fill="white"/>
<path d="M294.842 300.003H292.068V303.146H294.842V300.003Z" fill="white"/>
<path d="M290.031 304.906H287.257V308.049H290.031V304.906Z" fill="white"/>
<path d="M294.842 304.906H292.068V308.049H294.842V304.906Z" fill="white"/>
<path d="M163.917 335.745H26.8433V259.425H43.2593V279.15H47.4849V267.983H68.3621V285.67H71.1285V244.167H89.2697V255.552H98.5721V269.735H101.392V260.816H117.884V287.414H122.71V265.794H137.796V249.371H148.048L159.912 249.423V281.504H163.909L163.917 335.745Z" fill="#EBEBEB"/>
<path d="M31.6314 261.907H28.8574V265.682H31.6314V261.907Z" fill="white"/>
<path d="M36.442 261.907H33.668V265.682H36.442V261.907Z" fill="white"/>
<path d="M41.2603 261.907H38.4863V265.682H41.2603V261.907Z" fill="white"/>
<path d="M31.6314 267.577H28.8574V271.352H31.6314V267.577Z" fill="white"/>
<path d="M36.442 267.577H33.668V271.352H36.442V267.577Z" fill="white"/>
<path d="M41.2603 267.577H38.4863V271.352H41.2603V267.577Z" fill="white"/>
<path d="M31.6314 273.254H28.8574V277.029H31.6314V273.254Z" fill="white"/>
<path d="M36.442 273.254H33.668V277.029H36.442V273.254Z" fill="white"/>
<path d="M41.2603 273.254H38.4863V277.029H41.2603V273.254Z" fill="white"/>
<path d="M31.6314 278.932H28.8574V282.707H31.6314V278.932Z" fill="white"/>
<path d="M36.442 278.932H33.668V282.707H36.442V278.932Z" fill="white"/>
<path d="M41.2603 278.932H38.4863V282.707H41.2603V278.932Z" fill="white"/>
<path d="M127.802 268.487H125.028V271.63H127.802V268.487Z" fill="white"/>
<path d="M132.612 268.487H129.838V271.63H132.612V268.487Z" fill="white"/>
<path d="M137.431 268.487H134.657V271.63H137.431V268.487Z" fill="white"/>
<path d="M127.802 273.224H125.028V276.368H127.802V273.224Z" fill="white"/>
<path d="M132.612 273.224H129.838V276.368H132.612V273.224Z" fill="white"/>
<path d="M137.431 273.224H134.657V276.368H137.431V273.224Z" fill="white"/>
<path d="M127.802 277.954H125.028V281.098H127.802V277.954Z" fill="white"/>
<path d="M132.612 277.954H129.838V281.098H132.612V277.954Z" fill="white"/>
<path d="M137.431 277.954H134.657V281.098H137.431V277.954Z" fill="white"/>
<path d="M127.802 282.692H125.028V285.835H127.802V282.692Z" fill="white"/>
<path d="M132.612 282.692H129.838V285.835H132.612V282.692Z" fill="white"/>
<path d="M137.431 282.692H134.657V285.835H137.431V282.692Z" fill="white"/>
<path d="M127.802 287.542H125.028V290.686H127.802V287.542Z" fill="white"/>
<path d="M132.612 287.542H129.838V290.686H132.612V287.542Z" fill="white"/>
<path d="M137.431 287.542H134.657V290.686H137.431V287.542Z" fill="white"/>
<path d="M127.802 292.393H125.028V295.536H127.802V292.393Z" fill="white"/>
<path d="M132.612 292.393H129.838V295.536H132.612V292.393Z" fill="white"/>
<path d="M137.431 292.393H134.657V295.536H137.431V292.393Z" fill="white"/>
<path d="M127.802 297.251H125.028V300.394H127.802V297.251Z" fill="white"/>
<path d="M132.612 297.251H129.838V300.394H132.612V297.251Z" fill="white"/>
<path d="M137.431 297.251H134.657V300.394H137.431V297.251Z" fill="white"/>
<path d="M127.802 302.101H125.028V305.244H127.802V302.101Z" fill="white"/>
<path d="M132.612 302.101H129.838V305.244H132.612V302.101Z" fill="white"/>
<path d="M137.431 302.101H134.657V305.244H137.431V302.101Z" fill="white"/>
<path d="M65.8464 270.404H49.856V272.765H65.8464V270.404Z" fill="white"/>
<path d="M65.8464 274.976H49.856V277.338H65.8464V274.976Z" fill="white"/>
<path d="M65.8464 279.556H49.856V281.917H65.8464V279.556Z" fill="white"/>
<path d="M65.8464 284.136H49.856V286.497H65.8464V284.136Z" fill="white"/>
<path d="M65.8464 288.708H49.856V291.069H65.8464V288.708Z" fill="white"/>
<path d="M65.8464 293.288H49.856V295.649H65.8464V293.288Z" fill="white"/>
<path d="M65.8464 297.867H49.856V300.228H65.8464V297.867Z" fill="white"/>
<path d="M65.8464 302.439H49.856V304.801H65.8464V302.439Z" fill="white"/>
<path d="M111.158 262.952H106.218V265.23H111.158V262.952Z" fill="white"/>
<path d="M111.158 267.374H106.218V269.652H111.158V267.374Z" fill="white"/>
<path d="M111.158 271.795H106.218V274.074H111.158V271.795Z" fill="white"/>
<path d="M111.158 276.21H106.218V278.488H111.158V276.21Z" fill="white"/>
<path d="M111.158 280.631H106.218V282.91H111.158V280.631Z" fill="white"/>
<path d="M111.158 285.053H106.218V287.332H111.158V285.053Z" fill="white"/>
<path d="M111.158 289.475H106.218V291.753H111.158V289.475Z" fill="white"/>
<path d="M111.158 293.897H106.218V296.175H111.158V293.897Z" fill="white"/>
<path d="M117.876 262.952H112.936V265.23H117.876V262.952Z" fill="white"/>
<path d="M117.876 267.374H112.936V269.652H117.876V267.374Z" fill="white"/>
<path d="M117.876 271.795H112.936V274.074H117.876V271.795Z" fill="white"/>
<path d="M117.876 276.21H112.936V278.488H117.876V276.21Z" fill="white"/>
<path d="M117.876 280.631H112.936V282.91H117.876V280.631Z" fill="white"/>
<path d="M117.876 285.053H112.936V287.332H117.876V285.053Z" fill="white"/>
<path d="M117.876 289.475H112.936V291.753H117.876V289.475Z" fill="white"/>
<path d="M117.876 293.897H112.936V296.175H117.876V293.897Z" fill="white"/>
<path d="M79.0251 246.558H73.8799V250.153H79.0251V246.558Z" fill="white"/>
<path d="M86.693 246.558H81.5479V250.153H86.693V246.558Z" fill="white"/>
<path d="M79.0251 251.83H73.8799V255.424H79.0251V251.83Z" fill="white"/>
<path d="M86.693 251.83H81.5479V255.424H86.693V251.83Z" fill="white"/>
<path d="M79.0251 257.109H73.8799V260.703H79.0251V257.109Z" fill="white"/>
<path d="M86.693 257.109H81.5479V260.703H86.693V257.109Z" fill="white"/>
<path d="M79.0251 262.388H73.8799V265.982H79.0251V262.388Z" fill="white"/>
<path d="M86.693 262.388H81.5479V265.982H86.693V262.388Z" fill="white"/>
<path d="M79.0251 267.667H73.8799V271.261H79.0251V267.667Z" fill="white"/>
<path d="M86.693 267.667H81.5479V271.261H86.693V267.667Z" fill="white"/>
<path d="M79.0251 272.938H73.8799V276.533H79.0251V272.938Z" fill="white"/>
<path d="M86.693 272.938H81.5479V276.533H86.693V272.938Z" fill="white"/>
<path d="M79.0251 278.217H73.8799V281.812H79.0251V278.217Z" fill="white"/>
<path d="M86.693 278.217H81.5479V281.812H86.693V278.217Z" fill="white"/>
<path d="M79.0251 283.496H73.8799V287.091H79.0251V283.496Z" fill="white"/>
<path d="M86.693 283.496H81.5479V287.091H86.693V283.496Z" fill="white"/>
<path d="M96.2009 257.109H91.0557V260.703H96.2009V257.109Z" fill="white"/>
<path d="M96.2009 262.388H91.0557V265.982H96.2009V262.388Z" fill="white"/>
<path d="M96.2009 267.667H91.0557V271.261H96.2009V267.667Z" fill="white"/>
<path d="M96.2009 272.938H91.0557V276.533H96.2009V272.938Z" fill="white"/>
<path d="M96.2009 278.217H91.0557V281.812H96.2009V278.217Z" fill="white"/>
<path d="M96.2009 283.496H91.0557V287.091H96.2009V283.496Z" fill="white"/>
<path d="M79.0251 288.708H73.8799V292.302H79.0251V288.708Z" fill="white"/>
<path d="M86.693 288.708H81.5479V292.302H86.693V288.708Z" fill="white"/>
<path d="M96.2009 288.708H91.0557V292.302H96.2009V288.708Z" fill="white"/>
<path d="M79.0251 293.927H73.8799V297.521H79.0251V293.927Z" fill="white"/>
<path d="M86.693 293.927H81.5479V297.521H86.693V293.927Z" fill="white"/>
<path d="M96.2009 293.927H91.0557V297.521H96.2009V293.927Z" fill="white"/>
<path d="M79.0251 299.138H73.8799V302.733H79.0251V299.138Z" fill="white"/>
<path d="M86.693 299.138H81.5479V302.733H86.693V299.138Z" fill="white"/>
<path d="M96.2009 299.138H91.0557V302.733H96.2009V299.138Z" fill="white"/>
<path d="M79.0251 304.357H73.8799V307.952H79.0251V304.357Z" fill="white"/>
<path d="M86.693 304.357H81.5479V307.952H86.693V304.357Z" fill="white"/>
<path d="M96.2009 304.357H91.0557V307.952H96.2009V304.357Z" fill="white"/>
<path d="M79.0251 309.568H73.8799V313.163H79.0251V309.568Z" fill="white"/>
<path d="M86.693 309.568H81.5479V313.163H86.693V309.568Z" fill="white"/>
<path d="M96.2009 309.568H91.0557V313.163H96.2009V309.568Z" fill="white"/>
<path d="M142.66 251.679H139.886V254.823H142.66V251.679Z" fill="white"/>
<path d="M147.478 251.679H144.704V254.823H147.478V251.679Z" fill="white"/>
<path d="M142.66 256.417H139.886V259.56H142.66V256.417Z" fill="white"/>
<path d="M147.478 256.417H144.704V259.56H147.478V256.417Z" fill="white"/>
<path d="M142.66 261.155H139.886V264.298H142.66V261.155Z" fill="white"/>
<path d="M147.478 261.155H144.704V264.298H147.478V261.155Z" fill="white"/>
<path d="M142.66 265.885H139.886V269.028H142.66V265.885Z" fill="white"/>
<path d="M147.478 265.885H144.704V269.028H147.478V265.885Z" fill="white"/>
<path d="M142.66 270.735H139.886V273.878H142.66V270.735Z" fill="white"/>
<path d="M147.478 270.735H144.704V273.878H147.478V270.735Z" fill="white"/>
<path d="M142.66 275.593H139.886V278.736H142.66V275.593Z" fill="white"/>
<path d="M147.478 275.593H144.704V278.736H147.478V275.593Z" fill="white"/>
<path d="M142.66 280.443H139.886V283.587H142.66V280.443Z" fill="white"/>
<path d="M147.478 280.443H144.704V283.587H147.478V280.443Z" fill="white"/>
<path d="M142.66 285.294H139.886V288.437H142.66V285.294Z" fill="white"/>
<path d="M147.478 285.294H144.704V288.437H147.478V285.294Z" fill="white"/>
<path d="M142.66 290.197H139.886V293.34H142.66V290.197Z" fill="white"/>
<path d="M147.478 290.197H144.704V293.34H147.478V290.197Z" fill="white"/>
<path d="M142.66 295.1H139.886V298.243H142.66V295.1Z" fill="white"/>
<path d="M147.478 295.1H144.704V298.243H147.478V295.1Z" fill="white"/>
<path d="M142.66 300.003H139.886V303.146H142.66V300.003Z" fill="white"/>
<path d="M147.478 300.003H144.704V303.146H147.478V300.003Z" fill="white"/>
<path d="M142.66 304.906H139.886V308.049H142.66V304.906Z" fill="white"/>
<path d="M147.478 304.906H144.704V308.049H147.478V304.906Z" fill="white"/>
<path d="M152.958 251.679H150.184V254.823H152.958V251.679Z" fill="white"/>
<path d="M157.776 251.679H155.002V254.823H157.776V251.679Z" fill="white"/>
<path d="M152.958 256.417H150.184V259.56H152.958V256.417Z" fill="white"/>
<path d="M157.776 256.417H155.002V259.56H157.776V256.417Z" fill="white"/>
<path d="M152.958 261.155H150.184V264.298H152.958V261.155Z" fill="white"/>
<path d="M157.776 261.155H155.002V264.298H157.776V261.155Z" fill="white"/>
<path d="M152.958 265.885H150.184V269.028H152.958V265.885Z" fill="white"/>
<path d="M157.776 265.885H155.002V269.028H157.776V265.885Z" fill="white"/>
<path d="M152.958 270.735H150.184V273.878H152.958V270.735Z" fill="white"/>
<path d="M157.776 270.735H155.002V273.878H157.776V270.735Z" fill="white"/>
<path d="M152.958 275.593H150.184V278.736H152.958V275.593Z" fill="white"/>
<path d="M157.776 275.593H155.002V278.736H157.776V275.593Z" fill="white"/>
<path d="M152.958 280.443H150.184V283.587H152.958V280.443Z" fill="white"/>
<path d="M157.776 280.443H155.002V283.587H157.776V280.443Z" fill="white"/>
<path d="M152.958 285.294H150.184V288.437H152.958V285.294Z" fill="white"/>
<path d="M157.776 285.294H155.002V288.437H157.776V285.294Z" fill="white"/>
<path d="M152.958 290.197H150.184V293.34H152.958V290.197Z" fill="white"/>
<path d="M157.776 290.197H155.002V293.34H157.776V290.197Z" fill="white"/>
<path d="M152.958 295.1H150.184V298.243H152.958V295.1Z" fill="white"/>
<path d="M157.776 295.1H155.002V298.243H157.776V295.1Z" fill="white"/>
<path d="M152.958 300.003H150.184V303.146H152.958V300.003Z" fill="white"/>
<path d="M157.776 300.003H155.002V303.146H157.776V300.003Z" fill="white"/>
<path d="M152.958 304.906H150.184V308.049H152.958V304.906Z" fill="white"/>
<path d="M157.776 304.906H155.002V308.049H157.776V304.906Z" fill="white"/>
<path d="M36.8525 92.9171H118.682C118.682 92.9171 110.573 70.9888 98.0857 70.9888C85.5989 70.9888 81.6849 86.119 81.6849 86.119C81.6849 86.119 73.2565 77.8997 66.3405 77.8997C59.4245 77.8997 53.4205 88.7661 53.4205 88.7661C53.4205 88.7661 43.6241 82.923 36.8525 92.9171Z" fill="#EBEBEB"/>
<path opacity="0.5" d="M230.318 175.111H268.561C268.561 175.111 260.011 162.853 253.285 162.853C246.559 162.853 244.56 171.027 244.56 171.027C244.56 171.027 239.81 167.215 235.44 167.892C231.07 168.568 230.318 175.111 230.318 175.111Z" fill="#EBEBEB"/>
<path d="M268.66 137.21H343.14C343.14 137.21 332.941 114.65 322.027 113.274C311.114 111.898 305.9 130.013 305.9 130.013C305.9 130.013 298.863 123.599 293.322 123.599C287.782 123.599 283.518 132.051 283.518 132.051C283.518 132.051 272.453 126.261 268.66 137.21Z" fill="#EBEBEB"/>
<path opacity="0.5" d="M232.833 91.744H283.153C283.153 91.744 274.512 75.4181 265.133 75.2C255.755 74.9819 250.8 87.5328 250.8 87.5328C250.8 87.5328 236.238 75.952 232.833 91.744Z" fill="#EBEBEB"/>
<path opacity="0.5" d="M104.576 190.399H154.896C154.896 190.399 146.247 174.073 136.869 173.855C127.49 173.637 122.565 186.21 122.565 186.21C122.565 186.21 107.981 174.607 104.576 190.399Z" fill="#EBEBEB"/>
<path d="M94.1182 88.909C94.1647 89.2524 94.1072 89.6017 93.953 89.9129C93.7989 90.224 93.5549 90.4829 93.2521 90.6568C92.9492 90.8308 92.601 90.912 92.2516 90.8902C91.9021 90.8683 91.567 90.7445 91.2886 90.5342C91.0103 90.324 90.8012 90.0368 90.6877 89.709C90.5743 89.3811 90.5617 89.0274 90.6514 88.6925C90.7411 88.3575 90.9292 88.0565 91.1919 87.8273C91.4545 87.5981 91.78 87.4511 92.127 87.405C92.5923 87.345 93.0627 87.4695 93.4357 87.7512C93.8086 88.0329 94.054 88.449 94.1182 88.909Z" fill="#FFC727"/>
<path d="M92.3477 119.455C92.3942 119.799 92.3367 120.148 92.1825 120.459C92.0284 120.77 91.7844 121.029 91.4816 121.203C91.1787 121.377 90.8305 121.458 90.4811 121.436C90.1316 121.415 89.7965 121.291 89.5181 121.08C89.2397 120.87 89.0306 120.583 88.9172 120.255C88.8038 119.927 88.7912 119.574 88.8809 119.239C88.9706 118.904 89.1587 118.603 89.4214 118.374C89.684 118.144 90.0095 117.997 90.3565 117.951C90.5871 117.921 90.8215 117.935 91.0464 117.994C91.2712 118.053 91.4821 118.155 91.6671 118.295C91.852 118.435 92.0073 118.609 92.1241 118.808C92.2408 119.007 92.3168 119.227 92.3477 119.455Z" fill="#263238"/>
<path d="M155.23 156.649C155.245 156.763 155.237 156.879 155.207 156.99C155.176 157.101 155.124 157.205 155.053 157.296C154.982 157.387 154.894 157.464 154.793 157.521C154.692 157.579 154.581 157.616 154.466 157.63C154.351 157.645 154.234 157.637 154.121 157.608C154.009 157.578 153.904 157.526 153.812 157.456C153.72 157.386 153.643 157.298 153.585 157.199C153.527 157.099 153.489 156.989 153.474 156.875C153.444 156.644 153.507 156.412 153.651 156.228C153.794 156.043 154.005 155.923 154.238 155.893C154.471 155.863 154.706 155.926 154.892 156.068C155.078 156.21 155.2 156.419 155.23 156.649Z" fill="#FFC727"/>
<path d="M124.1 57.4979C124.124 57.6706 124.096 57.8465 124.019 58.0032C123.942 58.16 123.82 58.2906 123.667 58.3784C123.515 58.4662 123.34 58.5073 123.164 58.4965C122.988 58.4858 122.82 58.4235 122.68 58.3178C122.54 58.212 122.435 58.0675 122.378 57.9025C122.321 57.7375 122.315 57.5595 122.36 57.3911C122.406 57.2227 122.501 57.0715 122.633 56.9566C122.766 56.8418 122.93 56.7684 123.104 56.7459C123.337 56.716 123.572 56.7782 123.759 56.919C123.945 57.0599 124.068 57.268 124.1 57.4979Z" fill="#FFC727"/>
<path d="M234.08 37.8181C234.11 38.0484 234.047 38.2812 233.903 38.4653C233.76 38.6493 233.549 38.7695 233.316 38.7994C233.083 38.8294 232.848 38.7665 232.662 38.6248C232.476 38.4831 232.355 38.274 232.324 38.0437C232.294 37.8133 232.358 37.5805 232.501 37.3965C232.644 37.2124 232.855 37.0922 233.088 37.0623C233.321 37.0324 233.556 37.0952 233.742 37.2369C233.928 37.3787 234.05 37.5877 234.08 37.8181Z" fill="#263238"/>
<path d="M134.132 104.468C134.16 104.587 134.162 104.71 134.138 104.83C134.114 104.95 134.066 105.064 133.995 105.164C133.925 105.265 133.834 105.349 133.729 105.413C133.623 105.477 133.506 105.518 133.383 105.534C133.261 105.55 133.137 105.541 133.018 105.507C132.9 105.473 132.789 105.415 132.695 105.337C132.6 105.259 132.523 105.162 132.468 105.052C132.413 104.943 132.382 104.823 132.377 104.701C132.367 104.481 132.441 104.266 132.583 104.098C132.726 103.929 132.927 103.819 133.147 103.79C133.367 103.761 133.59 103.814 133.773 103.94C133.955 104.065 134.083 104.253 134.132 104.468Z" fill="#263238"/>
<path d="M215.665 183.21C215.68 183.324 215.672 183.44 215.642 183.551C215.612 183.662 215.56 183.766 215.489 183.857C215.418 183.948 215.33 184.024 215.229 184.082C215.128 184.139 215.017 184.176 214.902 184.191C214.786 184.206 214.669 184.198 214.557 184.168C214.445 184.138 214.34 184.087 214.247 184.016C214.155 183.946 214.078 183.859 214.02 183.759C213.962 183.659 213.925 183.549 213.91 183.435C213.879 183.205 213.943 182.972 214.086 182.788C214.229 182.604 214.441 182.484 214.674 182.454C214.906 182.424 215.142 182.487 215.328 182.629C215.514 182.77 215.635 182.979 215.665 183.21Z" fill="#455A64"/>
<path d="M90.0981 188.271C90.1207 188.442 90.0915 188.616 90.0142 188.77C89.9369 188.925 89.815 189.054 89.6639 189.14C89.5127 189.226 89.3392 189.266 89.1652 189.254C88.9912 189.243 88.8246 189.18 88.6864 189.075C88.5481 188.97 88.4446 188.827 88.3887 188.663C88.3329 188.5 88.3273 188.323 88.3726 188.157C88.418 187.99 88.5122 187.841 88.6435 187.727C88.7748 187.614 88.9371 187.541 89.1101 187.519C89.225 187.503 89.3419 187.51 89.4541 187.539C89.5663 187.569 89.6714 187.62 89.7634 187.69C89.8553 187.76 89.9323 187.847 89.9897 187.947C90.0472 188.047 90.084 188.157 90.0981 188.271Z" fill="#FFC727"/>
<path d="M63.4219 155.22C63.4684 155.564 63.4109 155.913 63.2568 156.224C63.1026 156.535 62.8587 156.794 62.5558 156.968C62.2529 157.142 61.9048 157.223 61.5553 157.202C61.2058 157.18 60.8707 157.056 60.5923 156.846C60.314 156.635 60.1049 156.348 59.9914 156.02C59.878 155.693 59.8654 155.339 59.9551 155.004C60.0449 154.669 60.2329 154.368 60.4956 154.139C60.7583 153.909 61.0837 153.763 61.4307 153.716C61.6614 153.685 61.8962 153.698 62.1215 153.757C62.3467 153.816 62.5581 153.918 62.7432 154.058C62.9283 154.197 63.0836 154.372 63.2001 154.572C63.3166 154.771 63.392 154.992 63.4219 155.22Z" fill="#FFC727"/>
<path d="M171.327 37.6978C171.373 38.0412 171.316 38.3905 171.162 38.7017C171.007 39.0128 170.763 39.2717 170.461 39.4456C170.158 39.6196 169.81 39.7008 169.46 39.679C169.111 39.6571 168.775 39.5333 168.497 39.323C168.219 39.1128 168.01 38.8256 167.896 38.4978C167.783 38.1699 167.77 37.8162 167.86 37.4813C167.95 37.1463 168.138 36.8453 168.4 36.6161C168.663 36.3869 168.988 36.2399 169.336 36.1938C169.566 36.1631 169.8 36.1776 170.025 36.2366C170.25 36.2956 170.461 36.3979 170.646 36.5375C170.831 36.6772 170.986 36.8516 171.103 37.0506C171.22 37.2497 171.296 37.4696 171.327 37.6978Z" fill="#FFC727"/>
<path d="M291.566 213.914L294.074 213.079C294.074 213.079 292.364 212.207 292.364 209.492C292.364 206.777 294.713 205.732 293.702 203.258L290.905 204.01C291.219 204.656 291.393 205.359 291.416 206.076C291.438 206.792 291.308 207.505 291.034 208.169C290.32 209.718 289.621 211.575 291.566 213.914Z" fill="#FFC727"/>
<path d="M83.387 208.041L80.9094 207.116C80.9094 207.116 81.6694 208.86 79.9518 210.966C78.2342 213.072 75.7186 212.47 74.9434 214.982L77.5806 216.147C77.7488 215.45 78.0629 214.795 78.5028 214.225C78.9426 213.655 79.4984 213.183 80.1342 212.839C81.7074 212.064 83.4022 211.064 83.387 208.041Z" fill="#FFC727"/>
<path d="M152.228 92.496L149.72 91.5936C149.72 91.5936 150.48 93.3382 148.762 95.4438C147.045 97.5494 144.529 96.9478 143.754 99.452L146.391 100.625C146.558 99.927 146.872 99.2716 147.312 98.7015C147.752 98.1314 148.308 97.6594 148.945 97.3163C150.548 96.5568 152.243 95.5416 152.228 92.496Z" fill="#455A64"/>
<path d="M242.44 170.907L239.963 169.99C239.963 169.99 240.723 171.734 239.005 173.84C237.287 175.945 234.772 175.344 233.997 177.848L236.634 179.021C236.801 178.323 237.114 177.668 237.554 177.097C237.994 176.527 238.551 176.055 239.187 175.712C240.776 174.953 242.478 173.938 242.44 170.907Z" fill="#455A64"/>
<path d="M136.8 147.783L137.157 145.196C137.157 145.196 135.637 146.324 133.152 145.121C130.667 143.918 130.766 141.361 128.091 141.173L127.521 143.978C128.241 143.989 128.95 144.149 129.605 144.447C130.259 144.744 130.843 145.174 131.321 145.708C132.468 147.061 133.851 148.475 136.8 147.783Z" fill="#FFC727"/>
<path d="M255.937 198.889L256.295 196.295C256.295 196.295 254.775 197.423 252.289 196.219C249.804 195.016 249.903 192.459 247.228 192.271L246.658 195.076C247.378 195.088 248.089 195.249 248.743 195.548C249.397 195.847 249.981 196.278 250.458 196.813C251.56 198.16 252.958 199.573 255.937 198.889Z" fill="#455A64"/>
<path d="M245.237 79.0277L245.594 76.4408C245.594 76.4408 244.074 77.5688 241.589 76.3656C239.103 75.1624 239.202 72.6056 236.527 72.4176L235.957 75.2226C236.677 75.2338 237.387 75.3934 238.041 75.6912C238.695 75.989 239.28 76.4185 239.757 76.9522C240.874 78.2982 242.257 79.712 245.237 79.0277Z" fill="#FFC727"/>
<path d="M293.36 91.4432L290.578 89.9392C290.578 89.9392 288.298 93.3006 291.034 95.0002C291.027 95.0077 290.464 92.8194 293.36 91.4432Z" fill="#FFC727"/>
<path d="M291.08 99.1061L294.014 98.0307C294.014 98.0307 294.189 95.5416 291.012 95.0227C291.027 95.0077 293.018 97.2637 291.08 99.1061Z" fill="#FFC727"/>
<path d="M144.841 172.073L142.052 170.569C142.052 170.569 139.772 173.938 142.508 175.63C142.508 175.637 141.953 173.456 144.841 172.073Z" fill="#455A64"/>
<path d="M142.584 179.728L145.51 178.645C145.51 178.645 145.685 176.164 142.47 175.637C142.508 175.637 144.499 177.893 142.584 179.728Z" fill="#455A64"/>
<path d="M253.559 72.7184C253.512 72.3746 253.569 72.0249 253.724 71.7135C253.878 71.402 254.122 71.1429 254.426 70.969C254.729 70.795 255.078 70.7141 255.428 70.7364C255.777 70.7586 256.113 70.8831 256.391 71.0941C256.669 71.3051 256.878 71.593 256.991 71.9215C257.103 72.2499 257.115 72.604 257.024 72.9391C256.933 73.2741 256.744 73.5748 256.48 73.8033C256.216 74.0318 255.89 74.1776 255.542 74.2224C255.078 74.2822 254.608 74.1575 254.237 73.8757C253.865 73.5938 253.621 73.1777 253.559 72.7184Z" fill="#263238"/>
<path d="M281.549 115.349C281.503 115.006 281.56 114.656 281.715 114.345C281.869 114.034 282.113 113.775 282.415 113.601C282.718 113.427 283.067 113.346 283.416 113.368C283.766 113.39 284.101 113.514 284.379 113.724C284.657 113.934 284.866 114.221 284.98 114.549C285.093 114.877 285.106 115.231 285.016 115.566C284.926 115.901 284.738 116.202 284.476 116.431C284.213 116.66 283.888 116.807 283.541 116.853C283.31 116.884 283.076 116.869 282.851 116.81C282.626 116.751 282.415 116.649 282.23 116.509C282.045 116.37 281.89 116.195 281.773 115.996C281.656 115.797 281.58 115.577 281.549 115.349Z" fill="#FFC727"/>
<path d="M274.208 178.532C274.186 178.361 274.215 178.187 274.292 178.033C274.369 177.878 274.491 177.749 274.642 177.663C274.793 177.577 274.967 177.537 275.141 177.549C275.315 177.56 275.482 177.623 275.62 177.728C275.758 177.833 275.862 177.976 275.917 178.14C275.973 178.303 275.979 178.48 275.934 178.646C275.888 178.813 275.794 178.962 275.663 179.076C275.531 179.19 275.369 179.262 275.196 179.284C274.964 179.314 274.73 179.252 274.545 179.111C274.359 178.97 274.238 178.762 274.208 178.532Z" fill="#FFC727"/>
<path d="M171.486 150.475L171.122 153.07C171.122 153.07 172.642 151.942 175.127 153.145C177.612 154.348 177.521 156.905 180.196 157.093L180.758 154.288C180.038 154.277 179.328 154.117 178.674 153.819C178.02 153.521 177.436 153.092 176.958 152.558C175.841 151.205 174.466 149.791 171.486 150.475Z" fill="#455A64"/>
<path d="M317.171 180.006L312.953 181.187C312.953 181.187 310.939 175.968 315.126 174.494C315.126 174.464 313.698 177.276 317.171 180.006Z" fill="#455A64"/>
<path d="M316.479 168.982L320.104 171.321C320.104 171.321 319.572 174.727 315.126 174.494C315.126 174.464 318.501 172.05 316.479 168.982Z" fill="#455A64"/>
<path d="M241.68 137.909L237.439 139.12C237.439 139.12 235.433 133.901 239.613 132.427C239.613 132.397 238.192 135.18 241.68 137.909Z" fill="#263238"/>
<path d="M240.973 126.885L244.598 129.224C244.598 129.224 244.066 132.63 239.613 132.397C239.613 132.397 242.995 129.953 240.973 126.885Z" fill="#263238"/>
<path d="M97.6371 162.56L93.4115 163.74C93.4115 163.74 91.4051 158.522 95.5851 157.048C95.5851 157.048 94.1563 159.83 97.6371 162.56Z" fill="#263238"/>
<path d="M96.9454 151.536L100.571 153.874C100.571 153.874 100.031 157.281 95.585 157.048C95.585 157.048 98.967 154.604 96.9454 151.536Z" fill="#263238"/>
<path d="M274.938 129.509L277.727 131.013C277.727 131.013 280.007 127.644 277.271 125.952C277.271 125.945 277.826 128.126 274.938 129.509Z" fill="#455A64"/>
<path d="M277.195 121.824L274.261 122.907C274.261 122.907 274.094 125.388 277.301 125.915C277.271 125.945 275.28 123.689 277.195 121.824Z" fill="#455A64"/>
<path d="M177.969 116.274L180.758 117.778C180.758 117.778 183.038 114.417 180.302 112.717C180.302 112.71 180.88 114.898 177.969 116.274Z" fill="#FFC727"/>
<path d="M180.226 108.611L177.293 109.687C177.293 109.687 177.125 112.176 180.333 112.695C180.302 112.71 178.311 110.461 180.226 108.611Z" fill="#FFC727"/>
<path d="M202.403 215.726L202.867 218.824C202.867 218.824 206.941 218.591 206.667 215.425C206.72 215.425 205.253 217.178 202.403 215.726Z" fill="#FFC727"/>
<path d="M209.95 212.906L207.32 211.237C207.32 211.237 205.208 212.59 206.682 215.425C206.72 215.425 207.305 212.5 209.95 212.906Z" fill="#FFC727"/>
<path d="M25.3535 336.001L66.5151 335.821L107.677 335.753L190 335.625L272.323 335.753L313.485 335.821L354.646 336.001L313.485 336.189L272.323 336.249L190 336.377L107.677 336.249L66.5151 336.182L25.3535 336.001Z" fill="#263238"/>
<path d="M226.244 160.492C214.966 167.651 195.601 172.373 180.485 171.057C178.107 170.884 175.747 170.515 173.432 169.952C170.323 169.2 167.299 168.35 164.38 167.561C144.955 162.297 128.189 157.785 99.2785 165.583C64.7517 174.893 57.0529 179.119 56.3841 179.209L61.4837 173.712L54.7197 169.538C54.8793 169.538 62.6921 165.275 96.6489 156.115C128.159 147.625 146.999 152.716 166.949 158.1C169.837 158.852 172.816 159.687 175.841 160.454C177.014 160.745 178.201 160.976 179.398 161.146C193.777 163.192 214.601 158.138 223.197 151.37C224.1 150.689 224.846 149.825 225.385 148.836L225.53 159.364C225.72 159.522 225.917 159.92 226.244 160.492Z" fill="#C31F82"/>
<path opacity="0.2" d="M226.244 160.492C214.966 167.651 195.601 172.373 180.485 171.057C178.107 170.884 175.747 170.515 173.432 169.952C170.323 169.2 167.299 168.35 164.38 167.561C144.955 162.297 128.189 157.785 99.2785 165.583C64.7517 174.893 57.0529 179.119 56.3841 179.209L61.4837 173.712L54.7197 169.538C54.8793 169.538 62.6921 165.275 96.6489 156.115C128.159 147.625 146.999 152.716 166.949 158.1C169.837 158.852 172.816 159.687 175.841 160.454C177.014 160.745 178.201 160.976 179.398 161.146C193.777 163.192 214.601 158.138 223.197 151.37C224.1 150.689 224.846 149.825 225.385 148.836L225.53 159.364C225.72 159.522 225.917 159.92 226.244 160.492Z" fill="black"/>
<path d="M223.987 145.181C223.987 145.181 224.162 170.463 219.161 175.923C219.161 175.923 186.169 236.015 168.393 239.429C153.337 242.325 98.5186 202.16 98.5186 202.16L115.854 175.735C115.854 175.735 125.438 180.352 138.51 187.413C149.302 193.249 158.574 199.859 158.855 199.37C162.944 192.091 179.618 171.403 179.291 170.042C175.681 154.904 186.595 145.226 186.595 145.226L223.987 145.181Z" fill="#263238"/>
<path d="M219.154 175.923C219.154 175.923 211.052 190.692 200.709 206.003L179.284 170.02C175.689 154.889 186.603 145.204 186.603 145.204H223.995C223.995 145.204 224.155 170.463 219.154 175.923Z" fill="#37474F"/>
<path d="M48.7843 197.25C49.2783 195.422 78.0291 152.739 80.1723 151.806C80.9779 151.438 115.892 175.735 115.892 175.735L98.5719 202.055L76.3343 187.872C76.3343 187.872 58.4135 199.054 55.9511 199.836C53.4887 200.619 48.2827 199.069 48.7843 197.25Z" fill="#EB9481"/>
<path d="M48.7921 197.25C49.2861 195.422 78.0293 152.739 80.1649 151.806C80.5525 151.626 91.5649 159.04 98.1389 163.507L80.3321 190.467L76.2965 187.902C76.2965 187.902 58.4137 199.047 55.9513 199.836C53.4889 200.626 48.2829 199.062 48.7921 197.25Z" fill="#EBEBEB"/>
<path d="M48.6857 197.445C49.1873 195.633 77.8317 152.4 79.9521 151.46C80.7577 151.099 87.2861 155.431 94.2173 160.838L76.2281 188.346C76.2281 188.346 58.2693 199.235 55.8297 200.032C53.3901 200.829 48.1917 199.28 48.6857 197.445Z" fill="#623CE7"/>
<path d="M50.8136 197.972C55.7916 190.963 75.1716 162.229 79.5492 154.927C79.5492 154.867 79.5492 154.837 79.5036 154.927C74.4268 161.763 55.2748 190.655 50.6996 197.919C50.6008 198.047 50.7148 198.114 50.8136 197.972Z" fill="#263238"/>
<path d="M59.2117 198.302C59.7675 197.525 60.1532 196.641 60.3442 195.707C60.5353 194.774 60.5275 193.811 60.3213 192.88C59.9693 191.202 58.9754 189.723 57.5473 188.752C57.5473 188.752 57.4561 188.797 57.4941 188.835C58.7584 190.015 59.6007 191.57 59.8941 193.266C60.1874 194.961 59.9159 196.705 59.1205 198.235C59.0901 198.302 59.1737 198.363 59.2117 198.302Z" fill="#263238"/>
<path d="M74.001 190.098C75.9618 187.278 77.1702 183.33 76.0074 179.976C75.9618 179.848 75.7794 179.908 75.7642 180.021C75.4065 183.387 74.6854 186.704 73.6134 189.918C73.6035 189.965 73.6101 190.015 73.6322 190.059C73.6544 190.103 73.6907 190.138 73.7354 190.159C73.7802 190.179 73.8306 190.185 73.8788 190.174C73.9269 190.163 73.97 190.136 74.001 190.098Z" fill="#263238"/>
<path d="M71.6528 191.76C73.6136 188.94 74.822 184.992 73.6592 181.631C73.6136 181.503 73.4312 181.57 73.416 181.683C73.0574 185.048 72.3364 188.366 71.2652 191.58C71.2553 191.627 71.262 191.677 71.2841 191.721C71.3062 191.765 71.3426 191.8 71.3873 191.821C71.432 191.841 71.4825 191.847 71.5307 191.836C71.5788 191.825 71.6218 191.798 71.6528 191.76Z" fill="#263238"/>
<path d="M69.3042 193.362C71.265 190.534 72.4734 186.594 71.3106 183.232C71.265 183.104 71.0826 183.172 71.0674 183.285C70.7088 186.648 69.9878 189.963 68.9166 193.174C68.904 193.222 68.9087 193.274 68.9299 193.319C68.9511 193.365 68.9875 193.402 69.0331 193.424C69.0786 193.446 69.1304 193.452 69.1798 193.441C69.2292 193.429 69.2731 193.401 69.3042 193.362Z" fill="#263238"/>
<path d="M66.9561 194.994C68.9169 192.166 70.1253 188.188 68.9625 184.864C68.9169 184.736 68.7345 184.804 68.7193 184.917C68.3606 188.28 67.6396 191.595 66.5685 194.806C66.5558 194.854 66.5605 194.906 66.5817 194.951C66.6029 194.997 66.6394 195.034 66.6849 195.056C66.7304 195.078 66.7823 195.084 66.8317 195.072C66.8811 195.061 66.925 195.033 66.9561 194.994Z" fill="#263238"/>
<path d="M85.1654 161.244C87.3086 158.04 82.2774 154.739 80.1342 157.95C77.991 161.161 83.0222 164.455 85.1654 161.244Z" fill="#263238"/>
<path d="M79.6177 198.257C81.8065 197.603 81.8445 195.001 81.1909 193.294C80.2535 190.977 78.8406 188.877 77.0413 187.128C76.7981 186.872 76.5397 186.639 76.2813 186.376C76.1623 186.286 76.0482 186.191 75.9393 186.09L75.8405 186.03L75.5593 185.804C75.5477 185.796 75.5345 185.792 75.5208 185.79C75.507 185.788 75.4929 185.789 75.4797 185.794C75.4665 185.798 75.4545 185.805 75.4446 185.815C75.4347 185.825 75.4271 185.836 75.4225 185.849C75.3419 185.821 75.255 185.816 75.1716 185.835C75.0883 185.854 75.012 185.895 74.9513 185.955C74.9162 185.986 74.8884 186.024 74.87 186.067C74.8516 186.11 74.843 186.156 74.8449 186.203C74.8449 187.022 74.8449 187.865 74.8449 188.707C74.8372 188.852 74.8372 188.998 74.8449 189.143C74.7369 191.194 74.9784 193.248 75.5593 195.219C76.1217 196.919 77.5581 198.859 79.6177 198.257ZM75.8177 190.737C75.8177 190.03 75.7721 189.324 75.7493 188.624C75.7265 187.925 75.7037 187.436 75.6733 186.842C75.6733 186.759 75.6733 186.669 75.6733 186.594C75.6733 186.519 75.6733 186.436 75.6733 186.368L75.8101 186.534C76.0989 186.917 76.3801 187.286 76.6765 187.654C77.4611 188.651 78.1893 189.691 78.8577 190.767C79.3251 191.511 79.7415 192.285 80.1041 193.084C80.6361 194.332 81.1529 198.724 77.8241 196.934C76.0001 195.964 75.9241 192.452 75.8557 190.722L75.8177 190.737Z" fill="#263238"/>
<path d="M75.3159 186.564C75.3155 186.578 75.3183 186.592 75.3242 186.604C75.3302 186.617 75.339 186.628 75.3501 186.637C75.3611 186.646 75.3741 186.652 75.388 186.655C75.4018 186.658 75.4162 186.657 75.4299 186.654C75.5209 186.638 75.61 186.613 75.6959 186.579C75.7302 186.591 75.768 186.591 75.8023 186.579C75.9619 186.557 76.1178 186.514 76.2659 186.451C76.8251 186.294 77.3713 186.096 77.8999 185.857C80.0251 184.975 81.9599 183.699 83.5999 182.097C84.9071 180.796 85.9255 178.404 84.1927 176.938C84.13 176.886 84.064 176.839 83.9951 176.795C82.3915 175.645 80.3927 176.795 79.2299 178.059C78.0689 179.413 77.1233 180.934 76.4255 182.571C75.9163 183.706 75.4375 184.827 74.9055 185.962C74.8711 186.028 74.8552 186.102 74.8596 186.176C74.864 186.25 74.8885 186.322 74.9304 186.383C74.9724 186.445 75.0303 186.494 75.0982 186.526C75.166 186.558 75.2412 186.571 75.3159 186.564ZM77.6871 182.315C78.4471 180.751 79.9671 177.577 82.0647 177.404C82.5456 177.34 83.0352 177.399 83.4859 177.577C85.0971 178.329 83.3871 181.059 82.5587 181.834C81.9023 182.425 81.2066 182.973 80.4763 183.473C79.9291 183.856 79.3743 184.225 78.7891 184.533C77.8543 185.09 76.8967 185.594 75.9467 186.128C75.8859 186.128 75.8327 186.203 75.7719 186.225C75.8087 186.172 75.8369 186.114 75.8555 186.052C75.9467 185.902 76.0227 185.767 76.0987 185.609C76.6383 184.526 77.1399 183.413 77.6871 182.315Z" fill="#263238"/>
<path d="M335.335 306.132C334.142 307.636 290.579 335.407 288.215 335.46C287.326 335.46 265.134 299.431 265.134 299.431L291.643 282.135L306.311 303.943C306.311 303.943 327.211 300.777 329.779 301.026C332.348 301.274 336.528 304.658 335.335 306.132Z" fill="#EB9481"/>
<path d="M335.327 306.132C334.142 307.636 290.571 335.407 288.207 335.46C287.782 335.46 280.676 324.323 276.442 317.63L303.643 299.935L306.303 303.883C306.303 303.883 327.195 300.717 329.772 300.965C332.348 301.214 336.528 304.665 335.327 306.132Z" fill="#EBEBEB"/>
<path d="M335.502 305.989C334.316 307.493 290.624 335.798 288.298 335.821C287.409 335.821 283.176 329.286 278.996 321.593L306.576 303.47C306.576 303.47 327.438 300.559 329.992 300.808C332.546 301.056 336.68 304.515 335.502 305.989Z" fill="#623CE7"/>
<path d="M333.762 304.665C326.375 309.132 297.023 327.834 290.062 332.798C290.009 332.843 290.062 332.88 290.062 332.843C297.479 328.579 326.686 309.644 333.807 304.786C333.99 304.68 333.921 304.56 333.762 304.665Z" fill="#263238"/>
<path d="M326.2 301.048C325.38 301.541 324.672 302.196 324.12 302.973C323.568 303.749 323.184 304.63 322.992 305.56C322.641 307.236 322.957 308.982 323.874 310.433C323.874 310.478 323.98 310.433 323.958 310.38C323.274 308.8 323.127 307.043 323.538 305.372C323.949 303.702 324.896 302.208 326.238 301.116C326.314 301.093 326.253 301.011 326.2 301.048Z" fill="#263238"/>
<path d="M309.32 302.733C306.386 304.553 303.673 307.718 303.399 311.23C303.399 311.366 303.582 311.381 303.643 311.275C305.328 308.332 307.328 305.577 309.609 303.056C309.643 303.016 309.661 302.965 309.661 302.913C309.66 302.861 309.64 302.81 309.605 302.771C309.57 302.732 309.522 302.706 309.47 302.699C309.417 302.692 309.364 302.704 309.32 302.733Z" fill="#263238"/>
<path d="M312.14 302.161C309.198 303.981 306.493 307.154 306.219 310.659C306.219 310.794 306.402 310.809 306.462 310.711C308.146 307.766 310.143 305.008 312.421 302.484C312.451 302.445 312.467 302.396 312.466 302.346C312.464 302.296 312.445 302.248 312.412 302.21C312.38 302.172 312.335 302.147 312.285 302.138C312.235 302.129 312.184 302.137 312.14 302.161Z" fill="#263238"/>
<path d="M314.952 301.597C312.01 303.417 309.305 306.583 309.031 310.095C309.031 310.23 309.214 310.245 309.274 310.14C310.958 307.197 312.955 304.441 315.233 301.92C315.263 301.881 315.279 301.832 315.278 301.782C315.276 301.732 315.257 301.684 315.225 301.646C315.192 301.608 315.147 301.583 315.097 301.574C315.047 301.565 314.996 301.573 314.952 301.597Z" fill="#263238"/>
<path d="M317.764 301.026C314.822 302.845 312.117 306.019 311.843 309.523C311.843 309.659 312.026 309.674 312.086 309.576C313.77 306.631 315.767 303.873 318.045 301.349C318.075 301.309 318.091 301.26 318.09 301.21C318.088 301.16 318.069 301.113 318.037 301.075C318.004 301.037 317.959 301.011 317.909 301.002C317.859 300.993 317.808 301.002 317.764 301.026Z" fill="#263238"/>
<path d="M287.462 324.789C284.202 326.879 287.462 331.895 290.745 329.797C294.029 327.699 290.723 322.691 287.462 324.789Z" fill="#263238"/>
<path d="M307.465 293.039C305.185 292.769 304.114 295.145 304.023 296.972C303.951 299.465 304.398 301.945 305.337 304.259C305.459 304.59 305.603 304.906 305.748 305.214C305.824 305.342 305.885 305.477 305.945 305.605L306.014 305.703L306.181 306.019C306.19 306.03 306.2 306.039 306.213 306.045C306.226 306.051 306.239 306.054 306.253 306.054C306.267 306.054 306.281 306.051 306.293 306.045C306.306 306.039 306.317 306.03 306.325 306.019C306.388 306.078 306.466 306.118 306.551 306.134C306.636 306.15 306.724 306.141 306.804 306.109C306.848 306.095 306.889 306.071 306.923 306.04C306.957 306.009 306.984 305.971 307.002 305.929C307.313 305.177 307.663 304.425 308.005 303.628C308.073 303.5 308.127 303.372 308.187 303.236C309.112 301.397 309.718 299.417 309.981 297.378C310.133 295.649 309.601 293.28 307.465 293.039ZM307.883 301.432C307.625 302.093 307.351 302.748 307.123 303.394C306.895 304.041 306.683 304.507 306.47 305.064C306.47 305.139 306.409 305.229 306.386 305.297L306.31 305.508C306.31 305.44 306.272 305.372 306.257 305.304C306.143 304.846 306.044 304.395 305.923 303.936C305.596 302.713 305.343 301.473 305.163 300.221C305.037 299.354 304.969 298.48 304.957 297.604C304.957 296.25 306.265 292.024 308.59 294.972C309.844 296.566 308.514 299.822 307.883 301.432Z" fill="#263238"/>
<path d="M306.698 305.455C306.704 305.442 306.707 305.428 306.707 305.414C306.706 305.4 306.703 305.386 306.696 305.374C306.689 305.362 306.68 305.351 306.668 305.343C306.657 305.335 306.643 305.329 306.629 305.327C306.539 305.317 306.447 305.317 306.356 305.327C306.339 305.319 306.321 305.315 306.303 305.315C306.284 305.315 306.266 305.319 306.249 305.327C306.095 305.289 305.937 305.269 305.778 305.267C305.202 305.187 304.62 305.152 304.038 305.162C301.738 305.125 299.452 305.526 297.304 306.342C295.587 307.019 293.687 308.809 294.682 310.854C294.718 310.927 294.759 310.997 294.804 311.065C295.815 312.749 298.117 312.471 299.683 311.817C301.303 311.027 302.789 309.994 304.091 308.756C305.018 307.921 305.915 307.049 306.835 306.237C306.916 306.198 306.982 306.133 307.023 306.054C307.064 305.974 307.078 305.883 307.062 305.795C307.047 305.707 307.003 305.626 306.937 305.565C306.872 305.504 306.788 305.465 306.698 305.455ZM302.814 308.418C301.469 309.546 298.794 311.854 296.818 311.193C296.351 311.067 295.926 310.82 295.587 310.478C294.401 309.162 297.107 307.32 298.148 306.936C298.988 306.655 299.846 306.428 300.717 306.26C301.37 306.124 302.031 306.026 302.693 305.944C303.779 305.808 304.859 305.726 305.945 305.605H306.151C306.097 305.644 306.046 305.687 305.999 305.733C305.854 305.838 305.733 305.936 305.596 306.049C304.661 306.816 303.757 307.628 302.814 308.418Z" fill="#263238"/>
<path d="M292.448 282.948L265.156 299.394C265.156 299.394 237.333 270.494 230.956 245.543C229.033 238.023 196.551 191.173 185.653 179.435C171.311 163.981 185.767 145.159 185.767 145.159H225.378L225.575 159.304C228.691 164.304 292.448 282.948 292.448 282.948Z" fill="#263238"/>
<path d="M217.36 152.656C218.894 153.559 220.353 154.583 221.722 155.717C223.109 156.83 224.405 158.05 225.598 159.364C224.062 158.46 222.603 157.434 221.236 156.296C219.849 155.185 218.553 153.968 217.36 152.656Z" fill="#37474F"/>
<path d="M210.626 72.4402C210.14 69.4322 209.494 66.2662 204.949 64.8074C195.198 61.6866 188.229 74.839 176.973 79.0502C163.415 84.1488 157.973 92.2478 163.491 97.4517C169.655 103.28 181.1 100.031 190.57 83.9157C196.498 73.8464 201.78 71.3046 204.212 71.3422C205.967 71.3422 208.43 74.8616 208.43 74.8616L210.626 72.4402Z" fill="#263238"/>
<path d="M193.975 78.4637C192.918 79.9677 192.044 81.6296 191.117 83.2314C190.19 84.8331 189.293 86.4499 188.336 88.0216C187.378 89.5933 186.367 91.1424 185.25 92.6013C184.163 94.072 182.931 95.4323 181.572 96.6621C180.237 97.9017 178.673 98.8745 176.966 99.5272C175.214 100.127 173.37 100.422 171.517 100.4C169.642 100.382 167.796 99.9394 166.121 99.1061C165.274 98.689 164.485 98.1658 163.772 97.5494C163.42 97.2395 163.087 96.9079 162.777 96.5568C162.453 96.2112 162.182 95.8211 161.971 95.3987C162.355 96.2742 162.916 97.0625 163.62 97.7149C164.3 98.3967 165.067 98.9882 165.9 99.4746C166.751 99.9561 167.657 100.335 168.598 100.603C169.542 100.867 170.514 101.023 171.494 101.069C172.466 101.117 173.441 101.074 174.405 100.941L175.127 100.828L175.834 100.685C176.312 100.582 176.784 100.452 177.247 100.294C179.065 99.6163 180.733 98.5946 182.157 97.2862C184.876 94.6838 187.157 91.6678 188.913 88.3525C189.833 86.7282 190.669 85.0738 191.482 83.4118C192.295 81.7499 193.093 80.088 193.975 78.4637Z" fill="#263238"/>
<path d="M210.649 73.3125C210.558 72.0323 210.303 70.7688 209.889 69.5525C209.47 68.3652 208.782 67.2882 207.879 66.4034C206.975 65.5186 205.88 64.8493 204.676 64.4464C204.078 64.2452 203.462 64.1016 202.837 64.0178C202.219 63.9163 201.592 63.8785 200.967 63.905C199.72 64.0001 198.498 64.308 197.357 64.8149C196.206 65.3494 195.113 65.9995 194.096 66.755C192.029 68.259 190.114 70.0037 188.13 71.6806C186.155 73.3993 184.052 74.968 181.838 76.3731C179.566 77.6847 177.195 78.8211 174.747 79.7722C172.322 80.6758 169.961 81.7385 167.679 82.9531C166.542 83.5699 165.49 84.3281 164.548 85.2091L163.864 85.8784C163.651 86.1266 163.461 86.3822 163.256 86.6304L162.952 87.0064L162.693 87.4125L162.184 88.2397C163.312 85.8691 165.134 83.8885 167.413 82.5546C169.674 81.2458 172.02 80.0852 174.435 79.0803C176.807 78.0689 179.108 76.9006 181.321 75.5835C183.483 74.1894 185.536 72.6359 187.462 70.9362C189.453 69.2818 191.368 67.5221 193.542 66.0106C194.625 65.2343 195.786 64.5715 197.007 64.0328C198.253 63.5002 199.588 63.2019 200.944 63.153C201.623 63.1498 202.3 63.2153 202.966 63.3485C203.626 63.4672 204.275 63.6433 204.904 63.8749C206.169 64.3303 207.306 65.0785 208.219 66.057C209.133 67.0354 209.797 68.2159 210.155 69.4998C210.502 70.7412 210.668 72.0249 210.649 73.3125Z" fill="#263238"/>
<path d="M213.742 72.6131C213.651 71.6806 212.83 70.5677 212.222 70.4774C211.614 70.3872 207.343 72.8387 207.092 74.0269C206.842 75.215 208.97 75.9746 208.97 75.9746L213.742 72.6131Z" fill="#FFC727"/>
<path d="M221.228 104.919C226.708 92.887 232.013 83.4795 240.228 69.2366C244.499 61.8219 251.932 49.8802 253.84 46.6766C256.355 42.4955 274.322 58.7086 272.293 61.3406C270.97 63.0778 263.439 73.8614 256.165 81.4867C246.825 91.2627 239.932 100.347 229.505 110.454C221.623 118.117 217.611 112.868 221.228 104.919Z" fill="#EB9481"/>
<path d="M267.239 66.4918C271.746 64.7622 285.418 55.2118 287.683 52.7754C289.948 50.3389 295.959 42.7286 294.227 40.8186C292.494 38.9085 290.556 40.984 290.556 40.984C290.556 40.984 292.836 37.0811 290.655 35.6222C288.922 34.4642 286.041 37.2466 286.041 37.2466C286.041 37.2466 288.321 32.8398 285.965 31.6667C283.83 30.5914 281.489 34.3739 281.489 34.3739C281.489 34.3739 283.009 30.4936 280.729 29.8619C278.016 29.1099 275.409 35.8027 272.673 38.3445C272.057 38.9235 254.76 49.256 254.76 49.256L267.239 66.4918Z" fill="#EB9481"/>
<path d="M281.383 34.1709C278.897 38.9987 277.727 40.9389 273.494 44.0221C273.41 44.0822 273.494 44.2176 273.57 44.1574C278.001 41.5029 279.559 39.3221 281.633 34.2536C281.732 34.0054 281.504 33.9453 281.383 34.1709Z" fill="#263238"/>
<path d="M285.988 37.239C283.48 42.1872 281.618 44.0597 277.4 47.6242C277.339 47.6768 277.4 47.7746 277.484 47.7294C281.899 44.5786 284.324 42.5482 286.14 37.2842C286.247 37.0435 286.102 37.0134 285.988 37.239Z" fill="#263238"/>
<path d="M290.32 41.1645C287.576 45.7818 285.653 48.0528 281.131 51.0006C281.114 51.0157 281.103 51.0362 281.099 51.0587C281.095 51.0812 281.1 51.1043 281.111 51.1239C281.123 51.1435 281.141 51.1585 281.163 51.1662C281.185 51.1739 281.209 51.1739 281.23 51.1661C286.14 48.6093 288.557 45.7968 290.457 41.2622C290.609 40.9539 290.517 40.8712 290.32 41.1645Z" fill="#263238"/>
<path d="M251.477 50.9781C251.477 50.9781 253.339 43.7213 260.3 41.0517C263.105 39.9688 267.034 31.7194 269.625 31.8848C272.521 32.0728 270.446 39.5402 266.92 43.5558C266.92 43.5558 271.624 50.9555 268.44 54.9712C267.748 55.8435 262.694 58.6034 261.433 58.3477L251.477 50.9781Z" fill="#EB9481"/>
<path d="M266.707 44.0898C268.645 46.9098 269.99 51.1886 268.614 54.3019C268.604 54.3199 268.602 54.341 268.608 54.3608C268.613 54.3805 268.627 54.3972 268.645 54.4072C268.663 54.4172 268.684 54.4196 268.704 54.414C268.724 54.4083 268.741 54.3951 268.751 54.3771C270.689 51.2413 269.169 46.2706 267.292 43.8491C266.927 43.3904 266.205 43.3678 266.707 44.0898Z" fill="#263238"/>
<path d="M226.541 138.985L225.355 145.181H186.595C186.595 145.181 192.675 113.755 206.849 104.43C213.948 99.7678 220.423 101.813 223.569 107.047C224.367 108.371 232.476 122.238 232.248 128.855C232.036 134.751 226.541 138.985 226.541 138.985Z" fill="#EB9481"/>
<path d="M232.256 128.885C232.051 134.382 227.194 138.458 226.594 138.947L188.807 136.428C189.688 133.375 190.828 129.795 192.28 126.103C196.034 126.237 199.793 126.068 203.52 125.599C205.169 125.291 208.84 119.854 213.537 120.41C218.234 120.967 222.931 125.599 222.931 125.599C224.992 123.416 227.665 121.889 230.607 121.215C231.61 124.08 232.332 126.84 232.256 128.885Z" fill="#263238"/>
<path d="M223.577 107.04C223.376 106.701 223.155 106.375 222.915 106.062C224.033 109.266 226.145 116.327 223.425 117.026C220.438 117.778 212.921 106.25 210.596 102.558C209.277 103.03 208.022 103.659 206.857 104.43C195.981 111.461 186.869 136.856 185.751 145.159H225.363L226.541 138.962C226.541 138.962 232.035 134.728 232.256 128.863C232.484 122.238 224.375 108.371 223.577 107.04ZM208.81 122.418C206.803 126.712 202.236 130.043 199.196 129.637C196.711 129.299 195.548 125.96 196.536 121.696C198.238 114.432 205.481 103.723 208.779 103.979C212.564 104.272 212.139 115.267 208.81 122.418Z" fill="#455A64"/>
<path d="M214.008 133.781C216.13 134.138 218.215 134.679 220.24 135.398C221.251 135.774 222.232 136.21 223.22 136.661C223.706 136.894 224.2 137.097 224.74 137.3C225.248 137.533 225.789 137.69 226.343 137.766C226.389 137.766 226.381 137.857 226.343 137.857C225.819 137.856 225.295 137.813 224.778 137.729C224.276 137.622 223.783 137.478 223.303 137.3C222.277 136.932 221.266 136.503 220.263 136.12C218.196 135.368 216.136 134.616 214.031 133.984C213.872 133.961 213.91 133.758 214.008 133.781Z" fill="#263238"/>
<path d="M208.627 135.706C210.386 135.589 212.151 135.589 213.909 135.706C214.791 135.774 215.657 135.901 216.531 136.052C216.942 136.127 217.36 136.21 217.77 136.3C218.181 136.39 218.667 136.571 219.123 136.661C219.176 136.661 219.169 136.759 219.123 136.751C218.69 136.676 218.241 136.699 217.808 136.653L216.493 136.533C215.619 136.458 214.745 136.39 213.864 136.3C212.116 136.12 210.368 135.969 208.612 135.864C208.513 135.871 208.536 135.706 208.627 135.706Z" fill="#263238"/>
<path d="M189.392 132.239C193.149 132.441 196.914 132.441 200.67 132.239C207.913 131.75 216.083 130.449 216.25 130.555C216.554 130.75 230.827 130.419 230.827 130.419L231.929 131.036L232.104 130.284L231.124 129.758C231.47 128.679 231.549 127.534 231.352 126.419C231.017 124.652 228.312 117.395 228.236 117.192C228.16 116.989 223.478 106.498 223.417 106.438C223.356 106.378 222.916 106.055 222.916 106.055L227.582 117.252C226.043 117.588 224.481 117.812 222.908 117.921C220.989 117.83 219.077 117.642 217.178 117.357C217.178 117.357 213.834 108.664 213.302 107.769C212.77 106.874 210.961 102.415 210.778 102.505C210.606 102.562 210.431 102.609 210.254 102.648C210.254 102.648 212.99 109.416 213.385 110.108C213.78 110.8 216.334 117.861 216.334 117.861C216.334 117.861 216.881 123.757 216.904 124.817C216.76 126.386 216.521 127.946 216.19 129.487C216.19 129.487 208.058 130.668 200.876 131.277C194.887 131.796 189.643 131.765 189.567 131.765C189.491 131.765 189.392 132.239 189.392 132.239Z" fill="white"/>
<path d="M220.849 120.967L221.191 128.216C221.191 128.6 221.001 128.9 220.742 128.915C220.484 128.93 220.263 128.645 220.248 128.261L219.959 122.245L219.633 122.538C219.572 122.605 219.487 122.646 219.397 122.651C219.303 122.644 219.213 122.61 219.139 122.552C219.064 122.495 219.009 122.417 218.979 122.328C218.903 122.179 218.874 122.01 218.894 121.845C218.914 121.679 218.983 121.522 219.093 121.395L220.096 120.448C220.096 120.448 220.096 120.448 220.142 120.448H220.187C220.187 120.448 220.187 120.448 220.225 120.448C220.245 120.44 220.267 120.44 220.286 120.448H220.4C220.4 120.448 220.438 120.448 220.453 120.448H220.491C220.491 120.448 220.529 120.485 220.545 120.485C220.557 120.488 220.57 120.488 220.583 120.485V120.523C220.583 120.523 220.583 120.523 220.621 120.568C220.659 120.613 220.621 120.568 220.621 120.621L220.659 120.666C220.659 120.666 220.659 120.704 220.659 120.726C220.659 120.749 220.659 120.779 220.659 120.786C220.66 120.806 220.66 120.826 220.659 120.846C220.647 120.875 220.647 120.908 220.659 120.937L220.849 120.967Z" fill="#263238"/>
<path d="M223.698 120.831L224.048 128.088C224.048 128.464 223.858 128.772 223.6 128.788C223.341 128.803 223.121 128.509 223.098 128.126L222.817 122.11L222.482 122.411C222.454 122.443 222.419 122.469 222.38 122.488C222.341 122.506 222.298 122.515 222.254 122.516C222.159 122.512 222.068 122.478 221.993 122.421C221.918 122.363 221.863 122.283 221.836 122.192C221.759 122.044 221.727 121.876 221.746 121.71C221.765 121.544 221.833 121.387 221.943 121.26L222.953 120.32C222.953 120.32 222.954 120.32 222.992 120.32H223.045C223.064 120.314 223.086 120.314 223.106 120.32H223.235C223.243 120.316 223.252 120.315 223.261 120.315C223.27 120.315 223.279 120.316 223.288 120.32C223.288 120.32 223.326 120.32 223.341 120.32L223.379 120.358L223.417 120.41C223.42 120.425 223.42 120.44 223.417 120.455L223.455 120.5C223.455 120.5 223.455 120.5 223.455 120.538C223.459 120.558 223.459 120.578 223.455 120.598C223.457 120.618 223.457 120.638 223.455 120.658C223.455 120.658 223.455 120.704 223.455 120.719C223.45 120.746 223.45 120.774 223.455 120.801L223.698 120.831Z" fill="#263238"/>
<path d="M228.616 120.861L226.83 128.231C226.769 128.487 226.609 128.645 226.412 128.652C226.348 128.657 226.285 128.644 226.229 128.615C226.101 128.512 226.005 128.376 225.953 128.221C225.9 128.067 225.893 127.9 225.933 127.742L227.453 121.35L225.256 121.448C224.998 121.448 224.77 121.147 224.755 120.779C224.74 120.41 224.937 120.094 225.188 120.087L228.114 119.952C228.141 119.945 228.17 119.945 228.198 119.952C228.264 119.969 228.326 120 228.38 120.042V120.079C228.385 120.094 228.385 120.11 228.38 120.124L228.418 120.17V120.222C228.419 120.242 228.419 120.262 228.418 120.282V120.343C228.418 120.343 228.418 120.388 228.418 120.403C228.415 120.423 228.415 120.443 228.418 120.463C228.426 120.553 228.426 120.644 228.418 120.734C228.623 120.786 228.623 120.824 228.616 120.861Z" fill="#263238"/>
<path d="M213.492 103.024C213.636 103.874 217.337 109.574 221.228 109.642C222.49 109.642 222.908 102.828 222.908 102.828L223.052 102.325L225.104 95.3611L217.056 89.488L215.886 88.736C215.886 88.736 215.452 90.6762 214.936 93.1051C214.936 93.2179 214.89 93.3307 214.86 93.451C214.829 93.5714 214.799 93.7142 214.776 93.8421C214.693 94.203 214.609 94.5941 214.533 94.94C214.457 95.2859 214.419 95.4965 214.373 95.7898C214.328 96.083 214.267 96.3763 214.206 96.6771C213.824 98.7745 213.586 100.895 213.492 103.024Z" fill="#EB9481"/>
<path d="M214.936 93.0901C215.53 95.12 216.564 96.9976 217.966 98.5923C219.367 100.187 221.103 101.461 223.052 102.325L225.104 95.3611L217.056 89.488L215.886 88.736C215.886 88.736 215.452 90.6611 214.936 93.0901Z" fill="#263238"/>
<path d="M231.078 78.9976C237.378 90.1122 231.359 95.0979 228.935 96.4365C226.738 97.6547 219.055 101.528 211.667 91.1198C204.28 80.7122 207.472 74.2976 212.359 71.252C217.246 68.2064 224.777 67.8906 231.078 78.9976Z" fill="#EB9481"/>
<path d="M228 78.0877C227.725 78.1935 227.443 78.2814 227.157 78.3509C226.87 78.486 226.547 78.523 226.237 78.4562C226.144 78.4172 226.067 78.3489 226.017 78.2618C225.968 78.1747 225.949 78.0738 225.963 77.9749C226.025 77.7871 226.135 77.6187 226.283 77.4867C226.431 77.3547 226.612 77.2636 226.807 77.2229C227.194 77.0765 227.621 77.0765 228.008 77.2229C228.089 77.2632 228.158 77.3253 228.205 77.4021C228.253 77.479 228.278 77.5675 228.277 77.6576C228.276 77.7477 228.25 77.8358 228.201 77.9119C228.152 77.9879 228.082 78.0488 228 78.0877Z" fill="#263238"/>
<path d="M220.651 82.2312C220.892 82.0597 221.121 81.8712 221.335 81.6672C221.606 81.5062 221.814 81.26 221.927 80.9678C221.946 80.8686 221.93 80.7661 221.881 80.6772C221.833 80.5883 221.755 80.5184 221.661 80.479C221.468 80.4222 221.262 80.4188 221.066 80.4691C220.871 80.5195 220.693 80.6217 220.552 80.7648C220.213 81.0032 219.979 81.3611 219.898 81.765C219.885 81.8569 219.899 81.9506 219.939 82.0348C219.979 82.1189 220.042 82.1899 220.122 82.2392C220.201 82.2885 220.294 82.314 220.387 82.3125C220.481 82.3111 220.573 82.2829 220.651 82.2312Z" fill="#263238"/>
<path d="M226.807 89.7286C227.076 89.8734 227.387 89.9213 227.688 89.864C227.984 89.7231 228.244 89.5174 228.448 89.2624C228.448 89.2624 228.509 89.2624 228.501 89.2624C228.468 89.4673 228.38 89.6596 228.246 89.8196C228.113 89.9796 227.939 90.1013 227.741 90.1723C227.56 90.2071 227.372 90.1877 227.202 90.1168C227.031 90.0458 226.886 89.9265 226.784 89.7738C226.708 89.7587 226.761 89.7136 226.807 89.7286Z" fill="#263238"/>
<path d="M228.464 85.2242C228.464 85.2242 229.262 86.2694 229.558 86.8034C229.558 86.8485 229.475 86.9462 229.292 87.059C228.874 87.3994 228.369 87.6188 227.832 87.6931C227.296 87.7675 226.749 87.6938 226.252 87.4802C226.241 87.4716 226.234 87.4601 226.23 87.4471C226.226 87.4341 226.226 87.4202 226.23 87.4072C226.234 87.3942 226.242 87.3827 226.253 87.3743C226.263 87.3658 226.276 87.3608 226.29 87.3598C227.239 87.4474 228.191 87.2284 229.003 86.7357C228.958 86.5702 227.582 84.991 227.666 84.9384C228.104 84.7448 228.567 84.6107 229.041 84.5398C227.453 82.2838 225.515 80.3587 223.965 78.1253C223.951 78.109 223.945 78.0885 223.947 78.0677C223.948 78.047 223.957 78.0275 223.973 78.0133C223.988 77.9991 224.008 77.9911 224.029 77.9909C224.05 77.9908 224.071 77.9985 224.086 78.0125C226.229 80.0431 228.161 82.2801 229.855 84.6902C230.067 84.976 228.76 85.1941 228.464 85.2242Z" fill="#263238"/>
<path d="M228.661 87.232C228.575 87.7276 228.363 88.1934 228.045 88.5856C227.864 88.7927 227.623 88.9397 227.354 89.0067C226.769 89.1421 226.503 88.6834 226.381 88.2547C226.314 88.0096 226.281 87.7566 226.282 87.5027C227.084 87.6685 227.918 87.5735 228.661 87.232Z" fill="#263238"/>
<path d="M228.046 88.5706C227.864 88.7777 227.623 88.9247 227.354 88.9917C226.769 89.127 226.503 88.6683 226.381 88.2397C226.656 88.104 226.969 88.0628 227.271 88.1228C227.572 88.1827 227.845 88.3402 228.046 88.5706Z" fill="#FF9CBD"/>
<path d="M222.247 84.788C222.245 84.8942 222.222 84.999 222.179 85.0963C222.151 85.1774 222.105 85.2512 222.044 85.3124C221.984 85.3736 221.91 85.4205 221.829 85.4498C221.327 85.6453 220.864 85.2542 220.583 84.788C220.583 84.788 220.583 84.7278 220.583 84.7429C220.909 84.8858 221.274 85.0211 221.525 84.8406C221.683 84.6811 221.791 84.4802 221.837 84.2616C221.955 84.45 222.093 84.6264 222.247 84.788Z" fill="#263238"/>
<path d="M221.92 84.788C221.825 84.5492 221.798 84.2888 221.844 84.036C221.874 83.9023 221.932 83.7761 222.013 83.665C222.094 83.5538 222.197 83.46 222.315 83.3893C222.441 83.3265 222.581 83.2937 222.722 83.2937C222.863 83.2937 223.002 83.3265 223.129 83.3893C223.352 83.4931 223.547 83.6477 223.699 83.8405C223.789 83.9542 223.87 84.0749 223.942 84.2014C224.098 84.4626 224.192 84.756 224.215 85.0587C224.114 84.8649 223.995 84.6811 223.858 84.5098C223.731 84.3556 223.594 84.2099 223.448 84.0736C223.151 83.8029 222.794 83.6374 222.536 83.8029C222.39 83.8978 222.282 84.0392 222.23 84.2035C222.177 84.3677 222.183 84.5449 222.247 84.7053C222.344 85.1138 222.481 85.5118 222.657 85.8934C222.326 85.5883 222.073 85.2093 221.92 84.788Z" fill="#263238"/>
<path d="M229.17 80.5242C229.263 80.5747 229.363 80.6127 229.467 80.637C229.551 80.6565 229.639 80.658 229.724 80.6411C229.809 80.6242 229.89 80.5895 229.961 80.5392C230.146 80.3604 230.261 80.1214 230.283 79.866C230.305 79.6106 230.234 79.3557 230.082 79.148C230.082 79.148 230.037 79.0954 230.029 79.148C229.968 79.5014 229.885 79.9 229.596 79.9827C229.374 80.0294 229.144 80.0085 228.935 79.9226C229.036 80.1134 229.115 80.3153 229.17 80.5242Z" fill="#263238"/>
<path d="M229.337 80.261C229.187 80.0642 228.988 79.9089 228.76 79.8098C228.63 79.7619 228.492 79.7405 228.353 79.747C228.215 79.7534 228.079 79.7876 227.954 79.8474C227.83 79.9135 227.723 80.0068 227.642 80.1202C227.56 80.2337 227.506 80.3641 227.483 80.5016C227.446 80.7541 227.469 81.0117 227.551 81.2536C227.605 81.389 227.665 81.5243 227.726 81.6522C227.865 81.9242 228.065 82.1609 228.311 82.344C228.196 82.1554 228.104 81.9533 228.038 81.7424C227.972 81.5561 227.921 81.365 227.886 81.1709C227.825 80.7723 227.886 80.4189 228.159 80.2685C228.319 80.2006 228.498 80.189 228.665 80.2355C228.832 80.282 228.978 80.3839 229.079 80.5242C229.366 80.826 229.62 81.1561 229.839 81.5093C229.776 81.0593 229.604 80.631 229.337 80.261Z" fill="#263238"/>
<path d="M217.162 72.192C217.931 73.0306 218.426 74.0788 218.584 75.2C218.705 78.3885 215.247 79.3285 214.723 80.8851C214.198 82.4418 215.612 84.1262 215.217 85.54C214.662 87.4952 213.317 86.9989 213.583 87.984C213.849 88.9691 214.738 92.0824 213.796 93.0299C212.853 93.9774 197.737 77.9899 212.884 70.9061C212.884 70.9061 214.487 68.8907 218.477 68.9584C224.2 69.0562 228 74.448 228 74.448C227.433 74.599 226.84 74.6297 226.26 74.5382C225.218 74.2901 224.61 74.0043 223.873 73.869C222.71 73.6659 222.444 74.3803 221.259 74.2074C219.427 73.9291 217.162 72.192 217.162 72.192Z" fill="#263238"/>
<path d="M216.691 71.6054C217.311 72.2153 217.856 72.8941 218.318 73.6283C218.811 74.3192 219.103 75.1308 219.161 75.9746C219.103 76.8203 218.733 77.6153 218.12 78.208C217.55 78.8322 216.813 79.3059 216.212 80.0053C215.901 80.3623 215.693 80.7964 215.612 81.2611C215.575 81.7183 215.629 82.1782 215.772 82.6147C216.084 83.3955 216.173 84.2461 216.03 85.0738C215.925 85.4728 215.736 85.845 215.473 86.1654C215.211 86.4858 214.883 86.7469 214.51 86.9312C213.75 87.3222 212.823 87.5403 212.268 88.2472C212.884 87.5854 213.788 87.4952 214.594 87.1117C215.016 86.9348 215.394 86.6679 215.7 86.3299C216.006 85.9919 216.233 85.5912 216.364 85.1565C216.564 84.2767 216.495 83.3581 216.167 82.517C216.045 82.128 215.999 81.7198 216.03 81.3138C216.11 80.9224 216.294 80.5591 216.562 80.261C217.094 79.6218 217.831 79.1254 218.432 78.4562C218.742 78.1241 218.999 77.746 219.192 77.3357C219.403 76.9242 219.505 76.466 219.488 76.0046C219.393 75.1119 219.048 74.263 218.492 73.5531C217.974 72.8345 217.369 72.1805 216.691 71.6054Z" fill="#263238"/>
<path d="M217.36 72.1243C217.88 72.7532 218.483 73.3097 219.153 73.7787C219.835 74.2827 220.652 74.5758 221.502 74.621C221.916 74.6164 222.328 74.5711 222.733 74.4856C223.099 74.4226 223.475 74.4616 223.82 74.5984C224.169 74.8106 224.538 74.9894 224.922 75.1323C225.323 75.2431 225.744 75.2611 226.153 75.185C225.755 75.1805 225.362 75.096 224.998 74.9368C224.635 74.7665 224.292 74.5598 223.972 74.3202C223.577 74.1159 223.128 74.0396 222.687 74.1021C222.302 74.1747 221.91 74.2125 221.517 74.2149C220.737 74.1536 219.986 73.8946 219.336 73.4629C218.649 73.0583 217.989 72.6112 217.36 72.1243Z" fill="#263238"/>
<path d="M214.244 90.6536C214.244 90.6536 210.155 87.9765 208.833 89.5632C207.51 91.1499 211.607 95.7371 213.894 95.692C214.187 95.7062 214.48 95.6616 214.755 95.5608C215.03 95.4601 215.282 95.3053 215.495 95.1057C215.708 94.9062 215.878 94.666 215.995 94.3998C216.112 94.1335 216.173 93.8466 216.174 93.5563L214.244 90.6536Z" fill="#EB9481"/>
<path d="M210.041 90.8491C210.003 90.8491 210.041 90.9093 210.041 90.9093C211.66 90.9093 212.906 91.917 213.955 93.0374C213.819 92.9307 213.661 92.8546 213.492 92.8143C213.322 92.774 213.147 92.7706 212.976 92.8042C212.805 92.8378 212.644 92.9077 212.504 93.009C212.363 93.1103 212.246 93.2406 212.162 93.3909C212.162 93.436 212.162 93.4736 212.23 93.451C212.443 93.2825 212.702 93.1821 212.973 93.1633C213.245 93.1445 213.516 93.2081 213.75 93.3458C214.144 93.5872 214.511 93.8695 214.845 94.188C214.959 94.2858 215.156 94.1278 215.05 94.0075C214.388 92.2027 212.04 90.2776 210.041 90.8491Z" fill="#263238"/>
<path d="M232.56 82.1034C233.368 83.7061 233.858 85.4469 234.004 87.232C234.08 88.1306 234.042 89.035 233.89 89.9242C233.816 90.371 233.714 90.8129 233.586 91.2477C233.442 91.681 233.272 92.1054 233.077 92.5186C232.675 93.3349 232.164 94.0938 231.557 94.7746C230.934 95.4347 230.226 96.0112 229.452 96.4891C227.905 97.4289 226.148 97.9765 224.337 98.0834C225.213 97.926 226.07 97.6738 226.891 97.3314C228.526 96.6996 229.991 95.7008 231.169 94.4136C231.743 93.7702 232.223 93.0515 232.598 92.2779C233.349 90.7146 233.694 88.9906 233.601 87.2621C233.582 86.3902 233.483 85.5218 233.305 84.6677C233.125 83.7949 232.876 82.9375 232.56 82.1034Z" fill="#263238"/>
<path d="M204.258 114.364C204.075 114.071 203.893 113.778 203.703 113.484C204.889 114.672 206.12 115.8 207.397 116.891C207.397 116.891 207.473 116.891 207.442 116.846C206.188 115.417 204.911 114.018 203.581 112.657C202.951 112.018 202.343 111.356 201.689 110.732C201.035 110.108 200.169 109.371 199.5 108.634C199.417 108.544 199.272 108.634 199.356 108.747C200.017 109.446 200.61 110.206 201.248 110.935C201.887 111.664 202.388 112.168 202.981 112.762C203.093 112.994 203.217 113.22 203.353 113.439C203.581 113.793 203.809 114.139 204.06 114.477C204.562 115.146 205.094 115.8 205.58 116.455C205.139 115.808 204.691 115.056 204.258 114.364Z" fill="#263238"/>
<path d="M209.319 103.866C203.505 91.0822 198.634 81.8552 189.916 66.7325C185.356 58.859 179.626 49.4365 177.597 46.0374C174.929 41.5931 155.853 58.7688 158.012 61.6038C159.41 63.4538 164.046 69.4246 172.231 79.0202C181.564 89.9467 189.468 99.0384 200.541 109.777C208.901 117.876 213.165 112.304 209.319 103.866Z" fill="#EB9481"/>
<path d="M162.731 65.8902C157.943 64.0554 143.435 53.9485 141.025 51.324C138.616 48.6995 132.24 40.6682 134.079 38.6378C135.918 36.6074 137.978 38.8107 137.978 38.8107C137.978 38.8107 135.561 34.6672 137.871 33.1181C139.711 31.8848 142.766 34.8402 142.766 34.8402C142.766 34.8402 140.364 30.1627 142.849 28.9144C145.129 27.7789 147.607 31.787 147.607 31.787C147.607 31.787 145.996 27.6736 148.367 26.9893C151.247 26.1771 154.037 33.3061 156.917 36.0133C157.571 36.6299 175.917 47.5941 175.917 47.5941L162.731 65.8902Z" fill="#EB9481"/>
<path d="M147.706 31.584C150.351 36.7126 151.597 38.7581 156.066 42.0443C156.15 42.1045 156.066 42.2474 155.975 42.1872C151.27 39.3672 149.621 37.051 147.417 31.6592C147.341 31.4035 147.584 31.3358 147.706 31.584Z" fill="#263238"/>
<path d="M142.827 34.8326C145.449 40.0966 147.463 42.0744 151.947 45.857C152.007 45.9096 151.947 46.0224 151.855 45.9773C147.174 42.6234 144.59 40.4651 142.667 34.8778C142.545 34.6296 142.705 34.592 142.827 34.8326Z" fill="#263238"/>
<path d="M138.199 38.9987C141.109 43.9018 143.154 46.3157 147.957 49.444C147.978 49.4596 147.992 49.4821 147.997 49.5073C148.002 49.5324 147.997 49.5586 147.984 49.5807C147.971 49.6029 147.95 49.6196 147.926 49.6276C147.901 49.6357 147.874 49.6346 147.851 49.6245C142.637 46.9098 140.068 43.9168 138.054 39.0965C137.917 38.7731 138.016 38.6904 138.199 38.9987Z" fill="#263238"/>
<path d="M179.466 49.4214C179.466 49.4214 177.49 41.7134 170.103 38.8934C167.116 37.7504 162.944 28.9896 160.223 29.1626C157.183 29.3656 159.349 37.2917 163.096 41.5555C163.096 41.5555 158.095 49.4064 161.5 53.6778C162.26 54.6027 167.58 57.528 168.933 57.2648L179.466 49.4214Z" fill="#EB9481"/>
<path d="M163.294 42.112C161.242 45.12 159.805 49.632 161.272 52.9483C161.283 52.9683 161.286 52.9917 161.279 53.0136C161.273 53.0355 161.258 53.0539 161.238 53.0649C161.218 53.0758 161.194 53.0784 161.172 53.0721C161.15 53.0658 161.131 53.051 161.12 53.031C159.068 49.6997 160.679 44.4206 162.678 41.8563C163.058 41.36 163.826 41.36 163.294 42.112Z" fill="#263238"/>
<path d="M225.386 146.858C216.174 142.519 189.787 133.653 171.76 129.344C155.625 125.501 138.951 131.044 122.831 136.398C112.64 139.782 103.018 142.978 93.6852 143.828C57.0608 147.166 45.0984 121.418 44.2852 120.32L51.0492 121.989L52.2424 114.515C52.9264 115.432 61.8792 136.909 92.7884 134.067C100.974 133.315 110.063 130.307 119.692 127.103C136.329 121.576 155.184 115.312 174.078 119.809C192.766 124.253 221.441 133.089 228.152 137.428L225.386 146.858Z" fill="#C31F82"/>
<path d="M97.4092 336.069L104.515 334.798C104.515 334.798 96.9152 327.128 101.589 322.405C106.263 317.682 113.24 321.856 113.24 321.856C113.24 321.856 112.153 310.629 120.931 308.282C129.709 305.936 137.423 322.713 137.423 322.713C137.423 322.713 138.715 318.773 145.266 320.322C151.818 321.871 156.993 330.7 156.993 330.7L291.673 336.001" fill="white"/>
<path d="M97.4092 336.069L104.508 334.768V334.82C102.953 333.221 101.689 331.369 100.768 329.346C100.307 328.327 100.048 327.229 100.008 326.112C99.9813 324.979 100.334 323.868 101.012 322.954C101.345 322.503 101.736 322.096 102.174 321.743C102.611 321.384 103.088 321.076 103.596 320.826C104.616 320.342 105.732 320.085 106.864 320.074C109.127 320.081 111.351 320.669 113.316 321.781L113.126 321.901C113.009 320.212 113.121 318.515 113.46 316.855C113.778 315.186 114.412 313.591 115.33 312.155C116.033 311.079 116.952 310.156 118.029 309.444C119.106 308.731 120.318 308.244 121.592 308.012C122.453 307.871 123.333 307.897 124.184 308.087C125.869 308.503 127.432 309.307 128.744 310.433C130.052 311.521 131.241 312.741 132.293 314.073C134.381 316.738 136.165 319.623 137.613 322.676H137.294C137.729 321.675 138.526 320.87 139.528 320.42C140.506 319.985 141.573 319.781 142.644 319.826C144.771 319.872 146.845 320.485 148.648 321.6C150.42 322.721 152.02 324.089 153.398 325.661C154.792 327.21 156.041 328.882 157.13 330.654L157.031 330.594L291.711 336.016L157.024 330.827H156.963V330.775C155.879 329.017 154.632 327.363 153.239 325.834C151.874 324.287 150.289 322.945 148.534 321.848C146.773 320.765 144.748 320.172 142.675 320.134C141.652 320.093 140.634 320.292 139.703 320.713C138.786 321.127 138.057 321.864 137.659 322.781L137.507 323.142L137.34 322.796C135.887 319.776 134.103 316.924 132.02 314.291C130.99 312.975 129.824 311.77 128.539 310.696C127.278 309.601 125.777 308.813 124.154 308.395C123.316 308.204 122.448 308.179 121.6 308.32C120.782 308.466 119.987 308.718 119.236 309.072C117.722 309.786 116.437 310.903 115.528 312.298C114.627 313.704 114.003 315.265 113.688 316.9C113.349 318.532 113.229 320.201 113.331 321.864V322.097L113.126 321.984C111.205 320.887 109.029 320.301 106.81 320.284C105.706 320.301 104.619 320.558 103.626 321.036C102.639 321.52 101.778 322.222 101.11 323.089C100.462 323.96 100.121 325.016 100.138 326.097C100.161 327.192 100.399 328.272 100.837 329.278C101.732 331.297 102.969 333.151 104.492 334.76L104.538 334.805H104.477L97.4092 336.069Z" fill="#263238"/>
<path d="M187.15 140.902C183.35 141.053 179.55 141.128 175.75 141.188C171.95 141.248 168.15 141.248 164.35 141.278C160.55 141.308 156.75 141.278 152.95 141.188L147.242 141.083C145.342 141.023 143.442 140.985 141.542 140.902C143.442 140.82 145.342 140.782 147.242 140.714L152.95 140.609C156.75 140.549 160.55 140.556 164.35 140.526C168.15 140.496 171.95 140.526 175.75 140.616C179.55 140.707 183.342 140.744 187.15 140.902Z" fill="#263238"/>
<path d="M245.868 51.7677C242.068 51.9181 238.268 51.9933 234.468 52.0534C230.668 52.1136 226.868 52.1061 223.068 52.1362C219.268 52.1662 215.468 52.1362 211.668 52.0534L205.96 51.9482C204.06 51.888 202.16 51.8504 200.252 51.7677C202.16 51.6774 204.052 51.6398 205.96 51.5797L211.668 51.4744C215.468 51.4142 219.268 51.4142 223.068 51.3917C226.868 51.3691 230.668 51.3917 234.468 51.4744C238.268 51.5571 242.06 51.6098 245.868 51.7677Z" fill="#263238"/>
<path d="M251.856 56.3248C249.363 56.4827 246.878 56.5504 244.385 56.6106C241.893 56.6707 239.407 56.6933 236.922 56.7008C234.437 56.7083 231.937 56.7008 229.451 56.6181L225.72 56.5128C224.481 56.4451 223.235 56.415 221.988 56.3248C223.235 56.2421 224.481 56.2045 225.72 56.1443L229.459 56.039C231.944 55.9714 234.437 55.9563 236.93 55.9488C239.423 55.9413 241.908 55.9488 244.393 56.039C246.878 56.1293 249.363 56.1744 251.856 56.3248Z" fill="#263238"/>
<path d="M89.0189 195.67C85.6825 195.821 82.3385 195.896 79.0021 195.956C75.6657 196.016 72.3217 196.016 68.9853 196.046C65.6489 196.076 62.3049 196.046 58.9609 195.956L53.9601 195.851C52.2881 195.791 50.6161 195.753 48.9517 195.67C50.6161 195.588 52.2881 195.55 53.9601 195.482L58.9685 195.377C62.3125 195.317 65.6489 195.324 68.9929 195.294C72.3369 195.264 75.6733 195.294 79.0097 195.385C82.3461 195.475 85.6825 195.52 89.0189 195.67Z" fill="#263238"/>
<path d="M111.097 188.895C107.753 189.045 104.416 189.12 101.072 189.181C97.7282 189.241 94.3918 189.241 91.0554 189.271C87.719 189.301 84.375 189.271 81.031 189.181L76.0226 189.075C74.3506 189.015 72.6862 188.978 71.0142 188.895C72.6862 188.805 74.3506 188.775 76.0226 188.707L81.031 188.602C84.375 188.541 87.7114 188.549 91.0554 188.519C94.3994 188.489 97.7358 188.519 101.072 188.602C104.409 188.684 107.753 188.752 111.097 188.895Z" fill="#263238"/>
<path d="M193.997 150.58C188.677 150.738 183.357 150.806 178.037 150.866L162.077 150.956L146.117 150.874L138.153 150.768C135.493 150.701 132.833 150.671 130.18 150.58C132.84 150.498 135.5 150.46 138.153 150.4L146.117 150.295L162.077 150.204L178.037 150.295C183.38 150.355 188.685 150.4 193.997 150.58Z" fill="#263238"/>
<path d="M275.553 322.533C271.707 322.691 267.862 322.758 264.016 322.819C260.171 322.879 256.317 322.879 252.472 322.909C248.626 322.939 244.781 322.909 240.935 322.819L235.159 322.713C233.236 322.653 231.313 322.616 229.391 322.533C231.313 322.45 233.236 322.412 235.159 322.345L240.935 322.24C244.781 322.187 248.626 322.187 252.472 322.157C256.317 322.127 260.171 322.157 264.016 322.247C267.862 322.337 271.707 322.375 275.553 322.533Z" fill="#263238"/>
<path d="M264.373 327.443C258.939 327.601 253.498 327.677 248.064 327.737L231.747 327.819L215.437 327.737L207.282 327.631C204.561 327.571 201.848 327.534 199.127 327.443C201.848 327.361 204.561 327.323 207.282 327.263L215.437 327.158L231.747 327.067L248.064 327.158C253.498 327.218 258.939 327.293 264.373 327.443Z" fill="#263238"/>
<path d="M161.401 144.572C156.841 144.722 152.228 144.798 147.645 144.858C143.063 144.918 138.472 144.91 133.889 144.948C129.307 144.986 124.716 144.948 120.126 144.858L113.248 144.752C110.968 144.692 108.688 144.655 106.408 144.572C108.688 144.482 110.968 144.444 113.248 144.384L120.126 144.279C124.686 144.219 129.299 144.226 133.889 144.196C138.48 144.166 143.055 144.196 147.645 144.279C152.236 144.361 156.819 144.384 161.401 144.572Z" fill="#263238"/>
</svg>
