<svg width="380" height="376" viewBox="0 0 380 376" fill="none" xmlns="http://www.w3.org/2000/svg">
<g clip-path="url(#clip0_1_9671)">
<path d="M49.5976 262.35L70.8244 258.801L89.1936 240.294L122.048 274.096L144.772 260.124L160.801 273.021L192.204 238.88L216.912 236.617L243.405 197.829L272.194 226.367L289.195 200.333L299.805 198.829L313.91 172.96L341.468 218.088L380 376H0L49.5976 262.35Z" fill="#DBDBDB"/>
<path d="M53.314 311.892L52.8428 311.298L84.7856 286.647L131.366 282.699L131.427 282.714L172.619 293.513L208.628 262.583L208.742 262.568L259.19 255.394L296.81 230.353L314.245 191.008L314.936 191.309L297.418 230.856L297.327 230.917L259.472 256.116L259.388 256.131L208.962 263.298L172.816 294.348L172.619 294.295L131.298 283.459L85.0744 287.377L53.314 311.892Z" fill="white"/>
<path d="M50.4033 315.75C52.8294 315.75 54.7961 313.804 54.7961 311.403C54.7961 309.003 52.8294 307.057 50.4033 307.057C47.9772 307.057 46.0105 309.003 46.0105 311.403C46.0105 313.804 47.9772 315.75 50.4033 315.75Z" fill="#DBDBDB"/>
<path d="M50.4032 316.126C49.4571 316.127 48.5318 315.851 47.7445 315.332C46.9572 314.813 46.3433 314.074 45.9806 313.209C45.6178 312.345 45.5225 311.393 45.7067 310.475C45.8909 309.556 46.3464 308.713 47.0154 308.051C47.6844 307.389 48.5369 306.938 49.4649 306.756C50.3929 306.574 51.3547 306.668 52.2285 307.027C53.1023 307.386 53.8489 307.993 54.3736 308.772C54.8983 309.551 55.1775 310.467 55.176 311.403C55.174 312.655 54.6705 313.855 53.7759 314.74C52.8813 315.626 51.6684 316.124 50.4032 316.126ZM50.4032 307.425C49.6077 307.424 48.8297 307.656 48.1675 308.092C47.5054 308.528 46.9889 309.149 46.6835 309.876C46.378 310.602 46.2973 311.402 46.4516 312.175C46.6058 312.947 46.9881 313.656 47.5501 314.213C48.112 314.771 48.8284 315.15 49.6085 315.304C50.3886 315.458 51.1973 315.38 51.9324 315.079C52.6675 314.778 53.2958 314.268 53.7379 313.614C54.18 312.96 54.416 312.19 54.416 311.403C54.416 310.349 53.9935 309.339 53.2412 308.593C52.4888 307.847 51.4682 307.427 50.4032 307.425Z" fill="white"/>
<path d="M84.7248 291.355C87.1509 291.355 89.1176 289.409 89.1176 287.008C89.1176 284.608 87.1509 282.662 84.7248 282.662C82.2988 282.662 80.332 284.608 80.332 287.008C80.332 289.409 82.2988 291.355 84.7248 291.355Z" fill="#DBDBDB"/>
<path d="M84.7247 291.776C83.7789 291.776 82.8544 291.498 82.0681 290.978C81.2818 290.458 80.6691 289.719 80.3075 288.854C79.9459 287.99 79.8517 287.038 80.0367 286.12C80.2218 285.203 80.6779 284.36 81.3472 283.699C82.0165 283.037 82.869 282.587 83.7968 282.406C84.7246 282.224 85.686 282.319 86.5594 282.678C87.4328 283.037 88.1788 283.645 88.7032 284.423C89.2275 285.202 89.5066 286.118 89.5051 287.053C89.5031 288.307 88.9986 289.508 88.1023 290.393C87.206 291.279 85.9913 291.776 84.7247 291.776ZM84.7247 283.075C83.9296 283.075 83.1523 283.309 82.4911 283.746C81.83 284.183 81.3147 284.804 81.0104 285.531C80.7061 286.258 80.6265 287.058 80.7816 287.83C80.9367 288.601 81.3196 289.31 81.8819 289.866C82.4441 290.423 83.1605 290.802 83.9404 290.955C84.7203 291.109 85.5286 291.03 86.2633 290.729C86.9979 290.428 87.6258 289.918 88.0676 289.264C88.5093 288.609 88.7451 287.84 88.7451 287.053C88.7502 286.528 88.6499 286.007 88.4501 285.52C88.2503 285.033 87.9549 284.59 87.5811 284.216C87.2073 283.843 86.7624 283.546 86.2721 283.344C85.7818 283.142 85.2559 283.038 84.7247 283.038V283.075Z" fill="white"/>
<path d="M135.728 282.421C135.73 283.283 135.473 284.126 134.99 284.843C134.507 285.56 133.82 286.119 133.015 286.45C132.211 286.78 131.326 286.867 130.471 286.699C129.617 286.532 128.832 286.117 128.216 285.507C127.6 284.898 127.181 284.122 127.012 283.276C126.842 282.431 126.93 281.555 127.264 280.759C127.598 279.963 128.163 279.283 128.888 278.805C129.613 278.327 130.465 278.073 131.335 278.075C132.501 278.075 133.618 278.533 134.442 279.348C135.265 280.163 135.728 281.268 135.728 282.421Z" fill="#DBDBDB"/>
<path d="M131.336 287.144C130.392 287.144 129.469 286.867 128.684 286.348C127.899 285.829 127.287 285.091 126.926 284.228C126.565 283.365 126.47 282.416 126.654 281.5C126.839 280.584 127.293 279.742 127.961 279.082C128.628 278.421 129.479 277.972 130.404 277.789C131.33 277.607 132.29 277.701 133.162 278.058C134.034 278.415 134.78 279.021 135.304 279.797C135.828 280.574 136.108 281.487 136.108 282.421C136.106 283.673 135.603 284.873 134.708 285.758C133.814 286.644 132.601 287.142 131.336 287.144ZM131.336 278.451C130.542 278.451 129.766 278.683 129.106 279.12C128.446 279.556 127.932 280.176 127.628 280.902C127.324 281.627 127.245 282.426 127.4 283.196C127.555 283.966 127.937 284.673 128.498 285.229C129.059 285.784 129.774 286.162 130.553 286.315C131.331 286.469 132.138 286.39 132.871 286.089C133.604 285.789 134.231 285.28 134.672 284.627C135.113 283.974 135.348 283.206 135.348 282.421C135.346 281.369 134.923 280.36 134.171 279.616C133.419 278.872 132.399 278.453 131.336 278.451Z" fill="white"/>
<path d="M172.512 298.379C174.939 298.379 176.905 296.433 176.905 294.032C176.905 291.631 174.939 289.685 172.512 289.685C170.086 289.685 168.12 291.631 168.12 294.032C168.12 296.433 170.086 298.379 172.512 298.379Z" fill="#DBDBDB"/>
<path d="M172.52 298.755C171.574 298.756 170.649 298.48 169.861 297.961C169.074 297.441 168.46 296.703 168.097 295.838C167.735 294.973 167.639 294.022 167.823 293.104C168.008 292.185 168.463 291.342 169.132 290.68C169.801 290.018 170.654 289.567 171.582 289.385C172.51 289.203 173.471 289.297 174.345 289.656C175.219 290.015 175.966 290.622 176.49 291.401C177.015 292.18 177.294 293.096 177.293 294.032C177.291 295.284 176.787 296.484 175.893 297.369C174.998 298.254 173.785 298.753 172.52 298.755ZM172.52 290.054C171.724 290.052 170.946 290.284 170.284 290.721C169.622 291.157 169.106 291.778 168.8 292.504C168.495 293.231 168.414 294.031 168.568 294.803C168.723 295.576 169.105 296.285 169.667 296.842C170.229 297.399 170.945 297.779 171.725 297.933C172.505 298.087 173.314 298.009 174.049 297.708C174.784 297.407 175.413 296.897 175.855 296.243C176.297 295.589 176.533 294.819 176.533 294.032C176.533 292.978 176.11 291.968 175.358 291.222C174.606 290.476 173.585 290.056 172.52 290.054Z" fill="white"/>
<path d="M208.795 267.78C211.221 267.78 213.188 265.834 213.188 263.433C213.188 261.033 211.221 259.087 208.795 259.087C206.369 259.087 204.402 261.033 204.402 263.433C204.402 265.834 206.369 267.78 208.795 267.78Z" fill="#DBDBDB"/>
<path d="M208.795 268.156C207.851 268.156 206.928 267.879 206.143 267.36C205.358 266.841 204.747 266.103 204.385 265.24C204.024 264.377 203.93 263.428 204.114 262.512C204.298 261.596 204.752 260.754 205.42 260.094C206.087 259.433 206.938 258.984 207.864 258.801C208.789 258.619 209.749 258.713 210.621 259.07C211.493 259.427 212.239 260.033 212.763 260.809C213.288 261.586 213.568 262.499 213.568 263.433C213.568 264.686 213.065 265.887 212.17 266.772C211.275 267.658 210.061 268.156 208.795 268.156ZM208.795 259.463C208.001 259.463 207.225 259.695 206.565 260.132C205.905 260.568 205.391 261.188 205.087 261.914C204.784 262.639 204.704 263.438 204.859 264.208C205.014 264.978 205.396 265.685 205.957 266.241C206.519 266.796 207.234 267.174 208.012 267.327C208.79 267.481 209.597 267.402 210.33 267.101C211.064 266.801 211.69 266.292 212.131 265.639C212.572 264.986 212.808 264.218 212.808 263.433C212.81 262.91 212.707 262.392 212.507 261.908C212.306 261.424 212.011 260.984 211.638 260.613C211.265 260.242 210.822 259.948 210.334 259.746C209.847 259.545 209.323 259.441 208.795 259.44V259.463Z" fill="white"/>
<path d="M259.335 259.733C261.761 259.733 263.727 257.787 263.727 255.387C263.727 252.986 261.761 251.04 259.335 251.04C256.909 251.04 254.942 252.986 254.942 255.387C254.942 257.787 256.909 259.733 259.335 259.733Z" fill="#DBDBDB"/>
<path d="M259.335 260.109C258.391 260.109 257.468 259.832 256.683 259.313C255.898 258.794 255.287 258.057 254.925 257.194C254.564 256.331 254.47 255.381 254.654 254.465C254.838 253.549 255.292 252.708 255.96 252.047C256.627 251.387 257.478 250.937 258.404 250.755C259.33 250.573 260.289 250.666 261.161 251.024C262.033 251.381 262.779 251.986 263.303 252.763C263.828 253.54 264.108 254.453 264.108 255.387C264.106 256.639 263.602 257.839 262.707 258.724C261.813 259.609 260.6 260.107 259.335 260.109ZM259.335 251.416C258.541 251.416 257.765 251.649 257.105 252.085C256.446 252.522 255.931 253.142 255.627 253.867C255.324 254.593 255.244 255.391 255.399 256.161C255.554 256.932 255.936 257.639 256.497 258.194C257.059 258.75 257.774 259.128 258.552 259.281C259.33 259.434 260.137 259.356 260.87 259.055C261.604 258.755 262.23 258.246 262.671 257.593C263.112 256.94 263.348 256.172 263.348 255.387C263.346 254.334 262.922 253.326 262.17 252.581C261.418 251.837 260.398 251.418 259.335 251.416Z" fill="white"/>
<path d="M297.152 235.068C299.578 235.068 301.545 233.122 301.545 230.721C301.545 228.321 299.578 226.375 297.152 226.375C294.726 226.375 292.76 228.321 292.76 230.721C292.76 233.122 294.726 235.068 297.152 235.068Z" fill="#DBDBDB"/>
<path d="M297.16 235.444C296.214 235.445 295.289 235.169 294.501 234.65C293.714 234.13 293.1 233.392 292.737 232.527C292.375 231.663 292.279 230.711 292.464 229.793C292.648 228.874 293.103 228.031 293.772 227.369C294.441 226.707 295.294 226.256 296.222 226.074C297.15 225.892 298.112 225.986 298.985 226.345C299.859 226.704 300.606 227.311 301.13 228.09C301.655 228.869 301.934 229.785 301.933 230.721C301.931 231.973 301.427 233.173 300.533 234.058C299.638 234.944 298.425 235.442 297.16 235.444ZM297.16 226.743C296.365 226.742 295.587 226.974 294.924 227.41C294.262 227.846 293.746 228.467 293.44 229.194C293.135 229.92 293.054 230.72 293.208 231.493C293.363 232.265 293.745 232.974 294.307 233.531C294.869 234.089 295.585 234.468 296.365 234.622C297.145 234.776 297.954 234.698 298.689 234.397C299.424 234.096 300.053 233.586 300.495 232.932C300.937 232.278 301.173 231.508 301.173 230.721C301.173 229.667 300.75 228.657 299.998 227.911C299.246 227.165 298.225 226.745 297.16 226.743Z" fill="white"/>
<path d="M314.792 195.52C317.218 195.52 319.185 193.574 319.185 191.173C319.185 188.773 317.218 186.827 314.792 186.827C312.366 186.827 310.399 188.773 310.399 191.173C310.399 193.574 312.366 195.52 314.792 195.52Z" fill="#DBDBDB"/>
<path d="M314.792 195.896C313.846 195.896 312.922 195.618 312.135 195.098C311.349 194.578 310.736 193.839 310.375 192.974C310.013 192.11 309.919 191.158 310.104 190.24C310.289 189.323 310.745 188.48 311.415 187.819C312.084 187.157 312.936 186.707 313.864 186.526C314.792 186.344 315.753 186.439 316.627 186.798C317.5 187.157 318.246 187.765 318.771 188.544C319.295 189.322 319.574 190.238 319.573 191.173C319.57 192.427 319.066 193.628 318.17 194.513C317.273 195.399 316.059 195.896 314.792 195.896ZM314.792 187.195C313.997 187.195 313.22 187.429 312.559 187.866C311.897 188.303 311.382 188.924 311.078 189.651C310.773 190.378 310.694 191.178 310.849 191.95C311.004 192.721 311.387 193.43 311.949 193.986C312.512 194.543 313.228 194.922 314.008 195.075C314.788 195.229 315.596 195.15 316.331 194.849C317.065 194.548 317.693 194.038 318.135 193.384C318.577 192.729 318.812 191.96 318.812 191.173C318.812 190.651 318.709 190.134 318.506 189.651C318.304 189.168 318.008 188.73 317.635 188.361C317.262 187.991 316.818 187.698 316.331 187.498C315.843 187.298 315.32 187.195 314.792 187.195Z" fill="white"/>
<path d="M101.548 102.748C111.36 93.0387 111.36 77.2975 101.548 67.5886C91.7356 57.8798 75.8269 57.8798 66.0148 67.5886C56.2026 77.2975 56.2026 93.0387 66.0148 102.748C75.8269 112.456 91.7356 112.456 101.548 102.748Z" fill="#DBDBDB"/>
<path d="M278.601 110.476L345.184 110.379C345.184 110.379 341.863 106.115 338.215 105.588C338.215 105.588 331.086 84.6902 319.215 84.5323C308.165 84.412 303.757 97.4141 303.757 97.4141C303.757 97.4141 298.627 91.5936 293.74 94.2707C288.853 96.9478 286.102 104.581 286.102 104.581C286.102 104.581 280.592 107.536 278.601 110.476Z" fill="#EBEBEB"/>
<path d="M161.743 185.789L77.52 185.917C77.52 185.917 77.52 180.593 89.11 179.54C89.11 179.54 99.6664 156.228 115.839 159.356C125.909 161.289 131.077 174.96 131.077 174.96C131.077 174.96 138.677 164.184 144.757 166.26C150.837 168.335 154.478 179.796 154.478 179.796C154.478 179.796 160.786 182.781 161.743 185.789Z" fill="#EBEBEB"/>
<path d="M292.752 162.056L235.501 162.146C235.501 162.146 240.92 157.168 243.299 157.168C245.678 157.168 252.677 140.451 261.638 141.15C270.598 141.85 275.363 154.28 275.363 154.28C275.363 154.28 286.246 150.874 292.752 162.056Z" fill="#EBEBEB"/>
<path d="M83.7825 109.957L34.8157 110.033C34.8157 110.033 37.2477 106.897 39.9305 106.498C39.9305 106.498 45.1289 91.1123 53.8689 90.992C61.9857 90.8792 65.2689 100.43 65.2689 100.43C65.2689 100.43 69.0233 96.1357 72.6257 98.0909C76.2281 100.046 78.2801 105.656 78.2801 105.656C78.2801 105.656 82.3081 107.807 83.7825 109.957Z" fill="#EBEBEB"/>
<path d="M252.966 269.81H234.536L237.219 240.963H250.283L252.966 269.81Z" fill="#F5A71D"/>
<path d="M57.6992 376H322.301L299.752 340.972L282.758 330.76L255.041 269.66H196.863L190.418 281.195L186.025 281.474L174.086 296.709H112.047L98.9824 314.592L84.6792 323.932L57.6992 376Z" fill="#37474F"/>
<path d="M269.124 300.695H269.116L251.188 284.745L237.348 300.83L225.386 284.745L204.524 319.901L192.143 298.74L182.499 317.494L175.043 310.441L163.871 336.888L148.542 311.08L140.197 322.826L130.659 310.922L112.997 327.91L98.9824 314.584L112.047 296.709H174.086L186.025 281.474L190.418 281.188L196.87 269.667H255.041L269.124 300.695Z" fill="#EBEBEB"/>
<path d="M264.419 329.15L268.63 350.327L287.622 360.163L264.419 329.15Z" fill="#263238"/>
<path d="M89.1252 371.165L103.428 357.162L105.321 343.408L89.1252 371.165Z" fill="#263238"/>
<path d="M150.959 372.165L172.155 323.886L172.512 359.178L150.959 372.165Z" fill="#263238"/>
<path d="M251.279 311.591L261.554 334.49L252.966 323.886L251.279 311.591Z" fill="#263238"/>
<path d="M245.784 52.3467L232.393 30.644C232.624 31.0156 232.914 31.3482 233.252 31.6291C233.627 31.9441 234.05 32.198 234.506 32.3811C238.002 33.7874 244.56 32.2157 254.06 27.7037L267.452 49.4064C257.952 53.9184 251.393 55.4901 247.897 54.0838C247.44 53.9034 247.016 53.6493 246.643 53.3318C246.301 53.0553 246.01 52.722 245.784 52.3467Z" fill="#C31F82"/>
<g opacity="0.1">
<path d="M245.784 52.3467L232.393 30.644C232.624 31.0156 232.914 31.3482 233.252 31.6291C233.627 31.9441 234.05 32.198 234.506 32.3811C238.002 33.7874 244.56 32.2157 254.06 27.7037L267.452 49.4064C257.952 53.9184 251.393 55.4901 247.897 54.0838C247.44 53.9034 247.016 53.6493 246.643 53.3318C246.301 53.0553 246.01 52.722 245.784 52.3467Z" fill="black"/>
</g>
<path d="M241.786 271.472C240.198 271.983 195.054 271.404 193.352 270.299C192.698 269.893 192.402 263.373 192.265 255.492V255.251C192.265 253.627 192.212 251.95 192.212 250.258C192.212 250.025 192.212 249.792 192.212 249.559L194.393 226.352L224.595 226.653L221.616 249.664L221.578 250.574L221.396 255.319V255.808C221.396 255.808 238.572 263.681 240.32 265.088C242.068 266.494 243.367 270.961 241.786 271.472Z" fill="#DD6A57"/>
<path d="M241.786 271.472C240.198 271.983 195.054 271.404 193.352 270.299C192.698 269.893 192.402 263.373 192.265 255.492V255.251C192.265 253.627 192.212 251.95 192.212 250.258C192.212 250.025 192.212 249.792 192.212 249.559L221.624 249.641L221.586 250.551L221.403 255.296V255.785C221.403 255.785 238.579 263.659 240.327 265.065C242.075 266.471 243.367 270.961 241.786 271.472Z" fill="#EBEBEB"/>
<path d="M241.787 271.472C240.973 271.728 228.707 271.705 216.707 271.472C214.297 271.427 211.896 271.367 209.616 271.307C201.066 271.073 193.998 270.728 193.344 270.306C192.69 269.885 192.394 263.538 192.265 255.83C192.265 255.718 192.265 255.612 192.265 255.5C192.265 255.387 192.265 255.334 192.265 255.251H192.28L221.373 255.304V255.793C221.373 255.793 238.556 263.659 240.297 265.072C242.037 266.486 243.367 270.961 241.787 271.472Z" fill="#455A64"/>
<path d="M241.3 269.72C233.7 269.442 202.981 269.013 195.434 269.299C195.373 269.299 195.373 269.344 195.434 269.351C202.973 269.795 233.685 269.976 241.292 269.848C241.46 269.84 241.46 269.727 241.3 269.72Z" fill="#263238"/>
<path d="M224.641 255.409C221.646 254.815 217.983 255.229 215.665 257.304C215.574 257.387 215.665 257.515 215.787 257.485C218.66 256.604 221.621 256.035 224.618 255.785C224.668 255.788 224.718 255.771 224.756 255.738C224.793 255.705 224.816 255.658 224.819 255.609C224.822 255.559 224.805 255.51 224.772 255.472C224.738 255.435 224.691 255.412 224.641 255.409Z" fill="#263238"/>
<path d="M226.784 256.725C223.797 256.131 220.126 256.545 217.808 258.62C217.717 258.703 217.808 258.831 217.938 258.801C220.81 257.919 223.771 257.349 226.769 257.101C226.819 257.103 226.868 257.085 226.905 257.052C226.942 257.018 226.964 256.971 226.966 256.921C226.968 256.871 226.95 256.822 226.916 256.786C226.882 256.749 226.834 256.727 226.784 256.725Z" fill="#263238"/>
<path d="M228.927 258.041C225.94 257.447 222.27 257.861 219.952 259.944C219.868 260.019 219.952 260.147 220.081 260.117C222.955 259.242 225.916 258.672 228.912 258.417C228.962 258.419 229.011 258.401 229.049 258.368C229.086 258.334 229.108 258.287 229.11 258.237C229.112 258.187 229.093 258.138 229.059 258.102C229.025 258.065 228.978 258.043 228.927 258.041Z" fill="#263238"/>
<path d="M223.379 255.387H187.948C187.948 255.387 195.639 186.203 195.388 184.879C195.259 184.202 188.89 174.682 181.321 163.552C177.088 157.318 172.482 150.588 168.401 144.61C161.629 134.743 156.241 126.953 156.241 126.953H190.935C190.935 126.953 195.601 132.532 201.719 140.421C210.383 151.603 221.95 167.418 227.248 178.615C231.352 187.308 223.379 255.387 223.379 255.387Z" fill="#263238"/>
<path d="M221.297 183.24C220.643 179.39 218.698 176.013 216.775 172.667C211.462 163.763 205.625 155.175 199.295 146.948C198.661 146.161 198.023 145.372 197.38 144.58C197.342 144.527 197.25 144.58 197.296 144.64C203.464 152.796 209.202 161.263 214.487 170.005C216.456 173.359 218.66 176.773 219.921 180.435C221.259 184.33 221.069 188.466 220.864 192.52C220.438 200.882 219.931 209.236 219.344 217.584C218.741 226.031 218.054 234.466 217.284 242.888C217.193 243.919 217.094 244.949 217.003 245.987C217.003 246.318 217.299 246.348 217.33 245.987C218.15 237.594 219.047 229.277 219.686 220.862C220.324 212.448 220.879 203.935 221.335 195.46C221.555 191.429 221.988 187.248 221.297 183.24Z" fill="#455A64"/>
<path d="M221.92 249.897C216.957 249.792 218.386 249.754 213.416 249.709C210.984 249.709 195.016 249.544 192.744 249.92C192.698 249.92 192.698 250.01 192.744 250.017C195.024 250.386 210.984 250.251 213.416 250.228C218.386 250.183 216.957 250.138 221.92 250.04C221.931 250.044 221.944 250.045 221.956 250.043C221.967 250.041 221.979 250.036 221.988 250.029C221.998 250.022 222.006 250.013 222.011 250.003C222.017 249.992 222.02 249.98 222.02 249.969C222.02 249.957 222.017 249.945 222.011 249.934C222.006 249.924 221.998 249.915 221.988 249.908C221.979 249.901 221.967 249.896 221.956 249.894C221.944 249.892 221.931 249.893 221.92 249.897Z" fill="#455A64"/>
<path d="M192.47 180.157C183.396 166.297 156.233 126.953 156.233 126.953H174.412L192.47 180.157Z" fill="#37474F"/>
<path d="M118.765 300.8C120.354 301.289 165.49 300.259 167.185 299.138C167.831 298.717 168.067 292.205 168.112 284.324V284.076C168.112 282.451 171.912 255.154 171.912 255.154L142.409 255.748L138.997 284.421V284.91C138.997 284.91 121.897 292.957 120.164 294.378C118.431 295.799 117.177 300.349 118.765 300.8Z" fill="#DD6A57"/>
<path d="M118.765 300.8C120.354 301.289 165.49 300.259 167.185 299.138C167.831 298.717 168.066 292.205 168.112 284.324V284.076C168.112 284.076 168.773 278.608 168.773 278.375L139.642 278.887L138.989 284.421V284.91C138.989 284.91 121.889 292.957 120.156 294.378C118.423 295.799 117.177 300.349 118.765 300.8Z" fill="#EBEBEB"/>
<path d="M118.765 300.8C120.354 301.289 165.49 300.259 167.185 299.138C167.831 298.717 168.066 292.205 168.112 284.324V284.076L138.989 284.421V284.91C138.989 284.91 121.889 292.957 120.156 294.378C118.423 295.799 117.177 300.349 118.765 300.8Z" fill="#455A64"/>
<path d="M119.236 299.085C126.836 298.732 157.548 297.988 165.087 298.206C165.148 298.206 165.156 298.251 165.087 298.251C157.563 298.77 126.852 299.266 119.236 299.213C119.077 299.213 119.077 299.093 119.236 299.085Z" fill="#263238"/>
<path d="M135.744 284.609C138.73 283.985 142.401 284.361 144.734 286.414C144.826 286.497 144.734 286.625 144.613 286.595C141.731 285.751 138.764 285.219 135.766 285.008C135.74 285.009 135.713 285.006 135.688 284.997C135.663 284.989 135.64 284.975 135.621 284.958C135.601 284.94 135.585 284.919 135.573 284.895C135.562 284.872 135.555 284.846 135.554 284.82C135.552 284.794 135.556 284.768 135.565 284.743C135.573 284.718 135.587 284.695 135.604 284.676C135.622 284.656 135.643 284.64 135.667 284.629C135.691 284.618 135.717 284.611 135.744 284.609Z" fill="#263238"/>
<path d="M133.616 285.948C136.595 285.324 140.266 285.692 142.607 287.753C142.698 287.835 142.607 287.963 142.485 287.933C139.604 287.082 136.637 286.543 133.639 286.324C133.614 286.325 133.589 286.322 133.565 286.314C133.541 286.306 133.52 286.293 133.501 286.277C133.482 286.26 133.467 286.241 133.456 286.218C133.445 286.196 133.439 286.172 133.437 286.147C133.436 286.123 133.439 286.098 133.447 286.074C133.455 286.051 133.468 286.03 133.485 286.011C133.501 285.993 133.521 285.977 133.544 285.967C133.566 285.956 133.591 285.949 133.616 285.948Z" fill="#263238"/>
<path d="M131.48 287.264C134.459 286.64 138.13 287.008 140.471 289.069C140.562 289.152 140.471 289.279 140.342 289.249C137.455 288.404 134.483 287.872 131.48 287.663C131.427 287.663 131.375 287.642 131.338 287.604C131.3 287.567 131.279 287.516 131.279 287.463C131.279 287.41 131.3 287.36 131.338 287.322C131.375 287.285 131.427 287.264 131.48 287.264Z" fill="#263238"/>
<path d="M190.927 126.953C190.927 126.953 186.77 152.024 186.489 152.829C186.489 152.829 184.969 153.581 182.149 154.829L169.837 284.843L137.332 285.008L155.45 126.99L190.927 126.953Z" fill="#263238"/>
<path d="M168.72 279.12C163.75 279.037 165.178 278.992 160.208 278.969C157.784 278.969 141.808 278.887 139.544 279.263C139.53 279.263 139.516 279.268 139.506 279.278C139.496 279.288 139.49 279.301 139.49 279.315C139.49 279.329 139.496 279.343 139.506 279.353C139.516 279.362 139.53 279.368 139.544 279.368C141.824 279.729 157.784 279.526 160.216 279.488C165.178 279.421 163.75 279.391 168.72 279.263C168.735 279.258 168.749 279.248 168.758 279.235C168.767 279.223 168.772 279.207 168.772 279.191C168.772 279.175 168.767 279.16 168.758 279.147C168.749 279.134 168.735 279.125 168.72 279.12Z" fill="#455A64"/>
<path d="M162.8 145.136C161.538 163.041 160.998 171.027 159.516 188.925C158.034 206.823 156.271 224.818 154.082 242.708C152.859 252.702 151.529 266.772 150.062 276.736C150.062 276.804 150.161 276.826 150.168 276.736C153.208 259.034 155.336 237.083 157.168 219.231C159 201.378 160.451 183.473 161.728 165.568C162.488 155.438 162.336 155.235 163.02 145.106C163.035 145.001 162.815 145.008 162.8 145.136Z" fill="#455A64"/>
<path d="M187.834 152.054C184.604 153.391 181.496 155.001 178.547 156.867C178.425 156.942 178.547 157.123 178.638 157.063C181.777 155.559 184.976 154.1 188.024 152.423C188.063 152.393 188.09 152.35 188.101 152.302C188.112 152.255 188.106 152.205 188.083 152.161C188.061 152.117 188.023 152.083 187.978 152.063C187.932 152.044 187.882 152.041 187.834 152.054Z" fill="#455A64"/>
<path d="M186.641 137.691C186.132 140.699 185.843 143.707 185.501 146.76C185.425 147.512 185.334 148.212 185.258 148.934C185.237 149.603 185.054 150.258 184.726 150.844C184.072 151.859 182.886 152.348 181.822 152.791C181.693 152.844 181.746 153.04 181.883 152.994C183.034 152.723 184.095 152.167 184.969 151.378C185.949 150.362 185.919 148.813 186.063 147.505C186.494 144.263 186.732 140.998 186.778 137.729C186.778 137.616 186.656 137.616 186.641 137.691Z" fill="#455A64"/>
<path d="M182.955 138.609C182.849 140.774 182.605 142.933 182.423 145.091C182.332 146.151 182.256 147.219 182.187 148.287C182.119 149.355 181.997 150.483 182.028 151.566C182.028 151.641 182.149 151.656 182.165 151.566C182.339 150.535 182.37 149.468 182.453 148.43C182.537 147.392 182.621 146.249 182.681 145.151C182.803 142.97 182.864 140.774 183.061 138.594C183.069 138.541 182.955 138.541 182.955 138.609Z" fill="#455A64"/>
<path d="M201.712 140.421L188.389 142.128L168.386 144.64L153.186 146.55L155.428 126.998H190.904C190.904 126.998 195.594 132.532 201.712 140.421Z" fill="#263238"/>
<path d="M165.353 92.6238C151.749 95.707 133.433 93.9323 128.797 88.2622C124.48 82.9531 124.45 59.1373 128.402 47.9926C129.261 45.5637 147.402 51.4218 146.9 54.129C145.707 60.4608 143.572 74.7563 145.563 77.2078C147.334 79.3886 157.936 82.2838 167.77 84.3368C179.717 86.8259 170.772 91.3981 165.353 92.6238Z" fill="#DD6A57"/>
<path d="M130.378 38.8483C128.288 42.6083 127.072 51.9933 127.657 54.3621C128.242 56.7309 144.271 59.3178 146.125 57.6032C147.979 55.8886 154.006 42.6534 153.239 38.352C152.471 34.0506 132.536 34.9379 130.378 38.8483Z" fill="#DD6A57"/>
<path d="M153.072 45.2102C151.08 46.3533 150.852 43.3754 150.852 43.3754C150.852 43.3754 150.092 47.7445 147.615 48.1355C145.137 48.5266 145.054 44.9019 145.038 44.6462C145 44.8718 144.225 48.865 141.656 49.0078C139.088 49.1507 139.475 45.5035 139.506 45.2478C139.399 45.4509 137.94 48.1506 135.964 47.8122C132.567 47.2406 136.116 40.2395 135.128 37.6602C135.128 37.6602 130.515 38.8182 130.378 38.8258C130.378 38.8258 133.616 32.0954 137.218 30.9674C137.738 30.7976 138.301 30.8079 138.815 30.9964C139.329 31.185 139.763 31.5407 140.045 32.0051C140.045 32.0051 140.843 29.7491 142.865 29.5461C143.898 29.4634 144.962 31.0501 144.962 31.0501C145.17 30.5513 145.51 30.1172 145.946 29.793C146.382 29.4689 146.898 29.2667 147.44 29.2077C148.884 29.1701 149.72 30.7117 149.72 30.7117C149.72 30.7117 151.24 29.2979 152.707 29.7341C155.732 30.629 157.32 42.7587 153.072 45.2102Z" fill="#DD6A57"/>
<path d="M149.925 30.9749C149.925 30.9298 149.971 30.9147 149.986 30.9749C151.57 34.9837 151.882 39.3744 150.883 43.5634C150.883 43.6912 150.617 43.6912 150.624 43.5634C151.013 39.3559 150.777 35.1149 149.925 30.9749Z" fill="#263238"/>
<path d="M144.963 30.9899C144.963 30.9448 145.031 30.9222 145.054 30.9899C146.748 35.4201 146.786 40.3037 145.16 44.759C145.099 44.917 144.887 44.9922 144.947 44.8117C145.92 41.7285 145.821 34.8477 144.963 30.9899Z" fill="#263238"/>
<path d="M139.27 45.5411C140.79 41.1645 140.79 36.7352 140.106 32.1856C140.106 32.133 140.182 32.1254 140.205 32.1856C141.147 34.3213 141.284 37.2616 141.193 39.5552C141.146 41.6903 140.539 43.7767 139.43 45.6088C139.384 45.6614 139.24 45.6314 139.27 45.5411Z" fill="#263238"/>
<path d="M150.853 43.3754C150.64 44.201 150.347 45.0044 149.978 45.7742C149.655 46.5391 149.13 47.2041 148.458 47.6994C148.142 47.9109 147.757 47.9968 147.379 47.94C146.995 47.8846 146.633 47.7288 146.33 47.4888C146.047 47.2293 145.822 46.9138 145.671 46.5627C145.519 46.2115 145.443 45.8328 145.449 45.4509L145.411 43.616L144.795 45.3907C144.531 46.1672 144.141 46.8961 143.64 47.549C143.422 47.8683 143.139 48.139 142.81 48.3436C142.48 48.5483 142.11 48.6823 141.725 48.7371C141.366 48.7811 141.003 48.7021 140.696 48.5132C140.389 48.3244 140.157 48.0371 140.038 47.6994C139.782 46.9386 139.727 46.1258 139.878 45.3381L140.228 43.1498L139.171 45.12C138.883 45.6644 138.526 46.1699 138.107 46.624C137.729 47.0718 137.223 47.3967 136.656 47.5565C136.399 47.6182 136.13 47.608 135.879 47.5269C135.628 47.4459 135.405 47.2973 135.235 47.0978C134.918 46.5923 134.755 46.0078 134.763 45.4133C134.766 44.1313 134.87 42.8515 135.075 41.5856C135.151 40.9464 135.234 40.2997 135.28 39.653C135.367 39.0028 135.315 38.3419 135.128 37.7128C135.25 38.3463 135.25 38.9969 135.128 39.6304C135.029 40.2696 134.9 40.9013 134.771 41.533C134.473 42.8122 134.297 44.1164 134.246 45.4283C134.208 46.1383 134.38 46.8439 134.74 47.4587C134.977 47.7683 135.298 48.0039 135.666 48.1373C136.034 48.2707 136.433 48.2962 136.815 48.2107C137.523 48.0301 138.161 47.6453 138.647 47.1053C139.123 46.6083 139.532 46.0522 139.863 45.4509L139.164 45.2102C138.968 46.14 139.02 47.1041 139.316 48.0077C139.499 48.5014 139.848 48.9181 140.304 49.1883C140.766 49.4446 141.297 49.5523 141.824 49.4966C142.312 49.4303 142.781 49.2618 143.199 49.0025C143.617 48.7432 143.975 48.399 144.248 47.9926C144.794 47.2562 145.212 46.4354 145.487 45.5637L144.826 45.4659C144.837 45.9402 144.953 46.4063 145.164 46.8321C145.375 47.258 145.677 47.6334 146.049 47.9325C146.441 48.2086 146.9 48.3772 147.379 48.4213C147.866 48.4701 148.353 48.3388 148.747 48.0528C149.451 47.4846 149.978 46.7312 150.267 45.8795C150.557 45.0691 150.753 44.2291 150.853 43.3754Z" fill="#263238"/>
<path d="M147.554 55.5277C147.554 55.5277 162.063 44.2477 154.827 40.8035C152.684 39.7808 142.622 38.1038 142.242 40.0966C141.748 42.6685 145.821 44.1424 148.519 44.6688C148.519 44.6688 143.04 47.8122 144.119 52.2414C144.328 53.05 144.76 53.7852 145.367 54.3654C145.973 54.9456 146.73 55.3479 147.554 55.5277Z" fill="#DD6A57"/>
<path d="M155.412 41.1269C154.62 40.6247 153.757 40.242 152.851 39.9914C151.95 39.713 151.031 39.4969 150.1 39.3446C148.242 39.0039 146.358 38.8253 144.468 38.8107C143.954 38.8025 143.442 38.871 142.948 39.0138C142.667 39.0891 142.407 39.2281 142.188 39.4198C142.067 39.5199 141.966 39.6425 141.892 39.7808C141.814 39.9159 141.76 40.0635 141.732 40.217C141.635 40.7697 141.743 41.3386 142.036 41.8187C142.31 42.2526 142.657 42.6366 143.062 42.9542C143.84 43.5396 144.714 43.9874 145.646 44.2778C146.549 44.5827 147.474 44.8191 148.413 44.9846L148.314 44.383C147.731 44.7701 147.184 45.208 146.68 45.6915C146.151 46.1737 145.672 46.7079 145.251 47.2858C144.84 47.8662 144.515 48.5018 144.286 49.1733C144.06 49.841 143.967 50.5459 144.012 51.2488C144.061 50.5624 144.226 49.8889 144.499 49.256C144.78 48.6334 145.146 48.0515 145.586 47.5264C146.014 46.9984 146.498 46.5169 147.03 46.0901C147.552 45.6594 148.114 45.2791 148.709 44.9546L149.469 44.556L148.588 44.368C147.682 44.178 146.791 43.9267 145.92 43.616C145.098 43.3157 144.328 42.8894 143.64 42.3526C143.304 42.1417 143.03 41.8474 142.845 41.4991C142.659 41.1509 142.569 40.7607 142.584 40.3674C142.652 39.7432 143.663 39.6154 144.537 39.5402C145.411 39.465 146.368 39.5402 147.296 39.5928C148.223 39.6454 149.15 39.7131 150.07 39.8259C151.908 39.9826 153.711 40.4215 155.412 41.1269Z" fill="#263238"/>
<path d="M169.815 84.6827C163.955 82.8629 147.676 79.9978 146.255 76.8243C144.833 73.6509 147.015 58.0243 147.015 58.0243L123.5 54.896C123.5 54.896 121.273 81.4566 128.569 89.3526C135.865 97.2486 155.808 95.6018 163.613 93.9398C171.418 92.2779 179.565 87.7208 169.815 84.6827Z" fill="#623CE7"/>
<path d="M123.5 54.896C123.5 54.896 121.273 81.4642 128.569 89.3526C128.89 89.7049 129.238 90.0318 129.611 90.3302C137.598 97.0982 158.597 97.2261 166.091 95.6394C171.084 94.5715 173.751 90.6536 174.253 88.3826C174.549 87.1042 173.356 85.8182 169.837 84.7203C163.978 82.908 147.699 80.0354 146.277 76.8619C144.856 73.6885 147.037 58.0619 147.037 58.0619L123.5 54.896Z" fill="#623CE7"/>
<g opacity="0.1">
<path d="M173.645 86.6379V89.9091C173.362 90.4661 173.026 90.9949 172.642 91.4883C172.476 91.708 172.298 91.9188 172.11 92.12V85.5851C172.68 85.8437 173.2 86.2001 173.645 86.6379Z" fill="black"/>
<path d="M169.602 84.6301V94.203C169.389 94.3384 169.168 94.4587 168.94 94.579V84.4346L169.602 84.6301Z" fill="black"/>
<path d="M166.44 83.7728V95.504L166.075 95.5867C165.718 95.6619 165.315 95.7371 164.905 95.8048V83.3893L166.44 83.7728Z" fill="black"/>
<path d="M162.397 82.7877V96.1432H162.321L161.736 96.1958V82.6598L162.397 82.7877Z" fill="black"/>
<path d="M159.228 82.0056V96.3613C158.726 96.3613 158.217 96.3989 157.708 96.4064V81.6146L158.741 81.8778L159.228 82.0056Z" fill="black"/>
<path d="M155.192 80.9378V96.429C154.972 96.429 154.751 96.429 154.531 96.429V80.7498L155.192 80.9378Z" fill="black"/>
<path d="M152 79.9827V96.3538C151.491 96.3538 150.982 96.3086 150.48 96.271V79.4413C150.974 79.6218 151.483 79.8022 152 79.9827Z" fill="black"/>
<path d="M147.319 77.9298C147.531 78.0753 147.752 78.2084 147.98 78.3283V96.0755L147.319 96.0078V77.9298Z" fill="black"/>
<path d="M144.818 57.7386V95.6995C144.301 95.6318 143.792 95.5491 143.298 95.4664V57.528L144.818 57.7386Z" fill="black"/>
<path d="M140.775 57.1896V94.9926L140.114 94.8422V57.0994L140.775 57.1896Z" fill="black"/>
<path d="M137.613 56.761V94.1955C137.089 94.0451 136.58 93.8797 136.093 93.7067V56.5579L137.613 56.761Z" fill="black"/>
<path d="M133.57 56.2195V92.7141C133.342 92.6163 133.122 92.511 132.909 92.4058V56.1293L133.57 56.2195Z" fill="black"/>
<path d="M130.401 55.7909V90.9018C130.127 90.7138 129.861 90.5032 129.641 90.2926C129.371 90.0854 129.117 89.8592 128.881 89.6158V55.5803L130.401 55.7909Z" fill="black"/>
<path d="M126.365 55.2419V85.8182C126.251 85.555 126.137 85.2918 126.031 85.0136C125.925 84.7354 125.856 84.5774 125.788 84.3594C125.753 84.2842 125.725 84.2062 125.704 84.1262V55.1592L126.365 55.2419Z" fill="black"/>
<path d="M123.196 61.9723V65.8902C123.196 65.1382 123.196 64.3486 123.196 63.6342C123.196 63.4162 123.196 63.1981 123.196 62.98C123.189 62.6266 123.189 62.2957 123.196 61.9723Z" fill="black"/>
</g>
<g opacity="0.1">
<path d="M168.849 94.6242C168.082 95.0063 167.274 95.3014 166.44 95.504L166.075 95.5867C165.718 95.6619 165.315 95.7371 164.905 95.8048C164.145 95.9251 163.316 96.0304 162.404 96.1206H148.724L147.964 96.053L147.303 95.9853C146.467 95.9026 145.631 95.7973 144.803 95.677C144.286 95.6093 143.777 95.5266 143.283 95.4438C142.432 95.3035 141.596 95.1455 140.775 94.9701L140.114 94.8197L139.202 94.6016L168.849 94.6242Z" fill="black"/>
<path d="M172.642 91.4883C172.476 91.708 172.298 91.9188 172.11 92.12H132.4C132.005 91.9094 131.64 91.6989 131.267 91.4658L172.642 91.4883Z" fill="black"/>
<path d="M174.23 88.345C174.182 88.5704 174.116 88.7917 174.032 89.0067H128.303C127.902 88.5375 127.544 88.0342 127.232 87.5027H174.2C174.286 87.7756 174.297 88.0666 174.23 88.345Z" fill="black"/>
<path d="M169.814 84.6902C170.149 84.7955 170.468 84.9008 170.764 85.0136H126.031C125.94 84.7955 125.856 84.5774 125.788 84.3594H168.72L168.978 84.4346L169.64 84.6301L169.814 84.6902Z" fill="black"/>
<path d="M158.726 81.8778H125.02C124.883 81.3814 124.762 80.8701 124.648 80.3738H153.209C153.634 80.5091 154.075 80.637 154.531 80.7648L155.192 80.9528C156.013 81.1859 156.849 81.4115 157.693 81.6296L158.726 81.8778Z" fill="black"/>
<path d="M147.25 77.8846H124.169C124.169 77.6666 124.1 77.4485 124.07 77.2304H146.49C146.714 77.4797 146.97 77.6995 147.25 77.8846Z" fill="black"/>
<path d="M145.806 74.7488H123.766C123.713 74.245 123.66 73.7411 123.614 73.2448H145.768C145.745 73.7787 145.768 74.2826 145.806 74.7488Z" fill="black"/>
<path d="M145.799 70.0939C145.799 70.312 145.799 70.5301 145.799 70.7482H123.386C123.386 70.5301 123.386 70.312 123.386 70.0939H145.799Z" fill="black"/>
<path d="M146.08 66.1008C146.034 66.6046 145.988 67.1085 145.95 67.6048H123.242C123.242 67.0934 123.242 66.5821 123.242 66.1008H146.08Z" fill="black"/>
<path d="M146.384 62.965C146.384 63.1755 146.346 63.3936 146.323 63.6192H123.181C123.181 63.4011 123.181 63.183 123.181 62.965H146.384Z" fill="black"/>
<path d="M146.878 58.9718C146.817 59.3704 146.749 59.8893 146.673 60.4758H123.227C123.227 59.9419 123.227 59.4306 123.272 58.9718H146.878Z" fill="black"/>
<path d="M135.584 56.4902H123.424C123.424 56.2496 123.424 56.024 123.424 55.836H130.72L132.886 56.1293L133.547 56.2195L135.584 56.4902Z" fill="black"/>
</g>
<path d="M125.187 59.8366C126.039 59.8366 126.882 59.987 127.726 60.0622C128.569 60.1374 129.413 60.2502 130.249 60.363C131.865 60.5836 133.481 60.8193 135.098 61.0699L139.939 61.8219C141.611 62.0851 143.321 62.2656 144.963 62.6642C144.972 62.6608 144.982 62.6597 144.991 62.6609C145.001 62.6621 145.01 62.6656 145.018 62.6712C145.026 62.6767 145.033 62.6841 145.038 62.6927C145.042 62.7013 145.044 62.7109 145.044 62.7206C145.044 62.7303 145.042 62.7398 145.038 62.7484C145.033 62.757 145.026 62.7644 145.018 62.77C145.01 62.7755 145.001 62.779 144.991 62.7802C144.982 62.7815 144.972 62.7803 144.963 62.777C143.275 62.6942 141.581 62.3934 139.909 62.1754C138.237 61.9573 136.61 61.7542 134.961 61.5286C133.312 61.303 131.663 61.085 130.013 60.8293C129.208 60.709 128.402 60.5736 127.604 60.4157C126.806 60.2578 125.963 60.175 125.18 59.9419C125.096 59.9194 125.134 59.8366 125.187 59.8366Z" fill="#263238"/>
<path d="M181.313 92.2328C188.951 103.791 203.406 115.101 210.702 114.184C217.542 113.319 234.262 96.1883 239.218 85.4498C240.304 83.111 223.128 74.8766 221.601 77.1778C218.014 82.5546 209.532 94.3234 206.401 94.7219C203.596 95.0754 193.929 89.879 185.41 84.6075C175.036 78.208 178.273 87.623 181.313 92.2328Z" fill="#DD6A57"/>
<path d="M237.88 86.9838C235.934 88.4878 221.821 80.6445 221.449 78.1704C221.404 77.3357 221.471 76.4988 221.646 75.6813C220.914 72.2939 219.685 69.0307 217.998 65.9955C215.87 62.4461 212.291 57.4152 214.198 56.2195C216.942 54.4523 222.239 60.2728 225.074 63.7997C226.001 61.5437 227.02 59.6637 228.015 58.7913C231.321 55.8961 246.255 68.8606 245.495 73.2373C244.758 77.456 239.833 85.4949 237.88 86.9838Z" fill="#DD6A57"/>
<path d="M208.126 28.1629L207.082 28.7934L281.358 149.292L282.403 148.661L208.126 28.1629Z" fill="#263238"/>
<path d="M223.82 64.2509C224.656 66.364 226.693 64.1757 226.693 64.1757C226.693 64.1757 224.519 68.0259 226.237 69.8758C227.954 71.7258 230.265 68.9283 230.432 68.7403C230.326 68.9434 228.418 72.5003 230.333 74.2149C232.248 75.9294 234.232 72.8237 234.354 72.6206C234.308 72.8462 233.761 75.8467 235.509 76.8018C238.511 78.4336 240.137 70.7858 242.524 69.3946C242.524 69.3946 245.389 73.1546 245.495 73.2222C245.602 73.2899 247.198 65.988 245.1 62.9048C244.802 62.4524 244.358 62.1142 243.839 61.9459C243.321 61.7777 242.76 61.7897 242.25 61.9798C242.25 61.9798 243.056 59.7238 241.589 58.3326C240.829 57.6333 239.028 58.1973 239.028 58.1973C239.183 57.6709 239.19 57.1124 239.048 56.5822C238.906 56.052 238.621 55.5703 238.222 55.1893C237.12 54.2718 235.478 54.9862 235.478 54.9862C235.478 54.9862 235.19 52.9634 233.761 52.3918C230.88 51.2488 222.034 59.7163 223.82 64.2509Z" fill="#DD6A57"/>
<path d="M235.197 55.084C235.197 55.084 235.197 55.0088 235.197 55.0238C231.447 57.1761 228.449 60.4078 226.602 64.2885C226.548 64.4088 226.723 64.5517 226.814 64.4238C229.139 60.9267 231.962 57.7808 235.197 55.084Z" fill="#263238"/>
<path d="M239.058 58.1371C239.096 58.1371 239.058 58.0469 238.997 58.0694C234.899 60.488 231.808 64.2747 230.28 68.7478C230.234 68.9057 230.348 69.0938 230.417 68.9208C231.58 65.9278 235.972 60.6262 239.058 58.1371Z" fill="#263238"/>
<path d="M234.369 72.944C235.889 68.5824 238.708 65.1458 242.09 62.025C242.136 62.025 242.09 61.9272 242.03 61.9573C239.947 63.0326 238.002 65.2435 236.634 67.0934C235.319 68.7978 234.485 70.8167 234.217 72.944C234.202 73.0042 234.331 73.0643 234.369 72.944Z" fill="#263238"/>
<path d="M226.617 64.1982C226.549 64.3411 226.845 64.2734 226.784 64.4238C226.526 65.063 225.302 69.0336 226.533 69.8683C227.529 70.5301 229.125 69.6728 229.573 69.1163L230.812 67.68L230.181 69.4397C229.889 70.2153 229.73 71.0337 229.71 71.8611C229.678 72.2443 229.729 72.6297 229.86 72.9916C229.991 73.3535 230.199 73.6835 230.47 73.9592C230.722 74.2143 231.054 74.3771 231.412 74.4209C231.769 74.4646 232.132 74.3867 232.439 74.1998C233.113 73.7582 233.665 73.1557 234.042 72.4477L235.144 70.5301L234.734 72.6883C234.622 73.2908 234.586 73.9045 234.627 74.5157C234.648 75.0956 234.838 75.657 235.175 76.1325C235.337 76.3375 235.554 76.4939 235.801 76.5842C236.047 76.6744 236.315 76.6951 236.573 76.6438C237.135 76.4434 237.628 76.0887 237.994 75.6211C238.797 74.6199 239.522 73.559 240.16 72.4477C240.502 71.8987 240.844 71.3498 241.217 70.8083C241.553 70.2483 242.006 69.7662 242.547 69.3946C242.06 69.8165 241.66 70.3271 241.369 70.8986C241.042 71.455 240.745 72.0266 240.449 72.6056C239.876 73.7836 239.195 74.9064 238.412 75.9595C237.997 76.5354 237.421 76.9795 236.755 77.2379C236.376 77.3384 235.976 77.3272 235.603 77.2056C235.231 77.0841 234.902 76.8574 234.658 76.5536C234.21 75.9815 233.946 75.2902 233.898 74.5683C233.841 73.8904 233.871 73.2081 233.989 72.5379L234.688 72.7786C234.255 73.6217 233.608 74.3394 232.811 74.8616C232.359 75.144 231.819 75.2561 231.291 75.1774C230.778 75.0954 230.303 74.8591 229.931 74.5006C229.589 74.1499 229.328 73.7308 229.164 73.2716C229 72.8123 228.937 72.3237 228.981 71.8386C229.014 70.9307 229.196 70.0342 229.52 69.184L230.098 69.5149C229.459 70.2142 227.818 71.3648 226.115 70.5226C224.132 69.1163 226.184 64.9352 226.617 64.1982Z" fill="#263238"/>
<path d="M226.693 64.1757C226.313 64.4521 225.893 64.6701 225.447 64.8224C225.267 64.8854 225.075 64.9005 224.888 64.8661C224.701 64.8318 224.527 64.7493 224.383 64.6269C224.11 64.3101 223.931 63.925 223.866 63.5139C223.782 63.0702 223.706 62.589 223.661 62.0926C223.455 62.5671 223.356 63.0805 223.372 63.5966C223.357 64.1536 223.565 64.6938 223.949 65.1006C224.184 65.3028 224.476 65.4288 224.785 65.4616C225.077 65.4831 225.37 65.4232 225.629 65.2886C226.093 65.038 226.466 64.6484 226.693 64.1757Z" fill="#263238"/>
<path d="M183.669 83.472C189.164 86.1792 202.905 95.2934 206.165 94C209.426 92.7066 218.789 79.9301 218.789 79.9301L237.933 93.7744C237.933 93.7744 220.917 114.439 210.125 115.109C199.333 115.778 186.132 100.903 181.64 94.3459C177.148 87.7885 174.519 78.96 183.669 83.472Z" fill="#623CE7"/>
<g opacity="0.1">
<path d="M237.933 93.7594C237.933 93.7594 237.675 94.0752 237.173 94.6242L236.93 94.9099V93.0525L237.933 93.7594Z" fill="black"/>
<path d="M234.46 91.2477V97.7073L233.799 98.4218V90.7664L234.46 91.2477Z" fill="black"/>
<path d="M231.291 88.9541V101.039L230.576 101.753C230.313 102.024 230.039 102.295 229.756 102.565V87.8486L231.291 88.9541Z" fill="black"/>
<path d="M227.24 86.0363V104.934L226.579 105.536V85.5626L227.24 86.0363Z" fill="black"/>
<path d="M224.086 83.7427V107.709L222.627 108.882C222.598 108.898 222.573 108.918 222.551 108.942V82.6222L224.086 83.7427Z" fill="black"/>
<path d="M219.404 80.3587H219.382V80.3437L219.404 80.3587Z" fill="black"/>
<path d="M220.043 81.8778V110.792L219.382 111.236V81.9078L220.043 81.8778Z" fill="black"/>
<path d="M216.881 82.4493V112.8L216.684 112.913C216.258 113.143 215.832 113.361 215.407 113.567H215.346V84.3594H215.399L216.881 82.4493Z" fill="black"/>
<path d="M212.838 87.5102V114.582C212.618 114.657 212.397 114.718 212.177 114.77V88.2923L212.838 87.5102Z" fill="black"/>
<path d="M209.676 91.0747V115.139C209.169 115.152 208.661 115.132 208.156 115.079V92.5787L208.627 92.1426L209.289 91.4883L209.676 91.0747Z" fill="black"/>
<path d="M205.633 94.0978V114.567C205.413 114.515 205.192 114.447 204.972 114.372V94.0677C205.191 94.0998 205.412 94.1098 205.633 94.0978Z" fill="black"/>
<path d="M202.464 93.4134V113.402C202.107 113.236 201.757 113.063 201.4 112.883L200.929 112.635V92.7968C201.468 93.0299 201.978 93.248 202.464 93.4134Z" fill="black"/>
<path d="M198.428 91.6162V111.168L197.767 110.724V91.2778L198.177 91.4883L198.428 91.6162Z" fill="black"/>
<path d="M195.259 89.9467V108.86C194.742 108.453 194.225 108.032 193.739 107.604V89.0894C194.233 89.3827 194.75 89.6685 195.259 89.9467Z" fill="black"/>
<path d="M191.223 87.6757V105.37L190.562 104.739V87.2922L190.897 87.4877L191.223 87.6757Z" fill="black"/>
<path d="M188.054 85.8558V102.182L187.659 101.753C187.264 101.332 186.899 100.911 186.519 100.497V84.976H186.587L188.054 85.8558Z" fill="black"/>
<path d="M184.011 83.6224V97.4968C183.775 97.211 183.555 96.9253 183.35 96.6546V83.299L183.669 83.4494L184.011 83.6224Z" fill="black"/>
<path d="M180.88 82.3816V93.0826C180.69 92.7742 180.5 92.4584 180.318 92.1426L179.953 91.4883C179.74 91.0973 179.535 90.7363 179.345 90.3152V82.2462C179.861 82.1972 180.381 82.2431 180.88 82.3816Z" fill="black"/>
</g>
<g opacity="0.1">
<path d="M216.684 112.883C216.258 113.113 215.833 113.331 215.407 113.537H202.761L202.464 113.402C202.107 113.236 201.757 113.063 201.4 112.883H216.684Z" fill="black"/>
<path d="M222.627 108.882C222.598 108.898 222.573 108.918 222.551 108.942C221.905 109.446 221.251 109.935 220.598 110.401H197.334C196.642 109.92 195.958 109.408 195.29 108.897L222.627 108.882Z" fill="black"/>
<path d="M226.358 105.746L225.598 106.4H192.348L191.634 105.746H226.358Z" fill="black"/>
<path d="M230.576 101.753C230.313 102.024 230.039 102.295 229.756 102.565L228.996 103.272H189.096C188.738 102.911 188.396 102.52 188.054 102.182L187.659 101.753H230.576Z" fill="black"/>
<path d="M233.616 98.6173L232.993 99.2715H185.44C185.25 99.0534 185.068 98.8278 184.893 98.6173H233.616Z" fill="black"/>
<path d="M237.204 94.6242L236.96 94.9099L235.874 96.1432H182.962C182.552 95.6018 182.202 95.0904 181.86 94.6392L237.204 94.6242Z" fill="black"/>
<path d="M199.508 92.1426H180.287L179.922 91.4883H198.162L198.413 91.6162L199.508 92.1426Z" fill="black"/>
<path d="M235.699 92.1426H208.613L209.274 91.4883H234.795L235.699 92.1426Z" fill="black"/>
<path d="M193.572 89.0067H178.714C178.495 88.5157 178.302 88.0137 178.136 87.5027H190.897L191.224 87.6907L193.572 89.0067Z" fill="black"/>
<path d="M231.359 89.0067H211.599L212.207 88.2547L212.869 87.5027H229.292L229.786 87.8637L231.306 88.9691L231.359 89.0067Z" fill="black"/>
<path d="M186.588 85.0136H177.582C177.563 84.7959 177.563 84.577 177.582 84.3594H185.41C185.767 84.5474 186.17 84.7579 186.534 84.976L186.588 85.0136Z" fill="black"/>
<path d="M225.842 85.0136H214.875L215.346 84.427V84.3594H224.96L225.842 85.0136Z" fill="black"/>
<path d="M219.382 80.3587V81.8627H217.314C217.816 81.2085 218.204 80.6821 218.462 80.3587H219.382Z" fill="black"/>
</g>
<path d="M233.229 96.1808C232.621 95.6018 231.906 95.1355 231.245 94.6091C230.584 94.0827 229.9 93.5864 229.216 93.1051C227.901 92.1501 226.564 91.2101 225.226 90.2851L221.213 87.5027C219.83 86.5477 218.462 85.5024 217.003 84.6602C216.99 84.6539 216.975 84.6524 216.961 84.6561C216.947 84.6597 216.935 84.6682 216.926 84.68C216.918 84.6918 216.914 84.7062 216.916 84.7205C216.917 84.7347 216.924 84.748 216.934 84.7579C218.211 85.8558 219.64 86.7958 220.993 87.7659L225.013 90.6987C226.358 91.6763 227.704 92.6389 229.064 93.5939C229.733 94.0602 230.409 94.5114 231.093 94.955C231.777 95.3987 232.446 95.9026 233.176 96.271C233.236 96.3086 233.274 96.256 233.229 96.1808Z" fill="#263238"/>
<path d="M200.982 112.657C192.782 108.273 184.908 99.1211 181.663 94.3459C178.813 90.1497 176.692 85.0286 177.924 83.0659C178.418 82.2537 179.444 81.968 181.29 82.5019L200.982 112.657Z" fill="#263238"/>
<path d="M199.979 137.796C199.325 138.609 152.859 141.94 152.623 141.669C151.924 140.955 159.57 93.1653 169.26 84.2616C171.35 82.3515 179.846 82.0056 181.047 82.3891C182.4 82.7952 186.58 88.7811 188.647 93.7518C192.789 103.701 200.541 137.075 199.979 137.796Z" fill="#623CE7"/>
<g opacity="0.1">
<path d="M198.428 129.239V138.12L197.767 138.21V126.336C197.828 126.614 197.896 126.892 197.957 127.163C198.018 127.434 198.056 127.607 198.101 127.817C198.215 128.291 198.36 128.772 198.428 129.239Z" fill="black"/>
<path d="M194.636 113.552C194.849 114.357 195.054 115.169 195.259 115.973V138.533L193.739 138.691V110.115C193.739 110.221 193.8 110.333 193.823 110.439C194.046 111.256 194.266 112.083 194.484 112.92C194.56 113.101 194.56 113.319 194.636 113.552Z" fill="black"/>
<path d="M190.6 99.264C190.805 99.9032 191.018 100.572 191.223 101.264V138.864L190.805 138.902H190.562V99.1437C190.579 99.1824 190.592 99.2227 190.6 99.264Z" fill="black"/>
<path d="M188.054 92.4283V139.173L186.534 139.3V89.488C186.914 90.1498 187.294 90.8266 187.614 91.4958C187.725 91.7164 187.831 91.9345 187.933 92.1501C187.979 92.2403 188.02 92.3332 188.054 92.4283Z" fill="black"/>
<path d="M183.623 85.0136C183.753 85.1866 183.882 85.3595 184.011 85.5475V139.519L183.35 139.571V84.6752L183.623 85.0136Z" fill="black"/>
<path d="M180.88 82.3515V139.774L179.36 139.895V82.2538C179.868 82.2446 180.377 82.2773 180.88 82.3515Z" fill="black"/>
<path d="M176.806 82.3515V140.09L176.145 140.143V82.4042L176.806 82.3515Z" fill="black"/>
<path d="M173.645 82.72V140.331L172.125 140.444V83.0358C172.596 82.9155 173.113 82.8102 173.645 82.72Z" fill="black"/>
<path d="M169.602 83.9984V140.624L168.94 140.669V84.5699C169.01 84.4935 169.084 84.4208 169.161 84.3518C169.192 84.3174 169.225 84.2848 169.26 84.2541C169.366 84.1595 169.481 84.0739 169.602 83.9984Z" fill="black"/>
<path d="M166.44 87.984V140.842L164.92 140.947V90.9469C165.239 90.2626 165.566 89.6158 165.885 89.0067C166.052 88.6608 166.242 88.3224 166.44 87.984Z" fill="black"/>
<path d="M162.397 97.1058V141.135L161.736 141.18V99.0158L161.872 98.6173C162.04 98.1059 162.214 97.6021 162.397 97.1058Z" fill="black"/>
<path d="M159.228 107.325V141.376L158.369 141.429L157.692 141.474V112.898H157.791C157.996 112.071 158.202 111.243 158.414 110.416C158.544 109.912 158.673 109.401 158.81 108.912C158.946 108.423 159.083 107.844 159.228 107.325Z" fill="black"/>
<path d="M155.192 124.697V141.587L154.531 141.624V128.088C154.531 127.983 154.531 127.87 154.592 127.757C154.652 127.644 154.675 127.321 154.713 127.103C154.865 126.336 155.04 125.531 155.192 124.697Z" fill="black"/>
</g>
<g opacity="0.1">
<path d="M158.369 141.376L157.692 141.421L155.192 141.564L154.531 141.602C153.897 141.656 153.259 141.671 152.623 141.647C152.623 141.647 152.623 141.526 152.623 141.376H158.369Z" fill="black"/>
<path d="M199.979 137.796C199.491 137.978 198.979 138.087 198.459 138.12L197.798 138.21L195.29 138.496L193.77 138.654L191.269 138.887L190.851 138.924H152.76C152.813 138.466 152.882 137.962 152.965 137.42H199.964C200.001 137.543 200.006 137.672 199.979 137.796Z" fill="black"/>
<path d="M199.607 134.924H153.361C153.361 134.713 153.429 134.495 153.459 134.27H199.485C199.531 134.495 199.576 134.713 199.607 134.924Z" fill="black"/>
<path d="M198.983 131.796H153.87C153.961 131.307 154.044 130.795 154.143 130.292H198.656C198.77 130.803 198.884 131.314 198.983 131.796Z" fill="black"/>
<path d="M198.102 127.795H154.592C154.63 127.584 154.675 127.359 154.713 127.141H197.957C198.011 127.366 198.056 127.584 198.102 127.795Z" fill="black"/>
<path d="M197.387 124.659H155.2C155.299 124.163 155.397 123.651 155.504 123.155H197.022C197.144 123.651 197.266 124.163 197.387 124.659Z" fill="black"/>
<path d="M196.422 120.666H156.021L156.157 120.012H196.27C196.323 120.23 196.377 120.448 196.422 120.666Z" fill="black"/>
<path d="M195.655 117.53H156.705C156.819 117.026 156.933 116.522 157.054 116.026H195.275C195.404 116.56 195.525 117.026 195.655 117.53Z" fill="black"/>
<path d="M194.636 113.552H157.632C157.632 113.469 157.677 113.387 157.692 113.311V112.898H194.469C194.56 113.101 194.56 113.319 194.636 113.552Z" fill="black"/>
<path d="M193.8 110.401H158.415C158.544 109.897 158.673 109.386 158.81 108.897H193.397C193.511 109.288 193.618 109.694 193.724 110.093C193.755 110.183 193.8 110.296 193.8 110.401Z" fill="black"/>
<path d="M192.721 106.4H159.486C159.537 106.18 159.598 105.962 159.668 105.746H192.538C192.592 105.964 192.66 106.182 192.721 106.4Z" fill="black"/>
<path d="M191.824 103.272H160.36C160.512 102.761 160.672 102.249 160.831 101.768H191.353L191.824 103.272Z" fill="black"/>
<path d="M190.6 99.264H161.652C161.675 99.1774 161.703 99.092 161.736 99.0083L161.873 98.6098H190.395C190.449 98.7827 190.509 98.9557 190.563 99.1362C190.58 99.1773 190.592 99.2202 190.6 99.264Z" fill="black"/>
<path d="M189.559 96.1432H162.747C162.937 95.6318 163.127 95.1205 163.332 94.6392H188.997C189.179 95.0904 189.362 95.6018 189.559 96.1432Z" fill="black"/>
<path d="M187.918 92.1426H164.358C164.449 91.917 164.548 91.6989 164.646 91.4883H187.598C187.715 91.7089 187.821 91.927 187.918 92.1426Z" fill="black"/>
<path d="M186.246 89.0067H165.863C166.053 88.6608 166.243 88.3224 166.433 87.999C166.531 87.8261 166.63 87.6531 166.737 87.4877H185.319C185.63 87.984 185.942 88.4878 186.246 89.0067Z" fill="black"/>
<path d="M183.624 85.0136H168.53C168.667 84.8557 168.804 84.7128 168.94 84.5774C169.01 84.5011 169.084 84.4283 169.161 84.3594H183.16L183.388 84.6602L183.624 85.0136Z" fill="black"/>
</g>
<path d="M178.182 93.4736L180.037 89.6083L182.985 92.3757L182.529 95.3611L179.847 95.895L178.182 93.4736Z" fill="#263238"/>
<path d="M179.846 95.895C179.846 95.895 180.736 114.973 187.758 122.591C194.666 130.111 205.504 128.539 205.504 128.539L214.502 124.343L207.077 119.079C207.077 119.079 198.877 119.079 193.656 115.101C188.434 111.123 182.529 95.3461 182.529 95.3461L179.846 95.895Z" fill="#263238"/>
<path d="M180.569 88.5781C178.19 89.6233 173.219 86.6454 170.962 83.9081C170.81 83.7201 170.719 81.4641 170.476 78.7193C170.324 77.0574 170.119 75.2075 169.799 73.5381C169.739 73.1921 180.888 74.1321 180.888 74.1321C180.673 76.3371 180.735 78.5597 181.07 80.7497C181.113 80.9788 181.179 81.203 181.268 81.419C181.283 81.4558 181.295 81.4935 181.306 81.5318C181.762 82.7952 182.864 87.5779 180.569 88.5781Z" fill="#DD6A57"/>
<path d="M181.306 81.5318C180.953 81.6458 180.593 81.7314 180.226 81.7875C174.64 82.72 171.38 76.3205 170.24 73.4704C172.239 73.4027 180.88 74.1322 180.88 74.1322C180.666 76.3371 180.727 78.5597 181.062 80.7498C181.105 80.9788 181.172 81.203 181.26 81.419C181.278 81.4557 181.293 81.4933 181.306 81.5318Z" fill="#263238"/>
<path d="M166.44 60.6939C165.68 64.5893 168.963 75.2226 171.95 77.3432C176.267 80.4114 182.719 80.0278 185.197 75.027C187.606 70.1766 183.114 56.3925 179.877 54.535C174.982 51.7902 167.474 54.9486 166.44 60.6939Z" fill="#DD6A57"/>
<path d="M176.236 66.5069C176.236 66.5069 176.191 66.552 176.236 66.5821C176.472 67.2965 176.624 68.1462 176.039 68.5824C176.791 68.2666 176.578 67.1386 176.236 66.5069Z" fill="#263238"/>
<path d="M175.37 65.9429C174.177 66.1986 174.777 68.5448 175.887 68.3042C176.996 68.0635 176.366 65.7323 175.37 65.9429Z" fill="#263238"/>
<path d="M180.66 65.251C180.66 65.251 180.72 65.251 180.728 65.2962C180.895 66.0482 181.207 66.8002 181.929 66.913V66.9581C181.1 67.0483 180.698 65.9654 180.66 65.251Z" fill="#263238"/>
<path d="M181.116 64.3261C182.271 63.9426 182.97 66.2587 181.876 66.5821C180.781 66.9054 180.12 64.672 181.116 64.3261Z" fill="#263238"/>
<path d="M174.154 65.1082C174.443 64.941 174.722 64.7577 174.99 64.5592C175.309 64.3411 175.583 64.2058 175.75 63.8072C175.778 63.6984 175.771 63.5836 175.728 63.4794C175.686 63.3752 175.611 63.2872 175.515 63.2282C175.303 63.1453 175.072 63.1191 174.847 63.1521C174.621 63.1851 174.409 63.2761 174.23 63.4162C173.827 63.6507 173.525 64.0222 173.379 64.4614C173.345 64.5639 173.343 64.6739 173.373 64.7775C173.403 64.8811 173.463 64.9735 173.547 65.043C173.63 65.1124 173.732 65.1557 173.84 65.1673C173.949 65.1789 174.058 65.1583 174.154 65.1082Z" fill="#263238"/>
<path d="M181.724 62.9198C181.392 62.9387 181.06 62.9387 180.728 62.9198C180.374 62.967 180.013 62.8983 179.702 62.7243C179.617 62.6503 179.558 62.5509 179.535 62.441C179.512 62.3312 179.525 62.2169 179.573 62.1152C179.702 61.9281 179.879 61.7786 180.086 61.6821C180.293 61.5855 180.523 61.5456 180.751 61.5662C181.218 61.5412 181.679 61.6886 182.043 61.9798C182.121 62.0506 182.178 62.1424 182.204 62.2442C182.231 62.346 182.227 62.4533 182.194 62.553C182.16 62.6527 182.097 62.7405 182.014 62.8056C181.93 62.8708 181.829 62.9105 181.724 62.9198Z" fill="#263238"/>
<path d="M177.49 73.2523C177.702 73.4307 177.972 73.5269 178.25 73.523C178.528 73.4528 178.787 73.3246 179.01 73.147C179.01 73.147 179.064 73.147 179.048 73.147C178.981 73.3161 178.868 73.4637 178.722 73.5738C178.576 73.6838 178.403 73.7521 178.22 73.7712C178.057 73.774 177.898 73.7281 177.762 73.6395C177.627 73.5509 177.521 73.4238 177.46 73.2749C177.46 73.2749 177.46 73.2373 177.49 73.2523Z" fill="#263238"/>
<path d="M177.703 70.891C177.963 71.1307 178.27 71.3146 178.604 71.4311C178.939 71.5476 179.295 71.5942 179.649 71.5678C179.961 71.5495 180.268 71.4862 180.561 71.3798L180.72 71.3197L180.88 71.252C180.917 71.2348 180.946 71.2066 180.966 71.1714C180.985 71.1363 180.992 71.096 180.986 71.0565C180.99 71.0315 180.99 71.0062 180.986 70.9813V70.9136C180.865 70.3496 180.584 69.5149 180.584 69.5149C180.819 69.5675 181.99 69.7706 181.898 69.5149C181.182 67.013 180.212 64.5892 179.003 62.2806C178.965 62.213 178.843 62.2806 178.874 62.3333C179.52 64.6494 180.576 66.8453 181.268 69.1539C180.85 69.0754 180.422 69.0551 179.998 69.0938C179.922 69.1389 180.553 70.703 180.591 70.9587C180.14 71.1202 179.661 71.1908 179.182 71.1663C178.703 71.1417 178.234 71.0226 177.802 70.8158C177.688 70.7782 177.642 70.8459 177.703 70.891Z" fill="#263238"/>
<path d="M180.158 71.2746C179.931 71.7422 179.585 72.1437 179.155 72.4402C178.917 72.5966 178.634 72.673 178.349 72.6582C177.726 72.6582 177.589 72.0942 177.589 71.613C177.598 71.3583 177.639 71.1057 177.711 70.861C178.46 71.2574 179.318 71.4026 180.158 71.2746Z" fill="#263238"/>
<path d="M179.155 72.4402C178.917 72.5966 178.634 72.673 178.349 72.6582C177.726 72.6582 177.589 72.0942 177.589 71.613C177.906 71.5546 178.234 71.6047 178.518 71.755C178.803 71.9053 179.027 72.147 179.155 72.4402Z" fill="#F7A9A0"/>
<path d="M182.552 57.7987C179.459 61.5587 172.953 59.1523 172.953 59.1523C172.875 60.0856 172.494 60.9691 171.869 61.6719C171.243 62.3748 170.406 62.8598 169.48 63.0552C169.48 63.0552 170.666 69.7781 168.933 70.2744C166.288 71.0264 162.807 62.4085 163.119 60.4232C163.431 58.4379 165.528 57.3325 165.528 57.3325C165.464 56.2042 165.83 55.0932 166.554 54.2192C167.945 52.3166 174.716 52.3317 174.716 52.3317C174.827 51.4025 175.155 50.5116 175.674 49.7298C175.798 49.5374 175.959 49.3719 176.149 49.2432C176.34 49.1145 176.554 49.0253 176.78 48.981C177.006 48.9367 177.239 48.9382 177.464 48.9855C177.689 49.0328 177.903 49.1248 178.091 49.256C177.902 49.8332 177.85 50.4455 177.939 51.0458C178.197 53.0386 179.771 52.5498 179.231 50.8578C179.057 50.2059 178.653 49.6375 178.091 49.256C178.524 47.9024 179.679 47.1579 180.629 47.5414C182.339 48.2258 185.128 54.6554 182.552 57.7987Z" fill="#263238"/>
<path d="M169.761 69.2818C169.761 69.2818 166.812 66.1083 165.323 67.1987C163.833 68.2891 166.387 73.117 168.363 73.5606C168.613 73.6345 168.875 73.6577 169.135 73.6288C169.394 73.5999 169.645 73.5195 169.872 73.3924C170.099 73.2653 170.298 73.0941 170.456 72.8891C170.615 72.6841 170.73 72.4496 170.795 72.1995L169.761 69.2818Z" fill="#DD6A57"/>
<path d="M166.09 68.5674C166.09 68.5674 166.09 68.5674 166.09 68.6125C167.481 68.9659 168.37 70.1165 169.001 71.2821C168.906 71.1613 168.786 71.0622 168.648 70.9918C168.511 70.9214 168.36 70.8812 168.205 70.8741C168.051 70.8669 167.897 70.893 167.753 70.9504C167.61 71.0079 167.481 71.0954 167.375 71.2069C167.375 71.2069 167.375 71.2821 167.42 71.2746C167.642 71.1686 167.892 71.1341 168.135 71.1759C168.377 71.2177 168.601 71.3338 168.773 71.5077C169.06 71.7988 169.314 72.1189 169.533 72.4627C169.609 72.5755 169.814 72.4627 169.754 72.3574C169.548 70.688 167.96 68.4922 166.09 68.5674Z" fill="#263238"/>
<path d="M181.42 81.8101L179.558 88.5104L170.574 81.3138L168.591 84.1714C168.591 84.1714 177.954 96.1658 177.931 95.5792L179.968 89.7512L184.262 93.1653L182.833 83.5472L181.42 81.8101Z" fill="#623CE7"/>
<path d="M183.829 88.3675C183.54 86.7883 183.289 85.1941 182.932 83.6299C182.932 83.5698 182.826 83.5547 182.818 83.6299C182.674 85.2016 183.814 91.2326 183.973 92.6915C183.791 92.5411 180.006 89.6835 179.983 89.7662C179.505 90.7138 178.007 94.955 177.916 95.3385C176.396 93.4285 170.803 86.5326 169.108 84.7654C169.104 84.7595 169.099 84.7544 169.093 84.7505C169.087 84.7465 169.08 84.7437 169.073 84.7423C169.059 84.7395 169.044 84.7424 169.032 84.7504C169.02 84.7584 169.011 84.7708 169.008 84.7849C169.006 84.799 169.008 84.8136 169.017 84.8256C170.369 86.8635 177.84 96.1658 177.931 96.1056C178.745 94.0927 179.453 92.0395 180.052 89.9542C180.705 90.5859 184.566 93.827 184.551 93.5864C184.401 91.8357 184.16 90.0937 183.829 88.3675Z" fill="#263238"/>
<path d="M244.34 48.9853C244.659 49.5258 244.914 50.1012 245.1 50.6998C245.274 51.2728 245.511 51.8251 245.807 52.3467L232.393 30.644C232.096 30.1236 231.861 29.571 231.694 28.9971C231.5 28.4014 231.245 27.8269 230.934 27.2826L244.34 48.9853Z" fill="#623CE7"/>
<g opacity="0.4">
<path d="M244.34 48.9853C244.659 49.5258 244.914 50.1012 245.1 50.6998C245.274 51.2728 245.511 51.8251 245.807 52.3467L232.393 30.644C232.096 30.1236 231.861 29.571 231.694 28.9971C231.5 28.4014 231.245 27.8269 230.934 27.2826L244.34 48.9853Z" fill="black"/>
</g>
<path d="M230.956 27.2826L244.34 48.9853C244.08 48.5589 243.746 48.1819 243.352 47.8723C242.974 47.5816 242.557 47.3437 242.113 47.1654C238.48 45.7141 231.906 47.4587 222.118 52.4821L208.726 30.7794C218.515 25.756 225.089 24.0114 228.722 25.4702C229.167 25.6455 229.584 25.8836 229.961 26.1771C230.356 26.4842 230.693 26.8585 230.956 27.2826Z" fill="#C31F82"/>
<path d="M213.689 49.1808C213.451 51.4508 212.579 53.6105 211.172 55.4187C209.765 57.2269 207.877 58.6125 205.72 59.4206C203.563 60.2288 201.222 60.4278 198.957 59.9953C196.692 59.5628 194.594 58.5159 192.896 56.9715L186.671 57.904L189.787 52.5798C189.002 50.6969 188.707 48.6491 188.928 46.624C189.306 43.4025 190.952 40.4582 193.51 38.4302C196.068 36.4022 199.33 35.4542 202.59 35.7918C205.85 36.1293 208.844 37.7254 210.922 40.2335C213 42.7415 213.994 45.9593 213.689 49.1883V49.1808Z" fill="white"/>
<path d="M213.689 49.1808C213.451 51.4504 212.583 53.6106 211.181 55.4224C210.832 55.875 210.454 56.3045 210.049 56.7083C209.634 57.1029 209.195 57.472 208.734 57.8138C207.818 58.5014 206.807 59.056 205.732 59.4606C204.657 59.8766 203.529 60.1448 202.38 60.2578C201.806 60.2992 201.229 60.2992 200.655 60.2578C200.076 60.2427 199.499 60.1824 198.93 60.0773C196.635 59.6612 194.503 58.6194 192.774 57.0693L192.918 57.1144L186.702 58.0619L186.253 58.1296L186.481 57.7386L189.574 52.3994V52.6099C188.845 50.8453 188.534 48.9387 188.666 47.0367C188.798 45.1346 189.368 43.2878 190.334 41.6382C191.294 39.9922 192.625 38.5872 194.222 37.5321C195.819 36.4771 197.641 35.8004 199.546 35.5546C201.429 35.3091 203.345 35.4893 205.148 36.0816C206.951 36.674 208.595 37.6631 209.956 38.9746C211.318 40.286 212.361 41.8858 213.007 43.6535C213.654 45.4213 213.887 47.3111 213.689 49.1808ZM213.689 49.1808C213.886 47.3267 213.651 45.4526 213.001 43.7026C212.352 41.9526 211.305 40.3734 209.942 39.0863C208.579 37.7993 206.936 36.8388 205.139 36.2786C203.341 35.7185 201.438 35.5737 199.576 35.8554C197.73 36.1258 195.973 36.8128 194.438 37.8632C192.914 38.9184 191.643 40.2918 190.714 41.8864C189.796 43.4801 189.255 45.2595 189.134 47.0902C189.016 48.9215 189.312 50.7557 190 52.4595L190.046 52.5723L190 52.64L186.869 57.9566L186.648 57.6333L192.88 56.7685H192.964L193.025 56.8286C194.693 58.3552 196.755 59.3962 198.983 59.8366C199.54 59.9454 200.104 60.0133 200.67 60.0397C201.237 60.0773 201.806 60.0773 202.373 60.0397C203.513 59.9452 204.633 59.692 205.702 59.2877C206.789 58.905 207.814 58.3653 208.742 57.6859C209.202 57.3519 209.641 56.9903 210.056 56.603C210.458 56.201 210.836 55.7767 211.189 55.3322C212.573 53.5452 213.437 51.4183 213.689 49.1808Z" fill="#263238"/>
<path d="M199.857 54.9261L194.537 49.6019L196.323 47.8573L199.432 50.963L205.884 40.9539L207.997 42.2925L199.857 54.9261Z" fill="#623CE7"/>
</g>
<defs>
<clipPath id="clip0_1_9671">
<rect width="380" height="376" fill="white"/>
</clipPath>
</defs>
</svg>
