<svg width="621" height="370" viewBox="0 0 621 370" fill="none" xmlns="http://www.w3.org/2000/svg">
<path d="M496.333 37.1334L505.266 39.5334C516.999 42.6001 539.399 53.2668 548.466 59.9334C590.866 91.4001 588.866 129.133 542.999 163.267C534.999 169.267 517.399 177.4 506.999 180.067L496.999 182.6L496.199 208.333H499.666C505.666 208.333 542.866 195.133 556.999 188.2C584.466 174.333 603.933 156.733 614.066 136.6C618.866 126.733 619.533 124.2 620.066 113.8C620.999 94.7334 615.133 77.2668 601.399 58.7334C582.333 32.7334 546.733 11.9334 505.399 2.6001L496.333 0.600098V37.1334Z" fill="#CC142B"/>
<path d="M351 8.99974C331.533 14.5997 320.467 18.8664 306.6 25.7997C271.533 43.3997 249.8 68.5997 245.4 96.8664L243.667 107.133L239.4 106.333L235 105.533V138.733L244.067 140.333C254.867 142.333 278.067 149.133 283.133 151.666C286.6 153.533 287.667 153.133 304.333 145C318.333 138.066 321.667 135.933 320.467 134.466C319.133 132.866 310.867 128.866 294.867 121.933C289.267 119.533 288.6 118.733 288.067 114.333C287 105.4 289.533 93.3998 294.333 83.3997C304.2 63.2664 328.333 47.6664 362.733 38.9997L368.333 37.5331V20.9997C368.333 11.7997 367.933 4.33308 367.4 4.33308C366.733 4.46641 359.4 6.46641 351 8.99974Z" fill="#031E9B"/>
<path d="M525.667 118.866C524.733 120.733 524.733 121.8 525.8 122.466C527.667 123.533 531.533 119.666 530.467 117.8C529 115.533 527.267 116.066 525.667 118.866Z" fill="#031E9B"/>
<path d="M530.601 89.2665C530.334 89.9332 529.267 94.3332 528.334 99.1332C526.601 107.667 527.267 114.067 529.534 111.533C531.134 109.667 535.267 91.1332 534.334 89.6665C533.401 88.0665 531.401 87.9332 530.601 89.2665Z" fill="#031E9B"/>
<path d="M506.601 99.9333C504.601 100.867 503.001 102.2 503.001 102.733C503.001 103.267 501.667 105.133 500.201 107L497.534 110.333L498.334 104.6C499.134 99.4 499.001 98.8666 496.867 99.2666C495.401 99.5333 494.067 101.267 493.534 103.667C492.334 109 492.201 119.667 493.134 122.2C494.467 125.533 497.534 124.733 498.467 120.6C500.334 111.4 507.134 102.467 511.134 103.667C514.334 104.733 516.467 103.4 515.534 101.133C514.467 98.3333 510.467 97.8 506.601 99.9333Z" fill="#031E9B"/>
<path d="M464.601 105.8C461.668 118.2 463.001 123 469.134 123C470.601 123 473.534 121.533 475.534 119.667C477.534 117.8 479.268 116.333 479.534 116.333C479.801 116.333 480.334 118.067 480.868 120.333C481.268 122.467 482.334 124.333 483.268 124.333C484.601 124.333 485.001 121.267 484.868 112.733C484.734 99.5334 482.601 97.0001 479.401 106.467C477.268 113 470.334 120.2 468.201 118.067C467.268 117.133 467.401 114.333 468.868 109C469.934 104.733 470.601 100.733 470.201 100.067C468.334 97.1334 465.934 99.6667 464.601 105.8Z" fill="#031E9B"/>
<path d="M445.666 99.3998C437.666 103.4 433.399 117.266 438.733 122.066C441.933 125 445.399 124.866 450.599 121.666C458.866 116.6 461.399 106.6 455.666 101C452.066 97.2665 450.466 96.9998 445.666 99.3998ZM453.399 107.933C453.933 113.133 447.399 121.266 443.933 119.933C440.999 118.866 440.999 112.2 443.799 106.866C445.399 103.666 446.599 102.866 449.399 103.266C452.333 103.533 453.133 104.466 453.399 107.933Z" fill="#031E9B"/>
<path d="M426.067 99.2664C425.267 100.2 424.333 107.133 423.933 114.6C423.533 122.2 422.467 129.533 421.667 131C419.933 134.2 417.267 134.466 415 131.666C412.867 129.133 411 129.133 411 131.666C411 132.733 412.467 134.6 414.333 135.8C418.467 138.466 423.667 137.4 425.8 133.4C427.4 130.333 431.133 100.333 430.067 98.5998C429.267 97.1331 427.533 97.3998 426.067 99.2664Z" fill="#031E9B"/>
<path d="M427.933 85.2666C425.933 87.1333 427 90.9999 429.533 90.9999C432.2 90.9999 434.2 87.6666 432.866 85.5333C432.066 84.0666 429.133 83.9333 427.933 85.2666Z" fill="#031E9B"/>
<path d="M393 100.6C391.8 104.333 389.8 120.866 390.467 121.933C392.067 124.333 394.467 122.733 397.4 117.133C399.133 113.933 402.067 109.933 403.8 108.2L406.867 105.266L408.333 108.866C409 110.866 409.667 113.933 409.667 115.533C409.667 119.266 412.6 122.066 415.8 121.4C418.733 120.866 419.933 117.666 417.133 117.666C415.8 117.666 414.867 115.933 414.333 112.6C413.267 105.933 410.733 101.133 407.933 100.6C406.467 100.333 403.667 102.066 400.867 105L396.333 109.8V105.133C396.333 100.466 394.2 97.3998 393 100.6Z" fill="#031E9B"/>
<path d="M373.666 99.3998C365.933 103.266 361.4 117.266 366.466 122.2C373.4 129.133 388.733 116.466 386.333 105.666C385 99.3998 379.266 96.5998 373.666 99.3998ZM381.133 106.466C382.2 110.733 380.066 115.533 375.666 118.466C368.733 123 366.2 114.866 371.8 106.333C374.733 101.8 379.933 101.8 381.133 106.466Z" fill="#031E9B"/>
<path d="M338.733 90.4664C331.933 92.4664 329.667 94.7331 332.333 96.3331C333.667 97.1331 333.8 99.6665 333 106.6C331.4 121.266 331.4 123.666 333.667 123.666C335.133 123.666 336.067 120.6 337.267 111.666C339.8 93.5331 339.533 94.0664 345.8 92.9998C355.8 91.2664 356.333 97.9331 346.6 103.266C340.067 106.866 340.333 109.133 347.267 108.6C352.867 108.066 355.8 111.266 353.533 115.4C351.933 118.2 345.4 121.666 341.667 121.666C340.2 121.666 339 122.6 339 123.666C339 124.866 340.2 125.666 342.2 125.666C354.2 125.666 364.067 111.933 356.067 106.466L353.133 104.333L356.067 101.266C359.667 97.3998 359.933 91.5331 356.467 89.6665C352.867 87.7998 346.333 88.0664 338.733 90.4664Z" fill="#031E9B"/>
<path d="M315.133 150.2L298.6 158.6L303.133 161.667C305.666 163.4 309.266 166.2 311.133 167.933L314.733 171.133L348.866 154.067L340.866 147.933C336.6 144.467 332.733 141.667 332.333 141.8C331.933 141.8 324.2 145.533 315.133 150.2Z" fill="#CC142B"/>
<path d="M356.333 182.333L347.666 186.867L359.933 187C367.933 187 372.333 186.467 372.599 185.4C373.133 183.933 367.666 177.667 365.933 177.667C365.399 177.8 361.133 179.8 356.333 182.333Z" fill="#03237B"/>
<path d="M496.334 252.6C496.334 264.6 496.068 264.333 511.801 264.333C524.201 264.333 525.001 263.4 516.068 258.867C513.001 257.267 507.401 253 503.401 249.267L496.334 242.6V252.6Z" fill="#CC142B"/>
<path d="M452.607 189.5C436.606 187 446.758 186.891 431.107 188.5C429.105 189.5 434.597 195.044 439.105 200C442.32 201.278 447.335 205.406 451.696 208.71L459.407 214.62C459.407 214.62 456.606 200.456 452.607 189.5Z" fill="#CC142B"/>
<path d="M160.334 102.6C160.334 103.267 160.2 110.867 160.067 119.667L159.934 135.667L188.2 136.067L216.467 136.334L215.667 103.667L209.667 102.734C201.4 101.534 160.334 101.4 160.334 102.6Z" fill="#CC142B"/>
<path d="M118.866 106.333C110.333 108.2 96.466 112.067 88.1993 115C72.1993 120.733 51.666 131 51.666 133.4C51.666 135 88.066 153.667 90.9994 153.667C91.9327 153.667 98.1994 151.533 104.866 148.867C111.533 146.2 122.066 143 128.333 141.667L139.666 139.4L140.066 121.133C140.466 99.8 142.733 101.4 118.866 106.333Z" fill="#03237B"/>
<path d="M19.8 160.867C17.1333 163.933 15 167.267 15 167.933C15 169 36.7333 180.6 49.8 186.6C50.2 186.733 53.4 183.667 56.8667 179.667L63.1333 172.467L45.4 163.667C35.8 158.867 27.1333 155 26.2 155C25.2667 155 22.3333 157.667 19.8 160.867Z" fill="#CC142B"/>
<path d="M6.86645 181.133C6.19978 183.133 5.26645 185.267 4.86645 185.8C4.46645 186.467 9.39978 187 15.9331 187L27.6665 186.867L18.9998 182.333C14.1998 179.8 9.93312 177.8 9.26645 177.667C8.73312 177.667 7.66645 179.267 6.86645 181.133Z" fill="#03237B"/>
<path d="M0.59974 219.267C0.99974 229.667 1.79974 233.133 5.26641 240.467C7.53307 245.4 11.6664 252.467 14.4664 256.2L19.5331 263H71.3997L65.1331 257.4C51.2664 245.267 42.8664 229.533 42.5997 214.867L42.3331 207H0.0664062L0.59974 219.267Z" fill="#CC142B"/>
<path d="M255.667 233.667C254.6 237.133 256.6 239.667 259.667 238.467C262.467 237.4 261.8 231.8 258.733 231.267C257.4 231 256.2 231.933 255.667 233.667Z" fill="#03237B"/>
<path d="M262.067 195.267C260.734 197.534 257.934 212.867 257.801 219.4C257.667 223.534 258.067 224.467 259.934 224.067C263.801 223.267 268.467 195.267 264.734 194.067C263.934 193.8 262.734 194.334 262.067 195.267Z" fill="#03237B"/>
<path d="M229.134 209.8C224.201 213.667 219.934 222.6 219.801 229.267C219.401 245.667 239.801 244.067 247.267 227.267C250.334 220.334 249.801 214.734 245.401 210.067C241.667 206.067 234.067 205.934 229.134 209.8ZM241.667 214.867C244.867 221 241.134 230.467 233.801 234.334C229.934 236.334 229.667 236.2 227.667 233.134C225.934 230.467 225.801 228.867 226.867 224.6C229.801 214.067 238.201 208.467 241.667 214.867Z" fill="#03237B"/>
<path d="M211.8 190.067C208.067 195.933 203.267 229.533 205 237.533C205.667 240.467 206.6 241.667 208.467 241.667C209.8 241.667 211 241.267 211.133 240.6C211.133 240.067 211.4 233.667 211.667 226.333C211.933 218.333 213.267 209 214.867 203C216.333 197.533 217.667 192.067 217.667 190.867C217.667 187.267 213.933 186.733 211.8 190.067Z" fill="#03237B"/>
<path d="M193.801 192.6C191.001 201.4 188.201 221.8 188.601 231.267C189.001 239.933 189.267 241 191.667 241C194.067 241 194.334 239.8 195.134 226.333C195.667 218.2 197.001 207.933 198.201 203.533C201.134 192.333 201.001 188.333 197.801 188.333C196.067 188.333 194.734 189.8 193.801 192.6Z" fill="#03237B"/>
<path d="M163.533 209.933C157.533 215.267 155 220.867 155 229.4C155 237.533 158.2 241 165.533 241C171.667 241 181.667 234.6 181.667 230.867C181.667 227.533 181 227.667 175.667 231.8C172.467 234.2 169.933 235 166.733 234.733C160.067 234.067 160.2 230.467 167.267 227.133C174.2 223.933 176.733 221.933 178.733 218.067C184.6 207.267 173.4 201.4 163.533 209.933ZM174.6 213C175.533 215.533 171.8 219.8 166.6 222.6C161.933 225 160.867 224.2 163 220.067C167 212.333 172.867 208.733 174.6 213Z" fill="#03237B"/>
<path d="M144.6 194.067C143.934 195 143 199.267 142.467 203.667C141.934 208.067 140.867 212.334 139.934 213.134C137.934 215 118.2 217 117.267 215.4C116.867 214.867 117.134 211 117.8 207C119.134 198.467 118.334 194.734 115.267 195.267C112.467 195.8 111.534 199.134 109.667 215.667C108.734 223 107.8 231.534 107.4 234.6C106.867 239.134 107.134 240.467 108.867 241.134C112.067 242.334 112.6 241.4 114.2 231.4L115.667 222.334L126.334 221.4C132.2 220.867 137.667 220.6 138.467 220.867C139.534 221.267 139.8 224.467 139.267 230.734C138.867 237.134 139.134 240.334 140.334 241C143.534 243 145.4 238.067 147 222.334C147.934 213.534 148.867 203.534 149.267 200.2C149.8 195.534 149.534 193.934 147.934 193.267C146.734 192.867 145.267 193.267 144.6 194.067Z" fill="#03237B"/>
<path d="M81.9337 288.2C75.0004 291.667 69.5337 295 69.8004 295.8C70.3337 297.4 85.667 304.2 89.0004 304.2C90.467 304.2 99.1337 300.467 108.2 295.8L124.734 287.4L113.267 284.6C107 283 100.067 281.667 98.067 281.8C96.067 281.8 88.7337 284.6 81.9337 288.2Z" fill="#CC142B"/>
<path d="M120.333 300.2C107.266 306.867 103.133 309.533 104.999 310.067C106.466 310.467 114.199 312.2 122.199 313.8C130.066 315.533 136.866 317.533 137.266 318.467C138.066 320.733 127.666 340.6 121.399 348.467C118.599 352.067 111.666 358.067 106.066 361.933L95.666 369L102.333 369.4C110.333 369.933 126.866 367.8 134.333 365.4L139.666 363.667L140.066 327.267C140.199 307.4 139.933 291 139.399 291.133C138.733 291.133 130.199 295.267 120.333 300.2Z" fill="#03237B"/>
<path d="M159 296.867C159 299.267 159.4 305 159.933 309.667L160.733 318.067L165 306.2C169.667 293.4 169.533 292.6 162.067 292.467C159.533 292.333 159 293 159 296.867Z" fill="#CC142B"/>
<path d="M200.467 293.267C192.067 293.8 191.801 293.934 182.467 302.6C177.267 307.4 170.201 313.534 166.734 316.2L160.467 321L160.334 336.6C160.334 345.267 160.734 352.334 161.401 352.334C163.001 352.334 181.534 337.934 191.801 328.867C200.201 321.4 201.934 320.334 206.734 320.334C216.334 320.334 216.334 320.2 216.334 305.534V292.334L212.734 292.6C210.601 292.734 205.134 293 200.467 293.267Z" fill="#CC142B"/>
<path d="M333.399 216.2C332.332 231 323.932 244.867 308.999 256.333C304.866 259.533 301.799 262.333 302.199 262.6C302.466 263 314.066 263.133 327.932 263.133L352.999 263L357.266 258.2C366.066 248.333 373.666 229.933 375.666 213.933L376.599 207H334.066L333.399 216.2Z" fill="#CC142B"/>
<path d="M284.334 282.333C284.334 282.733 289.801 285.667 296.467 289L308.467 295.133L317.801 290.067C322.867 287.4 327.001 284.733 327.001 284.2C327.001 283.667 325.001 283 322.734 282.467C317.667 281.667 284.334 281.533 284.334 282.333Z" fill="#CC142B"/>
<path d="M235 303.667C235 316.334 235 316.333 238.333 316.333C242.467 316.333 267 311.134 269.533 309.667C270.733 309 265.8 305.8 254.2 299.8C244.867 295 236.6 291 236.067 291C235.533 291 235 296.734 235 303.667Z" fill="#03237B"/>
</svg>
