<svg width="380" height="376" viewBox="0 0 380 376" fill="none" xmlns="http://www.w3.org/2000/svg">
<path d="M322.027 120.681C322.027 120.681 309.206 69.8006 231.587 37.7128C153.968 5.62496 84.5273 35.344 68.6965 72.944C52.8657 110.544 69.4565 130.848 58.8925 162.958C48.3285 195.069 -5.94313 235.737 15.9601 285.053C37.8633 334.369 140.357 348.454 223.296 338.28C306.234 328.105 371.032 215.388 322.027 120.681Z" fill="#F5A71D"/>
<path opacity="0.7" d="M322.027 120.681C322.027 120.681 309.206 69.8006 231.587 37.7128C153.968 5.62497 84.5273 35.344 68.6965 72.944C52.8657 110.544 69.4565 130.848 58.8925 162.958C48.3285 195.069 -5.94313 235.737 15.9601 285.053C37.8633 334.369 140.357 348.454 223.296 338.28C306.234 328.105 371.032 215.388 322.027 120.681Z" fill="white"/>
<path d="M120.08 80.1482H56.9999C54.9843 80.1482 53.0512 80.9404 51.6259 82.3507C50.2006 83.761 49.3999 85.6737 49.3999 87.6682V110.98C49.3999 112.975 50.2006 114.887 51.6259 116.298C53.0512 117.708 54.9843 118.5 56.9999 118.5H119.7L127.68 129.028V87.6682C127.68 85.6737 126.879 83.761 125.454 82.3507C124.029 80.9404 122.096 80.1482 120.08 80.1482Z" fill="#263238"/>
<path d="M63.133 105.814H60.853V91.5259H63.133V97.6397H65.7018V91.5259H67.9818V105.814H65.7018V99.7002H63.133V105.814Z" fill="#623CE7"/>
<path d="M69.6616 91.5485H71.9416V105.836H69.6616V91.5485Z" fill="#623CE7"/>
<path d="M76.1063 91.5485H83.1059V93.5864H80.7347V105.814H78.4547V93.5864H76.0911L76.1063 91.5485Z" fill="#623CE7"/>
<path d="M86.3586 105.814H84.0786V91.5259H86.3586V97.6397H88.9198V91.5259H91.1998V105.814H88.9198V99.7002H86.3434L86.3586 105.814Z" fill="#623CE7"/>
<path d="M95.152 97.557H98.2604V99.5949H95.152V103.776H99.066V105.814H92.8872V91.5259H99.066V93.5638H95.152V97.557Z" fill="#623CE7"/>
<path d="M105.199 105.814C105.013 105.249 104.943 104.654 104.994 104.062V101.806C104.994 100.482 104.545 99.9934 103.474 99.9934H102.714V105.799H100.434V91.5109H103.854C106.202 91.5109 107.213 92.5938 107.213 94.7896V95.9101C107.213 97.3765 106.734 98.339 105.693 98.8053C106.825 99.279 107.213 100.354 107.213 101.813V104.017C107.172 104.604 107.257 105.194 107.464 105.746L105.199 105.814ZM102.729 93.5864V97.9706H103.618C104.462 97.9706 104.979 97.6021 104.979 96.4666V95.0528C104.979 94.0376 104.629 93.5488 103.823 93.5488L102.729 93.5864Z" fill="#623CE7"/>
<path d="M111.013 97.557H114.122V99.5949H111.013V103.776H114.92V105.814H108.741V91.5259H114.92V93.5638H111.013V97.557Z" fill="#623CE7"/>
<path d="M116.614 102.656L116.325 97.4968V91.5485H118.605V97.4968L118.317 102.656H116.614ZM118.545 103.656V105.814H116.363V103.656H118.545Z" fill="#623CE7"/>
<path d="M226.48 80.9002C226.48 80.9002 223.668 79.915 223.03 82.4042C222.391 84.8933 226.115 85.8182 226.571 85.8182C227.027 85.8182 227.749 85.1941 227.293 83.7578C226.837 82.3214 226.48 80.9002 226.48 80.9002Z" fill="#263238" stroke="#263238" stroke-linecap="round" stroke-linejoin="round"/>
<path d="M242.44 74.7939C242.44 74.7939 242.167 78.3885 242.167 79.8248C242.167 81.2611 243.687 81.8026 244.447 81.8026C245.207 81.8026 245.541 83.5096 245.085 85.3069C244.629 87.1042 243.086 88.1795 239.362 88.1795C235.638 88.1795 233.373 86.5627 233.282 85.3971C233.191 84.2315 234.095 79.1931 235.646 77.8771C237.196 76.5611 242.44 74.7939 242.44 74.7939Z" fill="#263238" stroke="#263238" stroke-linecap="round" stroke-linejoin="round"/>
<path d="M228.844 85.8408V87.232C228.844 87.4509 228.908 87.6651 229.028 87.849C229.148 88.033 229.319 88.179 229.52 88.2698C230.172 88.5428 230.866 88.7079 231.572 88.7586C232.995 88.7588 234.401 88.4508 235.691 87.8562C235.87 87.7808 236.022 87.655 236.129 87.4945C236.236 87.334 236.292 87.1459 236.292 86.9538V85.5024C236.29 85.4139 236.267 85.3272 236.223 85.2497C236.18 85.1723 236.118 85.1067 236.043 85.0584C235.968 85.0102 235.882 84.9809 235.793 84.9731C235.704 84.9652 235.614 84.9792 235.532 85.0136L235.235 85.164C235.235 85.164 230.751 85.728 228.844 85.8408Z" fill="#C31F82" stroke="#263238" stroke-linecap="round" stroke-linejoin="round"/>
<path d="M226.853 74.072C226.356 76.0474 226.02 78.0593 225.849 80.088C225.576 83.4118 225.849 86.465 227.21 86.5552C228.143 86.5569 229.058 86.2961 229.847 85.8032C229.847 85.8032 233.024 86.1642 234.111 85.6302L235.205 85.0888L236.018 79.8248C236.018 79.8248 236.109 71.6506 234.567 71.1091C233.024 70.5677 226.853 74.072 226.853 74.072Z" fill="white" stroke="#263238" stroke-linecap="round" stroke-linejoin="round"/>
<path d="M229.3 77.7568L228.578 79.6443C228.578 79.6443 227.119 80.0053 227.301 80.7197C227.483 81.4341 228.449 81.3288 228.449 81.3288" stroke="#263238" stroke-linecap="round" stroke-linejoin="round"/>
<path d="M231.633 78.5765C231.489 78.9675 231.192 79.2232 230.987 79.148C230.782 79.0728 230.721 78.6893 230.873 78.2907C231.025 77.8922 231.314 77.6365 231.527 77.7192C231.739 77.8019 231.8 78.208 231.633 78.5765Z" fill="#263238"/>
<path d="M228.213 77.6666C228.061 78.0651 227.772 78.3208 227.559 78.2456C227.347 78.1704 227.301 77.7794 227.445 77.3883C227.59 76.9973 227.886 76.7341 228.099 76.8093C228.312 76.8845 228.357 77.2755 228.213 77.6666Z" fill="#263238"/>
<path d="M230.934 76.0498C230.934 76.0498 232.659 75.5986 232.841 77.2229" stroke="#263238" stroke-linecap="round" stroke-linejoin="round"/>
<path d="M228.669 75.5986C228.669 75.5986 227.149 75.0646 226.67 76.3506" stroke="#263238" stroke-linecap="round" stroke-linejoin="round"/>
<path d="M229.847 85.8408L232.294 84.8557" stroke="#263238" stroke-linecap="round" stroke-linejoin="round"/>
<path d="M228 69.936C228 69.936 225.097 66.5219 222.916 69.0336C220.735 71.5453 221.396 75.3278 225.279 75.5083C229.163 75.6888 233.541 71.9138 233.541 71.9138C233.541 71.9138 233.085 76.8544 234.171 78.5614C235.258 80.2685 236.079 81.4341 236.079 81.4341C236.079 81.4341 237.599 82.4192 240.168 80.449C242.737 78.4787 243.345 73.681 241.528 70.4699C239.712 67.2589 236.535 65.439 232.72 66.7099C228.905 67.9808 228 69.936 228 69.936Z" fill="#263238" stroke="#263238" stroke-linecap="round" stroke-linejoin="round"/>
<path d="M234.293 81.3514C234.293 81.3514 237.561 78.3885 237.561 80.0955C237.561 81.8026 236.041 83.3291 234.84 82.9682" fill="white"/>
<path d="M234.293 81.3514C234.293 81.3514 237.561 78.3885 237.561 80.0955C237.561 81.8026 236.041 83.3291 234.84 82.9682" stroke="#263238" stroke-linecap="round" stroke-linejoin="round"/>
<path d="M227.301 82.72C227.73 83.026 228.246 83.1906 228.775 83.1906C229.305 83.1906 229.82 83.026 230.25 82.72" stroke="#263238" stroke-linecap="round" stroke-linejoin="round"/>
<path d="M244.166 88.3982C249.969 82.2876 249.668 72.679 243.492 66.9367C237.316 61.1945 227.606 61.4931 221.802 67.6037C215.999 73.7143 216.301 83.3229 222.476 89.0652C228.652 94.8074 238.363 94.5088 244.166 88.3982Z" stroke="#263238" stroke-linecap="round" stroke-linejoin="round"/>
<path d="M337.406 201.512C346.128 199.494 351.545 190.862 349.506 182.232C347.467 173.602 338.743 168.241 330.021 170.259C321.299 172.277 315.882 180.909 317.921 189.539C319.96 198.169 328.684 203.529 337.406 201.512Z" stroke="#263238" stroke-linecap="round" stroke-linejoin="round"/>
<path d="M339.249 190.617C339.249 191.673 338.933 192.705 338.34 193.583C337.747 194.461 336.904 195.146 335.918 195.55C334.932 195.954 333.847 196.06 332.8 195.854C331.754 195.648 330.792 195.139 330.037 194.392C329.283 193.646 328.769 192.694 328.561 191.659C328.353 190.623 328.459 189.549 328.868 188.574C329.276 187.598 329.968 186.764 330.855 186.178C331.743 185.591 332.786 185.278 333.853 185.278C335.284 185.278 336.657 185.84 337.669 186.842C338.681 187.843 339.249 189.201 339.249 190.617Z" fill="#623CE7" stroke="#263238" stroke-linecap="round" stroke-linejoin="round"/>
<path d="M341.567 194.174C342.731 192.736 343.461 191.003 343.673 189.172C343.884 187.342 343.569 185.49 342.763 183.83C341.958 182.169 340.694 180.767 339.118 179.786C337.542 178.805 335.719 178.285 333.857 178.285C331.995 178.285 330.171 178.805 328.595 179.786C327.02 180.767 325.756 182.169 324.95 183.83C324.144 185.49 323.829 187.342 324.041 189.172C324.253 191.003 324.982 192.736 326.147 194.174H341.567Z" fill="white" stroke="#263238" stroke-linecap="round" stroke-linejoin="round"/>
<path d="M337.706 191.407H329.756C329.291 191.407 328.831 191.316 328.401 191.14C327.971 190.964 327.581 190.706 327.252 190.38C326.923 190.055 326.662 189.668 326.484 189.243C326.306 188.818 326.215 188.362 326.215 187.902C326.214 187.442 326.305 186.986 326.482 186.56C326.66 186.134 326.921 185.748 327.25 185.422C327.579 185.096 327.97 184.838 328.4 184.663C328.83 184.487 329.291 184.397 329.756 184.398H337.706C338.171 184.397 338.632 184.487 339.063 184.663C339.493 184.838 339.884 185.096 340.213 185.422C340.542 185.748 340.802 186.134 340.98 186.56C341.158 186.986 341.249 187.442 341.248 187.902C341.248 188.832 340.875 189.723 340.21 190.38C339.546 191.037 338.645 191.407 337.706 191.407Z" fill="#623CE7" stroke="#263238" stroke-linecap="round" stroke-linejoin="round"/>
<path d="M327.841 187.616C328.004 187.165 328.301 186.773 328.693 186.492C329.085 186.211 329.554 186.053 330.038 186.04C330.522 186.027 330.999 186.159 331.406 186.419C331.812 186.679 332.13 187.054 332.318 187.496" stroke="#263238" stroke-width="2" stroke-linecap="round" stroke-linejoin="round"/>
<path d="M335.274 187.616C335.437 187.165 335.734 186.773 336.126 186.492C336.518 186.211 336.987 186.053 337.471 186.04C337.955 186.027 338.432 186.159 338.838 186.419C339.245 186.679 339.563 187.054 339.751 187.496" stroke="#263238" stroke-width="2" stroke-linecap="round" stroke-linejoin="round"/>
<path d="M332.553 189.241C332.589 189.571 332.746 189.877 332.996 190.1C333.246 190.322 333.57 190.445 333.906 190.445C334.242 190.445 334.566 190.322 334.816 190.1C335.066 189.877 335.223 189.571 335.259 189.241H332.553Z" fill="white" stroke="#263238" stroke-linecap="round" stroke-linejoin="round"/>
<path d="M346.629 189.797C346.493 189.797 346.358 189.771 346.233 189.719C346.108 189.668 345.994 189.593 345.898 189.498C345.802 189.403 345.726 189.29 345.674 189.166C345.622 189.042 345.595 188.909 345.595 188.775V186.451C345.595 186.317 345.622 186.184 345.674 186.06C345.726 185.935 345.802 185.823 345.898 185.728C345.994 185.633 346.108 185.557 346.233 185.506C346.358 185.455 346.493 185.428 346.629 185.428C346.764 185.428 346.899 185.455 347.024 185.506C347.15 185.557 347.263 185.633 347.359 185.728C347.455 185.823 347.532 185.935 347.583 186.06C347.635 186.184 347.662 186.317 347.662 186.451V188.752C347.665 188.888 347.641 189.024 347.59 189.15C347.54 189.277 347.464 189.392 347.368 189.49C347.271 189.587 347.156 189.665 347.029 189.717C346.903 189.77 346.766 189.797 346.629 189.797Z" fill="#263238" stroke="#263238" stroke-linecap="round" stroke-linejoin="round"/>
<path d="M320.804 189.797C320.668 189.797 320.533 189.771 320.408 189.719C320.283 189.668 320.169 189.593 320.073 189.498C319.977 189.403 319.901 189.29 319.849 189.166C319.797 189.042 319.77 188.909 319.77 188.775V186.451C319.77 186.317 319.797 186.184 319.849 186.06C319.901 185.935 319.977 185.823 320.073 185.728C320.169 185.633 320.283 185.557 320.408 185.506C320.533 185.455 320.668 185.428 320.804 185.428C320.939 185.428 321.074 185.455 321.199 185.506C321.325 185.557 321.438 185.633 321.534 185.728C321.63 185.823 321.707 185.935 321.759 186.06C321.81 186.184 321.837 186.317 321.837 186.451V188.752C321.84 188.888 321.816 189.024 321.765 189.15C321.715 189.277 321.639 189.392 321.543 189.49C321.446 189.587 321.331 189.665 321.205 189.717C321.078 189.77 320.941 189.797 320.804 189.797Z" fill="#263238" stroke="#263238" stroke-linecap="round" stroke-linejoin="round"/>
<path d="M322.711 186.594C322.424 186.592 322.15 186.478 321.948 186.276C321.746 186.075 321.632 185.802 321.632 185.518V183.834C321.629 182.009 322.18 180.225 323.213 178.713C323.287 178.584 323.387 178.472 323.507 178.383C323.628 178.294 323.765 178.231 323.911 178.197C324.057 178.164 324.208 178.16 324.356 178.188C324.503 178.215 324.643 178.272 324.767 178.355C324.891 178.438 324.997 178.546 325.077 178.671C325.157 178.797 325.209 178.937 325.232 179.084C325.254 179.23 325.246 179.38 325.207 179.523C325.168 179.666 325.1 179.8 325.006 179.916C324.216 181.073 323.795 182.438 323.798 183.834V185.518C323.798 185.804 323.684 186.077 323.48 186.279C323.276 186.48 323 186.594 322.711 186.594Z" fill="#263238"/>
<path d="M343.702 179.856C343.613 179.856 343.526 179.834 343.447 179.792C343.369 179.75 343.302 179.689 343.254 179.615C342.557 178.587 341.615 177.745 340.511 177.164C339.406 176.583 338.174 176.281 336.923 176.284H330.889C329.638 176.281 328.406 176.583 327.301 177.164C326.197 177.745 325.255 178.587 324.558 179.615C324.476 179.734 324.35 179.816 324.208 179.842C324.065 179.869 323.918 179.839 323.798 179.758C323.738 179.719 323.686 179.668 323.646 179.608C323.606 179.549 323.579 179.482 323.565 179.412C323.552 179.342 323.553 179.27 323.568 179.2C323.583 179.131 323.612 179.065 323.654 179.006C324.45 177.834 325.527 176.874 326.787 176.21C328.047 175.546 329.454 175.2 330.881 175.201H336.916C338.345 175.2 339.753 175.547 341.015 176.212C342.277 176.877 343.354 177.839 344.151 179.014C344.192 179.072 344.221 179.139 344.235 179.209C344.25 179.279 344.25 179.351 344.236 179.421C344.222 179.492 344.193 179.558 344.153 179.617C344.112 179.676 344.06 179.727 343.999 179.766C343.911 179.823 343.808 179.855 343.702 179.856Z" fill="#263238"/>
<path d="M345.101 186.594C344.813 186.594 344.536 186.48 344.332 186.279C344.129 186.077 344.014 185.804 344.014 185.518V183.834C344.017 182.438 343.596 181.073 342.806 179.916C342.715 179.799 342.649 179.666 342.613 179.523C342.577 179.38 342.57 179.232 342.594 179.087C342.618 178.942 342.672 178.803 342.752 178.679C342.833 178.555 342.938 178.449 343.061 178.367C343.185 178.285 343.324 178.229 343.47 178.202C343.616 178.176 343.767 178.179 343.911 178.212C344.056 178.245 344.193 178.308 344.312 178.395C344.432 178.482 344.532 178.593 344.607 178.72C345.638 180.23 346.186 182.012 346.18 183.834V185.518C346.18 185.802 346.067 186.075 345.864 186.276C345.662 186.478 345.388 186.592 345.101 186.594Z" fill="#263238"/>
<path d="M322.848 191.316C322.28 191.316 321.734 191.093 321.333 190.695C320.931 190.297 320.705 189.758 320.705 189.196V185.827C320.705 185.264 320.931 184.725 321.333 184.327C321.734 183.929 322.28 183.706 322.848 183.706C323.416 183.706 323.962 183.929 324.363 184.327C324.765 184.725 324.991 185.264 324.991 185.827V189.196C324.991 189.758 324.765 190.297 324.363 190.695C323.962 191.093 323.416 191.316 322.848 191.316Z" fill="white" stroke="#263238" stroke-linecap="round" stroke-linejoin="round"/>
<path d="M323.068 183.706H322.628V191.316H323.068V183.706Z" fill="#623CE7" stroke="#263238" stroke-linecap="round" stroke-linejoin="round"/>
<path d="M346.849 185.827C346.849 184.656 345.889 183.706 344.706 183.706C343.522 183.706 342.562 184.656 342.562 185.827V189.196C342.562 190.367 343.522 191.316 344.706 191.316C345.889 191.316 346.849 190.367 346.849 189.196V185.827Z" fill="white" stroke="#263238" stroke-linecap="round" stroke-linejoin="round"/>
<path d="M344.926 183.706H344.485V191.316H344.926V183.706Z" fill="#623CE7" stroke="#263238" stroke-linecap="round" stroke-linejoin="round"/>
<path d="M333.891 183.014C334.646 183.011 335.388 182.823 336.052 182.466C336.715 182.109 337.278 181.594 337.691 180.969L338.626 179.532C337.144 178.721 335.476 178.302 333.782 178.315C332.089 178.328 330.427 178.773 328.958 179.608L330.357 181.337C330.783 181.859 331.321 182.281 331.933 182.571C332.544 182.861 333.213 183.012 333.891 183.014Z" fill="#623CE7" stroke="#263238" stroke-linecap="round" stroke-linejoin="round"/>
<path d="M333.967 192.271C334.055 192.271 334.127 192.201 334.127 192.113C334.127 192.026 334.055 191.956 333.967 191.956C333.879 191.956 333.807 192.026 333.807 192.113C333.807 192.201 333.879 192.271 333.967 192.271Z" fill="#263238"/>
<path d="M334.127 192.662C334.125 192.622 334.107 192.584 334.077 192.556C334.048 192.528 334.008 192.512 333.967 192.512C333.946 192.511 333.926 192.514 333.906 192.521C333.887 192.528 333.869 192.539 333.855 192.553C333.84 192.567 333.828 192.584 333.82 192.603C333.812 192.622 333.807 192.642 333.807 192.662C333.807 192.704 333.824 192.744 333.854 192.774C333.884 192.804 333.925 192.82 333.967 192.82C334.009 192.82 334.05 192.804 334.08 192.774C334.11 192.744 334.127 192.704 334.127 192.662Z" fill="#263238"/>
<path d="M333.496 192.58C333.536 192.567 333.57 192.54 333.59 192.504C333.61 192.467 333.614 192.424 333.602 192.384C333.587 192.345 333.558 192.313 333.52 192.293C333.482 192.274 333.438 192.269 333.397 192.279C333.357 192.291 333.323 192.318 333.303 192.355C333.283 192.392 333.279 192.434 333.291 192.474C333.306 192.514 333.335 192.546 333.373 192.565C333.411 192.585 333.455 192.59 333.496 192.58Z" fill="#263238"/>
<path d="M334.491 192.58C334.531 192.568 334.565 192.54 334.585 192.504C334.605 192.467 334.609 192.424 334.598 192.384C334.584 192.344 334.555 192.31 334.516 192.291C334.478 192.271 334.434 192.267 334.392 192.279C334.373 192.285 334.354 192.295 334.338 192.308C334.323 192.321 334.31 192.337 334.3 192.356C334.291 192.374 334.286 192.394 334.285 192.414C334.283 192.435 334.287 192.455 334.294 192.474C334.306 192.514 334.334 192.548 334.371 192.567C334.408 192.587 334.451 192.591 334.491 192.58Z" fill="#263238"/>
<path d="M313.789 103.889H253.316V77.2304V70.1616L260.467 77.2304H313.789V103.889Z" fill="#D6D6D6" stroke="#263238" stroke-linecap="round" stroke-linejoin="round"/>
<path d="M313.789 142.504H253.316V115.853V108.784L260.467 115.853H313.789V142.504Z" fill="#D6D6D6" stroke="#263238" stroke-linecap="round" stroke-linejoin="round"/>
<path d="M293.695 86.4048H307.929" stroke="#263238" stroke-linecap="round" stroke-linejoin="round"/>
<path d="M273.775 86.4048H290.039" stroke="#263238" stroke-linecap="round" stroke-linejoin="round"/>
<path d="M261.577 86.4048H270.925" stroke="#263238" stroke-linecap="round" stroke-linejoin="round"/>
<path d="M287.189 90.8341H307.929" stroke="#263238" stroke-linecap="round" stroke-linejoin="round"/>
<path d="M261.577 90.8341H283.533" stroke="#263238" stroke-linecap="round" stroke-linejoin="round"/>
<path d="M303.863 95.2558H307.929" stroke="#263238" stroke-linecap="round" stroke-linejoin="round"/>
<path d="M281.094 95.2558H300.611" stroke="#263238" stroke-linecap="round" stroke-linejoin="round"/>
<path d="M261.577 95.2558H277.841" stroke="#263238" stroke-linecap="round" stroke-linejoin="round"/>
<path d="M293.695 123.817H307.929" stroke="#263238" stroke-linecap="round" stroke-linejoin="round"/>
<path d="M273.775 123.817H290.039" stroke="#263238" stroke-linecap="round" stroke-linejoin="round"/>
<path d="M261.577 123.817H270.925" stroke="#263238" stroke-linecap="round" stroke-linejoin="round"/>
<path d="M287.189 128.246H307.929" stroke="#263238" stroke-linecap="round" stroke-linejoin="round"/>
<path d="M261.577 128.246H283.533" stroke="#263238" stroke-linecap="round" stroke-linejoin="round"/>
<path d="M303.863 132.668H307.929" stroke="#263238" stroke-linecap="round" stroke-linejoin="round"/>
<path d="M281.094 132.668H300.611" stroke="#263238" stroke-linecap="round" stroke-linejoin="round"/>
<path d="M261.577 132.668H277.841" stroke="#263238" stroke-linecap="round" stroke-linejoin="round"/>
<path d="M253.316 251.1H313.789V186.631V179.563L306.637 186.631H253.316V251.1Z" fill="#623CE7" stroke="#263238" stroke-linecap="round" stroke-linejoin="round"/>
<path d="M293.695 195.43H307.929" stroke="#263238" stroke-linecap="round" stroke-linejoin="round"/>
<path d="M273.775 195.43H290.039" stroke="#263238" stroke-linecap="round" stroke-linejoin="round"/>
<path d="M261.577 195.43H270.925" stroke="#263238" stroke-linecap="round" stroke-linejoin="round"/>
<path d="M287.189 199.852H307.929" stroke="#263238" stroke-linecap="round" stroke-linejoin="round"/>
<path d="M261.577 199.852H283.533" stroke="#263238" stroke-linecap="round" stroke-linejoin="round"/>
<path d="M303.863 204.281H307.929" stroke="#263238" stroke-linecap="round" stroke-linejoin="round"/>
<path d="M281.094 204.281H300.611" stroke="#263238" stroke-linecap="round" stroke-linejoin="round"/>
<path d="M261.577 204.281H277.841" stroke="#263238" stroke-linecap="round" stroke-linejoin="round"/>
<path d="M293.695 207.898H307.929" stroke="#263238" stroke-linecap="round" stroke-linejoin="round"/>
<path d="M273.775 207.898H290.039" stroke="#263238" stroke-linecap="round" stroke-linejoin="round"/>
<path d="M261.577 207.898H270.925" stroke="#263238" stroke-linecap="round" stroke-linejoin="round"/>
<path d="M287.189 212.327H307.929" stroke="#263238" stroke-linecap="round" stroke-linejoin="round"/>
<path d="M261.577 212.327H283.533" stroke="#263238" stroke-linecap="round" stroke-linejoin="round"/>
<path d="M303.863 216.749H307.929" stroke="#263238" stroke-linecap="round" stroke-linejoin="round"/>
<path d="M281.094 216.749H300.611" stroke="#263238" stroke-linecap="round" stroke-linejoin="round"/>
<path d="M261.577 216.749H277.841" stroke="#263238" stroke-linecap="round" stroke-linejoin="round"/>
<path d="M293.695 220.374H307.929" stroke="#263238" stroke-linecap="round" stroke-linejoin="round"/>
<path d="M273.775 220.374H290.039" stroke="#263238" stroke-linecap="round" stroke-linejoin="round"/>
<path d="M261.577 220.374H270.925" stroke="#263238" stroke-linecap="round" stroke-linejoin="round"/>
<path d="M287.189 224.795H307.929" stroke="#263238" stroke-linecap="round" stroke-linejoin="round"/>
<path d="M261.577 224.795H283.533" stroke="#263238" stroke-linecap="round" stroke-linejoin="round"/>
<path d="M303.863 229.225H307.929" stroke="#263238" stroke-linecap="round" stroke-linejoin="round"/>
<path d="M281.094 229.225H300.611" stroke="#263238" stroke-linecap="round" stroke-linejoin="round"/>
<path d="M261.577 229.225H277.841" stroke="#263238" stroke-linecap="round" stroke-linejoin="round"/>
<path d="M293.695 232.842H307.929" stroke="#263238" stroke-linecap="round" stroke-linejoin="round"/>
<path d="M273.775 232.842H290.039" stroke="#263238" stroke-linecap="round" stroke-linejoin="round"/>
<path d="M261.577 232.842H270.925" stroke="#263238" stroke-linecap="round" stroke-linejoin="round"/>
<path d="M287.189 237.271H307.929" stroke="#263238" stroke-linecap="round" stroke-linejoin="round"/>
<path d="M261.577 237.271H283.533" stroke="#263238" stroke-linecap="round" stroke-linejoin="round"/>
<path d="M303.863 241.693H307.929" stroke="#263238" stroke-linecap="round" stroke-linejoin="round"/>
<path d="M281.094 241.693H300.611" stroke="#263238" stroke-linecap="round" stroke-linejoin="round"/>
<path d="M261.577 241.693H277.841" stroke="#263238" stroke-linecap="round" stroke-linejoin="round"/>
<path d="M333.716 286.948C342.673 286.948 349.935 279.763 349.935 270.9C349.935 262.038 342.673 254.853 333.716 254.853C324.759 254.853 317.498 262.038 317.498 270.9C317.498 279.763 324.759 286.948 333.716 286.948Z" stroke="#263238" stroke-linecap="round" stroke-linejoin="round"/>
<path d="M339.249 275.631C339.251 276.687 338.935 277.72 338.343 278.599C337.751 279.478 336.909 280.163 335.923 280.569C334.937 280.974 333.852 281.081 332.805 280.876C331.758 280.67 330.796 280.163 330.04 279.416C329.285 278.67 328.77 277.718 328.561 276.682C328.352 275.647 328.459 274.573 328.867 273.597C329.275 272.621 329.967 271.786 330.854 271.199C331.742 270.612 332.785 270.299 333.853 270.299C335.283 270.299 336.654 270.86 337.666 271.86C338.678 272.86 339.247 274.216 339.249 275.631Z" fill="#623CE7" stroke="#263238" stroke-linecap="round" stroke-linejoin="round"/>
<path d="M341.567 279.188C342.731 277.75 343.461 276.016 343.673 274.186C343.884 272.356 343.569 270.504 342.763 268.843C341.958 267.183 340.694 265.781 339.118 264.8C337.542 263.819 335.719 263.299 333.857 263.299C331.995 263.299 330.171 263.819 328.595 264.8C327.02 265.781 325.756 267.183 324.95 268.843C324.144 270.504 323.829 272.356 324.041 274.186C324.253 276.016 324.982 277.75 326.147 279.188H341.567Z" fill="white" stroke="#263238" stroke-linecap="round" stroke-linejoin="round"/>
<path d="M337.706 276.42H329.756C329.291 276.42 328.831 276.33 328.401 276.153C327.971 275.977 327.581 275.719 327.252 275.394C326.923 275.068 326.662 274.682 326.484 274.257C326.306 273.832 326.215 273.376 326.215 272.916C326.215 272.456 326.306 272 326.484 271.575C326.662 271.15 326.923 270.763 327.252 270.438C327.581 270.112 327.971 269.854 328.401 269.678C328.831 269.502 329.291 269.412 329.756 269.412H337.706C338.171 269.412 338.632 269.502 339.061 269.678C339.491 269.854 339.881 270.112 340.21 270.438C340.539 270.763 340.8 271.15 340.978 271.575C341.156 272 341.248 272.456 341.248 272.916C341.248 273.845 340.874 274.737 340.21 275.394C339.546 276.051 338.645 276.42 337.706 276.42Z" fill="#623CE7" stroke="#263238" stroke-linecap="round" stroke-linejoin="round"/>
<path d="M327.841 272.63C328.004 272.179 328.301 271.787 328.693 271.505C329.085 271.224 329.554 271.067 330.038 271.054C330.522 271.041 330.999 271.173 331.406 271.433C331.812 271.692 332.13 272.068 332.318 272.51" stroke="#263238" stroke-width="2" stroke-linecap="round" stroke-linejoin="round"/>
<path d="M335.274 272.63C335.437 272.179 335.734 271.787 336.126 271.505C336.518 271.224 336.987 271.067 337.471 271.054C337.955 271.041 338.432 271.173 338.838 271.433C339.245 271.692 339.563 272.068 339.751 272.51" stroke="#263238" stroke-width="2" stroke-linecap="round" stroke-linejoin="round"/>
<path d="M332.553 274.254C332.589 274.585 332.746 274.891 332.996 275.113C333.246 275.335 333.57 275.458 333.906 275.458C334.242 275.458 334.566 275.335 334.816 275.113C335.066 274.891 335.223 274.585 335.259 274.254H332.553Z" fill="white" stroke="#263238" stroke-linecap="round" stroke-linejoin="round"/>
<path d="M346.629 274.811C346.354 274.811 346.092 274.703 345.898 274.511C345.704 274.32 345.595 274.059 345.595 273.788V271.472C345.595 271.201 345.704 270.941 345.898 270.749C346.092 270.557 346.354 270.449 346.629 270.449C346.903 270.449 347.166 270.557 347.359 270.749C347.553 270.941 347.662 271.201 347.662 271.472V273.796C347.66 274.066 347.55 274.324 347.357 274.514C347.163 274.704 346.901 274.811 346.629 274.811Z" fill="#263238" stroke="#263238" stroke-linecap="round" stroke-linejoin="round"/>
<path d="M320.804 274.811C320.529 274.811 320.267 274.703 320.073 274.511C319.879 274.32 319.77 274.059 319.77 273.788V271.472C319.77 271.201 319.879 270.941 320.073 270.749C320.267 270.557 320.529 270.449 320.804 270.449C321.078 270.449 321.341 270.557 321.534 270.749C321.728 270.941 321.837 271.201 321.837 271.472V273.796C321.835 274.066 321.725 274.324 321.532 274.514C321.338 274.704 321.076 274.811 320.804 274.811Z" fill="#263238" stroke="#263238" stroke-linecap="round" stroke-linejoin="round"/>
<path d="M322.711 271.615C322.424 271.613 322.15 271.499 321.948 271.297C321.746 271.096 321.632 270.823 321.632 270.54V268.848C321.63 267.023 322.18 265.239 323.213 263.726C323.384 263.515 323.629 263.375 323.899 263.334C324.17 263.294 324.445 263.356 324.672 263.507C324.898 263.659 325.058 263.89 325.12 264.154C325.183 264.417 325.142 264.694 325.006 264.93C324.216 266.086 323.795 267.451 323.798 268.848V270.54C323.798 270.825 323.684 271.098 323.48 271.3C323.276 271.502 323 271.615 322.711 271.615Z" fill="#263238"/>
<path d="M343.702 264.869C343.614 264.869 343.527 264.848 343.449 264.807C343.371 264.767 343.304 264.708 343.254 264.636C342.558 263.607 341.616 262.764 340.512 262.181C339.407 261.599 338.175 261.295 336.923 261.297H330.889C329.639 261.298 328.408 261.602 327.304 262.183C326.201 262.764 325.258 263.604 324.558 264.629C324.518 264.687 324.467 264.737 324.408 264.776C324.348 264.814 324.282 264.841 324.212 264.854C324.142 264.868 324.07 264.867 324 264.853C323.931 264.839 323.864 264.811 323.806 264.772C323.747 264.732 323.696 264.682 323.657 264.623C323.618 264.564 323.591 264.498 323.578 264.429C323.564 264.36 323.565 264.289 323.579 264.22C323.593 264.151 323.621 264.085 323.661 264.027C324.458 262.855 325.534 261.895 326.795 261.231C328.055 260.568 329.461 260.221 330.889 260.222H336.923C338.353 260.223 339.76 260.57 341.021 261.235C342.283 261.9 343.36 262.861 344.158 264.035C344.199 264.094 344.228 264.16 344.243 264.23C344.257 264.3 344.258 264.372 344.243 264.443C344.229 264.513 344.201 264.579 344.16 264.638C344.119 264.698 344.067 264.748 344.006 264.787C343.915 264.843 343.81 264.872 343.702 264.869Z" fill="#263238"/>
<path d="M345.101 271.615C344.813 271.615 344.536 271.502 344.332 271.3C344.129 271.098 344.014 270.825 344.014 270.54V268.848C344.016 267.454 343.595 266.092 342.806 264.937C342.723 264.82 342.664 264.688 342.633 264.548C342.603 264.409 342.6 264.265 342.626 264.124C342.653 263.984 342.707 263.85 342.786 263.73C342.865 263.611 342.967 263.508 343.087 263.428C343.207 263.348 343.341 263.293 343.483 263.265C343.625 263.237 343.77 263.237 343.912 263.266C344.053 263.294 344.188 263.35 344.307 263.431C344.426 263.511 344.528 263.614 344.607 263.734C345.637 265.244 346.185 267.026 346.18 268.848V270.54C346.18 270.823 346.067 271.096 345.864 271.297C345.662 271.499 345.388 271.613 345.101 271.615Z" fill="#263238"/>
<path d="M322.848 276.337C322.28 276.337 321.734 276.114 321.333 275.716C320.931 275.319 320.705 274.779 320.705 274.217V270.84C320.705 270.278 320.931 269.738 321.333 269.341C321.734 268.943 322.28 268.72 322.848 268.72C323.416 268.72 323.962 268.943 324.363 269.341C324.765 269.738 324.991 270.278 324.991 270.84V274.217C324.989 274.779 324.763 275.317 324.361 275.714C323.96 276.111 323.416 276.335 322.848 276.337Z" fill="white" stroke="#263238" stroke-linecap="round" stroke-linejoin="round"/>
<path d="M323.068 268.72H322.628V276.33H323.068V268.72Z" fill="#623CE7" stroke="#263238" stroke-linecap="round" stroke-linejoin="round"/>
<path d="M346.849 270.84C346.849 269.669 345.889 268.72 344.706 268.72C343.522 268.72 342.562 269.669 342.562 270.84V274.209C342.562 275.38 343.522 276.33 344.706 276.33C345.889 276.33 346.849 275.38 346.849 274.209V270.84Z" fill="white" stroke="#263238" stroke-linecap="round" stroke-linejoin="round"/>
<path d="M344.926 268.72H344.485V276.33H344.926V268.72Z" fill="#623CE7" stroke="#263238" stroke-linecap="round" stroke-linejoin="round"/>
<path d="M333.891 268.028C334.646 268.025 335.388 267.836 336.052 267.479C336.715 267.122 337.278 266.608 337.691 265.982L338.626 264.554C337.143 263.744 335.476 263.326 333.783 263.338C332.09 263.349 330.429 263.791 328.958 264.621L330.357 266.351C330.783 266.873 331.321 267.294 331.933 267.584C332.544 267.874 333.213 268.026 333.891 268.028Z" fill="#623CE7" stroke="#263238" stroke-linecap="round" stroke-linejoin="round"/>
<path d="M333.967 277.285C334.055 277.285 334.127 277.214 334.127 277.127C334.127 277.04 334.055 276.969 333.967 276.969C333.879 276.969 333.807 277.04 333.807 277.127C333.807 277.214 333.879 277.285 333.967 277.285Z" fill="#263238"/>
<path d="M333.967 277.841C334.055 277.841 334.127 277.771 334.127 277.684C334.127 277.596 334.055 277.526 333.967 277.526C333.879 277.526 333.807 277.596 333.807 277.684C333.807 277.771 333.879 277.841 333.967 277.841Z" fill="#263238"/>
<path d="M333.496 277.593C333.536 277.581 333.57 277.554 333.589 277.517C333.609 277.481 333.614 277.438 333.602 277.398C333.587 277.359 333.557 277.326 333.52 277.307C333.482 277.287 333.438 277.282 333.397 277.292C333.358 277.306 333.325 277.334 333.306 277.37C333.286 277.406 333.281 277.448 333.291 277.488C333.297 277.509 333.307 277.528 333.32 277.544C333.334 277.561 333.351 277.574 333.37 277.584C333.389 277.594 333.411 277.6 333.432 277.601C333.454 277.603 333.475 277.6 333.496 277.593Z" fill="#263238"/>
<path d="M334.491 277.593C334.531 277.581 334.565 277.554 334.585 277.517C334.605 277.481 334.609 277.438 334.598 277.398C334.584 277.357 334.555 277.324 334.516 277.304C334.478 277.285 334.434 277.28 334.392 277.292C334.373 277.298 334.354 277.308 334.338 277.321C334.323 277.335 334.31 277.351 334.3 277.369C334.291 277.387 334.286 277.407 334.285 277.428C334.283 277.448 334.287 277.469 334.294 277.488C334.299 277.508 334.308 277.527 334.321 277.544C334.334 277.56 334.35 277.574 334.369 277.584C334.388 277.594 334.408 277.6 334.429 277.601C334.45 277.603 334.471 277.6 334.491 277.593Z" fill="#263238"/>
<path d="M253.316 309.696H313.789V271.645V264.576L306.637 271.645H253.316V309.696Z" fill="#623CE7" stroke="#263238" stroke-linecap="round" stroke-linejoin="round"/>
<path d="M293.695 280.443H307.929" stroke="#263238" stroke-linecap="round" stroke-linejoin="round"/>
<path d="M273.775 280.443H290.039" stroke="#263238" stroke-linecap="round" stroke-linejoin="round"/>
<path d="M261.577 280.443H270.925" stroke="#263238" stroke-linecap="round" stroke-linejoin="round"/>
<path d="M287.189 284.873H307.929" stroke="#263238" stroke-linecap="round" stroke-linejoin="round"/>
<path d="M261.577 284.873H283.533" stroke="#263238" stroke-linecap="round" stroke-linejoin="round"/>
<path d="M303.863 289.294H307.929" stroke="#263238" stroke-linecap="round" stroke-linejoin="round"/>
<path d="M281.094 289.294H300.611" stroke="#263238" stroke-linecap="round" stroke-linejoin="round"/>
<path d="M261.577 289.294H277.841" stroke="#263238" stroke-linecap="round" stroke-linejoin="round"/>
<path d="M293.695 292.919H307.929" stroke="#263238" stroke-linecap="round" stroke-linejoin="round"/>
<path d="M273.775 292.919H290.039" stroke="#263238" stroke-linecap="round" stroke-linejoin="round"/>
<path d="M261.577 292.919H270.925" stroke="#263238" stroke-linecap="round" stroke-linejoin="round"/>
<path d="M287.189 297.341H307.929" stroke="#263238" stroke-linecap="round" stroke-linejoin="round"/>
<path d="M261.577 297.341H283.533" stroke="#263238" stroke-linecap="round" stroke-linejoin="round"/>
<path d="M303.863 301.763H307.929" stroke="#263238" stroke-linecap="round" stroke-linejoin="round"/>
<path d="M281.094 301.763H300.611" stroke="#263238" stroke-linecap="round" stroke-linejoin="round"/>
<path d="M261.577 301.763H277.841" stroke="#263238" stroke-linecap="round" stroke-linejoin="round"/>
<path d="M344.28 41.7962H312.907C312.578 43.5154 311.654 45.0673 310.293 46.1846C308.932 47.3019 307.22 47.9147 305.452 47.9174H260.536C258.767 47.9147 257.055 47.3019 255.694 46.1846C254.333 45.0673 253.409 43.5154 253.08 41.7962H221.745C219.125 41.7962 216.612 42.8261 214.759 44.6595C212.906 46.4928 211.865 48.9794 211.865 51.5722V314.02C211.865 316.613 212.906 319.099 214.759 320.933C216.612 322.766 219.125 323.796 221.745 323.796H344.28C346.9 323.796 349.413 322.766 351.266 320.933C353.119 319.099 354.16 316.613 354.16 314.02V51.5722C354.16 48.9794 353.119 46.4928 351.266 44.6595C349.413 42.8261 346.9 41.7962 344.28 41.7962Z" stroke="#263238" stroke-width="2" stroke-linecap="round" stroke-linejoin="round"/>
<path d="M354.16 59.5058V51.5797C354.16 48.9869 353.119 46.5004 351.266 44.667C349.413 42.8336 346.9 41.8037 344.28 41.8037H312.907C312.578 43.5229 311.654 45.0748 310.293 46.1921C308.932 47.3095 307.22 47.9222 305.452 47.925H260.536C258.766 47.9219 257.053 47.3081 255.692 46.1892C254.331 45.0704 253.407 43.5168 253.08 41.7962H221.745C219.125 41.7962 216.612 42.8261 214.759 44.6595C212.906 46.4928 211.865 48.9794 211.865 51.5722V59.5058H354.16Z" stroke="#263238" stroke-width="2" stroke-linecap="round" stroke-linejoin="round"/>
<path d="M224.899 48.88C224.899 50.8051 222.71 51.497 222.703 52.9634V53.0611H224.823V53.7154H221.996V53.1664C221.996 51.136 224.2 50.6998 224.2 48.88C224.2 48.2182 223.98 47.8723 223.44 47.8723C222.9 47.8723 222.68 48.2483 222.68 48.8123V49.3763H222.011V48.88C222.011 47.9024 222.46 47.2557 223.455 47.2557C224.451 47.2557 224.899 47.9024 224.899 48.88Z" fill="#263238"/>
<path d="M228.426 48.88V49.0454C228.458 49.3154 228.402 49.5886 228.265 49.8243C228.128 50.06 227.918 50.2458 227.666 50.3539C227.92 50.4628 228.133 50.6509 228.27 50.8897C228.407 51.1285 228.462 51.4051 228.426 51.6774V52.1662C228.426 53.1438 227.962 53.783 226.974 53.783C225.986 53.783 225.522 53.1438 225.522 52.1662V51.7301H226.199V52.2114C226.199 52.7904 226.434 53.1363 226.959 53.1363C227.483 53.1363 227.719 52.7979 227.719 52.1512V51.6624C227.719 51.0307 227.445 50.7299 226.906 50.7074H226.48V50.0757H226.906C227.017 50.0773 227.128 50.0545 227.23 50.009C227.331 49.9635 227.422 49.8963 227.494 49.8123C227.567 49.7283 227.62 49.6295 227.65 49.523C227.679 49.4164 227.685 49.3047 227.666 49.1958V48.88C227.666 48.2258 227.43 47.8874 226.906 47.8874C226.381 47.8874 226.146 48.2408 226.146 48.8198V49.1507H225.469V48.88C225.469 47.9024 225.933 47.2707 226.921 47.2707C227.909 47.2707 228.426 47.8949 228.426 48.88Z" fill="#263238"/>
<path d="M229.817 49.3538V50.2411H229.125V49.3538H229.817ZM229.817 52.828V53.7154H229.125V52.828H229.817Z" fill="#263238"/>
<path d="M231.276 49.9253C231.37 49.7582 231.51 49.6204 231.679 49.5274C231.848 49.4344 232.04 49.3899 232.233 49.3989C233.062 49.3989 233.434 50.0005 233.434 50.9029V52.1512C233.434 53.1288 232.963 53.768 231.975 53.768C230.987 53.768 230.531 53.1288 230.531 52.1512V51.7226H231.2V52.1963C231.2 52.7754 231.443 53.1213 231.96 53.1213C232.477 53.1213 232.72 52.7754 232.72 52.1963V50.9706C232.72 50.3915 232.484 50.0456 231.96 50.0456C231.863 50.0361 231.766 50.0468 231.674 50.0769C231.582 50.107 231.498 50.1559 231.426 50.2204C231.354 50.2849 231.297 50.3636 231.258 50.4514C231.219 50.5392 231.199 50.6341 231.2 50.7299V50.8728H230.523L230.698 47.3309H233.244V47.9701H231.344L231.276 49.9253Z" fill="#263238"/>
<path d="M237.014 48.88V48.9928H236.36V48.8274C236.36 48.2558 236.117 47.9174 235.6 47.9174C235.083 47.9174 234.84 48.2634 234.84 48.9477V50.384C234.914 50.1731 235.056 49.992 235.244 49.8685C235.432 49.7449 235.656 49.6856 235.881 49.6997C236.71 49.6997 237.082 50.2862 237.082 51.2037V52.1662C237.082 53.1438 236.596 53.783 235.608 53.783C234.62 53.783 234.08 53.1363 234.08 52.1587V48.88C234.08 47.8648 234.536 47.2331 235.562 47.2331C236.588 47.2331 237.014 47.8874 237.014 48.88ZM234.794 51.2638V52.2189C234.794 52.7979 235.038 53.1438 235.554 53.1438C236.071 53.1438 236.314 52.7979 236.314 52.2189V51.2488C236.314 50.6773 236.064 50.3314 235.554 50.3314C235.045 50.3314 234.794 50.6773 234.794 51.2488V51.2638Z" fill="#263238"/>
<path d="M316.669 49.1432H314.845V53.6477H316.669V49.1432Z" fill="#263238"/>
<path d="M319.101 48.2408H317.277V53.6477H319.101V48.2408Z" fill="#263238"/>
<path d="M321.526 47.6016H319.702V53.6477H321.526V47.6016Z" fill="#263238"/>
<path d="M323.958 46.4811H322.134V53.6477H323.958V46.4811Z" fill="#263238"/>
<path d="M346.492 53.5198H335.563V46.9173H346.492V53.5198ZM336.171 52.9258H345.884V47.5189H336.171V52.9258Z" fill="#263238"/>
<path d="M342.851 48.1731H337.083V52.2715H342.851V48.1731Z" fill="#263238"/>
<path d="M347.487 49.444H346.112V51.0006H347.487V49.444Z" fill="#263238"/>
<path d="M331.558 52.0835C331.486 52.0848 331.415 52.0666 331.353 52.0309C329.126 50.7224 327.659 51.9331 327.598 51.9857C327.559 52.0255 327.511 52.0568 327.459 52.0776C327.406 52.0984 327.35 52.1082 327.294 52.1066C327.238 52.105 327.182 52.0919 327.131 52.0681C327.08 52.0443 327.034 52.0104 326.997 51.9684C326.96 51.9264 326.932 51.8773 326.915 51.8241C326.898 51.7709 326.892 51.7148 326.898 51.6593C326.903 51.6038 326.921 51.55 326.948 51.5014C326.976 51.4527 327.014 51.4103 327.059 51.3766C327.135 51.309 329.019 49.7147 331.771 51.3315C331.862 51.3889 331.927 51.4788 331.952 51.5825C331.978 51.6862 331.962 51.7957 331.907 51.888C331.872 51.948 331.82 51.9976 331.759 52.0319C331.698 52.0662 331.628 52.084 331.558 52.0835Z" fill="#263238"/>
<path d="M332.379 50.7299C332.306 50.7285 332.235 50.7078 332.173 50.6698C328.959 48.7822 326.793 50.6096 326.77 50.6246C326.73 50.6592 326.683 50.6856 326.633 50.7025C326.583 50.7193 326.53 50.7261 326.477 50.7226C326.424 50.7192 326.372 50.7054 326.325 50.6821C326.277 50.6588 326.235 50.6265 326.2 50.587C326.165 50.5475 326.138 50.5016 326.121 50.4519C326.104 50.4022 326.097 50.3496 326.101 50.2973C326.104 50.2449 326.118 50.1937 326.142 50.1467C326.165 50.0996 326.198 50.0576 326.238 50.023C326.238 50.023 328.867 47.767 332.591 49.9779C332.684 50.034 332.75 50.124 332.776 50.2282C332.801 50.3325 332.784 50.4426 332.728 50.5344C332.692 50.5939 332.64 50.6431 332.579 50.6774C332.518 50.7116 332.449 50.7297 332.379 50.7299Z" fill="#263238"/>
<path d="M333.131 49.1582C333.056 49.1568 332.983 49.136 332.918 49.0981C328.844 46.7067 326.139 48.9627 326.025 49.0605C325.942 49.1223 325.839 49.1508 325.736 49.1404C325.633 49.1299 325.537 49.0812 325.469 49.0041C325.401 48.9269 325.364 48.8271 325.367 48.7245C325.37 48.622 325.413 48.5244 325.485 48.4514C325.523 48.4514 328.738 45.699 333.336 48.4062C333.383 48.4334 333.423 48.4693 333.455 48.512C333.488 48.5546 333.511 48.6032 333.525 48.6549C333.538 48.7065 333.541 48.7603 333.534 48.8132C333.526 48.866 333.508 48.9168 333.48 48.9627C333.443 49.0217 333.392 49.0706 333.331 49.1047C333.27 49.1389 333.201 49.1573 333.131 49.1582Z" fill="#263238"/>
<path d="M330.327 52.7603C330.328 52.9617 330.269 53.159 330.157 53.3271C330.045 53.4952 329.885 53.6265 329.697 53.7043C329.509 53.7821 329.302 53.8028 329.102 53.7639C328.903 53.7249 328.719 53.6281 328.575 53.4857C328.431 53.3432 328.333 53.1617 328.294 52.964C328.255 52.7664 328.276 52.5617 328.354 52.3759C328.433 52.19 328.565 52.0316 328.735 51.9206C328.905 51.8096 329.105 51.7512 329.308 51.7526C329.578 51.7526 329.837 51.8588 330.028 52.0478C330.219 52.2368 330.327 52.4931 330.327 52.7603Z" fill="#263238"/>
<path d="M342.76 335.776H358.72" stroke="#263238" stroke-linecap="round" stroke-linejoin="round"/>
<path d="M41.7998 335.776H337.44" stroke="#263238" stroke-linecap="round" stroke-linejoin="round"/>
<path d="M21.0139 335.776H31.9199" stroke="#263238" stroke-linecap="round" stroke-linejoin="round"/>
<path d="M130.477 234.504H118.864V334.369H130.477V234.504Z" fill="#263238" stroke="#263238" stroke-linecap="round" stroke-linejoin="round"/>
<path d="M38.395 270.667V277.691H84.679V270.667H38.395Z" fill="#263238" stroke="#263238" stroke-linecap="round" stroke-linejoin="round"/>
<path d="M43.1528 246.423H36.0544V274.525H43.1528V246.423Z" fill="#263238" stroke="#263238" stroke-linecap="round" stroke-linejoin="round"/>
<path d="M46.1091 274.645C46.1091 275.49 45.9408 276.327 45.6137 277.108C45.2867 277.888 44.8074 278.597 44.2032 279.195C43.599 279.792 42.8818 280.265 42.0925 280.588C41.3033 280.91 40.4575 281.076 39.6035 281.075C39.3907 281.075 39.1779 281.075 38.9727 281.075C37.789 280.959 36.66 280.525 35.7085 279.818C34.7571 279.112 34.0195 278.161 33.5761 277.069C33.1327 275.977 33.0004 274.785 33.1935 273.624C33.3867 272.462 33.898 271.376 34.6717 270.482C35.4455 269.588 36.4521 268.921 37.5822 268.554C38.7122 268.186 39.9225 268.132 41.0813 268.398C42.24 268.664 43.303 269.239 44.1547 270.06C45.0063 270.882 45.6139 271.919 45.9115 273.059C46.0413 273.578 46.1076 274.111 46.1091 274.645Z" fill="white" stroke="#263238" stroke-linecap="round" stroke-linejoin="round"/>
<path d="M46.5879 250.754C46.5839 252.46 45.897 254.094 44.6776 255.299C43.4582 256.504 41.8058 257.182 40.0823 257.184C39.8695 257.184 39.6567 257.184 39.4439 257.184C38.2596 257.072 37.1291 256.64 36.1754 255.936C35.2217 255.233 34.4813 254.284 34.0347 253.192C33.5882 252.101 33.4526 250.91 33.6427 249.748C33.8327 248.586 34.3412 247.497 35.1128 246.601C35.8845 245.705 36.8896 245.036 38.019 244.666C39.1484 244.295 40.3587 244.239 41.5184 244.502C42.678 244.765 43.7426 245.338 44.5962 246.158C45.4498 246.978 46.0599 248.014 46.3599 249.153C46.5059 249.675 46.5826 250.213 46.5879 250.754Z" fill="white" stroke="#263238" stroke-linecap="round" stroke-linejoin="round"/>
<path d="M58.2364 233.308L48.7744 238.349L50.7345 241.951L60.1964 236.91L58.2364 233.308Z" fill="#263238" stroke="#263238" stroke-linecap="round" stroke-linejoin="round"/>
<path d="M61.7652 237.301L57.1064 239.783L54.1272 234.316L58.7936 231.827C59.1597 231.628 59.5623 231.504 59.9777 231.461C60.393 231.419 60.8128 231.459 61.2122 231.58C61.6116 231.7 61.9826 231.899 62.3033 232.163C62.6241 232.428 62.8882 232.753 63.08 233.12C63.4614 233.848 63.5372 234.695 63.291 235.478C63.0449 236.261 62.4966 236.916 61.7652 237.301Z" fill="white" stroke="#263238" stroke-linecap="round" stroke-linejoin="round"/>
<path d="M41.344 214.117L41.0096 233.188L36.8828 233.12L37.2096 214.049L41.344 214.117Z" fill="#263238" stroke="#263238" stroke-linecap="round" stroke-linejoin="round"/>
<path d="M42.4611 212.966L42.3775 218.23L36.0999 218.08L36.1835 212.816C36.1904 212.408 36.2784 212.006 36.4426 211.631C36.6068 211.257 36.8439 210.919 37.1403 210.635C37.4367 210.352 37.7867 210.129 38.1702 209.979C38.5537 209.829 38.9632 209.756 39.3755 209.763C39.7919 209.769 40.203 209.857 40.5847 210.021C40.9664 210.186 41.311 210.425 41.5983 210.723C41.8857 211.022 42.11 211.374 42.2581 211.759C42.4063 212.144 42.4752 212.555 42.4611 212.966Z" fill="white" stroke="#263238" stroke-linecap="round" stroke-linejoin="round"/>
<path d="M56.7871 221.035L47.7203 237.865L44.0723 235.948L53.1315 219.118L56.7871 221.035Z" fill="#263238" stroke="#263238" stroke-linecap="round" stroke-linejoin="round"/>
<path d="M58.3071 220.516L55.8219 225.141L50.2815 222.231L52.7591 217.599C53.1511 216.874 53.817 216.332 54.6115 216.091C55.4061 215.85 56.2647 215.93 56.9999 216.313C57.736 216.699 58.287 217.359 58.532 218.147C58.7771 218.935 58.6962 219.787 58.3071 220.516Z" fill="white" stroke="#263238" stroke-linecap="round" stroke-linejoin="round"/>
<path d="M26.6912 220.96L35.6744 237.835L32.0188 239.745L23.0356 222.87L26.6912 220.96Z" fill="#263238" stroke="#263238" stroke-linecap="round" stroke-linejoin="round"/>
<path d="M35.1195 233.195C34.9863 232.415 34.6221 231.691 34.0729 231.115C33.5238 230.54 32.8144 230.138 32.0346 229.962C31.2547 229.785 30.4395 229.841 29.692 230.123C28.9445 230.406 28.2984 230.901 27.8355 231.546C27.3725 232.192 27.1135 232.959 27.0912 233.75C27.0689 234.541 27.2843 235.321 27.7102 235.991C28.1361 236.661 28.7533 237.191 29.4837 237.514C30.2142 237.837 31.025 237.938 31.8135 237.805C32.8693 237.627 33.8103 237.041 34.4301 236.177C35.05 235.312 35.2979 234.24 35.1195 233.195Z" fill="white" stroke="#263238" stroke-linecap="round" stroke-linejoin="round"/>
<path d="M39.0715 233.722C41.3045 233.722 43.1147 231.93 43.1147 229.721C43.1147 227.511 41.3045 225.72 39.0715 225.72C36.8385 225.72 35.0283 227.511 35.0283 229.721C35.0283 231.93 36.8385 233.722 39.0715 233.722Z" fill="white" stroke="#263238" stroke-linecap="round" stroke-linejoin="round"/>
<path d="M52.2652 232.03C52.3869 231.247 52.2713 230.447 51.9331 229.73C51.5949 229.012 51.0493 228.41 50.3653 228C49.6813 227.59 48.8896 227.389 48.0905 227.424C47.2914 227.459 46.5207 227.728 45.8759 228.196C45.2312 228.665 44.7414 229.312 44.4684 230.056C44.1955 230.8 44.1518 231.607 44.3427 232.376C44.5337 233.145 44.9507 233.84 45.5412 234.374C46.1316 234.908 46.8688 235.257 47.6596 235.376C48.1841 235.456 48.7195 235.433 49.2351 235.308C49.7506 235.183 50.2362 234.959 50.664 234.648C51.0918 234.337 51.4534 233.946 51.7282 233.497C52.003 233.047 52.1854 232.549 52.2652 232.03Z" fill="white" stroke="#263238" stroke-linecap="round" stroke-linejoin="round"/>
<path d="M27.1091 219.419L29.5867 224.051L24.0387 226.961L21.5611 222.321C21.3676 221.961 21.2479 221.567 21.2089 221.16C21.1699 220.754 21.2123 220.344 21.3338 219.955C21.4552 219.565 21.6533 219.202 21.9166 218.888C22.18 218.574 22.5034 218.315 22.8683 218.125C23.6045 217.742 24.4638 217.664 25.2584 217.906C26.0531 218.148 26.7184 218.692 27.1091 219.419Z" fill="white" stroke="#263238" stroke-linecap="round" stroke-linejoin="round"/>
<path d="M51.4899 240.918C51.4899 243.91 50.2888 246.779 48.1509 248.894C46.013 251.01 43.1134 252.198 40.0899 252.198C39.7099 252.198 39.3299 252.198 38.9727 252.153C36.8989 251.95 34.9212 251.188 33.2545 249.95C31.5877 248.712 30.2957 247.046 29.5189 245.133C28.7421 243.22 28.5102 241.132 28.8484 239.098C29.1866 237.063 30.082 235.159 31.4372 233.592C32.7924 232.026 34.5556 230.857 36.5352 230.213C38.5147 229.569 40.6349 229.474 42.6652 229.938C44.6956 230.403 46.5584 231.409 48.0513 232.847C49.5441 234.286 50.6099 236.102 51.1327 238.098C51.3684 239.02 51.4884 239.967 51.4899 240.918Z" fill="white" stroke="#263238" stroke-linecap="round" stroke-linejoin="round"/>
<path d="M51.4898 240.918C51.4898 243.91 50.2887 246.779 48.1508 248.894C46.0129 251.01 43.1133 252.198 40.0898 252.198C39.7098 252.198 39.3298 252.198 38.9726 252.153C38.5359 250.484 38.4915 248.738 38.8431 247.05C39.1946 245.361 39.9326 243.775 41.0005 242.413C42.0683 241.05 43.4375 239.948 45.0029 239.191C46.5683 238.434 48.2883 238.042 50.0306 238.046C50.403 238.046 50.7906 238.046 51.1478 238.098C51.3784 239.021 51.4933 239.968 51.4898 240.918Z" fill="white" stroke="#263238" stroke-linecap="round" stroke-linejoin="round"/>
<path d="M108.893 274.849C110.829 266.664 105.692 258.476 97.4202 256.561C89.1481 254.645 80.8732 259.728 78.9376 267.913C77.002 276.098 82.1387 284.286 90.4107 286.201C98.6827 288.116 106.958 283.034 108.893 274.849Z" fill="white" stroke="#263238" stroke-linecap="round" stroke-linejoin="round"/>
<path d="M96.7733 278.187C100.574 276.619 102.37 272.299 100.784 268.539C99.1994 264.778 94.8337 263.002 91.0334 264.57C87.2331 266.138 85.4373 270.458 87.0223 274.218C88.6073 277.979 92.973 279.756 96.7733 278.187Z" fill="#263238" stroke="#263238" stroke-linecap="round" stroke-linejoin="round"/>
<path d="M91.2684 335.776H159.516L160.497 331.203C160.89 329.377 160.537 327.471 159.514 325.901C158.492 324.332 156.883 323.226 155.04 322.826C145.365 320.675 124.42 319.901 124.42 319.901C119.373 320.059 105.328 320.653 95.6536 322.834C93.823 323.247 92.2306 324.357 91.2208 325.923C90.2109 327.49 89.8649 329.387 90.2576 331.203L91.2684 335.776Z" fill="white" stroke="#263238" stroke-linecap="round" stroke-linejoin="round"/>
<path d="M141.816 321.014C133.076 320.217 124.442 319.901 124.442 319.901C121.266 319.999 114.517 320.277 107.54 321.014C109.577 327.895 116.478 332.963 124.678 332.963C132.878 332.963 139.779 327.872 141.816 321.014Z" fill="#623CE7" stroke="#263238" stroke-linecap="round" stroke-linejoin="round"/>
<path d="M195.961 303.531L200.206 297.901L163.111 270.513L158.866 276.142L195.961 303.531Z" fill="#263238" stroke="#263238" stroke-linecap="round" stroke-linejoin="round"/>
<path d="M177.501 320.148L183.19 324.349L200.175 301.826L194.486 297.626L177.501 320.148Z" fill="#263238" stroke="#263238" stroke-linecap="round" stroke-linejoin="round"/>
<path d="M192.181 295.777C192.693 295.098 193.335 294.526 194.07 294.092C194.806 293.659 195.62 293.374 196.467 293.252C197.314 293.131 198.177 293.176 199.006 293.384C199.836 293.593 200.616 293.961 201.301 294.468L201.795 294.867C202.674 295.66 203.316 296.677 203.652 297.806C203.988 298.935 204.004 300.134 203.699 301.272C203.395 302.41 202.78 303.443 201.923 304.26C201.066 305.076 199.999 305.644 198.839 305.903C197.678 306.161 196.468 306.1 195.34 305.725C194.213 305.35 193.21 304.677 192.442 303.778C191.674 302.879 191.17 301.789 190.985 300.626C190.799 299.463 190.94 298.272 191.391 297.183C191.595 296.684 191.86 296.211 192.181 295.777Z" fill="white" stroke="#263238" stroke-linecap="round" stroke-linejoin="round"/>
<path d="M177.338 313.772C178.302 312.356 179.794 311.377 181.488 311.05C183.181 310.723 184.936 311.074 186.367 312.027C186.542 312.14 186.709 312.268 186.876 312.396C187.794 313.145 188.486 314.129 188.878 315.241C189.27 316.352 189.346 317.549 189.098 318.7C188.85 319.852 188.288 320.914 187.473 321.771C186.658 322.629 185.62 323.249 184.474 323.563C183.327 323.878 182.116 323.875 180.97 323.556C179.825 323.237 178.791 322.613 177.979 321.752C177.167 320.891 176.609 319.827 176.367 318.675C176.124 317.522 176.205 316.326 176.601 315.216C176.785 314.706 177.033 314.221 177.338 313.772Z" fill="white" stroke="#263238" stroke-linecap="round" stroke-linejoin="round"/>
<path d="M157.803 321.828L168.498 322.868L168.902 318.796L158.207 317.757L157.803 321.828Z" fill="#263238" stroke="#263238" stroke-linecap="round" stroke-linejoin="round"/>
<path d="M157.153 316.592L162.427 317.103L161.812 323.285L156.537 322.773C155.709 322.694 154.946 322.291 154.418 321.655C153.889 321.019 153.637 320.202 153.718 319.382C153.8 318.562 154.208 317.807 154.852 317.284C155.496 316.761 156.324 316.512 157.153 316.592Z" fill="white" stroke="#263238" stroke-linecap="round" stroke-linejoin="round"/>
<path d="M167.717 319.224C168.552 317.992 169.625 316.936 170.873 316.115C172.122 315.294 173.521 314.724 174.993 314.439C176.464 314.154 177.977 314.159 179.447 314.454C180.916 314.748 182.312 315.327 183.555 316.156C183.867 316.366 184.163 316.584 184.452 316.818C186.059 318.131 187.271 319.856 187.956 321.804C188.641 323.752 188.774 325.848 188.339 327.865C187.904 329.882 186.919 331.743 185.49 333.245C184.061 334.746 182.244 335.832 180.235 336.383C178.227 336.934 176.104 336.929 174.097 336.37C172.091 335.81 170.278 334.717 168.856 333.209C167.434 331.702 166.456 329.837 166.03 327.818C165.604 325.799 165.746 323.703 166.44 321.758C166.754 320.863 167.184 320.011 167.717 319.224Z" fill="white" stroke="#263238" stroke-linecap="round" stroke-linejoin="round"/>
<path d="M155.435 330.94L169.571 320.48L171.843 323.48L157.707 333.933L155.435 330.94Z" fill="#263238" stroke="#263238" stroke-linecap="round" stroke-linejoin="round"/>
<path d="M153.968 330.782L157.852 327.872L161.302 332.384L157.419 335.264C156.809 335.716 156.043 335.909 155.289 335.802C154.535 335.695 153.855 335.296 153.398 334.693C152.961 334.096 152.775 333.353 152.882 332.623C152.988 331.893 153.378 331.233 153.968 330.782Z" fill="white" stroke="#263238" stroke-linecap="round" stroke-linejoin="round"/>
<path d="M173.69 323.706C173.87 322.934 173.814 322.126 173.529 321.385C173.244 320.645 172.743 320.004 172.09 319.546C171.436 319.087 170.66 318.831 169.86 318.81C169.059 318.788 168.27 319.002 167.593 319.425C166.915 319.848 166.38 320.461 166.055 321.185C165.73 321.909 165.629 322.713 165.766 323.493C165.903 324.274 166.272 324.997 166.825 325.57C167.378 326.144 168.09 326.542 168.872 326.714C169.914 326.943 171.005 326.756 171.907 326.192C172.81 325.629 173.451 324.735 173.69 323.706Z" fill="white" stroke="#263238" stroke-linecap="round" stroke-linejoin="round"/>
<path d="M181.184 341.453L183.281 327.105L186.39 327.541L184.3 341.889L181.184 341.453Z" fill="#263238" stroke="#263238" stroke-linecap="round" stroke-linejoin="round"/>
<path d="M180.234 342.213L180.804 338.265L185.524 338.934L184.954 342.874C184.91 343.182 184.805 343.477 184.646 343.744C184.487 344.012 184.276 344.245 184.025 344.431C183.774 344.618 183.489 344.754 183.186 344.831C182.882 344.908 182.566 344.926 182.256 344.882C181.63 344.793 181.066 344.462 180.687 343.961C180.308 343.461 180.145 342.832 180.234 342.213Z" fill="white" stroke="#263238" stroke-linecap="round" stroke-linejoin="round"/>
<path d="M187.606 326.601C187.248 326.049 186.733 325.615 186.126 325.353C185.519 325.091 184.847 325.012 184.195 325.128C183.542 325.243 182.94 325.548 182.462 326.002C181.984 326.456 181.654 327.041 181.512 327.681C181.37 328.321 181.422 328.989 181.663 329.599C181.904 330.21 182.323 330.736 182.866 331.111C183.409 331.487 184.053 331.694 184.715 331.708C185.377 331.722 186.029 331.541 186.587 331.188C187.337 330.713 187.865 329.963 188.056 329.103C188.247 328.243 188.085 327.343 187.606 326.601Z" fill="white" stroke="#263238" stroke-linecap="round" stroke-linejoin="round"/>
<path d="M167.192 339.543L176.616 324.774L179.816 326.759L170.4 341.536L167.192 339.543Z" fill="#263238" stroke="#263238" stroke-linecap="round" stroke-linejoin="round"/>
<path d="M165.771 339.904L168.348 335.843L173.219 338.851L170.635 342.92C170.229 343.556 169.584 344.007 168.842 344.175C168.1 344.343 167.321 344.213 166.676 343.814C166.033 343.413 165.577 342.777 165.407 342.044C165.238 341.311 165.369 340.542 165.771 339.904Z" fill="white" stroke="#263238" stroke-linecap="round" stroke-linejoin="round"/>
<path d="M181.64 326.323C181.527 325.54 181.182 324.807 180.648 324.219C180.114 323.63 179.416 323.212 178.641 323.016C177.866 322.821 177.05 322.858 176.297 323.122C175.543 323.386 174.886 323.866 174.409 324.5C173.931 325.135 173.654 325.895 173.614 326.685C173.574 327.475 173.772 328.259 174.183 328.938C174.593 329.616 175.199 330.159 175.921 330.497C176.644 330.834 177.452 330.952 178.243 330.835C179.297 330.681 180.247 330.119 180.883 329.273C181.52 328.428 181.792 327.367 181.64 326.323Z" fill="white" stroke="#263238" stroke-linecap="round" stroke-linejoin="round"/>
<path d="M164.181 284.443C171.325 279.893 173.388 270.475 168.79 263.407C164.191 256.339 154.673 254.297 147.529 258.847C140.386 263.397 138.323 272.815 142.921 279.883C147.519 286.952 157.038 288.993 164.181 284.443Z" fill="white" stroke="#263238" stroke-linecap="round" stroke-linejoin="round"/>
<path d="M162.638 274.726C164.355 271.023 162.713 266.644 158.97 264.945C155.227 263.247 150.802 264.872 149.085 268.575C147.368 272.278 149.011 276.657 152.753 278.356C156.496 280.055 160.922 278.43 162.638 274.726Z" fill="#263238" stroke="#263238" stroke-linecap="round" stroke-linejoin="round"/>
<path d="M124.67 241.482C138.316 241.482 149.378 230.537 149.378 217.035C149.378 203.533 138.316 192.587 124.67 192.587C111.025 192.587 99.9626 203.533 99.9626 217.035C99.9626 230.537 111.025 241.482 124.67 241.482Z" fill="#623CE7" stroke="#263238" stroke-linecap="round" stroke-linejoin="round"/>
<path d="M159.995 233.316C165.301 226.733 168.622 218.802 169.575 210.435C170.529 202.068 169.076 193.605 165.384 186.019C161.692 178.433 155.911 172.032 148.706 167.552C141.501 163.072 133.165 160.695 124.655 160.695C116.146 160.695 107.809 163.072 100.604 167.552C93.3987 172.032 87.6178 178.433 83.926 186.019C80.2342 193.605 78.7815 202.068 79.7348 210.435C80.6881 218.802 84.0088 226.733 89.315 233.316H159.995Z" fill="white" stroke="#263238" stroke-linecap="round" stroke-linejoin="round"/>
<path d="M152.319 188.541H95.8816C92.4482 188.541 89.6648 191.295 89.6648 194.693V214.485C89.6648 217.883 92.4482 220.637 95.8816 220.637H152.319C155.753 220.637 158.536 217.883 158.536 214.485V194.693C158.536 191.295 155.753 188.541 152.319 188.541Z" fill="#623CE7" stroke="#263238" stroke-linecap="round" stroke-linejoin="round"/>
<path d="M97.1128 203.288C97.8592 201.22 99.2195 199.424 101.016 198.134C102.812 196.845 104.96 196.122 107.178 196.061C109.396 196 111.581 196.603 113.447 197.793C115.312 198.982 116.772 200.7 117.633 202.724" stroke="#263238" stroke-width="5" stroke-linecap="round" stroke-linejoin="round"/>
<path d="M131.153 203.288C131.899 201.22 133.26 199.424 135.056 198.134C136.852 196.845 139 196.122 141.218 196.061C143.436 196 145.622 196.603 147.487 197.793C149.353 198.982 150.812 200.7 151.673 202.724" stroke="#263238" stroke-width="5" stroke-linecap="round" stroke-linejoin="round"/>
<path d="M118.712 210.725C118.903 212.217 119.637 213.588 120.776 214.582C121.916 215.576 123.383 216.124 124.902 216.124C126.421 216.124 127.888 215.576 129.028 214.582C130.167 213.588 130.902 212.217 131.092 210.725H118.712Z" fill="white" stroke="#263238" stroke-linecap="round" stroke-linejoin="round"/>
<path d="M183.16 213.267C181.906 213.267 180.704 212.774 179.817 211.897C178.931 211.02 178.433 209.83 178.433 208.59V197.949C178.432 197.334 178.553 196.725 178.79 196.157C179.027 195.588 179.375 195.072 179.814 194.637C180.254 194.202 180.775 193.856 181.349 193.621C181.923 193.385 182.538 193.264 183.16 193.264C183.781 193.263 184.397 193.383 184.971 193.618C185.546 193.853 186.068 194.197 186.507 194.631C186.947 195.066 187.296 195.582 187.534 196.15C187.772 196.718 187.895 197.327 187.895 197.941V208.582C187.896 209.198 187.774 209.807 187.536 210.376C187.299 210.945 186.95 211.462 186.51 211.897C186.07 212.332 185.548 212.678 184.973 212.913C184.398 213.148 183.782 213.268 183.16 213.267Z" fill="#263238" stroke="#263238" stroke-linecap="round" stroke-linejoin="round"/>
<path d="M64.8886 213.267C64.2672 213.268 63.6517 213.148 63.0773 212.913C62.5028 212.679 61.9808 212.334 61.5411 211.9C61.1013 211.465 60.7524 210.949 60.5144 210.381C60.2763 209.813 60.1538 209.205 60.1538 208.59V197.949C60.1528 197.333 60.2746 196.724 60.5122 196.155C60.7498 195.586 61.0985 195.069 61.5384 194.634C61.9782 194.199 62.5006 193.854 63.0755 193.619C63.6504 193.384 64.2665 193.263 64.8886 193.264C65.5094 193.264 66.1241 193.385 66.6976 193.62C67.2712 193.855 67.7923 194.2 68.2312 194.634C68.6702 195.068 69.0184 195.584 69.256 196.151C69.4935 196.719 69.6158 197.327 69.6158 197.941V208.582C69.6168 209.197 69.4953 209.806 69.2582 210.375C69.021 210.943 68.673 211.459 68.2339 211.895C67.7949 212.33 67.2734 212.675 66.6994 212.91C66.1254 213.146 65.51 213.267 64.8886 213.267Z" fill="#263238" stroke="#263238" stroke-linecap="round" stroke-linejoin="round"/>
<path d="M80.043 165.252C75.8616 171.365 73.6323 178.58 73.6438 185.962V193.693" stroke="#263238" stroke-width="14" stroke-linecap="round" stroke-linejoin="round"/>
<path d="M169.784 165.282C166.362 160.238 161.738 156.104 156.32 153.246C150.901 150.389 144.855 148.895 138.715 148.896H111.089C104.958 148.892 98.9192 150.379 93.5053 153.228C88.0915 156.076 83.4684 160.197 80.0432 165.229" stroke="#263238" stroke-width="7" stroke-linecap="round" stroke-linejoin="round"/>
<path d="M176.153 193.693V185.962C176.164 178.594 173.946 171.391 169.784 165.282" stroke="#263238" stroke-width="14" stroke-linecap="round" stroke-linejoin="round"/>
<path d="M77.4134 185.368H71.075C67.4065 185.368 64.4326 188.311 64.4326 191.94V213.666C64.4326 217.296 67.4065 220.238 71.075 220.238H77.4134C81.0819 220.238 84.0558 217.296 84.0558 213.666V191.94C84.0558 188.311 81.0819 185.368 77.4134 185.368Z" fill="white" stroke="#263238" stroke-linecap="round" stroke-linejoin="round"/>
<path d="M75.2476 185.368H73.2488V220.238H75.2476V185.368Z" fill="#C31F82" stroke="#263238" stroke-linecap="round" stroke-linejoin="round"/>
<path d="M177.521 185.368H171.182C167.514 185.368 164.54 188.311 164.54 191.94V213.666C164.54 217.296 167.514 220.238 171.182 220.238H177.521C181.189 220.238 184.163 217.296 184.163 213.666V191.94C184.163 188.311 181.189 185.368 177.521 185.368Z" fill="white" stroke="#263238" stroke-linecap="round" stroke-linejoin="round"/>
<path d="M175.355 185.368H173.356V220.238H175.355V185.368Z" fill="#C31F82" stroke="#263238" stroke-linecap="round" stroke-linejoin="round"/>
<path d="M124.83 182.202C128.292 182.203 131.699 181.346 134.741 179.709C137.782 178.072 140.361 175.708 142.242 172.832L146.528 166.267C139.736 162.556 132.092 160.637 124.333 160.696C116.574 160.756 108.961 162.791 102.228 166.606L108.68 174.532C110.621 176.924 113.08 178.854 115.874 180.182C118.669 181.509 121.73 182.2 124.83 182.202Z" fill="#623CE7" stroke="#263238" stroke-linecap="round" stroke-linejoin="round"/>
<path d="M125.902 223.885C125.902 223.737 125.857 223.591 125.774 223.468C125.69 223.344 125.571 223.248 125.432 223.191C125.294 223.134 125.141 223.119 124.993 223.148C124.846 223.177 124.71 223.249 124.604 223.354C124.498 223.459 124.426 223.593 124.396 223.739C124.367 223.885 124.382 224.036 124.439 224.173C124.497 224.311 124.594 224.428 124.719 224.511C124.844 224.593 124.991 224.637 125.142 224.637C125.343 224.637 125.536 224.558 125.679 224.417C125.822 224.276 125.902 224.085 125.902 223.885Z" fill="#263238"/>
<path d="M125.902 226.412C125.902 226.263 125.857 226.118 125.774 225.994C125.69 225.871 125.571 225.774 125.432 225.717C125.294 225.66 125.141 225.646 124.993 225.675C124.846 225.704 124.71 225.775 124.604 225.88C124.498 225.986 124.426 226.12 124.396 226.265C124.367 226.411 124.382 226.563 124.439 226.7C124.497 226.837 124.594 226.955 124.719 227.037C124.844 227.12 124.991 227.164 125.142 227.164C125.343 227.164 125.536 227.085 125.679 226.944C125.822 226.803 125.902 226.612 125.902 226.412Z" fill="#263238"/>
<path d="M123.006 226.021C123.145 225.932 123.25 225.801 123.307 225.648C123.364 225.494 123.369 225.327 123.321 225.17C123.273 225.014 123.174 224.877 123.041 224.781C122.907 224.685 122.745 224.635 122.58 224.637C122.441 224.726 122.336 224.857 122.279 225.011C122.222 225.164 122.217 225.332 122.265 225.488C122.313 225.645 122.412 225.781 122.545 225.877C122.679 225.974 122.841 226.024 123.006 226.021Z" fill="#263238"/>
<path d="M127.574 226.021C127.691 226.019 127.807 225.99 127.911 225.936C128.015 225.883 128.106 225.806 128.175 225.712C128.244 225.617 128.29 225.509 128.31 225.394C128.329 225.279 128.321 225.162 128.287 225.05C128.253 224.939 128.193 224.837 128.112 224.752C128.031 224.668 127.932 224.603 127.822 224.563C127.711 224.523 127.593 224.509 127.476 224.522C127.359 224.535 127.247 224.574 127.148 224.637C127.03 224.639 126.915 224.669 126.811 224.722C126.706 224.776 126.616 224.853 126.547 224.947C126.478 225.041 126.431 225.15 126.412 225.265C126.392 225.379 126.4 225.497 126.434 225.608C126.469 225.72 126.528 225.822 126.609 225.906C126.69 225.991 126.79 226.055 126.9 226.095C127.01 226.135 127.129 226.15 127.246 226.137C127.362 226.124 127.475 226.084 127.574 226.021Z" fill="#263238"/>
<path d="M155.04 252.1C145.365 249.942 124.42 249.168 124.42 249.168C119.373 249.326 105.328 249.92 95.6535 252.108C93.8219 252.52 92.2282 253.629 91.2181 255.196C90.208 256.763 89.8628 258.661 90.2575 260.478L99.2179 301.958C99.6582 303.969 100.78 305.771 102.397 307.065C104.014 308.359 106.03 309.067 108.11 309.072H142.652C144.732 309.067 146.747 308.359 148.365 307.065C149.982 305.771 151.104 303.969 151.544 301.958L160.497 260.478C160.89 258.651 160.537 256.745 159.514 255.176C158.492 253.606 156.883 252.501 155.04 252.1Z" fill="white" stroke="#263238" stroke-linecap="round" stroke-linejoin="round"/>
<path d="M150.632 251.303C140.136 249.754 124.442 249.168 124.442 249.168C116.758 249.385 109.091 250.013 101.475 251.048L111.629 309.072H139.224L150.632 251.303Z" fill="#C31F82" stroke="#263238" stroke-linecap="round" stroke-linejoin="round"/>
<path d="M133.502 261.779H116.69C113.257 261.779 110.474 264.533 110.474 267.93V276.052C110.474 279.449 113.257 282.203 116.69 282.203H133.502C136.935 282.203 139.718 279.449 139.718 276.052V267.93C139.718 264.533 136.935 261.779 133.502 261.779Z" fill="white" stroke="#263238" stroke-linecap="round" stroke-linejoin="round"/>
<path d="M120.186 270.194H115.451V274.879H120.186V270.194Z" fill="white" stroke="#263238" stroke-linecap="round" stroke-linejoin="round"/>
<path d="M127.459 270.194H122.725V274.879H127.459V270.194Z" fill="white" stroke="#263238" stroke-linecap="round" stroke-linejoin="round"/>
<path d="M134.74 270.194H130.006V274.879H134.74V270.194Z" fill="white" stroke="#263238" stroke-linecap="round" stroke-linejoin="round"/>
<path d="M58.5656 295.957H142.804C143.812 295.957 144.778 296.353 145.491 297.058C146.204 297.764 146.604 298.72 146.604 299.717V346.544H54.7656V299.717C54.7656 298.72 55.166 297.764 55.8786 297.058C56.5913 296.353 57.5578 295.957 58.5656 295.957Z" fill="white" stroke="#263238" stroke-linecap="round" stroke-linejoin="round"/>
<path d="M146.604 312.787C135.067 315.682 123.226 323.052 101.164 333.429C79.8836 343.446 62.4644 343.273 54.7656 342.498V346.544H146.604V312.787Z" fill="#263238" stroke="#263238" stroke-linecap="round" stroke-linejoin="round"/>
<path d="M146.604 343.739H54.7656V346.552H146.604V343.739Z" fill="white" stroke="#263238" stroke-linecap="round" stroke-linejoin="round"/>
<path d="M105.42 321.254C105.42 322.181 105.142 323.087 104.622 323.857C104.101 324.628 103.362 325.228 102.497 325.583C101.632 325.937 100.68 326.03 99.761 325.849C98.8426 325.669 97.9989 325.222 97.3367 324.567C96.6746 323.912 96.2236 323.077 96.0409 322.168C95.8582 321.26 95.952 320.318 96.3104 319.462C96.6687 318.605 97.2756 317.874 98.0542 317.359C98.8329 316.844 99.7483 316.569 100.685 316.569C101.94 316.569 103.145 317.063 104.033 317.942C104.921 318.82 105.42 320.012 105.42 321.254Z" fill="white" stroke="#263238" stroke-linecap="round" stroke-linejoin="round"/>
</svg>
