<svg width="380" height="254" viewBox="0 0 380 254" fill="none" xmlns="http://www.w3.org/2000/svg">
<path d="M133.433 125.131L214.859 125.131V98.648L133.433 98.648V125.131Z" fill="#C7C7C7"/>
<path d="M214.859 98.6531V125.137H341.784V122.553H339.048V101.237H341.784V98.6531H214.859Z" fill="#A6A6A6"/>
<path d="M218.19 122.385L339.188 122.385V101.399L218.19 101.399V122.385Z" fill="white"/>
<path d="M218.188 122.385C248.35 122.299 309.039 122.193 339.19 122.157L338.962 122.385V101.399C320.606 102.124 267.36 101.308 248.467 101.546L218.213 101.475C218.3 101.024 218.213 122.482 218.213 122.385H218.188ZM218.188 122.385C218.188 122.314 218.117 101.394 218.117 101.328C218.117 101.262 248.421 101.262 248.441 101.252L339.19 101.146H339.444V101.399L339.418 122.385V122.613H339.19C309.033 122.583 248.34 122.477 218.188 122.385Z" fill="#DBDBDB"/>
<path d="M295.762 117.744C305.013 117.866 314.265 117.95 323.517 117.998L339.188 118.038V117.455L323.517 117.496C314.265 117.53 305.013 117.613 295.762 117.744Z" fill="#DBDBDB"/>
<path d="M218.188 112.784V113.321L238.388 113.377L267.669 113.301C276.92 113.257 286.172 113.174 295.424 113.053C286.172 112.931 276.92 112.848 267.669 112.804L238.388 112.728L218.188 112.784Z" fill="#DBDBDB"/>
<path d="M218.188 104.915V105.564L247.067 105.488C256.326 105.444 265.578 105.361 274.823 105.24C265.571 105.118 256.319 105.035 247.067 104.991L218.188 104.915Z" fill="#DBDBDB"/>
<path d="M218.188 117.8V118.337H225.945C235.196 118.297 244.45 118.214 253.705 118.089C244.446 117.974 235.193 117.891 225.945 117.841L218.188 117.8Z" fill="#DBDBDB"/>
<path d="M294.836 108.756C304.091 108.871 313.344 108.954 322.596 109.004L339.19 109.05V108.462L322.596 108.508C313.338 108.548 304.084 108.631 294.836 108.756Z" fill="#DBDBDB"/>
<path d="M331.138 110.909C324.771 110.876 318.399 110.85 312.022 110.833H291.862H272.218C265.844 110.833 259.472 110.859 253.102 110.909C259.475 110.943 265.848 110.968 272.218 110.985H291.862H312.022C318.396 110.968 324.768 110.943 331.138 110.909Z" fill="#DBDBDB"/>
<path d="M323.165 78.9691H241.738V98.6531H323.165V78.9691Z" fill="#EBEBEB"/>
<path d="M241.73 98.6531V78.9691H114.805V80.8893H117.541V96.7328H114.805V98.6531H241.73Z" fill="#DBDBDB"/>
<path d="M238.403 81.0109H117.406V96.6112H238.403V81.0109Z" fill="white"/>
<path d="M238.403 81.0109C208.241 81.1021 147.552 81.2085 117.406 81.244L117.639 81.0109V96.6112C116.038 95.912 178.246 96.6568 177.886 96.4339C192.955 96.4339 223.324 96.5048 238.388 96.5555C238.301 96.8899 238.388 80.9451 238.388 81.0109H238.403ZM238.403 81.0109L238.458 96.6112V96.6669H238.403C223.309 96.7176 192.99 96.7835 177.902 96.7885L117.406 96.8645H117.152V96.6112V81.0109V80.7779H117.385C147.542 80.8133 208.236 80.9197 238.382 81.0109H238.403Z" fill="#DBDBDB"/>
<path d="M160.834 84.4613C151.582 84.3701 142.329 84.3076 133.074 84.2739L117.402 84.2435V84.6741L133.074 84.6488C142.315 84.6252 151.569 84.5627 160.834 84.4613Z" fill="#DBDBDB"/>
<path d="M238.404 88.16V87.7597L218.209 87.7192L188.928 87.7749C179.677 87.8087 170.423 87.8695 161.168 87.9573C170.42 88.0485 179.673 88.111 188.928 88.1448L218.209 88.2005L238.404 88.16Z" fill="#DBDBDB"/>
<path d="M238.402 93.9968V93.4901L209.522 93.5459C200.267 93.5796 191.013 93.6421 181.762 93.7333C191.013 93.8178 200.267 93.8786 209.522 93.9157L238.402 93.9968Z" fill="#DBDBDB"/>
<path d="M238.403 84.4208V84.0205H230.646C221.394 84.0509 212.142 84.1134 202.891 84.208C212.142 84.2958 221.394 84.3566 230.646 84.3904L238.403 84.4208Z" fill="#DBDBDB"/>
<path d="M161.761 91.1443C152.506 91.0598 143.251 90.9973 133.996 90.9568L117.402 90.9264V91.3621L133.996 91.3267C143.254 91.2963 152.509 91.2355 161.761 91.1443Z" fill="#DBDBDB"/>
<path d="M125.453 89.5432C131.827 89.5702 138.199 89.5888 144.57 89.5989H164.735H184.373C190.747 89.5989 197.119 89.5804 203.49 89.5432C197.119 89.5128 190.747 89.4942 184.373 89.4875H164.735H144.57C138.196 89.4976 131.824 89.5162 125.453 89.5432Z" fill="#DBDBDB"/>
<path d="M165.631 39.3528H52.6445V125.137H165.631V39.3528Z" fill="#EBEBEB"/>
<path d="M208.569 39.3528H165.629V125.137H208.569V39.3528Z" fill="#DBDBDB"/>
<path d="M52.6445 81.9128H165.631L77.3952 84.1371L52.6445 81.9128Z" fill="#DBDBDB"/>
<path d="M165.631 114.694H52.6445L140.886 116.918L165.631 114.694Z" fill="#DBDBDB"/>
<path d="M52.6445 57.7499H124.216L60.5941 59.5637L52.6445 57.7499Z" fill="#DBDBDB"/>
<path d="M165.629 101.967H94.0625L157.68 103.781L165.629 101.967Z" fill="#DBDBDB"/>
<path d="M175.114 44.688H103.547L167.169 46.5069L175.114 44.688Z" fill="#DBDBDB"/>
<path d="M101.637 50.1245H182.359L168.902 51.2139L101.637 50.1245Z" fill="#DBDBDB"/>
<path d="M63.6289 91.1797H144.351L130.894 92.2691L63.6289 91.1797Z" fill="#DBDBDB"/>
<path d="M113.266 65.9781H165.63L174.988 68.8864L113.266 65.9781Z" fill="#EBEBEB"/>
<path d="M125.887 94.9645H178.251L187.604 97.8728L125.887 94.9645Z" fill="#EBEBEB"/>
<path d="M114.371 107.738H166.735L176.093 110.646L114.371 107.738Z" fill="#EBEBEB"/>
<path d="M38.2188 65.9781H90.5827L99.9358 68.8864L38.2188 65.9781Z" fill="#DBDBDB"/>
<path d="M105.408 49.2176H53.0495L43.6914 52.1208L105.408 49.2176Z" fill="#EBEBEB"/>
<path d="M108.242 100.513H55.8777L46.5195 103.421L108.242 100.513Z" fill="#EBEBEB"/>
<path d="M105.408 104.834H53.0495L43.6914 107.738L105.408 104.834Z" fill="#DBDBDB"/>
<path d="M165.629 94.9645H207.677L217.035 97.8728L165.629 94.9645Z" fill="#DBDBDB"/>
<path d="M180.309 81.9128H212.918L208.57 79.5365L180.309 81.9128Z" fill="#DBDBDB"/>
<path d="M28.1016 125.147C131.826 124.838 248.177 124.833 351.902 125.147C248.177 125.461 131.826 125.456 28.1016 125.147Z" fill="#263238"/>
<path d="M236.84 196.875L287.157 184.508L351.088 193.415L298.597 206.7L236.84 196.875Z" fill="#DBDBDB"/>
<path d="M236.84 196.875L287.142 184.452C287.142 184.452 351.118 193.298 351.118 193.293L351.762 193.379L351.118 193.547L298.597 206.771C298.597 206.771 236.86 196.87 236.84 196.875ZM236.84 196.875C236.84 196.875 298.694 206.639 298.582 206.634L351.058 193.293V193.542C351.058 193.542 287.076 184.558 287.172 184.563L236.84 196.875Z" fill="#DBDBDB"/>
<path d="M296.598 203.254C299.693 202.302 302.885 201.415 306.088 200.539C309.29 199.662 312.542 198.821 315.805 198.005C319.068 197.19 322.392 196.364 325.726 195.589L330.752 194.428C332.465 194.063 334.142 193.678 335.874 193.334C334.354 193.815 332.743 194.256 331.178 194.722L326.39 196.045C323.198 196.931 319.935 197.767 316.672 198.578C313.409 199.389 310.085 200.219 306.751 200.995C303.417 201.77 300.053 202.545 296.598 203.254Z" fill="#C7C7C7"/>
<path d="M304.91 198.223C308.457 197.007 312.287 195.963 316.168 194.97C320.049 193.977 324.052 193.04 328.318 192.31C324.771 193.531 320.946 194.57 317.06 195.563C313.174 196.556 309.151 197.473 304.91 198.223Z" fill="#C7C7C7"/>
<path d="M281.438 201.243C284.533 200.29 287.725 199.404 290.927 198.527C294.13 197.651 297.382 196.81 300.645 195.994C303.908 195.178 307.232 194.352 310.561 193.577L315.592 192.422C317.299 192.057 318.982 191.672 320.714 191.322C319.194 191.804 317.583 192.25 316.017 192.711L311.23 194.038C308.032 194.92 304.775 195.756 301.512 196.571C298.249 197.387 294.925 198.213 291.591 198.988C288.257 199.763 284.893 200.534 281.438 201.243Z" fill="#C7C7C7"/>
<path d="M279.504 198.806C284.768 197.154 290.296 195.685 295.889 194.246C301.483 192.807 307.188 191.469 313.116 190.289C307.852 191.941 302.324 193.41 296.736 194.849C291.147 196.288 285.452 197.625 279.504 198.806Z" fill="#C7C7C7"/>
<path d="M286.078 194.221C288.981 193.167 292.158 192.29 295.386 191.459C298.613 190.628 301.972 189.878 305.554 189.291C302.651 190.35 299.474 191.221 296.252 192.052C293.03 192.883 289.665 193.633 286.078 194.221Z" fill="#C7C7C7"/>
<path d="M28.9102 144.937L98.7288 131.723L166.1 151.407L96.6312 165.097L28.9102 144.937Z" fill="#EBEBEB"/>
<path d="M28.9102 144.937L98.7339 131.657C98.7339 131.657 166.121 151.291 166.121 151.286L166.627 151.433L166.121 151.534L96.6312 165.173C96.6059 165.173 28.9304 144.952 28.9102 144.952V144.937ZM28.9102 144.937L96.6515 165.031C96.4843 165.067 166.121 151.27 166.065 151.286V151.529L98.7136 131.769C98.8454 131.738 28.8899 144.942 28.9102 144.942V144.937Z" fill="#DBDBDB"/>
<path d="M95.6523 161.085C100.212 160.031 104.808 159.058 109.424 158.08C114.039 157.102 118.69 156.17 123.347 155.248C128.003 154.326 132.685 153.424 137.397 152.567L144.465 151.281C146.841 150.875 149.197 150.45 151.593 150.065C149.324 150.597 147.033 151.078 144.733 151.585L137.812 153.069C133.201 154.052 128.545 154.979 123.894 155.901C119.243 156.823 114.556 157.725 109.844 158.582C105.132 159.438 100.425 160.304 95.6523 161.085Z" fill="#DBDBDB"/>
<path d="M113.547 154.077C118.522 152.795 123.68 151.711 128.853 150.678C134.026 149.644 139.296 148.702 144.707 147.937C139.731 149.218 134.574 150.303 129.4 151.336C124.227 152.37 118.958 153.312 113.547 154.077Z" fill="#DBDBDB"/>
<path d="M88.7695 155.476C92.7469 154.533 96.7799 153.667 100.823 152.806C104.866 151.944 108.93 151.129 113.024 150.313C117.118 149.497 121.216 148.717 125.356 147.972L131.563 146.857C133.655 146.508 135.722 146.138 137.83 145.809C135.849 146.285 133.832 146.721 131.831 147.177L125.776 148.479C121.723 149.345 117.67 150.156 113.576 150.971C109.482 151.787 105.388 152.562 101.249 153.312C97.1093 154.062 92.9749 154.807 88.7695 155.476Z" fill="#DBDBDB"/>
<path d="M85.5195 152.633C89.1929 151.752 92.9219 150.941 96.6662 150.141C100.41 149.34 104.18 148.58 107.96 147.83C111.74 147.08 115.56 146.351 119.38 145.667L125.131 144.653C127.071 144.334 128.992 143.995 130.947 143.696C129.118 144.147 127.249 144.547 125.404 144.978L119.801 146.189C116.066 146.994 112.287 147.749 108.507 148.499C104.727 149.249 100.907 149.973 97.0867 150.662C93.2665 151.351 89.4209 152 85.5195 152.633Z" fill="#DBDBDB"/>
<path d="M68.125 152.578C72.685 151.524 77.2805 150.551 81.8962 149.568C86.5119 148.585 91.1631 147.663 95.8194 146.736C100.476 145.809 105.157 144.917 109.864 144.055L116.958 142.769C119.334 142.368 121.69 141.938 124.086 141.553C121.816 142.09 119.526 142.566 117.226 143.073L110.31 144.542C105.699 145.52 101.043 146.447 96.3919 147.374C91.7407 148.301 87.0541 149.193 82.3421 150.054C77.6301 150.916 72.8978 151.792 68.125 152.578Z" fill="#DBDBDB"/>
<path d="M67.5469 149.208C71.5698 148.256 75.6535 147.379 79.7423 146.508C83.8311 145.636 87.9605 144.81 92.0898 143.974C96.2191 143.138 100.374 142.358 104.559 141.603L110.842 140.473C112.954 140.119 115.052 139.744 117.18 139.414C115.153 139.896 113.127 140.331 111.1 140.798L104.974 142.11C100.891 142.986 96.7613 143.807 92.6319 144.643C88.5026 145.479 84.3429 146.259 80.1578 147.014C75.9727 147.769 71.7978 148.529 67.5469 149.208Z" fill="#DBDBDB"/>
<path d="M54.3594 148.322C58.9194 147.268 63.5148 146.295 68.1356 145.317C72.7564 144.339 77.4026 143.387 82.0791 142.485C86.7556 141.583 91.417 140.661 96.129 139.805L103.197 138.518C105.573 138.112 107.934 137.687 110.326 137.302C108.056 137.834 105.766 138.315 103.471 138.822L96.5546 140.296C91.9439 141.274 87.2876 142.201 82.6314 143.123C77.9751 144.045 73.2935 144.947 68.5815 145.803C63.8695 146.66 59.1372 147.541 54.3594 148.322Z" fill="#DBDBDB"/>
<path d="M70.3555 141.689C75.6501 140.342 81.112 139.197 86.6144 138.102C92.1168 137.008 97.6901 135.999 103.421 135.174C98.1259 136.521 92.6691 137.661 87.1616 138.761C81.6541 139.86 76.0859 140.853 70.3555 141.689Z" fill="#DBDBDB"/>
<path d="M131.215 212.395L219.942 195.604L305.549 220.618L217.272 238.012L131.215 212.395Z" fill="#EBEBEB"/>
<path d="M131.225 212.395L219.942 195.538C219.942 195.538 305.569 220.501 305.569 220.496L306.076 220.643L305.569 220.745L217.272 238.078C217.247 238.083 131.225 212.395 131.225 212.395ZM131.225 212.395L217.303 237.951C217.146 237.951 305.574 220.486 305.534 220.496V220.739L219.922 195.665C220.054 195.624 131.195 212.42 131.215 212.385L131.225 212.395Z" fill="#DBDBDB"/>
<path d="M216.027 232.915C221.808 231.577 227.681 230.326 233.533 229.094C239.385 227.863 245.308 226.673 251.22 225.497C257.133 224.322 263.087 223.182 269.075 222.087L278.059 220.456C281.099 219.949 284.073 219.397 287.118 218.91C284.235 219.589 281.306 220.213 278.403 220.866L269.612 222.731C263.755 223.977 257.837 225.153 251.925 226.328C246.012 227.503 240.059 228.643 234.07 229.733C228.081 230.822 222.097 231.922 216.027 232.915Z" fill="#DBDBDB"/>
<path d="M238.773 224.007C245.097 222.381 251.633 221.003 258.219 219.691C264.806 218.378 271.494 217.157 278.374 216.205C272.051 217.836 265.51 219.214 258.924 220.527C252.337 221.839 245.649 223.035 238.773 224.007Z" fill="#DBDBDB"/>
<path d="M207.281 225.786C212.348 224.59 217.46 223.486 222.598 222.396C227.735 221.307 232.919 220.263 238.102 219.23C243.285 218.196 248.509 217.203 253.768 216.25L261.662 214.832C264.317 214.391 266.946 213.92 269.627 213.504C267.093 214.112 264.56 214.665 262.027 215.242L254.335 216.894C249.203 217.993 244.015 219.027 238.831 220.061C233.648 221.094 228.419 222.087 223.16 223.035C217.901 223.982 212.622 224.96 207.281 225.786Z" fill="#DBDBDB"/>
<path d="M203.172 222.173C207.838 221.054 212.581 220.025 217.359 219.012C222.136 217.998 226.904 217.026 231.707 216.068C236.511 215.11 241.334 214.193 246.218 213.322L253.535 212.015C255.997 211.614 258.434 211.179 260.922 210.799C258.596 211.371 256.225 211.883 253.874 212.425L246.755 213.945C242.013 214.958 237.21 215.926 232.407 216.884C227.603 217.841 222.78 218.758 217.896 219.63C213.011 220.501 208.107 221.413 203.172 222.173Z" fill="#DBDBDB"/>
<path d="M181.047 222.102C186.828 220.765 192.7 219.513 198.552 218.282C204.404 217.051 210.327 215.86 216.24 214.685C222.153 213.509 228.106 212.369 234.08 211.28L243.063 209.649C246.103 209.142 249.077 208.59 252.122 208.129C249.239 208.807 246.311 209.431 243.407 210.084L234.617 211.949C228.76 213.195 222.842 214.371 216.929 215.546C211.016 216.722 205.063 217.862 199.074 218.951C193.085 220.04 187.117 221.109 181.047 222.102Z" fill="#DBDBDB"/>
<path d="M180.316 217.821C185.429 216.615 190.617 215.495 195.815 214.396C201.014 213.297 206.253 212.238 211.522 211.189C216.791 210.14 222.051 209.137 227.371 208.179L235.33 206.72C238.021 206.274 240.681 205.798 243.391 205.372C240.858 205.985 238.249 206.543 235.675 207.13L227.892 208.802C222.699 209.912 217.45 210.961 212.186 212.005C206.921 213.048 201.657 214.031 196.337 215.014C191.017 215.997 185.717 216.96 180.316 217.821Z" fill="#DBDBDB"/>
<path d="M163.559 216.696C169.34 215.359 175.212 214.107 181.064 212.876C186.916 211.645 192.839 210.454 198.752 209.279C204.664 208.103 210.618 206.963 216.607 205.869L225.59 204.237C228.63 203.731 231.604 203.178 234.644 202.692C231.766 203.371 228.838 203.994 225.934 204.648L217.144 206.512C211.287 207.759 205.369 208.934 199.456 210.11C193.543 211.285 187.59 212.425 181.601 213.514C175.612 214.604 169.628 215.703 163.559 216.696Z" fill="#DBDBDB"/>
<path d="M183.883 208.265C190.611 206.558 197.563 205.104 204.54 203.705C211.516 202.307 218.62 201.03 225.901 199.981C219.172 201.694 212.221 203.148 205.239 204.541C198.257 205.935 191.164 207.227 183.883 208.265Z" fill="#DBDBDB"/>
<path d="M348.029 169.84L183.758 215.227V182.511L348.029 137.124C356.734 153.175 348.029 169.84 348.029 169.84Z" fill="#37474F"/>
<path d="M23.457 192.533L183.756 215.227V206.933L38.1149 189.118L23.457 190V192.533Z" fill="#455A64"/>
<path d="M183.76 182.663C189.749 197.078 183.76 215.227 183.76 215.227L31.1875 191.13V162.853L183.76 182.663Z" fill="#455A64"/>
<path d="M179.985 182.177C185.817 196.536 180.467 211.999 180.467 211.999L31.1875 191.013V162.843L179.985 182.177Z" fill="white"/>
<path d="M179.985 182.177C180.182 182.734 180.755 184.305 180.953 184.857C182.138 188.802 182.739 192.899 182.736 197.017C182.758 202.098 182.019 207.153 180.542 212.015C180.613 212.238 31.2021 191.186 31.1515 191.241L30.9336 191.211V191.013V162.843V162.584L31.1869 162.62L105.616 172.363L179.954 182.167L179.985 182.177ZM179.985 182.177C143.383 177.257 66.7904 168.178 31.4099 162.853L31.4352 191.023L31.2173 190.77C31.2173 190.826 180.806 211.842 180.38 211.974C181.137 209.562 181.702 207.093 182.072 204.592C183.202 197.109 182.766 189.255 179.98 182.177H179.985Z" fill="#DBDBDB"/>
<path d="M103.418 175.053C128.326 178.093 156.223 181.843 181.044 185.526C156.137 182.486 128.24 178.732 103.418 175.053Z" fill="#DBDBDB"/>
<path d="M31.1875 173.158C52.5384 175.692 76.2251 178.904 97.5 182.101C76.1339 179.568 52.4574 176.366 31.1875 173.158Z" fill="#DBDBDB"/>
<path d="M34.7461 175.94C71.0285 180.5 111.678 185.982 147.864 191.196C111.587 186.636 70.9373 181.154 34.7461 175.94Z" fill="#DBDBDB"/>
<path d="M54.3594 185.511C91.9946 190.167 134.164 195.761 171.708 201.071C134.078 196.419 91.9084 190.821 54.3594 185.511Z" fill="#DBDBDB"/>
<path d="M79.6562 191.469C112.478 195.573 149.287 200.529 182.033 205.281C149.196 201.187 112.407 196.222 79.6562 191.469Z" fill="#DBDBDB"/>
<path d="M50.1602 191.414C92.2135 196.774 139.333 203.128 181.28 209.101C139.227 203.746 92.1071 197.387 50.1602 191.414Z" fill="#DBDBDB"/>
<path d="M183.761 182.663L348.028 137.124L182.034 129.605L23.457 159.012V161.85L183.761 182.663Z" fill="#455A64"/>
<path d="M187.973 177.658C208.351 171.481 229.281 165.903 250.191 161.085C229.818 167.266 208.888 172.834 187.973 177.658Z" fill="#37474F"/>
<path d="M148.562 174.759C154.237 175.053 160.099 175.712 165.733 176.396C171.368 177.08 177.184 177.916 182.707 179.056C177.032 178.767 171.17 178.103 165.541 177.419C159.912 176.735 154.09 175.874 148.562 174.759Z" fill="#37474F"/>
<path d="M27.8633 159.565C66.4459 163.709 105.338 168.598 143.662 174.136C105.049 170.002 66.1622 165.102 27.8633 159.565Z" fill="#37474F"/>
<path d="M295.387 155.577C311.418 150.541 327.643 145.952 344.062 141.811C328.038 146.847 311.813 151.436 295.387 155.577Z" fill="#455A64"/>
<path d="M210.211 130.624C208.083 131.039 199.297 131.51 199.12 129.61C198.846 126.753 219.858 106.486 227.397 102.676C234.566 99.0483 257.665 91.1341 263.37 90.9619L263.421 109.161C260.193 109.982 234.48 107.474 229.079 110.342C226.733 111.588 223.627 116.756 217.304 124.964C215.08 127.857 211.467 130.375 210.211 130.624Z" fill="#F5A71D"/>
<g opacity="0.3">
<path d="M210.211 130.624C208.083 131.039 199.297 131.51 199.12 129.61C198.846 126.753 219.858 106.486 227.397 102.676C234.566 99.0483 257.665 91.1341 263.37 90.9619L263.421 109.161C260.193 109.982 234.48 107.474 229.079 110.342C226.733 111.588 223.627 116.756 217.304 124.964C215.08 127.857 211.467 130.375 210.211 130.624Z" fill="black"/>
</g>
<path d="M205.845 130.624C203.712 131.039 195.544 131.51 195.362 129.61C195.093 126.753 216.105 106.486 223.639 102.676C230.808 99.0483 257.662 91.1341 263.367 90.9619L263.417 109.161C260.19 109.982 230.727 107.474 225.326 110.342C222.98 111.588 219.246 116.756 212.933 124.964C210.714 127.857 207.101 130.375 205.845 130.624Z" fill="#F5A71D"/>
<g opacity="0.2">
<path d="M205.845 130.624C203.712 131.039 195.544 131.51 195.362 129.61C195.093 126.753 216.105 106.486 223.639 102.676C230.808 99.0483 257.662 91.1341 263.367 90.9619L263.417 109.161C260.19 109.982 230.727 107.474 225.326 110.342C222.98 111.588 219.246 116.756 212.933 124.964C210.714 127.857 207.101 130.375 205.845 130.624Z" fill="black"/>
</g>
<path d="M288.693 154.771C290.527 155.542 297.742 155.932 298.978 154.376C300.843 152.02 278.094 119.963 264.728 114.147C252.228 108.751 75.8829 74.5003 72.245 73.9328L72.1133 88.16C96.6815 92.0005 252.573 116.837 262.215 121.038C268.502 123.769 276.513 138.178 282.268 148.134C284.594 152.177 286.565 153.88 288.693 154.771Z" fill="#F5A71D"/>
<g opacity="0.2">
<path d="M288.693 154.771C290.527 155.542 297.742 155.932 298.978 154.376C300.843 152.02 278.094 119.963 264.728 114.147C252.228 108.751 75.8829 74.5003 72.245 73.9328L72.1133 88.16C96.6815 92.0005 252.573 116.837 262.215 121.038C268.502 123.769 276.513 138.178 282.268 148.134C284.594 152.177 286.565 153.88 288.693 154.771Z" fill="black"/>
</g>
<path d="M285.646 154.771C287.48 155.542 294.695 155.932 295.931 154.376C297.796 152.02 275.214 119.188 261.853 113.372C249.349 107.976 75.8811 74.48 72.2432 73.9328L69.0664 88.16C93.6347 92.0005 249.526 116.837 259.168 121.038C265.455 123.769 273.466 138.178 279.222 148.134C281.547 152.177 283.518 153.88 285.646 154.771Z" fill="#F5A71D"/>
<g opacity="0.1">
<path d="M106.399 80.4992L93.0536 91.9752C81.9525 90.2019 73.4355 88.8592 69.0781 88.1752L72.2499 73.9328C73.2379 74.0848 86.852 76.6941 106.399 80.4992Z" fill="black"/>
<path d="M140.529 99.6563L132.24 98.2933L124.539 84.0459L136.745 86.4576L140.529 99.6563Z" fill="black"/>
<path d="M187.213 96.6011L177.84 105.838L169.516 104.439L176.173 94.3515C179.872 95.098 183.552 95.8478 187.213 96.6011Z" fill="black"/>
<path d="M260.709 112.951L257.482 120.495C255.931 120.06 253.596 119.513 250.591 118.879L248.266 109.683C254.113 111.061 258.429 112.181 260.709 112.951Z" fill="black"/>
</g>
<path d="M105.761 162.225C87.389 161.338 73.41 140.529 74.5956 115.844C75.158 104.064 79.0543 93.1101 85.5599 84.9984C92.2834 76.6181 100.963 72.2203 110.083 72.6813C119.203 73.1424 127.421 78.3104 133.303 87.3037C139.003 95.988 141.83 107.271 141.258 119.062C140.133 142.419 125.815 161.014 108.704 162.194C107.725 162.26 106.742 162.27 105.761 162.225ZM90.2364 88.7579C84.5162 95.8765 81.0658 105.605 80.5591 116.138C79.5458 137.519 90.961 155.511 106.039 156.236C121.118 156.96 134.225 140.154 135.264 118.742C135.771 108.209 133.283 98.2021 128.282 90.5565C123.464 83.2149 116.892 78.9843 109.779 78.6448C109.021 78.5991 108.261 78.5991 107.504 78.6448C101.201 79.1261 95.141 82.6373 90.2364 88.7477V88.7579ZM74.621 118.981C73.6938 100.923 75.7154 98.0957 74.8946 92.7707C74.5044 90.2373 70.9375 87.8053 70.9375 87.8053L74.0535 74.8397C74.0535 74.8397 83.7663 75.7872 86.0058 75.8227C89.9882 75.8784 98.5863 72.9701 106.075 72.7827C106.075 72.7827 89.7956 80.0989 84.5618 89.4267C79.3279 98.7544 74.621 118.97 74.621 118.97V118.981Z" fill="#623CE7"/>
<path opacity="0.1" d="M105.761 162.225C87.389 161.338 73.41 140.529 74.5956 115.844C75.158 104.064 79.0543 93.1101 85.5599 84.9984C92.2834 76.6181 100.963 72.2203 110.083 72.6813C119.203 73.1424 127.421 78.3104 133.303 87.3037C139.003 95.988 141.83 107.271 141.258 119.062C140.133 142.419 125.815 161.014 108.704 162.194C107.725 162.26 106.742 162.27 105.761 162.225ZM90.2364 88.7579C84.5162 95.8765 81.0658 105.605 80.5591 116.138C79.5458 137.519 90.961 155.511 106.039 156.236C121.118 156.96 134.225 140.154 135.264 118.742C135.771 108.209 133.283 98.2021 128.282 90.5565C123.464 83.2149 116.892 78.9843 109.779 78.6448C109.021 78.5991 108.261 78.5991 107.504 78.6448C101.201 79.1261 95.141 82.6373 90.2364 88.7477V88.7579ZM74.621 118.981C73.6938 100.923 75.7154 98.0957 74.8946 92.7707C74.5044 90.2373 70.9375 87.8053 70.9375 87.8053L74.0535 74.8397C74.0535 74.8397 83.7663 75.7872 86.0058 75.8227C89.9882 75.8784 98.5863 72.9701 106.075 72.7827C106.075 72.7827 89.7956 80.0989 84.5618 89.4267C79.3279 98.7544 74.621 118.97 74.621 118.97V118.981Z" fill="black"/>
<path d="M103.262 162.225C84.8851 161.338 70.9061 140.529 72.0917 115.844C72.6541 104.064 76.5504 93.1101 83.056 84.9984C89.7795 76.6181 98.4587 72.2203 107.579 72.6813C116.699 73.1424 124.917 78.3104 130.799 87.3037C136.499 95.988 139.326 107.271 138.754 119.062C137.629 142.419 123.311 161.014 106.201 162.194C105.222 162.26 104.241 162.27 103.262 162.225ZM87.7325 88.7579C82.0123 95.8867 78.5821 105.615 78.0755 116.148C77.0621 137.53 88.4723 155.521 103.551 156.246C118.629 156.97 131.737 140.164 132.775 118.753C133.282 108.219 130.794 98.2123 125.793 90.5667C120.98 83.2251 114.403 78.9944 107.29 78.6549C106.532 78.6093 105.773 78.6093 105.015 78.6549C98.7019 79.1261 92.6371 82.6373 87.7325 88.7477V88.7579ZM72.1171 118.981C71.1899 100.923 73.2115 98.0957 72.3907 92.7707C72.0005 90.2373 68.4336 87.8053 68.4336 87.8053L71.6915 73.3552C71.6915 73.3552 81.5664 75.1032 83.8008 75.1336C87.7832 75.1944 96.0824 72.9701 103.561 72.8029C103.561 72.8029 87.2816 80.1192 82.0477 89.4469C76.8139 98.7747 72.1171 118.97 72.1171 118.97V118.981Z" fill="#623CE7"/>
<path d="M81.4295 79.9672C81.3129 80.864 79.646 81.3808 77.7055 81.1224C75.7649 80.864 74.2956 79.9267 74.4172 79.0349C74.5388 78.1432 76.2007 77.6213 78.1412 77.8797C80.0817 78.1381 81.5713 79.0704 81.4295 79.9672Z" fill="#A6A6A6"/>
<path d="M75.2695 79.0653C75.4266 78.6347 77.1138 78.1483 78.9581 78.6448L75.2695 79.0653Z" fill="white"/>
<path d="M70.932 87.9219C74.4381 89.8877 75.9379 92.7859 75.5427 96.7987C75.1525 103.76 74.3672 110.656 74.3571 117.618C74.3092 121.092 74.5329 124.565 75.0259 128.004C72.7813 119.523 73.4501 110.58 74.2405 101.941L74.7472 96.7531C75.2944 92.872 74.0683 90.2171 70.9219 87.9219H70.932Z" fill="white"/>
<path d="M89.2422 75.9696C94.1062 74.5813 99.1577 73.4363 104.245 73.6643C99.1779 74.1152 94.2582 75.2501 89.2422 75.9696Z" fill="white"/>
<path opacity="0.1" d="M89.2392 89.1176C83.7114 96.2109 80.3978 105.878 79.9013 116.356C78.9133 137.636 89.9586 155.511 104.53 156.236C119.102 156.96 131.774 140.24 132.777 118.97C133.284 108.498 130.867 98.5416 126.033 90.9416C121.377 83.6355 115.023 79.4301 108.143 79.0907C107.411 79.045 106.676 79.045 105.944 79.0907C99.8386 79.5467 93.9816 83.0325 89.2392 89.1176Z" fill="#EBEBEB"/>
<g opacity="0.2">
<path d="M117.2 81.9483L79.8582 120.369C79.8227 119.041 79.8582 117.709 79.9038 116.351C80.0805 112.387 80.6887 108.454 81.7177 104.622L106.544 79.0907C107.051 79.0907 107.613 79.0907 108.15 79.0907C111.358 79.2733 114.469 80.2557 117.2 81.9483Z" fill="white"/>
<path d="M130.21 99.8133L86.7232 144.557C85.9234 143.317 85.1993 142.029 84.5547 140.701L128.488 95.4965C129.143 96.9017 129.718 98.343 130.21 99.8133Z" fill="white"/>
<path d="M131.902 126.545C131.371 129.431 130.595 132.267 129.582 135.022L109.34 155.846C107.76 156.187 106.142 156.318 104.527 156.236C104.071 156.21 103.615 156.175 103.164 156.114L131.902 126.545Z" fill="white"/>
<path d="M131.983 106.699L90.5128 149.365C90.3152 149.173 90.1277 148.97 89.9453 148.762L131.791 105.696C131.867 106.03 131.923 106.37 131.983 106.699Z" fill="white"/>
</g>
<path d="M163.001 120.166L167.055 115.763C160.539 109.734 145.202 101.313 133.711 112.485L137.886 116.782C148.181 106.755 162.398 119.619 163.001 120.166Z" fill="#C31F82"/>
<path d="M201.784 167.707C190.087 165.559 179.721 158.857 172.962 149.072C166.203 139.287 163.603 127.22 165.735 115.52C167.331 106.796 171.479 98.7408 177.653 92.3737C183.827 86.0066 191.751 81.6132 200.422 79.7491C209.093 77.885 218.122 78.6339 226.367 81.9011C234.613 85.1683 241.704 90.807 246.745 98.1044C251.786 105.402 254.55 114.03 254.687 122.898C254.824 131.766 252.329 140.476 247.517 147.926C242.704 155.376 235.791 161.231 227.65 164.752C219.51 168.273 210.509 169.301 201.784 167.707ZM171.632 116.614C170.189 124.566 171.265 132.769 174.711 140.08C178.156 147.39 183.798 153.441 190.85 157.389C197.901 161.337 206.01 162.984 214.042 162.1C222.075 161.216 229.631 157.845 235.656 152.458C241.68 147.071 245.871 139.938 247.644 132.053C249.417 124.169 248.684 115.927 245.546 108.48C242.408 101.033 237.022 94.7516 230.141 90.5136C223.26 86.2756 215.228 84.2925 207.165 84.8413C198.556 85.4431 190.392 88.8919 183.959 94.6443C177.526 100.397 173.189 108.126 171.632 116.614Z" fill="#623CE7"/>
<path d="M249.784 104.434C246.698 94.1893 228.727 82.9261 228.727 82.9261C236.002 84.7147 244.028 88.3525 247.929 89.1632C250.118 89.6141 263.393 90.972 263.393 90.972L263.443 109.171C263.443 109.171 259.795 109.374 258.883 111.761C256.928 116.782 257.916 117.998 253.092 135.417C253.047 135.417 252.824 114.674 249.784 104.434Z" fill="#623CE7"/>
<g opacity="0.1">
<path d="M201.784 167.707C190.087 165.559 179.721 158.857 172.962 149.072C166.203 139.287 163.603 127.22 165.735 115.52C167.331 106.796 171.479 98.7408 177.653 92.3737C183.827 86.0066 191.751 81.6132 200.422 79.7491C209.093 77.885 218.122 78.6339 226.367 81.9011C234.613 85.1683 241.704 90.807 246.745 98.1044C251.786 105.402 254.55 114.03 254.687 122.898C254.824 131.766 252.329 140.476 247.517 147.926C242.704 155.376 235.791 161.231 227.65 164.752C219.51 168.273 210.509 169.301 201.784 167.707ZM171.632 116.614C170.189 124.566 171.265 132.769 174.711 140.08C178.156 147.39 183.798 153.441 190.85 157.389C197.901 161.337 206.01 162.984 214.042 162.1C222.075 161.216 229.631 157.845 235.656 152.458C241.68 147.071 245.871 139.938 247.644 132.053C249.417 124.169 248.684 115.927 245.546 108.48C242.408 101.033 237.022 94.7516 230.141 90.5136C223.26 86.2756 215.228 84.2925 207.165 84.8413C198.556 85.4431 190.392 88.8919 183.959 94.6443C177.526 100.397 173.189 108.126 171.632 116.614Z" fill="black"/>
<path d="M249.788 104.434C246.702 94.1893 228.73 82.9261 228.73 82.9261C236.006 84.7147 244.032 88.3525 247.933 89.1632C250.122 89.6141 263.397 90.972 263.397 90.972L263.447 109.171C263.447 109.171 259.799 109.374 258.887 111.761C256.932 116.782 257.92 117.998 253.096 135.417C253.05 135.417 252.828 114.674 249.788 104.434Z" fill="black"/>
</g>
<path d="M197.796 167.053C186.108 164.905 175.75 158.21 168.992 148.435C162.234 138.661 159.628 126.605 161.746 114.912C163.332 106.178 167.474 98.1108 173.647 91.7314C179.819 85.3519 187.745 80.9469 196.422 79.0738C205.099 77.2007 214.137 77.9437 222.392 81.2087C230.646 84.4737 237.747 90.1141 242.795 97.4159C247.842 104.718 250.611 113.353 250.749 122.229C250.888 131.105 248.39 139.822 243.573 147.278C238.755 154.734 231.834 160.593 223.686 164.114C215.537 167.635 206.527 168.66 197.796 167.058V167.053ZM167.644 115.986C166.194 123.944 167.267 132.156 170.712 139.474C174.157 146.793 179.802 152.852 186.859 156.806C193.915 160.759 202.031 162.41 210.071 161.526C218.111 160.643 225.675 157.269 231.704 151.878C237.734 146.486 241.929 139.345 243.702 131.454C245.476 123.562 244.74 115.313 241.597 107.86C238.454 100.407 233.061 94.1218 226.171 89.8831C219.282 85.6444 211.241 83.6639 203.171 84.2181C194.564 84.8207 186.402 88.2692 179.97 94.0206C173.538 99.772 169.201 107.499 167.644 115.986Z" fill="#623CE7"/>
<path d="M245.772 103.806C242.686 93.5611 224.715 82.2979 224.715 82.2979C231.991 84.0864 240.016 87.7243 243.918 88.5349C246.106 88.9859 259.381 90.3437 259.381 90.3437L259.432 107.008C259.432 107.008 255.784 108.113 254.872 110.494C252.911 115.515 253.899 117.369 249.075 134.814C249.06 134.773 248.858 114.046 245.772 103.806Z" fill="#623CE7"/>
<path d="M253.696 97.8272C253.575 98.724 251.908 99.2408 249.972 98.9824C248.037 98.724 246.557 97.7917 246.679 96.8949C246.8 95.9981 248.467 95.4813 250.403 95.7397C252.338 95.9981 253.838 96.9355 253.696 97.8272Z" fill="#A6A6A6"/>
<path d="M247.531 96.9304C247.688 96.4997 249.376 96.0083 251.22 96.5099L247.531 96.9304Z" fill="white"/>
<path d="M185.352 85.5608C189.193 82.6348 193.899 81.0683 198.728 81.1072C194.168 82.4448 189.78 83.8939 185.352 85.5608Z" fill="white"/>
<path d="M166.379 107.92C168.649 98.8557 176.229 90.1107 184.573 86.032C176.761 91.6053 170.209 99.0837 166.379 107.92Z" fill="white"/>
<path opacity="0.1" d="M169.494 115.986C165.745 137.048 179.415 157.315 199.975 161.161C220.536 165.006 240.306 150.992 244.055 129.935C247.804 108.878 234.13 88.6008 213.569 84.7603C210.477 84.1783 207.324 83.9961 204.186 84.2181C187.298 85.4088 172.666 98.1768 169.494 115.986Z" fill="#EBEBEB"/>
<g opacity="0.2">
<path d="M244.635 124.751L208.514 161.738C205.653 161.87 202.787 161.669 199.972 161.14C198.754 160.914 197.548 160.625 196.359 160.274L243.196 112.298C244.34 116.345 244.826 120.55 244.635 124.751Z" fill="white"/>
<path d="M211.632 84.4512L169.188 127.943C168.686 123.965 168.788 119.934 169.492 115.986C169.664 115.003 169.882 114.025 170.125 113.068L197.09 85.4189C199.41 84.7881 201.786 84.3859 204.184 84.2181C206.668 84.0393 209.164 84.1174 211.632 84.4512Z" fill="white"/>
<path d="M238.481 101.734L186.046 155.44C184.848 154.643 183.699 153.775 182.605 152.841L235.952 98.2072C236.863 99.3326 237.707 100.51 238.481 101.734Z" fill="white"/>
<path d="M222.075 87.4253L172.107 138.599C171.479 137.143 170.941 135.651 170.496 134.13L217.712 85.7533C219.2 86.2196 220.657 86.778 222.075 87.4253Z" fill="white"/>
<path d="M244.149 129.398C244.123 129.575 244.088 129.757 244.058 129.935C244.007 130.249 243.946 130.563 243.88 130.867L214.494 160.983C214.022 161.085 213.541 161.176 213.055 161.257L244.149 129.398Z" fill="white"/>
<path d="M232.967 94.9139L179.402 149.796C179.21 149.593 179.022 149.386 178.84 149.178L232.369 94.3312L232.967 94.9139Z" fill="white"/>
</g>
<g opacity="0.1">
<path d="M285.646 154.771C287.48 155.542 294.695 155.932 295.932 154.376C297.796 152.02 275.214 119.188 261.853 113.372C249.349 107.976 75.8811 74.48 72.2432 73.9328L69.0664 88.16C93.6347 92.0005 249.526 116.837 259.168 121.038C265.455 123.769 273.466 138.178 279.222 148.134C281.547 152.177 283.518 153.88 285.646 154.771Z" fill="black"/>
</g>
</svg>
