<svg width="50" height="50" viewBox="0 0 50 50" fill="none" xmlns="http://www.w3.org/2000/svg">
<g id="fire-02">
<path id="Vector" d="M25 45.8333C33.6294 45.8333 40.625 38.8377 40.625 30.2083C40.625 28.125 40.625 23.9583 36.4583 18.75C36.4583 18.75 36.2508 24.695 32.1379 23.835C25.4856 22.4442 34.0731 9.38117 21.875 4.16667C21.875 14.5833 9.375 17.7083 9.375 30.2083C9.375 38.8377 16.3705 45.8333 25 45.8333Z" fill="#C31F82" stroke="#C31F82" stroke-width="1.5" stroke-linejoin="round"/>
<path id="Vector_2" d="M25.0002 39.5856C29.0272 39.5856 32.2918 35.3883 32.2918 30.2106C25.6252 32.7106 23.2641 26.954 22.9168 22.9167C19.9049 24.0692 17.7085 28.8033 17.7085 31.25C17.7085 36.4277 20.9731 39.5856 25.0002 39.5856Z" fill="#F5A71D" stroke="#F5A71D" stroke-width="1.5" stroke-linejoin="round"/>
</g>
</svg>
